<svg xmlns="http://www.w3.org/2000/svg" viewBox="0 0 30 30"><path d="M25.313 18.75h-1.875a.938.938 0 00-.938.938v6.562H3.75V7.5h8.438a.937.937 0 00.937-.938V4.688a.938.938 0 00-.938-.937H2.813A2.813 2.813 0 000 6.563v20.625A2.812 2.812 0 002.813 30h20.625a2.812 2.812 0 002.812-2.813v-7.5a.938.938 0 00-.938-.937zM28.593 0h-7.5c-1.251 0-1.877 1.518-.995 2.402l2.093 2.094-14.28 14.276a1.406 1.406 0 000 1.992l1.327 1.326a1.405 1.405 0 001.993 0L25.505 7.812l2.093 2.09c.879.88 2.402.264 2.402-.996v-7.5A1.406 1.406 0 0028.594 0z" fill="currentColor"/></svg>
