<svg xmlns="http://www.w3.org/2000/svg" width="1300" height="260" viewBox="0 0 344 69">
  <defs/>
  <path d="M7 28l-1-2-1-2H2v-2h13v2h-2l-1 1v2l1 2 5 14 5-11 1-4 1-2-1-2h-2v-2h10v2h-2l-1 1-1 2-1 2v2l-1 1-8 17h-2zm41-7l6 2 4 2 3 5 1 5-1 6-3 4-4 3-6 1-5-1-5-3-3-4-1-6 1-5 3-5 5-3 5-1zm0 3l-3 1-3 2-2 4v9l2 4 3 2 3 1 4-1 2-2 2-4 1-5-1-4-2-4-2-2-4-1zm21 11l1-2 2-1 2 1 1 2-1 2-2 1-2-1-1-2zm36 10l-5 3-6 1-5-1-4-2-2-5-1-5 1-6 3-5 4-3 6-1 3 1 3 1 2 1 1 2-1 1-2 1h-1l-2-2-2-2h-2q-4 0-6 3l-1 8q0 6 2 9t6 3l4-1 3-3zm19-11l-5 2-3 2-2 2v2l1 3 3 1h2l2-2 2-3v-3zm0-2v-2q0-7-5-7l-2 1h-1v1l-1 2-1 2h-2q-2 0-2-2 0-3 2-4 3-2 8-2t7 2q2 2 2 6v12q0 6 2 6l2-1 1-1 1 2-3 2h-3l-3-1-1-4h-1l-3 4-6 1-5-1-1-5v-2l1-2 3-2 4-2zm20 6l1 4 1 3 3 1 3 1 3-1 2-2 2-4 1-4-1-5-2-4-2-2-3-1-4 1-3 3-1 6zm0-12l4-4 4-1 6 2 4 2 2 5 1 5-1 6-2 4-5 3-5 1-5-1-4-3-3 4h-1V18v-6l-1-1-2-1h-1V9l9-2zm28 9l1-2 2-1 2 1 1 2-1 2-2 1-2-1-1-2zm34-5v-3l-1-2-1-1h-2v-2h9v24l1 1h3v2h-8l-1-6-4 5-6 1h-4l-3-3-1-3V30v-3l-1-2-1-1h-3v-2h10v14l1 8q1 2 4 2 5 0 7-6v-1l1-1v-1-2zm14 5l1-2 3-1 2 1 1 2-1 2-2 1-3-1-1-2zm17 6l1 3v2l2 1h2v2h-14v-2h2l2-1v-2l1-3V19v-4l-1-3-1-1-3-1V9l9-2zm24-7l-5 2-3 2-2 2v2l1 3 3 1h2l2-2 1-3 1-3zm0-2v-2q0-7-5-7l-2 1h-1l-1 1v2l-1 2h-2q-2 0-2-2 0-3 2-4 3-2 8-2t7 2q2 2 2 6v12q0 6 2 6l2-1 1-1v2l-2 2h-3l-4-1-1-4-4 4-5 1-5-1q-2-2-2-5l1-2 1-2 3-2 4-2zm22 9v5l2 1h2v2h-14v-2h3l1-1 1-2v-9-5l-1-3-1-1h-3v-2l9-2 1 6 2-2 2-3 2-1 3-1 2 1 1 2v2l-3 1h-1l-1-1h-1-1l-2 1q-2 2-2 5l-1 3v4zm17-6l1-2 2-1 2 1 1 2-1 2-2 1-2-1-1-2zm24 22q-2 5-7 5-3 0-3-2l1-2 3-1 2-1h1l1-1 1-2 2-4-10-21-1-2-1-1-1-1h-2v-2h14v2l-4 1 1 2 1 3 5 14h1l4-12 1-2 1-2v-1-1-2h-3v-2h11v2h-2l-1 1-1 3-3 4z"/>
</svg>