<svg viewBox="0 0 30 30" xmlns="http://www.w3.org/2000/svg"><path d="M29.063 22.5H9.375v-.938a.94.94 0 00-.938-.937H6.563a.94.94 0 00-.938.938v.937H.937a.94.94 0 00-.937.938v1.875a.94.94 0 00.938.937h4.687v.938a.94.94 0 00.938.937h1.875a.94.94 0 00.937-.938v-.937h19.688a.94.94 0 00.937-.938v-1.875a.94.94 0 00-.938-.937zm0-9.375h-4.688v-.938a.94.94 0 00-.938-.937h-1.875a.94.94 0 00-.937.938v.937H.937a.94.94 0 00-.937.938v1.874a.94.94 0 00.938.938h19.687v.938a.94.94 0 00.938.937h1.875a.94.94 0 00.937-.938v-.937h4.688a.94.94 0 00.937-.938v-1.874a.94.94 0 00-.938-.938zm0-9.375H16.874v-.938a.94.94 0 00-.938-.937h-1.874a.94.94 0 00-.938.938v.937H.937A.94.94 0 000 4.688v1.875a.94.94 0 00.938.937h12.187v.938a.94.94 0 00.938.937h1.874a.94.94 0 00.938-.938V7.5h12.188A.94.94 0 0030 6.562V4.688a.94.94 0 00-.938-.937z" fill="currentColor"/></svg>
