<?xml version="1.0" encoding="utf-8"?><svg xmlns="http://www.w3.org/2000/svg" width="100%" height="100%" viewBox="0 0 512 123"><title>Creative Commons logo</title><path d="M133.629,122.344c-10.296-1.596-16.985-7.559-19.547-17.428c-1.228-4.723-0.837-13.805,0.771-18.016c2.273-5.947,5.899-9.988,11.417-12.727c6.943-3.443,15.968-3.428,23.303,0.042c3.017,1.427,7.382,5.375,8.646,7.82l0.741,1.434l-5.523,2.869c-5.076,2.637-5.548,2.79-5.834,1.889c-0.54-1.7-4.615-5.045-6.602-5.418c-5.074-0.951-9.119,1.041-11.413,5.625c-0.98,1.959-1.294,3.498-1.453,7.134c-0.451,10.316,3.425,15.918,11.032,15.938c4,0.01,6.793-1.438,8.672-4.496c0.698-1.137,1.444-2.071,1.659-2.08c0.584-0.02,9.505,4.521,9.505,4.838c0,1.925-6.16,8.099-10.042,10.064C144.22,122.234,138.73,123.134,133.629,122.344z"/><path d="M192.495,72.399c-3.537-0.846-11.084-0.837-14.717,0.016c-6.612,1.553-12.669,6.15-15.525,11.79c-3.784,7.467-3.619,18.862,0.381,26.368c2.862,5.368,8.899,9.763,15.145,11.023c1.535,0.311,3.248,0.669,3.807,0.799c1.722,0.396,9.504-0.185,12.179-0.908c9.414-2.545,15.563-9.741,17.004-19.896C212.843,86.972,205.693,75.551,192.495,72.399z M189.848,110.726c-2.729,1.14-7.295,1.015-9.892-0.271c-4.291-2.125-6.602-7.875-6.102-15.189c0.307-4.48,1.328-7.215,3.57-9.546c2.147-2.232,4.428-3.135,7.902-3.121c5.021,0.021,8.167,2.116,10.279,6.848c0.918,2.056,1.126,3.436,1.111,7.352C196.688,104.408,194.539,108.766,189.848,110.726z"/><path d="M391.173,71.734c-7.696,0-13.799,2.171-18.521,6.587c-7.301,6.829-9.366,20.817-4.585,31.039c2.917,6.231,8.846,10.833,15.772,12.239c1.52,0.31,3.221,0.665,3.779,0.793c1.71,0.391,9.488-0.203,12.258-0.935c10.917-2.888,17.174-11.932,17.064-24.661C416.805,81.079,407.196,71.734,391.173,71.734z M402.619,99.842c-0.754,5.736-2.723,9.07-6.313,10.701c-4.799,2.179-11.304,0.715-13.838-3.112c-4.975-7.518-2.999-20.619,3.592-23.809c3.931-1.903,9.901-1.137,12.894,1.654C401.865,87.992,403.385,94.028,402.619,99.842z"/><path d="M484.547,122.324c-5.231-0.693-10.174-2.908-14.853-6.652l-3.18-2.545l4.378-3.839l4.379-3.839l2.101,1.668c4.484,3.562,8.215,4.967,13.178,4.967c5.44,0,8.559-2.146,7.756-5.344c-0.465-1.852-2.391-2.662-10.961-4.613c-4.151-0.945-8.7-2.215-10.109-2.82c-6.775-2.916-9.295-10.112-6.125-17.508c2.74-6.392,9.702-10.069,19.02-10.05c6.671,0.015,13.473,1.925,19.116,5.37l2.369,1.445l-4.399,4.262l-4.399,4.261l-1.269-1.151c-3.485-3.165-12.626-4.938-16.025-3.106c-3,1.615-2.691,4.781,0.6,6.156c0.959,0.4,4.31,1.287,7.443,1.969c11.163,2.429,14.784,4.203,17.104,8.381c1.704,3.071,1.786,9.199,0.171,12.763c-1.286,2.839-4.422,6.089-7.281,7.547C498.796,122.072,490.97,123.176,484.547,122.324z"/><path d="M97.855,38.69c-8.923-13.42-23.369-22.039-39.49-23.564c-16.542-1.565-32.093,4.106-43.234,15.768C8.338,38.005,3.902,45.935,1.301,55.623C0.15,59.904-0.011,61.492,0,68.379c0.01,6.871,0.182,8.506,1.356,12.939c5.126,19.334,20.212,34.174,39.659,39.014c1.674,0.417,3.73,0.853,4.567,0.969c3.705,0.513,12.668,0.298,16.66-0.4c16.435-2.865,31.037-13.469,38.531-27.98C109.519,75.991,108.361,54.489,97.855,38.69z M95.672,79.605c-4.294,15.913-17.359,28.056-33.849,31.459c-25.709,5.307-50.76-14.145-52.357-40.656C8.433,53.285,18.8,36.105,34.717,28.563c6.027-2.856,10.88-3.901,18.224-3.926c7.064-0.022,10.984,0.701,17.147,3.168c12.372,4.955,22.069,16.173,25.636,29.657C97.216,63.103,97.19,73.978,95.672,79.605z"/><path d="M32.331,83.797c-4.864-1.725-8.595-6.787-9.251-12.557c-0.976-8.552,2.242-15.192,8.802-18.172c3.555-1.613,10.012-1.576,13.848,0.082c2.329,1.007,6.705,4.959,6.705,6.057c0,0.18-1.512,1.072-3.357,1.982l-3.358,1.655l-1.792-1.792c-1-1-2.529-1.931-3.459-2.104c-2.306-0.435-5.067,0.593-6.316,2.347c-2.065,2.902-2.208,10.489-0.252,13.475c1.015,1.549,2.72,2.635,4.328,2.758c3.381,0.26,4.234-0.032,6.234-2.136l2.018-2.12l2.599,1.43c1.429,0.787,2.805,1.617,3.058,1.846c0.877,0.79-3.144,4.894-6.379,6.51c-2.749,1.374-3.615,1.558-7.229,1.521C36.266,84.555,33.479,84.204,32.331,83.797z"/><path d="M63.286,83.797c-4.796-1.701-8.464-6.604-9.252-12.369c-1.143-8.352,2.224-15.371,8.803-18.358c3.817-1.733,10.29-1.601,14.159,0.293c2.395,1.171,6.394,4.847,6.394,5.876c0,0.175-1.567,1.077-3.485,2.004l-3.484,1.687l-1.804-1.969c-1.622-1.771-2.054-1.969-4.276-1.969c-3.059,0-5.027,1.202-6.089,3.719c-0.95,2.252-1.07,7.773-0.224,10.289c1.723,5.114,8.009,6.326,11.577,2.232l1.604-1.84l3.091,1.562c1.7,0.857,3.091,1.705,3.091,1.882c0,1.16-3.994,4.881-6.681,6.223c-2.75,1.374-3.615,1.558-7.229,1.521C67.222,84.555,64.435,84.204,63.286,83.797z"/><path d="M214.316,97.051V72.946h7.105h7.104v1.738v1.739l2.908-1.751c3.858-2.322,6.179-2.934,11.048-2.904c4.852,0.027,7.699,1.108,10.872,4.127l2.139,2.033l1.683-1.478c3.768-3.31,10.687-5.344,16.01-4.711c5.684,0.676,9.327,2.753,11.296,6.437c1.116,2.087,1.141,2.51,1.286,22.554l0.148,20.426h-7.103h-7.1l-0.152-16.62c-0.137-14.749-0.254-16.804-1.05-18.26c-2.448-4.48-9.854-4.195-12.396,0.477c-0.812,1.488-0.931,3.461-1.082,18.037l-0.173,16.366h-7.062h-7.063v-16.771c0-18.413-0.086-18.997-3.027-20.519c-2.108-1.09-6.009-0.98-7.985,0.225c-3.137,1.912-3.196,2.297-3.196,20.548v16.519h-7.104h-7.105V97.051z"/><path d="M290.438,97.051V72.946h7.104h7.104v2.075v2.074l1.646-1.385c3.639-3.061,10.365-4.746,15.305-3.832c3.852,0.711,6.063,1.822,8.274,4.156l1.837,1.938l1.839-1.455c4.926-3.901,11.062-5.601,16.88-4.673c4.137,0.66,6.497,1.691,8.537,3.731c3.28,3.281,3.266,3.17,3.435,25.405l0.153,20.172h-7.093h-7.094l-0.171-16.366c-0.188-18.248-0.37-19.337-3.5-20.955c-2.515-1.301-6.659-0.807-8.567,1.021c-2.244,2.149-2.554,4.733-2.554,21.354v14.945h-7.079h-7.08l-0.151-17.127c-0.138-15.5-0.239-17.255-1.063-18.473c-1.28-1.885-3.41-2.629-6.737-2.353c-3.543,0.294-5.689,2.17-6.341,5.54c-0.235,1.219-0.438,9.011-0.45,17.313l-0.022,15.098h-7.104h-7.104V97.051H290.438z"/><path d="M420.858,97.051V72.946h7.104h7.104v2.075v2.074l1.545-1.301c6.726-5.658,20.117-5.459,24.561,0.365c2.666,3.494,2.821,4.918,2.821,25.792v19.203h-7.104h-7.104v-16.509c0-18.195-0.158-19.298-2.979-20.757c-2.319-1.198-6.166-1.028-8.237,0.365c-3.177,2.139-3.229,2.457-3.41,20.533l-0.164,16.366h-7.067h-7.066V97.051H420.858z"/><path d="M134.897,66.525c-8.16-0.755-15.515-5.398-18.764-11.85c-2.687-5.335-3.654-15.282-2.066-21.247c2.15-8.08,7.884-14.289,15.291-16.563c8.332-2.558,18.323-0.875,24.405,4.107c1.98,1.622,5.594,6.176,5.162,6.501c-0.708,0.535-10.187,5.38-10.524,5.38c-0.234,0-1.028-0.909-1.764-2.021c-3.668-5.543-12.555-5.519-16.163,0.045c-1.863,2.873-2.604,6.603-2.335,11.736c0.424,8.081,3.869,12.528,10.05,12.976c1.62,0.117,3.753-0.054,4.742-0.38c1.668-0.551,4.395-3.115,5.735-5.396c0.546-0.931,0.799-0.863,5.455,1.433c2.686,1.324,4.882,2.603,4.882,2.842c0,0.771-2.82,4.34-4.928,6.237C149.036,64.861,141.887,67.172,134.897,66.525z"/><path d="M238.677,44.02v-2.237c0-3.109-1.222-9.16-2.507-12.409c-3.275-8.283-9.864-12.989-19.039-13.601c-4.673-0.312-10.202,0.664-13.916,2.454c-5.064,2.442-9.501,8.551-10.992,15.136c-3.963,17.499,3.695,30.939,18.791,32.979c9.984,1.348,19.813-2.311,24.949-9.288c1.23-1.672,2.168-3.248,2.083-3.504s-2.372-1.647-5.081-3.094l-4.926-2.629l-3.157,3.494c-3.518,3.892-5.33,4.884-8.899,4.867c-5.837-0.027-9.39-3.493-10.526-10.266l-0.319-1.903h16.771H238.677z M205.056,35.393l0.328-1.641c1.301-6.5,9.278-9.771,14.916-6.115c2.154,1.396,3.414,3.355,3.981,6.193l0.313,1.563h-9.769H205.056z"/><path d="M286.079,64.445c-0.226-0.488-0.543-9.338-0.707-19.664c-0.293-18.345-0.327-18.832-1.486-21.202c-2.442-4.996-7.472-7.307-17.014-7.819c-9.037-0.483-14.89,0.953-18.999,4.666c-2.172,1.962-4.122,6.169-4.122,8.896v1.503h6.794h6.794l0.327-1.745c0.666-3.548,5.231-5.59,9.703-4.338c3.232,0.904,4.03,2.033,4.034,5.699l0.004,3.066l-6.899,1.163c-13.248,2.236-18.914,5.164-21.787,11.262c-1.514,3.214-1.577,9.072-0.134,12.324c1.801,4.06,6.205,7.211,11.313,8.103c5.193,0.903,12.663-0.873,16.123-3.835c2.42-2.071,2.652-2.124,2.661-0.616c0.003,0.628,0.146,1.655,0.313,2.283c0.296,1.11,0.489,1.143,6.897,1.143C285.99,65.334,286.456,65.266,286.079,64.445z M271.104,48.602c-0.643,2.99-2.882,5.867-5.381,6.912c-0.903,0.377-2.756,0.686-4.119,0.687c-6.295,0-8.896-6.217-4.09-9.773c1.201-0.889,11.97-4.42,13.514-4.432C271.828,41.989,271.862,45.067,271.104,48.602z"/><path d="M306.272,66.317c-4.563-0.807-7.3-2.859-9.083-6.819c-0.805-1.785-0.935-3.91-1.075-17.635l-0.16-15.605h-3.539h-3.54l0.146-4.187l0.147-4.188l3.425-0.149l3.426-0.149v-6.828V3.93h7.104h7.104v6.852v6.851h4.313h4.313v4.293v4.293l-4.187,0.147l-4.188,0.146l-0.146,11.672c-0.082,6.421-0.013,12.428,0.154,13.351c0.496,2.748,1.813,3.649,5.321,3.649h3.044v5.582v5.583l-2.41,0.006c-1.324,0.002-3.552,0.102-4.946,0.221C310.103,66.694,307.752,66.578,306.272,66.317z"/><path d="M424.111,48.089c-0.304-0.005-1.591,1.328-2.86,2.962c-2.76,3.556-5.657,5.154-9.308,5.138c-5.05-0.022-9.382-3.559-10.11-8.255c-0.184-1.175-0.445-2.536-0.583-3.024c-0.235-0.834,0.794-0.889,16.603-0.889h16.854l-0.295-3.934C433.131,22.99,422.619,13.732,407.06,16c-10.157,1.481-16.605,7.502-18.974,17.715c-0.984,4.238-1.091,11.703-0.225,15.382c2.256,9.558,9.203,15.85,19.041,17.243c6.067,0.86,12.31-0.16,17.55-2.87c3.558-1.838,6.015-4.087,8.493-7.776l1.532-2.281l-4.907-2.656C426.873,49.294,424.416,48.094,424.111,48.089z M401.297,33.997c1.559-6.426,8.349-9.736,14.241-6.94c2.184,1.037,4.224,3.885,4.646,6.488l0.301,1.848h-9.764h-9.764L401.297,33.997z"/><path d="M162.677,41.102l0.132-24.23l6.951-0.142l6.951-0.142l0.154,2.532l0.153,2.532l2.197-1.479c2.062-1.388,5.353-2.561,9.048-3.226c2.085-0.375,2.203-0.017,2.203,6.745v5.471l-3.933,0.615c-2.164,0.339-4.883,1.064-6.042,1.614c-3.618,1.714-3.728,2.271-3.728,19.173v14.768h-7.108h-7.11L162.677,41.102z"/><polygon points="324.438,40.961 324.438,16.588 331.417,16.729 338.395,16.87 338.525,41.102 338.658,65.334 331.549,65.334 324.438,65.334 "/><path d="M349.705,41.863c-4.375-12.909-8.024-23.813-8.11-24.232c-0.131-0.645,0.987-0.783,7.271-0.899c5.664-0.107,7.479,0.013,7.656,0.507c0.127,0.355,2.025,8.013,4.219,17.014c2.192,9.001,4.112,16.363,4.269,16.36c0.155-0.004,2.126-7.598,4.379-16.874l4.098-16.867l7.447-0.141c4.46-0.085,7.448,0.053,7.448,0.341c0,0.266-2.995,9.233-6.655,19.932s-7.334,21.449-8.164,23.891l-1.511,4.441h-7.195h-7.194L349.705,41.863z"/><polygon points="324.438,5.974 324.438,0.377 331.561,0.377 338.683,0.377 338.539,5.832 338.395,11.287 331.417,11.429 324.438,11.57 "/></svg>