<svg viewBox="0 0 30 30" xmlns="http://www.w3.org/2000/svg"><path fill-rule="evenodd" clip-rule="evenodd" d="M15 30C6.716 30 0 23.284 0 15 0 6.716 6.716 0 15 0c8.284 0 15 6.716 15 15 0 8.284-6.716 15-15 15zM11.29 6.054C12.25 6.01 12.557 6 15 6c2.445 0 2.751.01 3.711.054.958.044 1.613.196 2.185.419.592.23 1.094.537 1.594 1.038.5.5.809 1.002 1.039 1.594.222.573.374 1.227.418 2.185.044.96.054 1.267.054 3.711 0 2.445-.01 2.751-.054 3.711-.044.958-.196 1.613-.418 2.185a4.412 4.412 0 01-1.039 1.594c-.5.5-1.002.809-1.594 1.039-.572.222-1.227.374-2.185.418-.96.044-1.266.054-3.71.054-2.446 0-2.752-.01-3.712-.054-.958-.044-1.612-.196-2.185-.418a4.412 4.412 0 01-1.594-1.039c-.5-.5-.808-1.002-1.038-1.594-.223-.572-.375-1.227-.419-2.185-.044-.96-.054-1.266-.054-3.71 0-2.446.01-2.752.054-3.712.044-.958.196-1.612.419-2.185A4.412 4.412 0 017.51 7.511c.5-.5 1.002-.808 1.594-1.038.573-.223 1.227-.375 2.185-.419zm7.348 1.62c-.949-.043-1.234-.052-3.637-.052s-2.688.009-3.637.052c-.878.04-1.354.187-1.671.31-.42.164-.72.359-1.035.674-.315.315-.51.614-.674 1.035-.123.317-.27.793-.31 1.67-.043.95-.052 1.235-.052 3.638 0 2.403.009 2.688.052 3.637.04.878.187 1.354.31 1.672.164.42.359.72.674 1.035.315.315.614.51 1.035.673.317.123.793.27 1.67.31.95.043 1.235.052 3.638.052 2.404 0 2.688-.009 3.637-.052.878-.04 1.354-.187 1.672-.31.42-.163.72-.358 1.035-.673.315-.315.51-.615.673-1.035.123-.317.27-.794.31-1.672.043-.949.052-1.234.052-3.637s-.009-2.688-.052-3.637c-.04-.878-.187-1.354-.31-1.671a2.788 2.788 0 00-.673-1.035 2.788 2.788 0 00-1.035-.674c-.317-.123-.794-.27-1.672-.31zm-6.637 7.327a3 3 0 106.001 0 3 3 0 00-6 0zm-1.621 0a4.622 4.622 0 119.244 0 4.622 4.622 0 01-9.244 0zm10.506-4.805a1.08 1.08 0 11-2.16 0 1.08 1.08 0 012.16 0z" fill="currentColor"/></svg>
