<svg viewBox="0 0 30 30" xmlns="http://www.w3.org/2000/svg"><path d="M29.531 15c0 8.027-6.506 14.531-14.531 14.531S.469 23.027.469 15C.469 6.978 6.975.469 15 .469S29.531 6.978 29.531 15zM15.39 5.273c-3.193 0-5.23 1.346-6.83 3.736a.704.704 0 00.16.953l2.033 1.542c.305.23.74.176.977-.125 1.046-1.327 1.764-2.097 3.357-2.097 1.197 0 2.678.77 2.678 1.93 0 .878-.725 1.329-1.906 1.992-1.379.772-3.203 1.734-3.203 4.14v.234c0 .388.315.703.703.703h3.282a.703.703 0 00.703-.703V17.5c0-1.668 4.874-1.737 4.874-6.25 0-3.399-3.525-5.977-6.828-5.977zM15 19.805c-1.486 0-2.695 1.209-2.695 2.695s1.209 2.695 2.695 2.695 2.695-1.209 2.695-2.695-1.209-2.695-2.695-2.695z" fill="currentColor"/></svg>
