<svg viewBox="0 0 30 30" xmlns="http://www.w3.org/2000/svg"><path d="M26.786 0H3.214A3.214 3.214 0 000 3.214v23.572A3.214 3.214 0 003.214 30h23.572A3.214 3.214 0 0030 26.786V3.214A3.214 3.214 0 0026.786 0zM7.5 25.714a3.214 3.214 0 110-6.428 3.214 3.214 0 010 6.428zm10.55 0h-2.3a.766.766 0 01-.766-.712c-.35-5.36-4.637-9.637-9.986-9.986a.766.766 0 01-.712-.766v-2.3c0-.437.366-.788.803-.764 7.402.4 13.326 6.33 13.725 13.725a.765.765 0 01-.765.803zm6.898 0H22.65a.767.767 0 01-.765-.739c-.375-9.143-7.715-16.484-16.86-16.859a.768.768 0 01-.738-.765v-2.3c0-.431.357-.78.789-.765 11.239.404 20.237 9.455 20.639 20.639a.764.764 0 01-.766.79z" fill="currentColor"/></svg>
