<svg viewBox="0 0 30 30" xmlns="http://www.w3.org/2000/svg"><path fill-rule="evenodd" clip-rule="evenodd" d="M15 30c8.284 0 15-6.716 15-15 0-8.284-6.716-15-15-15C6.716 0 0 6.716 0 15c0 8.284 6.716 15 15 15zm4.74-17.638c0 1.156-.945 2.1-2.102 2.1-1.156 0-2.1-.944-2.1-2.1V7.1c0-1.156.944-2.101 2.1-2.101 1.157 0 2.101.945 2.101 2.101v5.26zM10.26 7.1c0 1.156.945 2.101 2.102 2.101h2.1V7.101A2.106 2.106 0 0012.363 5a2.106 2.106 0 00-2.101 2.101zM9.203 17.638a2.106 2.106 0 01-2.101 2.101A2.106 2.106 0 015 17.64c0-1.157.945-2.101 2.101-2.101h2.101v2.1zm1.059 0c0-1.156.944-2.1 2.1-2.1 1.157 0 2.101.944 2.101 2.1V22.9a2.106 2.106 0 01-2.1 2.101 2.106 2.106 0 01-2.101-2.101v-5.26zm2.1-7.377c1.157 0 2.101.944 2.101 2.1 0 1.157-.944 2.101-2.1 2.101H7.1A2.106 2.106 0 015 12.363c0-1.157.945-2.101 2.101-2.101h5.26zm10.538 0c-1.156 0-2.1.944-2.1 2.1v2.101h2.1a2.106 2.106 0 002.101-2.1 2.106 2.106 0 00-2.101-2.101zm-3.16 12.638c0-1.156-.944-2.1-2.1-2.1h-2.101v2.1c0 1.156.944 2.101 2.1 2.101a2.106 2.106 0 002.101-2.101zm-2.1-3.16c-1.157 0-2.101-.944-2.101-2.1 0-1.157.944-2.101 2.1-2.101H22.9c1.156 0 2.101.944 2.101 2.1a2.106 2.106 0 01-2.101 2.101h-5.26z" fill="currentColor"/></svg>
