<svg viewBox="0 0 30 30" fill="none" xmlns="http://www.w3.org/2000/svg"><g clip-path="url(#clip0)"><path fill-rule="evenodd" clip-rule="evenodd" d="M15.0002 3.63838C10.8325.33004 4.30029 1.19329 1.29655 6.16547.29923 7.81638-.07535 9.73579.01267 11.6414c.1527 3.3055 1.56346 6.1948 3.63568 8.6882 2.7903 3.3574 6.82425 5.9958 11.26365 7.9646l.0082.0036c.0171.0075.0552.0243.08.0355.027-.0115.0743-.033.0888-.0395 4.4166-1.9688 8.473-4.6074 11.2631-7.9642 2.0724-2.4933 3.483-5.3827 3.6357-8.6882.088-1.90561-.2865-3.82503-1.2839-5.47594C25.7002 1.19328 19.168.33003 15.0002 3.63838zM12.982 14.2187l1.8973.9512c-.3508.8318-1.2265 1.6032-2.0146 2.0029-1.0184.5164-2.2159.5729-3.31566.3298-2.25552-.4988-3.30552-2.4098-3.34468-4.6221-.03831-2.1642 1.05419-4.17103 3.21116-4.75491 2.02708-.54871 4.41848.12092 5.43888 2.08991l-2.0717 1.0741c-.2374-.5592-.6817-1.1811-1.7244-1.2357-1.63178-.08531-2.10943 1.5106-2.05294 2.8924.04135 1.0116.36337 2.2176 1.45134 2.5191 1.386.3841 1.8658-.2741 2.5253-1.2467zm8.944 0l1.8973.9512c-.3508.8318-1.2265 1.6032-2.0146 2.0029-1.0184.5164-2.2159.5729-3.3157.3298-2.2555-.4988-3.3055-2.4098-3.3446-4.6221-.0383-2.1642 1.0541-4.17103 3.2111-4.75491 2.0271-.54871 4.4185.12092 5.4389 2.08991l-2.0717 1.0741c-.2374-.5592-.6817-1.1811-1.7244-1.2357-1.6318-.08531-2.1094 1.5106-2.0529 2.8924.0413 1.0116.3633 2.2176 1.4513 2.5191 1.386.3841 1.8658-.2741 2.5253-1.2467z" fill="currentColor"/></g><defs><clipPath id="clip0"><path fill="#fff" d="M0 0h30v30H0z"/></clipPath></defs></svg>