<svg viewBox="0 0 30 30" fill="none" xmlns="http://www.w3.org/2000/svg"><g clip-path="url(#clip0)"><path fill-rule="evenodd" clip-rule="evenodd" d="M21.7545 3.93018c-2.5806-.36819-4.8093.58221-6.7175 2.6721l-.015.01655c-.0102.01119-.0217.02385-.0218.02384 0 0-.018-.0198-.0288-.03173-.0039-.00424-.0069-.00748-.0078-.00848-1.9081-2.09001-4.1369-3.04049-6.71757-2.67228-2.6635.38003-4.93127 2.30588-5.7375 4.90156-.62038 1.99726-.36286 4.23426.46791 6.27416 1.29211 3.1726 5.11034 7.6823 12.02376 10.8352 6.9135-3.1529 10.7317-7.6626 12.0238-10.8352.8308-2.0399 1.0883-4.2769.468-6.27416-.8063-2.59568-3.074-4.52153-5.7375-4.90156zM1.29655 6.16547C4.30029 1.19329 10.8325.33004 15.0002 3.63838c4.1678-3.30835 10.7-2.4451 13.7037 2.52708.9974 1.65091 1.3719 3.57033 1.2839 5.47594-.1527 3.3055-1.5633 6.1949-3.6357 8.6882-2.7901 3.3568-6.8465 5.9954-11.2631 7.9642-.0145.0065-.0618.028-.0888.0395a9.81399 9.81399 0 00-.08-.0355l-.0082-.0036c-4.4394-1.9688-8.47335-4.6072-11.26365-7.9646C1.57613 17.8362.16537 14.9469.01267 11.6414c-.08802-1.90561.28656-3.82502 1.28388-5.47593zM12.982 14.2187l1.8973.9512c-.3508.8318-1.2265 1.6032-2.0146 2.0029-1.0184.5164-2.2159.573-3.31565.3298-2.25553-.4988-3.30553-2.4098-3.34469-4.6221-.0383-2.1642 1.05419-4.17101 3.21116-4.75489 2.02708-.5487 4.41848.12092 5.43888 2.08989l-2.0717 1.0741c-.2374-.5591-.6817-1.1811-1.7244-1.2356-1.63178-.08539-2.10943 1.5105-2.05294 2.8923.04136 1.0116.36337 2.2176 1.45134 2.5191 1.386.3841 1.8658-.2741 2.5253-1.2467zm8.944 0l1.8973.9512c-.3508.8318-1.2265 1.6032-2.0146 2.0029-1.0184.5164-2.2159.573-3.3157.3298-2.2555-.4988-3.3055-2.4098-3.3446-4.6221-.0383-2.1642 1.0542-4.17101 3.2111-4.75489 2.0271-.5487 4.4185.12092 5.4389 2.08989l-2.0717 1.0741c-.2374-.5591-.6817-1.1811-1.7244-1.2356-1.6318-.08539-2.1094 1.5105-2.0529 2.8923.0413 1.0116.3633 2.2176 1.4513 2.5191 1.386.3841 1.8658-.2741 2.5253-1.2467z" fill="currentColor"/></g><defs><clipPath id="clip0"><path fill="#fff" d="M0 0h30v30H0z"/></clipPath></defs></svg>