<svg viewBox="0 0 30 30" xmlns="http://www.w3.org/2000/svg"><path d="M2.8125 7.73438h24.375c.5178 0 .9375-.41971.9375-.9375V4.45312c0-.51779-.4197-.9375-.9375-.9375H2.8125c-.51779 0-.9375.41971-.9375.9375v2.34376c0 .51779.41971.9375.9375.9375zm0 9.37502h24.375c.5178 0 .9375-.4197.9375-.9375v-2.3438c0-.5178-.4197-.9375-.9375-.9375H2.8125c-.51779 0-.9375.4197-.9375.9375v2.3438c0 .5178.41971.9375.9375.9375zm0 9.375h24.375c.5178 0 .9375-.4197.9375-.9375v-2.3438c0-.5178-.4197-.9375-.9375-.9375H2.8125c-.51779 0-.9375.4197-.9375.9375v2.3438c0 .5178.41971.9375.9375.9375z" fill="currentColor"/></svg>
