<svg xmlns="http://www.w3.org/2000/svg" viewBox="0 0 30 30"><path d="M27.913 21.06c0 .42-.36.6-.78.78-1.68.72-3.48 1.38-5.4 1.38-2.7 0-3.96-1.68-7.2-1.68-2.34 0-4.8.84-6.78 1.74-.12.06-.24.06-.36.12v4.56c0 1.254-.945 2.04-1.98 2.04-1.14 0-2.04-.9-2.04-2.04V6c-.78-.6-1.32-1.56-1.32-2.64 0-1.86 1.5-3.36 3.36-3.36 1.86 0 3.36 1.5 3.36 3.36 0 1.08-.48 2.04-1.32 2.64v1.86c.241-.08 3.443-1.68 6.72-1.68 3.824 0 5.723 1.62 7.44 1.62 2.28 0 4.8-1.62 5.4-1.62.48 0 .9.36.9.78v14.1z" fill="currentColor"/></svg>
