<svg xmlns="http://www.w3.org/2000/svg" viewBox="0 0 30 30"><path d="M10.034 24.156c0 .124-.139.223-.314.223-.2.019-.339-.08-.339-.223 0-.124.14-.223.315-.223.181-.019.338.08.338.223zm-1.88-.28c-.043.125.078.267.26.305.157.062.338 0 .374-.124.037-.124-.078-.267-.26-.323-.157-.043-.332.019-.375.143zm2.673-.105c-.176.044-.297.162-.279.304.018.124.176.205.357.162.176-.044.297-.162.279-.286-.019-.118-.182-.198-.357-.18zM14.807 0C6.416 0 0 6.532 0 15.136c0 6.88 4.222 12.767 10.252 14.839.774.142 1.046-.348 1.046-.75 0-.386-.018-2.507-.018-3.81 0 0-4.234.93-5.123-1.848 0 0-.69-1.806-1.681-2.27 0 0-1.385-.975.097-.956 0 0 1.506.124 2.334 1.6 1.325 2.395 3.545 1.706 4.41 1.297.139-.993.532-1.681.967-2.09-3.38-.385-6.792-.888-6.792-6.855 0-1.706.46-2.562 1.427-3.654-.157-.403-.671-2.066.158-4.212 1.264-.404 4.173 1.675 4.173 1.675 1.21-.348 2.51-.528 3.798-.528 1.289 0 2.59.18 3.799.528 0 0 2.909-2.085 4.173-1.675.829 2.152.315 3.809.157 4.212.968 1.098 1.56 1.954 1.56 3.654 0 5.986-3.562 6.463-6.943 6.854.557.49 1.029 1.42 1.029 2.879 0 2.09-.019 4.677-.019 5.186 0 .403.279.893 1.047.75C25.899 27.902 30 22.016 30 15.136 30 6.532 23.196 0 14.806 0zM5.878 21.395c-.079.063-.06.205.042.323.097.1.236.143.315.062.079-.062.06-.205-.042-.323-.097-.099-.236-.142-.315-.062zm-.653-.502c-.043.08.018.18.139.242.097.062.218.043.26-.044.042-.08-.018-.18-.14-.241-.12-.038-.217-.02-.26.043zm1.96 2.208c-.097.081-.061.267.078.385.14.143.315.161.393.062.079-.08.043-.267-.078-.385-.133-.142-.315-.16-.394-.062zm-.69-.912c-.097.063-.097.224 0 .366.097.143.26.205.339.143.096-.08.096-.242 0-.384-.085-.143-.242-.205-.339-.125z" fill="currentColor"/></svg>
