<svg xmlns="http://www.w3.org/2000/svg" width="64" height="64" version="1.0" viewBox="6 -4 64 64">
  <defs/>
  <path d="M37-3a31 31 0 0130 19 33 33 0 010 25c-1 4-4 7-7 10a33 33 0 01-23 9 31 31 0 01-22-9A32 32 0 0137-3zm1 5a28 28 0 00-24 16 25 25 0 00-1 20 27 27 0 0043 9c5-5 8-11 8-18a26 26 0 00-8-19c-5-5-11-8-18-8zm-1 21l-4 2-2-2h-2c-3 0-4 2-4 6l1 4 3 1c2 0 4-1 4-3l4 2a9 9 0 01-8 5c-3 0-5 0-7-2s-3-4-3-7c0-4 1-6 3-8s4-2 7-2c4 0 6 1 8 4zm19 0l-5 2-1-2h-2c-3 0-5 2-5 6l2 4 3 1c2 0 3-1 4-3l4 2-4 4-5 1c-3 0-5 0-7-2l-2-7 2-8c2-2 4-2 7-2 4 0 7 1 9 4z"/>
</svg>