<svg xmlns="http://www.w3.org/2000/svg" width="1967.8" height="1729.5" fill-rule="evenodd" clip-rule="evenodd" image-rendering="optimizeQuality" shape-rendering="geometricPrecision" text-rendering="geometricPrecision" viewBox="0 0 46296 40689">
  <defs/>
  <path d="M23205 7531c2945-3189 6384-4639 10366-4077 4111 580 7610 3518 8854 7479 958 3047 560 6461-722 9573-1994 4841-7886 11722-18555 16533C12479 32228 6587 25347 4593 20506c-1282-3112-1680-6526-722-9573 1244-3961 4744-6899 8854-7479 3982-562 7422 888 10367 4077l56 62 57-62zm-57-4522C16716-2039 6636-722 2000 6864 461 9384-117 12312 19 15220c236 5044 2413 9452 5611 13257 4306 5123 10531 9148 17382 12152l136 60c42-17 115-50 137-60 6816-3004 13076-7030 17381-12152 3199-3805 5375-8214 5611-13257 136-2908-442-5837-1981-8356-4636-7586-14716-8903-21148-3855z" class="heart"/>
  <path d="M22984 21630l-2928-1451c-1018 1484-1759 2488-3897 1902-1679-460-2176-2300-2240-3844-87-2108 650-4543 3168-4413 1609 83 2295 1032 2661 1885l3197-1638c-1575-3005-5265-4027-8393-3189-3329 891-5015 3953-4956 7255 61 3376 1681 6291 5162 7052 1697 372 3545 285 5117-503 1216-610 2567-1787 3109-3056zm13802 0l-2928-1451c-1018 1484-1758 2488-3897 1902-1679-460-2176-2300-2240-3844-87-2108 650-4543 3168-4413 1610 83 2295 1032 2662 1885l3197-1638c-1575-3005-5266-4027-8394-3189-3328 891-5014 3953-4955 7255 60 3376 1681 6291 5161 7052 1698 372 3545 285 5117-503 1216-610 2568-1787 3109-3056z" class="cc"/>
</svg>