<svg xmlns="http://www.w3.org/2000/svg" viewBox="0 0 512 123">
  <defs/>
  <path fill="#fff" d="M134 122c-11-1-17-7-20-17-1-5-1-14 1-18 2-6 6-10 11-13 7-3 16-3 24 0l8 8 1 1-6 3-5 2c-1-1-5-5-7-5-5-1-9 1-11 5l-2 8c0 10 4 15 11 16 4 0 7-2 9-5l1-2 10 5c0 2-6 8-10 10-5 2-10 3-15 2z" class="c"/>
  <path fill="#fff" d="M192 72h-14c-7 2-13 7-16 12-4 8-3 19 1 27 2 5 9 9 15 11h4c1 1 9 0 12-1 9-2 15-9 17-19 2-15-5-26-19-30zm-2 39c-3 1-7 1-10-1-4-2-7-7-6-15 0-4 1-7 3-9 3-3 5-3 8-3 5 0 8 2 11 6l1 8c0 7-2 12-7 14zM391 72c-8 0-14 2-18 6-8 7-10 21-5 31 3 7 9 11 16 13h4c1 1 9 0 12-1 11-2 17-11 17-24 0-16-10-25-26-25zm12 28c-1 6-3 9-7 11s-11 0-14-4c-5-7-3-20 4-23 4-2 10-2 13 1s4 9 4 15z" class="o"/>
  <path fill="#fff" d="M485 122c-6 0-11-3-15-6l-3-3 4-4 4-4 2 2c5 4 9 5 14 5s8-2 7-5c0-2-2-3-11-5l-10-3c-7-3-9-10-6-17s10-10 19-10c7 0 14 2 19 5l3 2-5 4-4 4-1-1c-4-3-13-5-16-3-3 1-3 5 0 6l8 2c11 2 14 4 17 8v13c-1 3-5 6-7 8-5 2-13 3-19 2z" class="s"/>
  <path fill="#fff" d="M214 97V73h15v3l2-1c4-3 7-3 11-3 5 0 8 1 11 4l2 2 2-2c4-3 11-5 16-4 6 0 10 2 11 6 2 2 2 3 2 23v20h-14v-16l-1-19c-3-4-10-4-13 1l-1 18v16h-14v-17c0-18 0-19-3-20h-8c-3 2-3 2-3 21v16h-15V97zM290 97V73h15v4l1-1c4-3 11-5 16-4l8 4 2 2 2-1c4-4 11-6 16-5s7 2 9 4c3 3 3 3 3 25l1 20h-15v-16c0-18 0-20-3-21s-7-1-9 1-2 5-2 21v15h-15v-17l-1-18c-1-2-3-3-7-3-3 0-5 2-6 6v32h-15V97z" class="m"/>
  <path fill="#fff" d="M421 97V73h14v4l2-1c6-6 20-6 24 0 3 4 3 5 3 26v19h-14v-16c0-19 0-20-3-21h-8c-4 2-4 3-4 21v16h-14V97z" class="n"/>
  <path fill="#fff" d="M135 67c-8-1-16-6-19-12s-4-16-2-22c2-8 8-14 15-16 9-3 19-1 25 4l5 6-11 6-1-2c-4-6-13-6-17 0l-2 12c1 8 4 12 10 13l5-1c2 0 4-3 6-5l5 1 5 3-5 6c-5 5-12 7-19 7z" class="c"/>
  <path fill="#fff" d="M239 44v-2l-3-13c-3-8-10-13-19-13-5-1-10 0-14 2-5 3-9 9-11 15-4 18 4 31 19 33 10 2 20-2 25-9l2-3-5-4-5-2-3 3c-4 4-5 5-9 5-6 0-9-3-11-10v-2h34zm-34-9v-1c2-7 10-10 15-6 2 1 4 3 4 6l1 1h-20z" class="e"/>
  <path fill="#fff" d="M286 64l-1-19-1-21c-3-5-8-8-17-8-9-1-15 1-19 4-2 2-4 7-4 9v2h13l1-2c0-3 5-6 9-4 4 1 4 2 4 5v4l-6 1c-14 2-19 5-22 11-2 3-2 9 0 12 1 4 6 7 11 8s13-1 16-3c2-3 3-3 3-1v2l7 1 6-1zm-15-15l-5 7h-4c-7 0-9-6-4-10l13-4v7z" class="a"/>
  <path fill="#fff" d="M306 66c-4 0-7-3-9-7l-1-17V26h-7v-8h7V4h14v14h9v8h-4l-5 1v25c1 2 2 3 6 3h3v11h-3l-5 1-5-1z" class="t"/>
  <path fill="#fff" d="M424 48l-3 3c-3 4-5 5-9 5-5 0-9-3-10-8l-1-3 17-1h17l-1-4c-1-17-11-26-27-24-10 1-17 8-19 18v15c2 10 9 16 19 17 6 1 12 0 17-3 4-1 6-4 9-7l1-3-4-2-6-3zm-23-14c2-6 9-10 15-7 2 1 4 4 4 7v1h-19v-1z" class="e"/>
  <path fill="#fff" d="M163 41V17h14v5l2-2 9-3c2 0 2 0 2 7v5l-3 1-7 1c-3 2-3 3-3 20v14h-14V41z" class="r"/>
  <path fill="#fff" d="M324 41V17h14l1 24v24h-15z" class="i"/>
  <path fill="#fff" d="M350 42l-8-24c-1-1 1-1 7-1h8a1173 1173 0 018 34l4-17 4-17h15l-6 20-8 24-2 4h-14l-8-23z" class="v"/>
  <path fill="#fff" d="M324 6V0h15v6l-1 5h-7l-7 1z" class="dot"/>
  <path fill="#fff" d="M98 39c-9-14-24-22-40-24-16-1-32 4-43 16C8 38 4 46 1 56L0 68l1 13a54 54 0 0045 40h16c17-3 31-14 39-28 9-17 7-39-3-54zm-2 41c-5 16-18 28-34 31-26 5-51-14-53-41-1-17 10-34 26-41 6-3 11-4 18-4s11 0 17 3c12 5 22 16 26 29v23z" class="circle"/>
  <path fill="#fff" d="M32 84c-5-2-8-7-9-13-1-8 2-15 9-18 3-2 10-2 14 0l6 6-3 2-3 2-2-2-4-2-6 2c-2 3-2 11 0 14l4 3c4 0 4-1 6-3l2-2 3 2c2 0 3 1 3 2l-6 6-7 2-7-1zM63 84c-5-2-8-7-9-13-1-8 2-15 9-18 4-2 10-2 14 0l6 6-3 2-4 2-1-2c-2-2-2-2-5-2s-5 1-6 4v10c2 5 8 6 12 2l1-2 3 2 3 2-6 6-8 2-6-1z" class="c"/>
</svg>