<svg viewBox="0 0 30 30" xmlns="http://www.w3.org/2000/svg"><path d="M15.033 0C6.563 0 0 6.19 0 14.55c0 4.374 1.797 8.153 4.722 10.763.505.454.401.717.487 3.522a1.205 1.205 0 001.686 1.063c3.2-1.41 3.242-1.52 3.784-1.373C19.951 31.077 30 25.143 30 14.55 30 6.19 23.503 0 15.033 0zm9.027 11.197l-4.415 6.99a2.262 2.262 0 01-3.261.601l-3.513-2.63a.907.907 0 00-1.089 0l-4.74 3.596c-.633.48-1.461-.278-1.035-.948l4.416-6.99a2.262 2.262 0 013.26-.6l3.512 2.628a.908.908 0 001.089 0l4.742-3.591c.632-.483 1.46.274 1.034.944z" fill="currentColor"/></svg>
