<svg xmlns="http://www.w3.org/2000/svg" viewBox="0 0 30 30"><path fill-rule="evenodd" clip-rule="evenodd" d="M27.777.002H2.214A2.19 2.19 0 000 2.165v25.67A2.19 2.19 0 002.214 30h25.563A2.195 2.195 0 0030 27.835V2.163A2.195 2.195 0 0027.777 0v.002zm-23.33 25.56h4.45V11.246h-4.45v14.316zM6.674 9.29a2.58 2.58 0 110-5.16 2.58 2.58 0 010 5.16zm18.887 16.272h-4.445v-6.961c0-1.66-.03-3.797-2.311-3.797-2.316 0-2.67 1.809-2.67 3.676v7.082H11.69V11.246h4.267v1.957h.06a4.677 4.677 0 014.21-2.312c4.506 0 5.336 2.963 5.336 6.818l-.002 7.853z" fill="currentColor"/></svg>
