<svg xmlns="http://www.w3.org/2000/svg" viewBox="0 0 30 30"><path fill-rule="evenodd" clip-rule="evenodd" d="M0 0h30v30H0V0zm6.905 9.375a.78.78 0 01.254.658v8.908c.055.321-.046.65-.273.884L4.77 22.393v.339h6.003v-.339l-2.117-2.568a1.063 1.063 0 01-.292-.884v-7.704l5.27 11.495h.611l4.526-11.495V20.4c0 .244 0 .291-.16.451l-1.628 1.58v.34h7.903v-.34l-1.57-1.542a.47.47 0 01-.18-.452V9.102a.47.47 0 01.18-.452l1.608-1.542v-.339h-5.57l-3.97 9.905-4.517-9.905H5.023v.339l1.882 2.267z" fill="currentColor"/></svg>
