<svg viewBox="0 0 30 30" xmlns="http://www.w3.org/2000/svg"><path d="M15.012 0C6.722 0 0 6.71 0 14.988c0 6.352 3.954 11.78 9.539 13.963-.136-1.184-.247-3.01.05-4.305.27-1.172 1.754-7.45 1.754-7.45s-.445-.9-.445-2.22c0-2.085 1.21-3.64 2.718-3.64 1.285 0 1.903.963 1.903 2.11 0 1.283-.816 3.207-1.248 4.996-.358 1.492.754 2.713 2.224 2.713 2.669 0 4.72-2.812 4.72-6.858 0-3.59-2.582-6.094-6.277-6.094-4.275 0-6.783 3.195-6.783 6.5 0 1.284.494 2.665 1.112 3.418a.446.446 0 01.099.432c-.111.468-.371 1.492-.42 1.702-.062.271-.223.333-.507.197-1.878-.876-3.052-3.602-3.052-5.81 0-4.724 3.435-9.066 9.922-9.066 5.202 0 9.254 3.7 9.254 8.66 0 5.168-3.262 9.325-7.784 9.325-1.52 0-2.953-.79-3.435-1.727l-.939 3.565c-.333 1.307-1.248 2.936-1.865 3.935 1.408.432 2.89.666 4.448.666C23.278 30 30 23.29 30 15.012 30.025 6.711 23.303 0 15.012 0z" fill="currentColor"/></svg>
