<svg viewBox="0 0 30 30" xmlns="http://www.w3.org/2000/svg"><path d="M11.704 17.994a1.499 1.499 0 01-1.506-1.488c0-.835.671-1.506 1.506-1.506.822 0 1.487.671 1.487 1.506a1.49 1.49 0 01-1.487 1.488zM30 15c0 8.286-6.714 15-15 15S0 23.286 0 15 6.714 0 15 0s15 6.714 15 15zm-8.002-2.492c-.569 0-1.07.236-1.44.605-1.354-.938-3.181-1.542-5.207-1.609l1.052-4.736 3.351.756a1.49 1.49 0 001.488 1.488 1.51 1.51 0 001.506-1.506A1.51 1.51 0 0021.242 6c-.587 0-1.089.35-1.337.835l-3.701-.823c-.182-.048-.37.085-.418.266l-1.155 5.226c-2.008.085-3.816.684-5.171 1.621a2.004 2.004 0 00-1.458-.617c-2.11 0-2.8 2.837-.871 3.799a4.365 4.365 0 00-.103.937c0 3.181 3.58 5.758 7.984 5.758 4.421 0 8.002-2.577 8.002-5.758 0-.32-.036-.653-.115-.956 1.893-.967 1.198-3.78-.901-3.78zm-4.167 7.028c-1.101 1.101-4.603 1.083-5.662 0a.366.366 0 00-.502 0c-.15.151-.15.387 0 .52 1.38 1.38 5.28 1.38 6.666 0 .15-.133.15-.369 0-.52a.366.366 0 00-.502 0zM18.296 15c-.822 0-1.488.671-1.488 1.506a1.49 1.49 0 001.488 1.488c.835 0 1.506-.671 1.506-1.488 0-.835-.665-1.506-1.506-1.506z" fill="currentColor"/></svg>
