<svg viewBox="0 0 30 30" xmlns="http://www.w3.org/2000/svg"><path d="M26.7857 0H3.21429C1.43973 0 0 1.43973 0 3.21429V26.7857C0 28.5603 1.43973 30 3.21429 30H26.7857C28.5603 30 30 28.5603 30 26.7857V3.21429C30 1.43973 28.5603 0 26.7857 0ZM21.2746 24.3884C20.7054 24.9978 19.1853 25.7143 17.1964 25.7143C12.1406 25.7143 11.0424 21.9978 11.0424 19.8281V13.8013H9.05357C8.82589 13.8013 8.63839 13.6138 8.63839 13.3862V10.5402C8.63839 10.2388 8.82589 9.97098 9.11384 9.87053C11.7121 8.95312 12.5223 6.68973 12.6429 4.96875C12.6763 4.5067 12.9174 4.28571 13.3125 4.28571H16.279C16.5067 4.28571 16.6942 4.47321 16.6942 4.70089V9.52232H20.1696C20.3973 9.52232 20.5848 9.70982 20.5848 9.9375V13.3594C20.5848 13.5871 20.3973 13.7746 20.1696 13.7746H16.6808V19.3527C16.6808 20.7857 17.6719 21.596 19.5268 20.8527C19.7277 20.7723 19.9018 20.7188 20.0625 20.7589C20.2098 20.7924 20.3036 20.8996 20.3705 21.0871L21.2946 23.779C21.3616 23.9933 21.4286 24.2277 21.2746 24.3884Z" fill="currentColor"/></svg>
