<svg viewBox="0 0 30 30" xmlns="http://www.w3.org/2000/svg"><path fill-rule="evenodd" clip-rule="evenodd" d="M15 30C6.71573 30 0 23.2843 0 15C0 6.71573 6.71573 0 15 0C23.2843 0 30 6.71573 30 15C30 23.2843 23.2843 30 15 30ZM22.4625 11.6774C22.4625 16.7549 18.5925 22.6199 11.52 22.6199C9.35248 22.6199 7.32748 21.9824 5.63248 20.9024C5.93248 20.9399 6.23998 20.9549 6.54748 20.9549C8.34748 20.9549 10.005 20.3399 11.325 19.3049C9.64498 19.2749 8.21998 18.1649 7.73248 16.6349C7.96498 16.6799 8.20498 16.7024 8.45248 16.7024C8.80498 16.7024 9.14248 16.6574 9.46498 16.5674C7.70998 16.2149 6.38248 14.6549 6.38248 12.7949V12.7424C6.89998 13.0274 7.49248 13.1999 8.12248 13.2224C7.09498 12.5324 6.41248 11.3549 6.41248 10.0199C6.41248 9.31488 6.59998 8.65488 6.92998 8.08488C8.82748 10.4099 11.6625 11.9474 14.8575 12.1049C14.7975 11.8199 14.76 11.5274 14.76 11.2274C14.76 9.10488 16.485 7.37988 18.6075 7.37988C19.71 7.37988 20.7075 7.84488 21.4125 8.59488C22.29 8.42238 23.115 8.10738 23.8575 7.66488C23.565 8.56488 22.9575 9.32238 22.1625 9.79488C22.9425 9.69738 23.685 9.49488 24.375 9.18738C23.8575 9.95988 23.205 10.6424 22.455 11.1824C22.4625 11.3474 22.4625 11.5124 22.4625 11.6774Z" fill="currentColor"/></svg>
