<svg viewBox="0 0 30 30" xmlns="http://www.w3.org/2000/svg"><path d="M25.5067 4.35937C22.7009 1.54687 18.9643 0 14.9933 0C6.79687 0 0.127232 6.66964 0.127232 14.8661C0.127232 17.4844 0.810268 20.0424 2.10938 22.2991L0 30L7.8817 27.9308C10.0513 29.1161 12.4955 29.7388 14.9866 29.7388H14.9933C23.183 29.7388 30 23.0692 30 14.8728C30 10.9018 28.3125 7.17187 25.5067 4.35937ZM14.9933 27.2344C12.7701 27.2344 10.5937 26.6384 8.69866 25.5134L8.25 25.2455L3.57589 26.471L4.82143 21.9107L4.52679 21.442C3.28795 19.4732 2.63839 17.2031 2.63839 14.8661C2.63839 8.0558 8.18303 2.51116 15 2.51116C18.3013 2.51116 21.4018 3.79687 23.7321 6.13393C26.0625 8.47098 27.4955 11.5714 27.4888 14.8728C27.4888 21.6897 21.8036 27.2344 14.9933 27.2344ZM21.7701 17.9799C21.4018 17.7924 19.5737 16.8951 19.2321 16.7746C18.8906 16.6473 18.6429 16.5871 18.3951 16.9621C18.1473 17.3371 17.4375 18.1674 17.2165 18.4219C17.0022 18.6696 16.7812 18.7031 16.4129 18.5156C14.2299 17.4241 12.7969 16.567 11.3571 14.096C10.9754 13.4397 11.7388 13.4866 12.4487 12.067C12.5692 11.8192 12.5089 11.6049 12.4152 11.4174C12.3214 11.2299 11.5781 9.40179 11.2701 8.65848C10.9688 7.93527 10.6607 8.03571 10.433 8.02232C10.2188 8.00893 9.97098 8.00893 9.72321 8.00893C9.47545 8.00893 9.07366 8.10268 8.73214 8.47098C8.39062 8.84598 7.43304 9.7433 7.43304 11.5714C7.43304 13.3996 8.76562 15.1674 8.94643 15.4152C9.13393 15.6629 11.5647 19.4129 15.2946 21.0268C17.6518 22.0446 18.5759 22.1317 19.7545 21.9576C20.471 21.8504 21.9509 21.0603 22.2589 20.1897C22.567 19.3192 22.567 18.5759 22.4732 18.4219C22.3862 18.2545 22.1384 18.1607 21.7701 17.9799Z" fill="currentColor"/></svg>
