<svg xmlns="http://www.w3.org/2000/svg" width="1300" height="260" viewBox="0 0 343.958 68.792">
  <g>
    <path fill="#ffffff" d="M6.949 28.249q-.61-1.524-1.118-2.388-.457-.914-1.016-1.371-.559-.457-1.27-.559-.66-.152-1.626-.203V21.95h13.462v1.778q-1.016.05-1.676.101-.66.051-1.067.254-.355.153-.508.508-.152.305-.152.915 0 .863.203 1.625l.508 1.524 5.385 14.732h.203L22.9 32.465q1.067-2.54 1.524-4.064.457-1.524.457-2.692 0-1.168-.61-1.575-.61-.406-2.641-.406V21.95h10.109v1.778q-.813 0-1.473.406-.66.407-1.169 1.016-.406.559-.863 1.524-.407.915-.864 1.93-.406 1.017-.762 2.033-.355.965-.66 1.574L18.48 49.433h-2.946zM48.04 21.442q2.896 0 5.487 1.067 2.59 1.016 4.52 2.844 1.982 1.83 3.1 4.37 1.168 2.488 1.168 5.486 0 3.098-1.168 5.69-1.118 2.59-3.1 4.47-1.93 1.88-4.52 2.946-2.591 1.067-5.487 1.067-2.845 0-5.435-1.016-2.54-1.067-4.47-2.947-1.931-1.88-3.049-4.47-1.117-2.642-1.117-5.74 0-2.998 1.117-5.538 1.118-2.54 3.048-4.368 1.93-1.83 4.47-2.845 2.591-1.016 5.436-1.016zm0 2.438q-1.88 0-3.454.813-1.524.813-2.642 2.337-1.067 1.473-1.676 3.607-.559 2.082-.559 4.622 0 2.642.559 4.776.61 2.133 1.676 3.657 1.118 1.473 2.642 2.286 1.524.813 3.454.813 1.93 0 3.505-.813t2.693-2.337q1.117-1.524 1.727-3.657.61-2.134.61-4.725 0-2.54-.61-4.622-.61-2.083-1.727-3.556-1.118-1.524-2.693-2.337-1.574-.864-3.505-.864zM68.68 34.955q0-1.423.965-2.388.966-.965 2.337-.965 1.423 0 2.388.965.965.965.965 2.388 0 1.371-.965 2.336-.965.966-2.388.966-1.371 0-2.337-.966-.965-.965-.965-2.336zM104.96 44.657q-1.83 2.236-4.725 3.506-2.896 1.219-6.249 1.219-2.692 0-4.978-.965-2.235-1.016-3.86-2.794-1.626-1.83-2.54-4.37-.864-2.54-.864-5.638 0-3.251 1.016-5.842 1.016-2.642 2.844-4.47 1.88-1.88 4.47-2.845 2.642-1.016 5.792-1.016 1.981 0 3.607.355 1.625.305 2.794.915 1.22.559 1.88 1.422.66.813.66 1.778 0 1.016-.66 1.575-.66.559-1.83.559-.914 0-1.523-.356-.61-.406-1.575-1.727-1.016-1.168-1.981-1.626-.915-.508-2.388-.508-3.607 0-5.486 2.794-1.83 2.794-1.83 8.23 0 5.842 2.033 8.89 2.083 2.997 6.045 2.997 2.134 0 4.013-.813 1.88-.863 3.81-2.743zM124.17 33.837q-2.896 1.118-4.928 2.184-1.981 1.067-3.2 2.134-1.22 1.067-1.778 2.134-.508 1.066-.508 2.184 0 1.676 1.117 2.743 1.118 1.067 2.947 1.067 1.32 0 2.438-.66 1.168-.66 2.032-1.778.864-1.169 1.372-2.693.508-1.575.508-3.302zm0-2.184V29.57q0-6.198-5.284-6.198-.863 0-1.473.153-.61.152-1.016.508-.406.355-.762 1.016-.305.66-.61 1.625-.558 1.473-1.117 1.981-.508.458-1.524.458-2.54 0-2.54-2.54 0-2.439 2.59-3.76 2.592-1.371 7.367-1.371 5.08 0 7.213 1.829 2.134 1.778 2.134 6.096v11.379q0 5.791 2.286 5.791.711 0 1.372-.152.66-.204 1.117-.966l.711 1.22q-.61 1.168-2.235 1.98-1.625.763-3.403.763-2.236 0-3.353-1.423-1.067-1.422-1.067-4.013h-.254q-1.32 2.49-3.658 3.963-2.336 1.422-5.181 1.422-3.2 0-5.03-1.626-1.828-1.625-1.828-4.368 0-1.22.406-2.337.457-1.118 1.423-2.134.965-1.016 2.54-1.981 1.574-1.016 3.86-2.032zM144.22 38.257q0 1.93.559 3.556.558 1.574 1.524 2.743 1.016 1.117 2.387 1.778 1.423.66 3.048.66 1.778 0 3.2-.813 1.474-.812 2.49-2.286 1.067-1.524 1.625-3.606.61-2.134.61-4.725 0-2.59-.61-4.724-.61-2.185-1.676-3.709-1.067-1.574-2.59-2.438-1.474-.864-3.252-.864-2.083 0-3.708 1.016-1.626.966-2.49 2.744-1.117 2.235-1.117 6.146zm-.102-12.7h.203q1.626-2.134 3.556-3.1 1.982-1.015 4.572-1.015 2.744 0 5.08 1.067 2.388 1.066 4.115 2.946 1.778 1.88 2.743 4.47 1.016 2.54 1.016 5.487 0 2.997-1.016 5.588-1.016 2.54-2.794 4.42-1.727 1.879-4.114 2.946-2.388 1.067-5.182 1.067-2.896 0-5.436-1.067-2.489-1.067-4.114-2.896l-2.388 3.404h-1.118V18.19q0-5.131-.66-6.554-.152-.355-.356-.558-.203-.254-.61-.407-.406-.203-1.117-.355-.711-.153-1.93-.305v-1.27l9.55-2.032zM171.768 34.955q0-1.423.966-2.388.965-.965 2.336-.965 1.423 0 2.388.965.965.965.965 2.388 0 1.371-.965 2.336-.965.966-2.388.966-1.371 0-2.336-.966-.966-.965-.966-2.336zM205.863 30.078q0-2.083-.101-3.251-.102-1.22-.56-1.83-.406-.66-1.27-.863-.812-.254-2.285-.406V21.95h9.195v15.595q0 2.896.05 4.725.102 1.829.254 2.743.102.66.305 1.067.254.355.711.61.458.203 1.169.304.762.051 1.93.051v1.778l-8.382.61-.559-6.096h-.203q-1.93 3.15-4.47 4.622-2.49 1.423-5.233 1.423-2.133 0-4.165-.813-1.981-.813-2.997-2.184-.864-1.118-1.27-3.1-.356-1.98-.356-5.13v-8.077q0-2.083-.102-3.251-.101-1.22-.558-1.83-.407-.66-1.27-.863-.813-.254-2.286-.406V21.95h9.194v13.868q0 5.537 1.27 8.027 1.321 2.489 4.166 2.489 4.47 0 6.96-5.842.254-.61.406-1.118.152-.508.254-1.117.102-.61.152-1.372.051-.762.051-1.829zM220.286 34.955q0-1.423.966-2.388.965-.965 2.336-.965 1.423 0 2.388.965.965.965.965 2.388 0 1.371-.965 2.336-.965.966-2.388.966-1.371 0-2.336-.966-.966-.965-.966-2.336zM237.41 40.949q0 1.93.152 3.099.153 1.168.61 1.829.508.66 1.372.914.914.254 2.387.305v1.778h-14.02v-1.778q1.523-.051 2.438-.305.914-.305 1.422-.914.559-.61.711-1.677.204-1.117.204-2.895V19.41q0-2.743-.102-4.572-.05-1.88-.203-2.54-.254-1.169-1.22-1.575-.914-.406-3.352-.406V8.589l9.601-1.88zM260.992 33.837q-2.895 1.118-4.927 2.184-1.982 1.067-3.2 2.134-1.22 1.067-1.779 2.134-.508 1.066-.508 2.184 0 1.676 1.118 2.743 1.117 1.067 2.946 1.067 1.321 0 2.439-.66 1.168-.66 2.032-1.778.863-1.169 1.371-2.693.508-1.575.508-3.302zm0-2.184V29.57q0-6.198-5.283-6.198-.864 0-1.473.153-.61.152-1.016.508-.407.355-.762 1.016-.305.66-.61 1.625-.559 1.473-1.117 1.981-.508.458-1.524.458-2.54 0-2.54-2.54 0-2.439 2.59-3.76 2.591-1.371 7.366-1.371 5.08 0 7.214 1.829 2.134 1.778 2.134 6.096v11.379q0 5.791 2.286 5.791.71 0 1.371-.152.66-.204 1.118-.966l.711 1.22q-.61 1.168-2.235 1.98-1.626.763-3.404.763-2.235 0-3.353-1.423-1.066-1.422-1.066-4.013h-.254q-1.321 2.49-3.658 3.963-2.337 1.422-5.182 1.422-3.2 0-5.029-1.626-1.829-1.625-1.829-4.368 0-1.22.407-2.337.457-1.118 1.422-2.134.965-1.016 2.54-1.981 1.575-1.016 3.861-2.032zM282.719 40.797q0 2.082.101 3.302.102 1.219.508 1.88.458.609 1.27.812.813.203 2.286.305v1.778h-13.512v-1.778q1.473-.051 2.336-.254.864-.254 1.321-.864.457-.61.559-1.727.152-1.168.152-3.099V35.21q0-3.455-.101-5.385-.051-1.93-.508-2.845-.407-.914-1.321-1.067-.914-.203-2.54-.203v-1.778l8.89-1.93.711 6.299h.203q.66-1.524 1.626-2.794 1.016-1.27 2.184-2.134 1.169-.914 2.439-1.422 1.27-.508 2.59-.508 1.626 0 2.54.813.966.762.966 2.082 0 1.22-.762 1.93-.762.661-2.185.661-.812 0-1.371-.203-.559-.203-1.016-.406-.407-.254-.813-.458-.356-.203-.813-.203-1.371 0-2.743 1.778-1.372 1.727-2.134 4.42-.406 1.473-.66 3.353-.203 1.828-.203 3.86zM299.562 34.955q0-1.423.965-2.388.966-.965 2.337-.965 1.423 0 2.388.965.965.965.965 2.388 0 1.371-.965 2.336-.965.966-2.388.966-1.371 0-2.337-.966-.965-.965-.965-2.336zM324.411 56.85q-2.336 5.232-7.264 5.232-3.2 0-3.2-2.388 0-1.27.863-1.88.915-.558 3.302-.965 1.067-.152 1.829-.457.762-.254 1.372-.711.61-.406 1.066-1.067.508-.66.966-1.625l1.778-3.556-9.754-21.184q-.66-1.422-1.168-2.235-.458-.864-1.016-1.321-.508-.508-1.169-.66-.66-.204-1.676-.305V21.95h13.462v1.778q-3.404 0-3.404 1.676 0 .66.407 2.083.406 1.422 1.016 2.896l5.588 13.512h.254l4.622-11.43q.66-1.676 1.067-2.743.457-1.067.66-1.727.255-.711.305-1.168.102-.458.102-.864 0-1.32-.762-1.778-.711-.457-2.794-.457V21.95h11.176v1.778q-.965 0-1.626.254-.66.254-1.371 1.168-.66.864-1.524 2.54-.813 1.677-2.032 4.521z"/>
  </g>
</svg>
