<svg xmlns="http://www.w3.org/2000/svg" width="650" height="260" viewBox="0 0 172 69">
  <defs/>
  <path fill="#fff" d="M15 30v27h9V30h6v-6h-6v-2l1-3 3-1h3v-6l-2-1h-3q-5 0-8 3t-3 7v3h-5v6zm27 10l1-4 1-3 3-2 3-1 4 1 3 2 1 3v8l-1 4-3 2-4 1-3-1-3-2-1-4-1-4zm-9 0q0 4 2 7l3 6 5 3 7 1 7-1 6-3 3-6 1-7-1-7-3-5q-2-3-6-4l-7-1-7 1q-3 1-5 4l-3 5q-2 3-2 7zm40-16v33h9V39q0-5 2-7t5-2q4 0 5 2l1 6v19h9V36v-5l-2-4-4-3-6-1-6 1-4 4v-4zm49 0V14h-9v10h-5v6h5v19l1 4 2 3 4 1h9v-7h-3l-3-1-1-3V30h7v-6zm18 22h-8l1 6 4 3 5 2h11l4-2 4-3 1-6-1-4-2-2-3-2-4-1-4-1-3-1-3-1v-2-2l1-1h4l4 1 2 3h8l-1-5-4-3-4-2h-10l-5 2-3 3q-2 2-2 5l1 4 3 3 3 1 4 1 7 2q3 1 3 3v2l-2 2h-2l-2 1-2-1-3-1-1-1-1-3z"/>
</svg>