<svg width="4976" height="3765" fill="none" xmlns="http://www.w3.org/2000/svg"><g opacity=".5"><path opacity=".5" d="M1097 831c14-69 21-125 16-153l-6 1 9-5 23-23h1l19-20a239 239 0 00217 30c36-12 69-33 97-61s51-63 65-101c23 15 41 21 44 8 18-60 27-123 29-186 0-23-3-45-7-67A332 332 0 001311 2a291 291 0 00-272 114c-53 77-158 129-204 212-38 66-26 155-44 232-19 14-38 29-56 45-42 31-79 72-108 118-45 59-87 122-125 187-202 343-325 455-394 486l580 4c97 202 231 379 394 519l3-2 3 2 96-59c-95-165-170-343-225-530l50-162c133 198 327 415 591 548l43-84s-342-329-546-801z" fill="url(#paint0_linear)"/><path opacity=".5" d="M109 1399H33s21 24 76 0z" fill="url(#paint1_linear)"/></g><path d="M961 1101c123 194 309 418 571 550l39-77s-462-447-597-1031l-14 13c-115 111-115 361 1 545z" fill="#4D8AF0"/><path opacity=".1" d="M961 1101c123 194 309 418 571 550l39-77s-462-447-597-1031l-14 13c-115 111-115 361 1 545z" fill="#000"/><path d="M1019 472l-90 57-99 169 141 61 120-59 83-84-155-144z" fill="#FDA57D"/><path d="M931 539s-169-15-400 377c-331 562-428 443-428 443l824 6s183-554 162-662c0 0-159 34-158-164z" fill="#4D8AF0"/><path opacity=".1" d="M1016 470c10 79 38 168 97 208l44-45-141-163z" fill="#000"/><path d="M1496 437c1-147-106-266-238-267-133-1-241 117-242 263-1 147 106 267 239 268 132 0 240-118 241-264z" fill="#FDA57D"/><path opacity=".1" d="M1517 547c19-73 35-150 20-225a303 303 0 00-267-230c-92-9-193 22-249 104-48 71-56 166-99 241-39 70-106 119-135 194-5 10-7 22-5 33 6 17 24 24 40 29 39 13 75 34 106 63s56 65 74 105c-5-141 87-260 174-363 41-48 109-119 170-74 8 7 161 164 171 123z" fill="#000"/><path d="M2026 5v1399h516v376a826 826 0 01368-376h2066V5H2026zM0 2306v1082h517v376c149-285 367-376 367-376h2297V2306H0z" fill="#FBD43C"/><path opacity=".1" d="M598 1083c78 299 240 563 462 754l88-54S775 1171 887 575l-24 6c-47 12-93 35-132 68-40 32-73 73-98 120a429 429 0 00-35 314z" fill="#000"/><path d="M603 1083c79 299 240 563 462 754l88-54S780 1171 893 574l-24 7c-48 12-93 35-133 67s-73 73-98 120a429 429 0 00-35 315z" fill="#4D8AF0"/><path d="M1517 542c19-74 35-151 20-226a303 303 0 00-267-230c-92-9-193 23-249 104-48 71-143 118-186 194-39 69-19 166-49 241-5 10-6 22-4 33 5 18 24 24 40 29 38 13 74 35 105 63 31 29 56 65 74 105-4-141 88-260 175-363 40-48 108-119 170-74 8 7 161 164 171 124z" fill="#333"/><path d="M1481 1628s127 211 154 120c28-90-63-180-63-180l-91 60zM1046 1826s127 211 154 120c28-90-63-180-63-180l-91 60z" fill="#FDA57D"/><path d="M3727 2147s-239 198-121 971l121-971z" fill="#4D8AF0"/><path opacity=".1" d="M3727 2147s-239 198-121 971l121-971z" fill="#000"/><path d="M3908 2015l-20 155 180 111v-221l-160-45zM4945 2222c-20-66-139 23-139 23l-9 15 47 97 1-2s120-67 100-133z" fill="#FDA57D"/><path opacity=".1" d="M3906 2158s-160-47-200 22-120 995-120 995 238 221 520 155l100-730-300-442z" fill="#000"/><path d="M4585 2566l-632-391c-45-29-97-44-149-45-40 0-81 7-98 37-40 69-120 995-120 995s238 221 520 155l100-730 400 156s40 44 82-88c38-123 143-287 157-308l-49-97-211 316z" fill="#4D8AF0"/><path opacity=".1" d="M3905 2050c17 24 38 43 63 56a165 165 0 0099 19v-43l-160-44-2 12z" fill="#000"/><path d="M4048 2104c99 0 180-89 180-199s-81-199-180-199c-100 0-180 89-180 199s80 199 180 199z" fill="#FDA57D"/><path opacity=".1" d="M3934 1996l70-111c10-17 22-32 36-45 7-7 15-11 24-13s18-2 27 0c10 5 20 11 28 19 26 21 59 37 90 30 32-7 60-35 83-63 19-23 40-50 35-81-3-12-9-22-17-31-8-8-17-14-28-18-21-7-42-12-64-15-51-11-97-40-147-57-23-8-47-13-70-15-17-3-34-1-50 6-17 10-31 24-43 39-17 17-36 31-57 41-31 15-65 20-93 41-8 5-15 12-19 20-6 16-7 33-4 50 3 38 13 75 28 110 16 26 35 50 57 70l47 47c9 11 20 20 32 27-2-17 26-37 35-51z" fill="#000"/><path d="M3934 1989l70-111c10-17 22-33 36-46 7-6 15-10 24-13 9-2 18-2 27 1 10 4 20 11 28 19 26 21 59 36 90 30 32-7 60-36 83-63 19-23 40-51 35-82-3-11-9-22-17-31-7-8-17-15-28-18-21-7-42-12-64-15-51-11-97-41-147-57-23-8-47-13-70-15-17-3-34-1-50 6-17 10-31 23-43 39-17 17-36 31-57 40-31 15-65 21-93 41-8 6-15 13-19 21-6 16-7 33-4 50 3 38 13 75 28 110 16 26 35 50 57 70l47 47c9 11 20 20 32 27-2-16 26-36 35-50z" fill="#333"/><defs><linearGradient id="paint0_linear" x1="875.4" y1="1920.3" x2="875.4" y2="1" gradientUnits="userSpaceOnUse"><stop stop-color="gray" stop-opacity=".3"/><stop offset=".5" stop-color="gray" stop-opacity=".1"/><stop offset="1" stop-color="gray" stop-opacity=".1"/></linearGradient><linearGradient id="paint1_linear" x1="21070.1" y1="4112.4" x2="21070.1" y2="4104" gradientUnits="userSpaceOnUse"><stop stop-color="gray" stop-opacity=".3"/><stop offset=".5" stop-color="gray" stop-opacity=".1"/><stop offset="1" stop-color="gray" stop-opacity=".1"/></linearGradient></defs></svg>