<svg width="4976" height="3765" viewBox="0 0 4976 3765" fill="none" xmlns="http://www.w3.org/2000/svg">
<g opacity="0.5">
<path opacity="0.5" d="M1097.03 830.798C1110.62 762.087 1118.37 706.006 1112.8 677.739L1107.22 678.642L1115.79 674.432L1138.9 650.826H1139.58L1158.61 631.431C1190.75 653.492 1226.82 667.611 1264.36 672.821C1301.89 678.03 1340 674.207 1376.07 661.613C1412.14 649.019 1445.33 627.952 1473.36 599.854C1501.38 571.756 1523.59 537.292 1538.45 498.82C1561.43 513.855 1579.23 520.321 1582.23 507.09C1599.89 446.871 1609.42 384.099 1610.5 320.803C1610.59 298.309 1608.45 275.873 1604.11 253.896C1575.16 111.211 1442.88 15.5872 1311.28 2.05547C1210.27 -8.31885 1099.88 26.4127 1038.71 115.872C985.686 193.454 881.414 245.476 834.784 327.869C797.126 394.325 808.817 483.484 791.008 560.013C771.685 573.891 753.076 588.949 735.269 605.119C692.793 636.473 656.188 676.599 627.463 723.296C581.671 782.27 539.609 844.664 501.575 910.034C299.556 1253.29 177.203 1364.85 108.277 1396.42L687.688 1400.48C784.549 1602.12 918.911 1778.8 1081.94 1918.9L1085.47 1916.79L1087.92 1919.05L1183.9 1860.26C1089.14 1694.69 1013.51 1516.64 958.768 1330.27C972.363 1288.17 989.9 1231.04 1008.66 1167.59C1142.16 1366.35 1335.89 1583.46 1599.76 1716.07L1642.59 1631.88C1642.59 1631.88 1301.49 1303.21 1097.03 830.798Z" fill="url(#paint0_linear)"/>
<path opacity="0.5" d="M108.539 1398.53H32.8164C32.8164 1398.53 53.6161 1422.89 108.539 1398.53Z" fill="url(#paint1_linear)"/>
</g>
<path d="M961.356 1101.28C1083.71 1294.93 1270.09 1518.81 1532.34 1650.96L1571.35 1574.13C1571.35 1574.13 1109.13 1127.29 973.864 543.018L960.269 556.098C844.985 667.058 844.985 916.643 961.356 1101.28Z" fill="#4D8AF0"/>
<path opacity="0.05" d="M961.356 1101.28C1083.71 1294.93 1270.09 1518.81 1532.34 1650.96L1571.35 1574.13C1571.35 1574.13 1109.13 1127.29 973.864 543.018L960.269 556.098C844.985 667.058 844.985 916.643 961.356 1101.28Z" fill="black"/>
<path d="M1018.86 471.747L928.864 529.482L829.758 697.576L971.144 758.92L1091.46 699.531L1173.71 615.634L1018.86 471.747Z" fill="#FDA57D"/>
<path d="M931.45 538.66C931.45 538.66 761.787 523.625 531.219 915.744C200.186 1478.21 103.391 1358.98 103.391 1358.98L926.692 1364.7C926.692 1364.7 1109.81 811.099 1088.61 703.146C1088.74 702.544 930.362 736.975 931.45 538.66Z" fill="#4D8AF0"/>
<path opacity="0.1" d="M1016.42 469.801C1026.34 549.337 1054.08 637.744 1113.21 678.49L1157.26 633.384L1016.42 469.5V469.801Z" fill="black"/>
<path d="M1496.17 436.815C1497 290.257 1390.25 170.701 1257.73 169.78C1125.22 168.859 1017.12 286.922 1016.28 433.48C1015.45 580.038 1122.2 699.593 1254.72 700.514C1387.24 701.435 1495.34 583.373 1496.17 436.815Z" fill="#FDA57D"/>
<path opacity="0.1" d="M1517.11 547.38C1535.87 474.158 1552.19 397.027 1537.1 321.851C1510.59 191.646 1390 104.442 1269.96 92.1126C1177.79 82.6404 1077.05 114.365 1021.31 196.006C972.912 266.672 965.028 362.296 922.476 437.472C883.051 507.085 815.757 555.95 786.528 631.277C781.593 641.338 780.142 653.045 782.449 664.204C787.751 681.494 806.376 687.508 822.146 692.771C860.864 705.801 896.771 727.429 927.673 756.331C958.575 785.234 983.822 820.803 1001.87 860.865C997.383 720.135 1089.28 600.905 1176.02 497.914C1216.8 449.801 1284.78 379.135 1345.95 424.091C1354.25 431.308 1506.78 587.674 1517.11 547.38Z" fill="black"/>
<path d="M2025.88 5.37012V1403.65H2542.49V1779.53C2692.03 1493.86 2909.54 1403.65 2909.54 1403.65H4975.95V5.37012H2025.88Z" fill="#FBD43C"/>
<path d="M0.255859 2305.76V3388.3H516.858V3764.18C666.401 3478.51 883.918 3388.3 883.918 3388.3H3181.44V2305.76H0.255859Z" fill="#FBD43C"/>
<path opacity="0.1" d="M597.839 1082.78C676.217 1381.67 837.994 1645.52 1060.06 1836.65L1147.61 1782.97C1147.61 1782.97 774.843 1171.34 887.408 575.041L863.481 581.206C815.536 593.454 770.357 616.399 730.712 648.635C691.067 680.871 657.79 721.719 632.92 768.678C608.05 815.637 592.11 867.716 586.078 921.727C580.046 975.737 584.048 1030.54 597.839 1082.78Z" fill="black"/>
<path d="M603.256 1082.78C681.634 1381.67 843.411 1645.52 1065.48 1836.65L1153.03 1782.97C1153.03 1782.97 779.988 1170.74 893.097 574.439L869.17 580.604C821.14 592.81 775.874 615.748 736.153 648.009C696.432 680.271 663.095 721.174 638.191 768.206C613.286 815.237 597.341 867.404 591.333 921.501C585.325 975.598 589.382 1030.48 603.256 1082.78Z" fill="#4D8AF0"/>
<path d="M1517.1 541.52C1535.86 468.299 1552.17 391.168 1537.08 315.992C1510.57 185.787 1389.98 98.5821 1269.94 86.2532C1177.77 76.781 1077.03 108.505 1021.29 190.147C972.896 260.812 877.869 308.324 835.317 383.5C795.892 453.113 815.741 549.94 786.104 625.417C781.169 635.479 779.719 647.185 782.025 658.344C787.327 675.635 805.952 681.649 821.722 686.911C860.44 699.942 896.347 721.57 927.249 750.472C958.151 779.374 983.398 814.944 1001.45 855.005C996.959 714.276 1088.86 595.046 1175.59 492.055C1216.38 443.942 1284.35 373.276 1345.53 418.231C1354.23 425.298 1506.76 581.665 1517.1 541.52Z" fill="#333333"/>
<path d="M1481 1628.14C1481 1628.14 1607.97 1838.63 1635.3 1748.42C1662.63 1658.21 1571.81 1568 1571.81 1568L1481 1628.14Z" fill="#FDA57D"/>
<path d="M1046 1826.14C1046 1826.14 1172.97 2036.63 1200.3 1946.42C1227.63 1856.21 1136.81 1766 1136.81 1766L1046 1826.14Z" fill="#FDA57D"/>
<path d="M3726.84 2146.83C3726.84 2146.83 3488.11 2344.54 3605.84 3118.41L3726.84 2146.83Z" fill="#4D8AF0"/>
<path opacity="0.05" d="M3726.84 2146.83C3726.84 2146.83 3488.11 2344.54 3605.84 3118.41L3726.84 2146.83Z" fill="black"/>
<path d="M3907.92 2015.42L3887.94 2170.13L4067.8 2280.79V2059.62L3907.92 2015.42Z" fill="#FDA57D"/>
<path d="M4945.2 2221.93C4925.22 2155.62 4806.4 2245.23 4806.4 2245.23L4796.61 2260.27L4843.79 2357.25L4845.28 2354.99C4845.28 2354.99 4965.19 2288.23 4945.2 2221.93Z" fill="#FDA57D"/>
<path opacity="0.05" d="M3905.75 2157.94C3905.75 2157.94 3745.88 2111.33 3705.91 2180.05C3665.94 2248.76 3586.41 3174.93 3586.41 3174.93C3586.41 3174.93 3824.05 3395.95 4106.14 3329.64L4205.52 2600.43L3905.75 2157.94Z" fill="black"/>
<path d="M4585.36 2565.7L3953.47 2174.79C3907.79 2146.23 3856.4 2130.72 3803.93 2129.68C3763.96 2129.68 3723.45 2137.2 3706.05 2167.27C3666.08 2235.98 3586.14 3162.15 3586.14 3162.15C3586.14 3162.15 3823.78 3383.17 4105.87 3316.86L4205.79 2587.35L4606.02 2742.52C4606.02 2742.52 4645.99 2786.72 4687.59 2655.31C4725.93 2532.47 4831.29 2367.84 4844.88 2346.79L4796.35 2249.96L4585.36 2565.7Z" fill="#4D8AF0"/>
<path opacity="0.05" d="M3905.2 2049.84C3922 2073.6 3943.48 2092.81 3968 2106.02C3992.53 2119.23 4019.44 2126.09 4046.72 2126.07C4053.4 2126.08 4060.07 2125.68 4066.7 2124.87V2081.72L3906.83 2037.52L3905.2 2049.84Z" fill="black"/>
<path d="M4047.83 2103.82C4147.16 2103.82 4227.69 2014.77 4227.69 1904.91C4227.69 1795.05 4147.16 1705.99 4047.83 1705.99C3948.49 1705.99 3867.97 1795.05 3867.97 1904.91C3867.97 2014.77 3948.49 2103.82 4047.83 2103.82Z" fill="#FDA57D"/>
<path opacity="0.05" d="M3933.76 1996.17L4004.05 1884.91C4013.69 1867.89 4025.71 1852.66 4039.67 1839.81C4046.72 1833.4 4055.03 1828.93 4063.93 1826.73C4072.84 1824.54 4082.08 1824.69 4090.92 1827.18C4101.09 1831.77 4110.54 1838.11 4118.93 1845.97C4145.16 1867.17 4177.52 1882.81 4209.47 1876.04C4241.42 1869.28 4268.6 1840.56 4291.85 1813.04C4311.16 1790.34 4331.96 1762.52 4326.65 1731.85C4323.55 1720.32 4317.87 1709.83 4310.15 1701.35C4302.44 1692.87 4292.92 1686.66 4282.47 1683.29C4261.42 1676.43 4239.92 1671.41 4218.17 1668.25C4166.91 1657.13 4120.56 1627.51 4070.53 1610.82C4047.83 1603.09 4024.45 1598.05 4000.79 1595.78C3983.86 1593.14 3966.61 1595.26 3950.62 1601.95C3934.48 1612.31 3919.97 1625.52 3907.66 1641.04C3891.12 1658.08 3872.03 1671.81 3851.24 1681.64C3820.25 1696.67 3785.72 1702.23 3757.58 1722.68C3749.84 1727.79 3743.35 1734.91 3738.68 1743.43C3732.91 1759.07 3731.77 1776.34 3735.42 1792.75C3738.3 1831.08 3747.81 1868.44 3763.42 1902.8C3778.89 1929.11 3797.86 1952.68 3819.7 1972.72L3866.61 2020.38C3875.76 2031.41 3886.74 2040.4 3898.96 2046.84C3896.92 2030.3 3924.93 2010.15 3933.76 1996.17Z" fill="black"/>
<path d="M3933.76 1988.81L4004.05 1877.55C4013.69 1860.52 4025.71 1845.3 4039.67 1832.44C4046.72 1826.04 4055.03 1821.56 4063.93 1819.37C4072.84 1817.17 4082.08 1817.33 4090.92 1819.81C4101.09 1824.4 4110.54 1830.75 4118.93 1838.61C4145.16 1859.8 4177.52 1875.44 4209.47 1868.68C4241.42 1861.91 4268.6 1833.19 4291.85 1805.68C4311.16 1782.97 4331.96 1755.16 4326.65 1724.49C4323.66 1712.79 4318.04 1702.12 4310.32 1693.47C4302.59 1684.82 4293.01 1678.47 4282.47 1675.02C4261.42 1668.17 4239.92 1663.14 4218.17 1659.99C4166.91 1648.86 4120.56 1619.24 4070.53 1602.55C4047.83 1594.83 4024.45 1589.79 4000.79 1587.52C3983.86 1584.88 3966.61 1587 3950.62 1593.68C3934.48 1604.05 3919.97 1617.25 3907.66 1632.77C3891.12 1649.81 3872.03 1663.54 3851.24 1673.37C3820.25 1688.4 3785.72 1693.97 3757.58 1714.41C3749.82 1719.56 3743.33 1726.74 3738.68 1735.31C3732.91 1750.96 3731.77 1768.22 3735.42 1784.63C3738.3 1822.96 3747.81 1860.32 3763.42 1894.69C3778.89 1921 3797.86 1944.57 3819.7 1964.6L3866.61 2012.26C3875.76 2023.3 3886.74 2032.28 3898.96 2038.72C3896.92 2022.94 3924.93 2002.79 3933.76 1988.81Z" fill="#333333"/>
<defs>
<linearGradient id="paint0_linear" x1="875.432" y1="1920.25" x2="875.432" y2="1.00303" gradientUnits="userSpaceOnUse">
<stop stop-color="#808080" stop-opacity="0.25"/>
<stop offset="0.54" stop-color="#808080" stop-opacity="0.12"/>
<stop offset="1" stop-color="#808080" stop-opacity="0.1"/>
</linearGradient>
<linearGradient id="paint1_linear" x1="21070.1" y1="4112.36" x2="21070.1" y2="4104.02" gradientUnits="userSpaceOnUse">
<stop stop-color="#808080" stop-opacity="0.25"/>
<stop offset="0.54" stop-color="#808080" stop-opacity="0.12"/>
<stop offset="1" stop-color="#808080" stop-opacity="0.1"/>
</linearGradient>
</defs>
</svg>
