<svg width="7798" height="8079" viewBox="0 0 7798 8079" fill="none" xmlns="http://www.w3.org/2000/svg">
<path d="M3908.88 7926.3C3873.91 7926.01 3838.54 7925.75 3803.8 7924.58L3804.88 7886.67C3839.26 7887.82 3874.41 7888.34 3908.88 7888.38C3943.51 7888.38 3978.79 7887.77 4013.79 7886.54L4014.92 7924.43C3979.54 7925.67 3943.87 7926.3 3908.88 7926.3ZM3593.15 7910.28C3523.38 7903.14 3452.93 7893.45 3383.75 7881.51L3389.27 7844.06C3457.72 7855.88 3527.42 7865.47 3596.45 7872.54L3593.15 7910.28ZM4225.56 7909.88L4222.22 7872.14C4291.22 7864.99 4360.92 7855.3 4429.36 7843.38L4434.94 7880.82C4365.75 7892.88 4295.3 7902.65 4225.56 7909.88H4225.56ZM3176.47 7838.23C3108.16 7821.47 3039.43 7802.06 2972.2 7780.57L2982.14 7744.19C3048.65 7765.47 3116.64 7784.66 3184.22 7801.23L3176.47 7838.23ZM4642.16 7837.29L4634.37 7800.32C4702.11 7783.6 4770.08 7764.32 4836.4 7743.01L4846.37 7779.38C4779.34 7800.92 4710.63 7820.4 4642.16 7837.29H4642.16ZM2771.77 7708.79C2705.86 7682.59 2639.91 7653.74 2575.76 7623.01L2589.95 7588.35C2653.4 7618.72 2718.64 7647.27 2783.85 7673.2L2771.77 7708.79ZM5046.7 7707.31L5034.59 7671.72C5099.4 7645.88 5164.41 7617.35 5227.82 7586.9L5242.04 7621.57C5177.93 7652.35 5112.21 7681.2 5046.7 7707.31H5046.7ZM2385.34 7523.76C2323.31 7488.72 2261.36 7450.94 2201.24 7411.5L2219.42 7379.06C2278.9 7418.11 2340.18 7455.46 2401.55 7490.13L2385.34 7523.76ZM5431.93 7522.37L5415.71 7488.76C5476.93 7454.11 5538.07 7416.76 5597.4 7377.74L5615.6 7410.15C5555.63 7449.59 5493.84 7487.33 5431.93 7522.37H5431.93ZM2024.23 7286.73C1966.78 7243.34 1909.84 7197.32 1854.98 7149.99L1876.83 7120.32C1931.11 7167.17 1987.45 7212.69 2044.28 7255.62L2024.23 7286.73ZM5792.33 7285.38L5772.24 7254.3C5829.07 7211.32 5885.33 7165.8 5939.47 7119.01L5961.34 7148.64C5906.61 7195.93 5849.75 7241.93 5792.33 7285.38ZM1694.16 7001.83C1642.22 6950.81 1591.16 6897.35 1542.42 6842.96L1567.58 6816.55C1615.8 6870.37 1666.33 6923.26 1717.72 6973.75L1694.16 7001.83ZM6122 7000.51L6098.42 6972.44C6149.68 6922.05 6200.16 6869.13 6248.46 6815.18L6273.62 6841.55C6224.82 6896.09 6173.79 6949.57 6122 7000.51ZM1400.36 6674C1354.89 6616.3 1310.56 6556.28 1268.57 6495.62L1296.63 6472.88C1338.17 6532.91 1382.03 6592.3 1427.02 6649.37L1400.36 6674ZM6415.64 6672.43L6388.98 6647.84C6433.97 6590.71 6477.84 6531.25 6519.37 6471.14L6547.43 6493.84C6505.46 6554.6 6461.12 6614.69 6415.64 6672.43V6672.43ZM1147.59 6308.51C1109.25 6244.98 1072.36 6179.37 1037.93 6113.5L1068.44 6094.83C1102.49 6160 1139 6224.92 1176.93 6287.77L1147.59 6308.51ZM6668.46 6306.46L6639.1 6285.75C6677.05 6222.77 6713.55 6157.74 6747.62 6092.43L6778.15 6111.06C6743.72 6177.09 6706.81 6242.83 6668.46 6306.46ZM940.07 5911.32C909.578 5843.06 880.771 5772.92 854.454 5702.81L886.914 5688.55C912.957 5757.88 941.456 5827.28 971.623 5894.8L940.07 5911.32ZM6876.04 5908.36L6844.49 5891.88C6874.64 5824.25 6903.15 5754.66 6929.22 5684.99L6961.7 5699.21C6935.35 5769.64 6906.53 5840.01 6876.04 5908.36ZM781.303 5488.5C759.135 5416.46 738.884 5342.78 721.105 5269.49L755.003 5259.86C772.585 5332.35 792.622 5405.26 814.55 5476.5L781.303 5488.5ZM7034.71 5484.48L7001.45 5472.55C7023.25 5401.39 7043.22 5328.47 7060.76 5255.82L7094.67 5265.41C7076.93 5338.85 7056.75 5412.55 7034.71 5484.48ZM674.092 5046.79C660.702 4972.38 649.374 4896.51 640.417 4821.28L675.17 4816.42C684.033 4890.87 695.241 4965.92 708.485 5039.53L674.092 5046.79ZM7141.44 5042.62L7107.04 5035.44C7120.18 4961.85 7131.32 4886.76 7140.1 4812.26L7174.87 4817.07C7165.99 4892.37 7154.73 4968.25 7141.44 5042.62V5042.62ZM620.157 4593.91C615.665 4518.32 613.346 4441.49 613.27 4365.55L648.314 4365.51C648.39 4440.65 650.683 4516.67 655.132 4591.47L620.157 4593.91ZM7194.89 4589.67L7159.92 4587.26C7164.28 4512.54 7166.49 4436.53 7166.49 4361.36L7166.47 4353.05H7201.51L7201.53 4361.23C7201.53 4437.32 7199.29 4514.14 7194.89 4589.67ZM654.645 4139.59L619.669 4137.26C624.015 4061.52 630.663 3985 639.433 3909.82L674.203 3914.56C665.519 3988.96 658.94 4064.67 654.645 4139.59ZM7159.44 4127.15C7154.89 4052.18 7148.06 3976.5 7139.14 3902.21L7173.88 3897.32C7182.9 3972.41 7189.81 4048.89 7194.41 4124.66L7159.44 4127.15ZM707.023 3691.38L672.612 3684.21C685.831 3609.78 701.488 3534.81 719.129 3461.39L753.044 3470.92C735.59 3543.57 720.104 3617.73 707.023 3691.38ZM7105.55 3679.15C7092.21 3605.47 7076.47 3531.36 7058.81 3458.87L7092.69 3449.2C7110.55 3522.47 7126.45 3597.37 7139.95 3671.85L7105.55 3679.15ZM812.129 3254.13L778.847 3242.24C800.844 3170.18 825.33 3097.9 851.639 3027.39L884.133 3041.59C858.107 3111.34 833.886 3182.85 812.129 3254.13ZM6999.05 3242.31C6977.05 3171.13 6952.63 3099.82 6926.47 3030.37L6958.91 3016.06C6985.36 3086.26 7010.06 3158.33 7032.28 3230.27L6999.05 3242.31ZM968.663 2834.56L937.076 2818.12C967.474 2749.73 1000.34 2681.49 1034.76 2615.31L1065.31 2633.92C1031.25 2699.39 998.736 2766.9 968.663 2834.56ZM6841.54 2824.22C6811.36 2756.88 6778.73 2689.62 6744.5 2624.32L6775 2605.61C6809.58 2671.61 6842.57 2739.6 6873.06 2807.68L6841.54 2824.22ZM1173.62 2440.43L1144.24 2419.75C1182.46 2356.18 1223.11 2293.08 1265.05 2232.22L1293.15 2254.88C1251.65 2315.1 1211.43 2377.53 1173.62 2440.43ZM6635.8 2431.51C6597.88 2368.83 6557.55 2306.6 6515.9 2246.55L6543.93 2223.79C6586.02 2284.49 6626.8 2347.39 6665.13 2410.73L6635.8 2431.51ZM1423.35 2078.03L1396.65 2053.47C1442.04 1995.69 1489.75 1938.72 1538.47 1884.18L1563.68 1910.53C1515.47 1964.5 1468.26 2020.86 1423.35 2078.03ZM6385.3 2070.21C6340.25 2013.2 6292.89 1957.01 6244.56 1903.2L6269.68 1876.77C6318.54 1931.15 6366.4 1987.94 6411.93 2045.56L6385.3 2070.21ZM1713.54 1753.06L1689.95 1725.03C1741.8 1673.91 1795.81 1623.99 1850.44 1576.68L1872.35 1606.29C1818.28 1653.1 1764.85 1702.49 1713.54 1753.06ZM6094.24 1746.18C6042.85 1695.84 5989.28 1646.6 5934.97 1599.84L5956.8 1570.16C6011.68 1617.43 6065.84 1667.19 6117.75 1718.07L6094.24 1746.18ZM2039.43 1470.78L2019.32 1439.73C2076.66 1396.24 2136.08 1354.19 2195.9 1314.75L2214.14 1347.14C2154.95 1386.17 2096.16 1427.77 2039.43 1470.78ZM5767.38 1464.75C5710.33 1421.78 5651.37 1380.31 5592.11 1341.51L5610.25 1309.07C5670.14 1348.28 5729.75 1390.18 5787.4 1433.62L5767.38 1464.75ZM2395.72 1235.88L2379.45 1202.29C2441.4 1167.12 2505.26 1133.66 2569.23 1102.84L2583.48 1137.49C2520.19 1167.98 2457.02 1201.09 2395.72 1235.88ZM5409.86 1230.68C5348.31 1196.01 5284.9 1163.06 5221.36 1132.73L5235.51 1098.02C5299.73 1128.68 5363.83 1162 5426.04 1197.03L5409.86 1230.68ZM2776.63 1052.42L2764.46 1016.84C2830.17 990.536 2897.55 966.204 2964.72 944.528L2974.73 980.879C2908.27 1002.31 2841.63 1026.39 2776.63 1052.42H2776.63ZM5027.36 1048.11C4962.22 1022.32 4895.49 998.509 4829.01 977.343L4838.9 940.954C4906.1 962.352 4973.56 986.426 5039.4 1012.5L5027.36 1048.11ZM3176.69 923.335L3168.87 886.373C3237.05 869.466 3306.75 854.735 3376.05 842.56L3381.66 880.003C3313.1 892.04 3244.14 906.614 3176.69 923.335ZM4626.86 920.576C4559.29 904.095 4490.28 889.781 4421.75 878.022L4427.24 840.56C4496.5 852.448 4566.26 866.92 4634.56 883.577L4626.86 920.576ZM3588.77 850.976L3585.39 813.236C3654.96 805.931 3725.83 800.94 3796.01 798.413L3797.17 836.318C3727.73 838.819 3657.61 843.754 3588.77 850.976ZM4214.54 849.8C4145.59 842.829 4075.46 838.162 4006.09 835.93L4007.14 798.025C4077.23 800.284 4148.12 804.996 4217.8 812.043L4214.54 849.8Z" fill="white"/>
<path d="M3784.75 1782.47C4239.58 1782.47 4608.28 1383.45 4608.28 891.235C4608.28 399.02 4239.58 0 3784.75 0C3329.93 0 2961.22 399.02 2961.22 891.235C2961.22 1383.45 3329.93 1782.47 3784.75 1782.47Z" fill="#FBD43C"/>
<path d="M6973.75 4209.66C7428.58 4209.66 7797.29 3810.64 7797.29 3318.43C7797.29 2826.21 7428.58 2427.19 6973.75 2427.19C6518.93 2427.19 6150.22 2826.21 6150.22 3318.43C6150.22 3810.64 6518.93 4209.66 6973.75 4209.66Z" fill="#FBD43C"/>
<path d="M5975 7926.3C6429.83 7926.3 6798.53 7527.28 6798.53 7035.07C6798.53 6542.85 6429.83 6143.83 5975 6143.83C5520.18 6143.83 5151.47 6542.85 5151.47 7035.07C5151.47 7527.28 5520.18 7926.3 5975 7926.3Z" fill="#FBD43C"/>
<path d="M2015.03 8078C2469.86 8078 2838.56 7678.98 2838.56 7186.77C2838.56 6694.55 2469.86 6295.53 2015.03 6295.53C1560.2 6295.53 1191.5 6694.55 1191.5 7186.77C1191.5 7678.98 1560.2 8078 2015.03 8078Z" fill="#FBD43C"/>
<path d="M823.534 4209.66C1278.36 4209.66 1647.07 3810.64 1647.07 3318.43C1647.07 2826.21 1278.36 2427.19 823.534 2427.19C368.709 2427.19 0 2826.21 0 3318.43C0 3810.64 368.709 4209.66 823.534 4209.66Z" fill="#FBD43C"/>
<mask id="path-7-outside-1" maskUnits="userSpaceOnUse" x="3398.63" y="368.85" width="773" height="1045" fill="black">
<rect fill="white" x="3398.63" y="368.85" width="773" height="1045"/>
<path d="M4137.66 820.183H3850.41C3824.29 820.183 3799.24 808.953 3780.77 788.965C3762.3 768.977 3751.92 741.867 3751.92 713.6V402.732C3751.92 401.566 3751.71 400.411 3751.3 399.333C3750.89 398.256 3750.28 397.276 3749.52 396.452C3748.76 395.627 3747.85 394.973 3746.86 394.526C3745.86 394.08 3744.79 393.85 3743.72 393.85H3554.95C3520.12 393.85 3486.72 408.822 3462.1 435.473C3437.47 462.124 3423.63 498.271 3423.63 535.961V1246.51C3423.63 1284.2 3437.47 1320.35 3462.1 1347C3486.72 1373.65 3520.12 1388.62 3554.95 1388.62H4014.55C4049.38 1388.62 4082.78 1373.65 4107.41 1347C4132.03 1320.35 4145.87 1284.2 4145.87 1246.51V829.064C4145.87 827.898 4145.66 826.742 4145.24 825.665C4144.83 824.587 4144.23 823.608 4143.46 822.783C4142.7 821.959 4141.8 821.304 4140.8 820.858C4139.81 820.412 4138.74 820.182 4137.66 820.183ZM3948.9 1175.46H3620.61C3611.9 1175.46 3603.55 1171.72 3597.39 1165.05C3591.24 1158.39 3587.78 1149.35 3587.78 1139.93C3587.78 1130.51 3591.24 1121.47 3597.39 1114.81C3603.55 1108.15 3611.9 1104.4 3620.61 1104.4H3948.9C3957.6 1104.4 3965.95 1108.15 3972.11 1114.81C3978.27 1121.47 3981.72 1130.51 3981.72 1139.93C3981.72 1149.35 3978.27 1158.39 3972.11 1165.05C3965.95 1171.72 3957.6 1175.46 3948.9 1175.46ZM3948.9 997.82H3620.61C3611.9 997.82 3603.55 994.077 3597.39 987.414C3591.24 980.752 3587.78 971.715 3587.78 962.293C3587.78 952.87 3591.24 943.833 3597.39 937.171C3603.55 930.508 3611.9 926.765 3620.61 926.765H3948.9C3957.6 926.765 3965.95 930.508 3972.11 937.171C3978.27 943.833 3981.72 952.87 3981.72 962.293C3981.72 971.715 3978.27 980.752 3972.11 987.414C3965.95 994.077 3957.6 997.82 3948.9 997.82Z"/>
</mask>
<path d="M4137.66 820.183H3850.41C3824.29 820.183 3799.24 808.953 3780.77 788.965C3762.3 768.977 3751.92 741.867 3751.92 713.6V402.732C3751.92 401.566 3751.71 400.411 3751.3 399.333C3750.89 398.256 3750.28 397.276 3749.52 396.452C3748.76 395.627 3747.85 394.973 3746.86 394.526C3745.86 394.08 3744.79 393.85 3743.72 393.85H3554.95C3520.12 393.85 3486.72 408.822 3462.1 435.473C3437.47 462.124 3423.63 498.271 3423.63 535.961V1246.51C3423.63 1284.2 3437.47 1320.35 3462.1 1347C3486.72 1373.65 3520.12 1388.62 3554.95 1388.62H4014.55C4049.38 1388.62 4082.78 1373.65 4107.41 1347C4132.03 1320.35 4145.87 1284.2 4145.87 1246.51V829.064C4145.87 827.898 4145.66 826.742 4145.24 825.665C4144.83 824.587 4144.23 823.608 4143.46 822.783C4142.7 821.959 4141.8 821.304 4140.8 820.858C4139.81 820.412 4138.74 820.182 4137.66 820.183ZM3948.9 1175.46H3620.61C3611.9 1175.46 3603.55 1171.72 3597.39 1165.05C3591.24 1158.39 3587.78 1149.35 3587.78 1139.93C3587.78 1130.51 3591.24 1121.47 3597.39 1114.81C3603.55 1108.15 3611.9 1104.4 3620.61 1104.4H3948.9C3957.6 1104.4 3965.95 1108.15 3972.11 1114.81C3978.27 1121.47 3981.72 1130.51 3981.72 1139.93C3981.72 1149.35 3978.27 1158.39 3972.11 1165.05C3965.95 1171.72 3957.6 1175.46 3948.9 1175.46ZM3948.9 997.82H3620.61C3611.9 997.82 3603.55 994.077 3597.39 987.414C3591.24 980.752 3587.78 971.715 3587.78 962.293C3587.78 952.87 3591.24 943.833 3597.39 937.171C3603.55 930.508 3611.9 926.765 3620.61 926.765H3948.9C3957.6 926.765 3965.95 930.508 3972.11 937.171C3978.27 943.833 3981.72 952.87 3981.72 962.293C3981.72 971.715 3978.27 980.752 3972.11 987.414C3965.95 994.077 3957.6 997.82 3948.9 997.82Z" fill="white"/>
<path d="M4137.66 820.183V845.183H4137.66L4137.66 820.183ZM3751.92 402.732L3726.92 402.731V402.732H3751.92ZM3751.3 399.333L3727.95 408.269V408.27L3751.3 399.333ZM3749.52 396.452L3731.16 413.418L3731.16 413.418L3749.52 396.452ZM3746.86 394.526L3757.08 371.713L3757.08 371.713L3746.86 394.526ZM3743.72 393.85V418.85H3743.72L3743.72 393.85ZM3554.95 393.85V418.85V393.85ZM3462.1 435.473L3443.73 418.507L3443.73 418.507L3462.1 435.473ZM3423.63 535.961L3398.63 535.961V535.961H3423.63ZM3423.63 1246.51H3398.63H3423.63ZM3462.1 1347L3480.46 1330.03H3480.46L3462.1 1347ZM4107.41 1347L4089.05 1330.03H4089.05L4107.41 1347ZM4145.24 825.665L4168.59 816.728L4168.59 816.727L4145.24 825.665ZM4143.46 822.783L4125.1 839.751L4125.11 839.752L4143.46 822.783ZM4140.8 820.858L4130.58 843.672L4130.58 843.672L4140.8 820.858ZM4137.66 795.183H3850.41V845.183H4137.66V795.183ZM3850.41 795.183C3831.59 795.183 3813.09 787.108 3799.13 771.998L3762.41 805.931C3785.39 830.798 3816.99 845.183 3850.41 845.183V795.183ZM3799.13 771.998C3785.11 756.823 3776.92 735.846 3776.92 713.6H3726.92C3726.92 747.888 3739.49 781.131 3762.41 805.931L3799.13 771.998ZM3776.92 713.6V402.732H3726.92V713.6H3776.92ZM3776.92 402.733C3776.92 398.539 3776.16 394.353 3774.65 390.397L3727.95 408.27C3727.26 406.468 3726.92 404.592 3726.92 402.731L3776.92 402.733ZM3774.65 390.397C3773.13 386.434 3770.86 382.71 3767.88 379.485L3731.16 413.418C3729.7 411.842 3728.64 410.077 3727.95 408.269L3774.65 390.397ZM3767.88 379.485C3764.9 376.257 3761.25 373.581 3757.08 371.713L3736.63 417.339C3734.46 416.365 3732.62 414.996 3731.16 413.418L3767.88 379.485ZM3757.08 371.713C3752.91 369.843 3748.36 368.85 3743.71 368.85L3743.72 418.85C3741.23 418.85 3738.81 418.317 3736.63 417.339L3757.08 371.713ZM3743.72 368.85H3554.95V418.85H3743.72V368.85ZM3554.95 368.85C3512.83 368.85 3472.87 386.977 3443.73 418.507L3480.46 452.44C3500.58 430.668 3527.42 418.85 3554.95 418.85V368.85ZM3443.73 418.507C3414.66 449.97 3398.63 492.25 3398.63 535.961L3448.63 535.961C3448.63 504.292 3460.28 474.278 3480.46 452.44L3443.73 418.507ZM3398.63 535.961V1246.51H3448.63V535.961H3398.63ZM3398.63 1246.51C3398.63 1290.22 3414.66 1332.5 3443.73 1363.97L3480.46 1330.03C3460.28 1308.2 3448.63 1278.18 3448.63 1246.51H3398.63ZM3443.73 1363.97C3472.87 1395.5 3512.83 1413.62 3554.95 1413.62V1363.62C3527.42 1363.62 3500.58 1351.81 3480.46 1330.03L3443.73 1363.97ZM3554.95 1413.62H4014.55V1363.62H3554.95V1413.62ZM4014.55 1413.62C4056.68 1413.62 4096.63 1395.5 4125.77 1363.97L4089.05 1330.03C4068.93 1351.81 4042.08 1363.62 4014.55 1363.62V1413.62ZM4125.77 1363.97C4154.84 1332.5 4170.87 1290.22 4170.87 1246.51H4120.87C4120.87 1278.18 4109.23 1308.2 4089.05 1330.03L4125.77 1363.97ZM4170.87 1246.51V829.064H4120.87V1246.51H4170.87ZM4170.87 829.064C4170.87 824.873 4170.11 820.687 4168.59 816.728L4121.9 834.602C4121.21 832.798 4120.87 830.922 4120.87 829.064H4170.87ZM4168.59 816.727C4167.07 812.759 4164.8 809.037 4161.82 805.815L4125.11 839.752C4123.65 838.179 4122.59 836.415 4121.9 834.603L4168.59 816.727ZM4161.82 805.816C4158.85 802.591 4155.2 799.913 4151.03 798.044L4130.58 843.672C4128.4 842.696 4126.56 841.326 4125.1 839.751L4161.82 805.816ZM4151.03 798.045C4146.85 796.174 4142.3 795.182 4137.66 795.183L4137.66 845.183C4135.18 845.183 4132.76 844.65 4130.58 843.672L4151.03 798.045ZM3948.9 1150.46H3620.61V1200.46H3948.9V1150.46ZM3620.61 1150.46C3619.2 1150.46 3617.4 1149.87 3615.76 1148.09L3579.03 1182.02C3589.7 1193.56 3604.6 1200.46 3620.61 1200.46V1150.46ZM3615.76 1148.09C3614.05 1146.24 3612.78 1143.33 3612.78 1139.93H3562.78C3562.78 1155.37 3568.43 1170.54 3579.03 1182.02L3615.76 1148.09ZM3612.78 1139.93C3612.78 1136.53 3614.05 1133.63 3615.76 1131.78L3579.03 1097.84C3568.43 1109.32 3562.78 1124.49 3562.78 1139.93H3612.78ZM3615.76 1131.78C3617.4 1129.99 3619.2 1129.4 3620.61 1129.4V1079.4C3604.6 1079.4 3589.7 1086.3 3579.03 1097.84L3615.76 1131.78ZM3620.61 1129.4H3948.9V1079.4H3620.61V1129.4ZM3948.9 1129.4C3950.31 1129.4 3952.1 1129.99 3953.75 1131.78L3990.47 1097.84C3979.81 1086.3 3964.9 1079.4 3948.9 1079.4V1129.4ZM3953.75 1131.78C3955.46 1133.63 3956.72 1136.53 3956.72 1139.93H4006.72C4006.72 1124.49 4001.07 1109.32 3990.47 1097.84L3953.75 1131.78ZM3956.72 1139.93C3956.72 1143.33 3955.46 1146.24 3953.75 1148.09L3990.47 1182.02C4001.07 1170.54 4006.72 1155.37 4006.72 1139.93H3956.72ZM3953.75 1148.09C3952.1 1149.87 3950.31 1150.46 3948.9 1150.46V1200.46C3964.9 1200.46 3979.81 1193.56 3990.47 1182.02L3953.75 1148.09ZM3948.9 972.82H3620.61V1022.82H3948.9V972.82ZM3620.61 972.82C3619.2 972.82 3617.4 972.232 3615.76 970.448L3579.03 1004.38C3589.7 1015.92 3604.6 1022.82 3620.61 1022.82V972.82ZM3615.76 970.448C3614.05 968.597 3612.78 965.694 3612.78 962.293H3562.78C3562.78 977.737 3568.43 992.906 3579.03 1004.38L3615.76 970.448ZM3612.78 962.293C3612.78 958.891 3614.05 955.988 3615.76 954.137L3579.03 920.204C3568.43 931.679 3562.78 946.849 3562.78 962.293H3612.78ZM3615.76 954.137C3617.4 952.354 3619.2 951.765 3620.61 951.765V901.765C3604.6 901.765 3589.7 908.662 3579.03 920.204L3615.76 954.137ZM3620.61 951.765H3948.9V901.765H3620.61V951.765ZM3948.9 951.765C3950.31 951.765 3952.1 952.353 3953.75 954.137L3990.47 920.204C3979.81 908.663 3964.9 901.765 3948.9 901.765V951.765ZM3953.75 954.137C3955.46 955.988 3956.72 958.891 3956.72 962.293H4006.72C4006.72 946.849 4001.07 931.679 3990.47 920.204L3953.75 954.137ZM3956.72 962.293C3956.72 965.694 3955.46 968.597 3953.75 970.448L3990.47 1004.38C4001.07 992.906 4006.72 977.737 4006.72 962.293H3956.72ZM3953.75 970.448C3952.1 972.232 3950.31 972.82 3948.9 972.82V1022.82C3964.9 1022.82 3979.81 1015.92 3990.47 1004.38L3953.75 970.448Z" fill="black" mask="url(#path-7-outside-1)"/>
<path d="M4126.02 735.655L4128.82 733.069L3833.75 413.741L3833.74 413.728L3833.72 413.714C3831.47 411.294 3828.49 409.522 3825.09 408.794C3821.67 408.063 3818.14 408.454 3815 409.861L3820.11 421.27L3815 409.861C3811.87 411.261 3809.35 413.557 3807.65 416.306C3805.95 419.045 3805.08 422.174 3805.07 425.307L3805.07 425.331V425.356V713.596C3805.07 726.029 3809.63 738.132 3818.01 747.201C3826.42 756.303 3838.04 761.623 3850.4 761.623H4116.74H4116.77L4116.8 761.623C4120.3 761.607 4123.63 760.467 4126.36 758.48C4129.08 756.504 4131.06 753.809 4132.2 750.841L4120.52 746.379L4132.2 750.841C4133.33 747.878 4133.61 744.667 4133.05 741.575C4132.48 738.482 4131.07 735.517 4128.84 733.095L4126.02 735.655Z" fill="white" stroke="black" stroke-width="25"/>
<path d="M6094.11 6847C6080.84 6847.01 6068.13 6852 6058.13 6860.89C6048.15 6869.77 6041.48 6881.96 6039.04 6895.29C6036.59 6908.61 6038.48 6922.47 6044.45 6934.56C6050.44 6946.65 6060.22 6956.36 6072.35 6961.78C6084.51 6967.23 6098.1 6967.95 6110.73 6963.8C6123.34 6959.65 6134.01 6950.98 6141.08 6939.52C6148.14 6928.07 6151.25 6914.45 6150.02 6900.94C6148.79 6887.44 6143.25 6874.66 6134.17 6864.83C6129 6859.25 6122.81 6854.76 6115.93 6851.68C6109.05 6848.59 6101.63 6846.99 6094.11 6847Z" fill="white" stroke="black" stroke-width="25"/>
<path d="M6349.58 6669.34C6361.43 6727.52 6347.7 6813.18 6313.84 6904.16C6281.43 6993.39 6233.26 7074.99 6171.97 7144.4L6171.89 7144.5L6171.8 7144.59C6155.52 7162.3 6138.17 7178.83 6119.87 7194.09C6121.11 7228.92 6115.49 7263.68 6103.34 7296.06L6103.28 7296.2L6103.23 7296.34C6059.18 7405.54 5946.78 7435.4 5902.18 7443.17C5899.21 7443.7 5896.21 7443.97 5893.21 7443.97L5893.14 7443.97L5893.08 7443.96C5891.39 7443.95 5889.71 7443.84 5888.04 7443.66C5888.04 7443.66 5888.04 7443.66 5888.04 7443.66L5889.43 7431.23C5884.09 7430.64 5878.91 7428.91 5874.19 7426.14C5869.47 7423.38 5865.3 7419.63 5861.91 7415.13C5858.53 7410.62 5855.99 7405.43 5854.46 7399.86C5852.93 7394.3 5852.42 7388.46 5852.97 7382.68L6349.58 6669.34ZM6349.58 6669.34V6669.16L6349.31 6667.89C6347.48 6659.23 6343.44 6651.17 6337.5 6644.68C6331.57 6638.19 6323.97 6633.5 6315.51 6631.3C6262.6 6617.34 6182.7 6632.47 6097.09 6669.55C6013.84 6704.59 5937.74 6756.76 5872.99 6823.13L5872.88 6823.24L5872.78 6823.35C5856.57 6840.79 5841.42 6859.33 5827.42 6878.85C5795.04 6877.53 5762.77 6883.7 5732.79 6896.94L5732.62 6897.02L5732.46 6897.09C5681.81 6921.21 5649.77 6963.91 5629.59 7005.74C5609.41 7047.57 5600.62 7089.48 5596.92 7113.78C5595.62 7122.24 5596.13 7130.91 5598.43 7139.15C5600.73 7147.39 5604.78 7155.02 5610.33 7161.42C5615.88 7167.83 5622.79 7172.85 5630.58 7176L5635.27 7164.41L5630.58 7176C5638.14 7179.06 5646.28 7180.27 5654.38 7179.49H5654.69L5655.42 7179.41L5748.41 7168.42C5751.22 7181.64 5757.44 7193.9 5766.54 7203.73C5766.54 7203.73 5766.54 7203.73 5766.54 7203.73L5817.84 7259.28C5817.84 7259.29 5817.85 7259.29 5817.85 7259.3C5826.85 7269.07 5838.26 7275.98 5850.81 7279.18L5840.54 7381.19L5840.47 7381.82V7382.12L6349.58 6669.34ZM6152.77 6841.51L6152.78 6841.52L6152.79 6841.54L6152.86 6841.61L6152.88 6841.63L6152.9 6841.65C6168.67 6858.46 6177.78 6881.55 6177.95 6905.91C6178.12 6930.24 6169.34 6953.48 6153.82 6970.55C6153.81 6970.56 6153.8 6970.57 6153.79 6970.58L6152.83 6971.62C6141.07 6984.36 6126.21 6992.91 6110.18 6996.37C6094.17 6999.83 6077.56 6998.08 6062.4 6991.3C6047.23 6984.5 6034.09 6972.92 6024.78 6957.85C6015.46 6942.78 6010.43 6924.95 6010.42 6906.65C6010.41 6888.34 6015.43 6870.51 6024.73 6855.43C6034.03 6840.35 6047.15 6828.75 6062.32 6821.94C6077.47 6815.14 6094.09 6813.37 6110.1 6816.81C6126.13 6820.25 6141 6828.78 6152.77 6841.51Z" fill="white" stroke="black" stroke-width="25"/>
<path d="M5821.17 7265.9C5814.84 7265.05 5808.45 7266.73 5803.18 7270.62C5792.73 7278.35 5782.24 7286 5771.64 7293.45C5767.04 7296.65 5761.58 7298.09 5756.13 7297.53C5750.69 7296.97 5745.57 7294.45 5741.61 7290.36C5737.65 7286.28 5735.07 7280.88 5734.29 7275.02C5733.51 7269.16 5734.57 7263.18 5737.3 7258.06L5757.17 7220.89C5760.01 7216.4 5761.59 7211.11 5761.72 7205.66C5761.86 7200.22 5760.53 7194.85 5757.92 7190.2C5755.3 7185.54 5751.5 7181.8 5746.97 7179.43C5742.44 7177.06 5737.37 7176.15 5732.38 7176.81C5710.33 7179.83 5689.83 7190.7 5674.11 7207.71C5668.13 7214.2 5649.93 7233.92 5640.13 7309.04C5637.35 7330.62 5635.59 7352.34 5634.87 7374.11C5634.78 7377.83 5635.37 7381.53 5636.6 7385C5637.84 7388.47 5639.69 7391.64 5642.06 7394.34C5644.42 7397.03 5647.26 7399.2 5650.4 7400.71C5653.53 7402.22 5656.92 7403.04 5660.35 7403.14C5660.58 7403.15 5660.81 7403.15 5661.03 7403.15H5661.69C5681.82 7402.38 5701.91 7400.49 5721.86 7397.49C5791.31 7386.87 5809.53 7367.15 5815.51 7360.68C5831.3 7343.66 5841.32 7321.38 5843.95 7297.43C5844.79 7289.98 5842.86 7282.47 5838.59 7276.56C5834.32 7270.65 5828.05 7266.81 5821.17 7265.9Z" fill="white" stroke="black" stroke-width="25"/>
<path d="M1671.94 7683.57H1731.6C1747.12 7683.57 1761.78 7676.89 1772.43 7665.36C1783.05 7653.88 1788.86 7638.49 1788.86 7622.64V7332.06C1788.86 7316.2 1783.05 7300.82 1772.43 7289.33C1761.78 7277.81 1747.12 7271.13 1731.6 7271.13H1671.94C1656.42 7271.13 1641.76 7277.81 1631.11 7289.33C1620.5 7300.82 1614.69 7316.2 1614.69 7332.06V7622.64C1614.69 7638.49 1620.5 7653.88 1631.11 7665.36C1641.76 7676.89 1656.42 7683.57 1671.94 7683.57Z" fill="white" stroke="black" stroke-width="25"/>
<path d="M2089.62 7683.57H2149.29C2164.81 7683.57 2179.47 7676.89 2190.11 7665.37C2200.73 7653.88 2206.54 7638.49 2206.54 7622.64V7138.34C2206.54 7122.48 2200.73 7107.1 2190.11 7095.61C2179.47 7084.09 2164.81 7077.41 2149.29 7077.41H2089.62C2074.11 7077.41 2059.44 7084.09 2048.8 7095.61C2038.18 7107.1 2032.37 7122.48 2032.37 7138.34V7622.64C2032.37 7638.49 2038.18 7653.88 2048.8 7665.37C2059.44 7676.89 2074.11 7683.57 2089.62 7683.57Z" fill="white" stroke="black" stroke-width="25"/>
<path d="M2257.63 6869.6L2266.81 6878.09L2257.63 6869.6C2247.01 6881.09 2241.2 6896.48 2241.2 6912.33V7622.64C2241.2 7638.49 2247.01 7653.88 2257.63 7665.36C2268.27 7676.89 2282.93 7683.57 2298.45 7683.57H2358.12C2373.63 7683.57 2388.3 7676.89 2398.94 7665.36C2409.56 7653.88 2415.37 7638.49 2415.37 7622.64V6912.33C2415.37 6896.48 2409.56 6881.09 2398.94 6869.6C2388.3 6858.08 2373.63 6851.4 2358.12 6851.4H2298.45C2282.93 6851.4 2268.27 6858.08 2257.63 6869.6Z" fill="white" stroke="black" stroke-width="25"/>
<path d="M1839.94 6708.17L1849.12 6716.66L1839.94 6708.17C1829.32 6719.66 1823.51 6735.05 1823.51 6750.9V7622.64C1823.51 7638.49 1829.32 7653.88 1839.94 7665.37C1850.58 7676.89 1865.25 7683.57 1880.76 7683.57H1940.43C1948.09 7683.57 1955.65 7681.93 1962.67 7678.79L1957.56 7667.38L1962.67 7678.79C1969.68 7675.64 1975.99 7671.06 1981.25 7665.37C1986.52 7659.67 1990.65 7652.96 1993.45 7645.64C1996.25 7638.32 1997.68 7630.51 1997.68 7622.64V6750.9C1997.68 6735.05 1991.87 6719.66 1981.26 6708.17C1970.61 6696.65 1955.95 6689.97 1940.43 6689.97H1880.76C1865.25 6689.97 1850.58 6696.65 1839.94 6708.17Z" fill="white" stroke="black" stroke-width="25"/>
<path d="M7022.39 3286.62L7022.4 3286.63L7022.53 3286.78L7022.54 3286.79L7022.55 3286.8C7034.52 3299.86 7041.05 3317.34 7040.98 3335.34C7040.91 3353.26 7034.3 3370.6 7022.33 3383.54L6747.14 3702.55C6741.32 3709.57 6734.25 3715.35 6726.27 3719.51C6718.24 3723.69 6709.49 3726.15 6700.51 3726.7L6700.14 3726.72H6699.76H6697.83H6697.81L6697.78 3726.72C6680.27 3726.66 6663.71 3719.11 6651.62 3706.08L6651.62 3706.07M7022.39 3286.62L6660.78 3697.57L6651.62 3706.07M7022.39 3286.62L7022.38 3286.61L6979.75 3240.46L6979.75 3240.46C6967.74 3227.46 6951.24 3219.93 6933.79 3219.88C6916.42 3219.83 6899.95 3227.2 6887.89 3240.03L6591.74 3535.81M7022.39 3286.62L6591.74 3535.81M6651.62 3706.07L6651.51 3705.96L6651.47 3705.92L6651.44 3705.88L6587.77 3636.22L6587.76 3636.21L6587.75 3636.2C6581.54 3629.38 6576.75 3621.31 6573.63 3612.51C6570.5 3603.72 6569.09 3594.35 6569.47 3584.98L6569.47 3584.83L6569.48 3584.69C6570.66 3566.07 6578.55 3548.49 6591.74 3535.81M6651.62 3706.07L6591.74 3535.81" fill="white" stroke="black" stroke-width="25"/>
<path d="M7365.22 3193.58L7365.11 3193.45L7364.99 3193.33L7364.49 3192.78L7364.47 3192.76L7364.45 3192.73L7308.52 3132.83C7308.52 3132.83 7308.51 3132.82 7308.51 3132.81C7304.11 3128.08 7298.84 3124.28 7292.97 3121.67C7287.1 3119.07 7280.77 3117.73 7274.36 3117.77C7271.75 3117.78 7269.16 3118 7266.61 3118.45C7265.61 3106.53 7262.02 3094.91 7255.98 3084.57L7255.75 3084.18L7255.49 3083.8C7242.83 3065.33 7228.92 3047.88 7213.87 3031.6L7213.74 3031.46L7213.66 3031.37L7213.57 3031.27C7171.56 2987.66 7122.15 2953.15 7068 2929.66C7038.96 2916.77 7007.83 2910.13 6976.37 2910.14C6934.72 2909.75 6894.4 2925.11 6862.34 2953.33L6861.96 2953.66L6861.61 2954.02C6852.59 2963.34 6844.38 2973.51 6837.07 2984.4L6837.06 2984.41L6837.06 2984.42C6832.31 2991.51 6829.87 2999.95 6829.98 3008.49C6830.09 3017.04 6832.73 3025.42 6837.66 3032.38C6842.6 3039.35 6849.62 3044.59 6857.79 3047.1C6865.97 3049.62 6874.7 3049.2 6882.61 3045.95C6886.63 3044.33 6890.72 3042.97 6894.88 3041.88C6903.39 3039.95 6912.11 3039.36 6920.76 3040.14C6939.16 3042.24 6956.87 3049.2 6972.34 3060.5C6980.44 3068.01 6986.96 3077.44 6991.36 3088.16C6995.63 3098.56 6997.79 3109.87 6997.65 3121.29C6990.85 3141.58 6980.69 3160.3 6967.69 3176.55L6967.45 3176.86L6967.22 3177.18C6961.72 3185.02 6959.12 3194.61 6959.73 3204.18C6960.34 3213.76 6964.14 3222.93 6970.65 3229.95C6970.65 3229.96 6970.65 3229.96 6970.65 3229.96L7026.81 3290.73C7026.81 3290.73 7026.82 3290.73 7026.82 3290.74C7033.71 3298.21 7043.19 3302.74 7053.38 3303.05C7063.58 3303.36 7073.32 3299.41 7080.62 3292.33C7088.55 3284.67 7098.49 3275.12 7107.47 3266.81C7116.79 3258.19 7124.18 3251.74 7127.42 3249.56L7127.61 3249.44L7127.79 3249.31C7131.95 3246.3 7136.47 3244.04 7141.18 3242.57C7137.86 3249.57 7136.1 3257.33 7136.09 3265.21C7136.07 3278.31 7140.84 3291.06 7149.64 3300.61L7149.66 3300.63L7149.68 3300.66L7149.86 3300.84L7149.86 3300.85L7149.87 3300.86L7205.78 3360.75C7205.79 3360.75 7205.79 3360.76 7205.8 3360.76C7210.19 3365.5 7215.47 3369.3 7221.34 3371.9C7227.21 3374.5 7233.53 3375.83 7239.93 3375.79C7252.8 3375.79 7264.96 3370.33 7273.84 3360.91L7273.85 3360.89L7273.87 3360.87L7364.48 3264.01L7364.51 3263.99L7364.53 3263.96C7364.98 3263.48 7365.42 3262.97 7365.85 3262.46C7373.91 3252.88 7378.21 3240.54 7378.1 3227.92C7377.99 3215.28 7373.47 3203 7365.22 3193.58Z" fill="white" stroke="black" stroke-width="25"/>
<path d="M386.09 3300.71L386.09 3300.68C386.36 3241.5 408.189 3184.65 447.102 3142.51C486.046 3100.35 539.008 3076.31 594.553 3075.98L594.589 3075.98H594.626H1019.68C1032 3075.98 1043.59 3081.29 1051.97 3090.36C1060.33 3099.4 1064.87 3111.46 1064.87 3123.86C1064.87 3136.25 1060.33 3148.31 1051.97 3157.35C1043.59 3166.43 1032 3171.73 1019.68 3171.73H594.764C563.767 3171.94 533.875 3185.36 511.641 3209.44C489.374 3233.56 476.64 3266.39 476.468 3300.87V3336.11C476.468 3336.11 476.468 3336.11 476.468 3336.11C476.468 3342.27 475.348 3348.39 473.154 3354.12C470.959 3359.85 467.719 3365.13 463.574 3369.61C459.428 3374.1 454.452 3377.72 448.902 3380.2C443.348 3382.69 437.357 3383.99 431.279 3383.99L386.09 3300.71ZM386.09 3300.71V3300.74M386.09 3300.71V3300.74M386.09 3300.74V3336.11C386.09 3336.11 386.09 3336.11 386.09 3336.11C386.09 3342.27 387.209 3348.39 389.404 3354.12C391.599 3359.86 394.839 3365.13 398.983 3369.61C403.13 3374.1 408.106 3377.72 413.656 3380.2C419.21 3382.69 425.201 3383.99 431.278 3383.99L386.09 3300.74Z" fill="white" stroke="black" stroke-width="25"/>
<path d="M922.008 3196.49L922.008 3196.49C915.771 3203.24 911.622 3211.72 909.949 3220.83C908.277 3229.93 909.128 3239.37 912.429 3247.99C915.732 3256.62 921.385 3264.15 928.818 3269.53C936.261 3274.91 945.125 3277.86 954.286 3277.86C960.37 3277.87 966.369 3276.58 971.929 3274.08C977.486 3271.59 982.465 3267.97 986.609 3263.47L1084.66 3157.36C1088.81 3152.87 1092.05 3147.6 1094.24 3141.86C1096.44 3136.13 1097.56 3130.01 1097.56 3123.86C1097.56 3117.7 1096.44 3111.59 1094.24 3105.85C1092.05 3100.12 1088.81 3094.84 1084.66 3090.36C1084.66 3090.36 1084.66 3090.36 1084.66 3090.36L986.598 2984.23C978.214 2975.16 966.621 2969.85 954.303 2969.85C941.985 2969.85 930.393 2975.16 922.008 2984.23L931.189 2992.72L922.008 2984.23C913.655 2993.27 909.115 3005.34 909.115 3017.73C909.115 3030.12 913.654 3042.19 922.008 3051.23C922.008 3051.23 922.008 3051.23 922.008 3051.23L989.121 3123.86L922.008 3196.49Z" fill="white" stroke="black" stroke-width="25"/>
<path d="M1261 3336.17L1261 3336.15V3336.12V3300.74C1261 3288.35 1256.46 3276.28 1248.1 3267.24C1239.72 3258.17 1228.13 3252.86 1215.81 3252.86C1203.49 3252.86 1191.9 3258.17 1183.51 3267.24C1175.16 3276.28 1170.62 3288.35 1170.62 3300.74V3335.98C1170.45 3370.46 1157.71 3403.3 1135.45 3427.41C1113.21 3451.49 1083.32 3464.91 1052.32 3465.12H627.409C615.091 3465.12 603.499 3470.43 595.114 3479.5C586.761 3488.54 582.221 3500.61 582.221 3513C582.221 3525.39 586.761 3537.46 595.114 3546.5C603.499 3555.57 615.091 3560.87 627.409 3560.87L1052.46 3560.87H1052.5L1052.53 3560.87C1108.08 3560.55 1161.04 3536.51 1199.99 3494.34C1238.9 3452.21 1260.73 3395.36 1261 3336.17Z" fill="white" stroke="black" stroke-width="25"/>
<path d="M660.506 3373.37L660.498 3373.37L562.433 3479.5C562.432 3479.5 562.432 3479.5 562.432 3479.5C558.287 3483.99 555.047 3489.26 552.852 3494.99C550.657 3500.73 549.537 3506.84 549.537 3513C549.537 3519.16 550.657 3525.27 552.852 3531.01C555.047 3536.74 558.288 3542.01 562.432 3546.5C562.432 3546.5 562.432 3546.5 562.433 3546.5L660.487 3652.61C660.489 3652.62 660.491 3652.62 660.493 3652.62C664.636 3657.11 669.613 3660.74 675.167 3663.23C680.727 3665.72 686.727 3667.01 692.81 3667C701.972 3667 710.836 3664.05 718.278 3658.67C725.712 3653.3 731.364 3645.76 734.667 3637.13C737.968 3628.51 738.82 3619.07 737.147 3609.97C735.474 3600.87 731.324 3592.38 725.088 3585.63L725.088 3585.63L657.976 3513L725.088 3440.37L725.095 3440.36C733.436 3431.32 737.965 3419.26 737.96 3406.87C737.955 3394.49 733.416 3382.43 725.067 3373.4C716.688 3364.33 705.103 3359.03 692.793 3359.02C680.483 3359.01 668.894 3364.31 660.506 3373.37Z" fill="white" stroke="black" stroke-width="25"/>
</svg>
