<svg width="7798" height="8079" fill="none" xmlns="http://www.w3.org/2000/svg"><path d="M3909 7926l-105-1 1-38a3245 3245 0 00209 0l1 37c-35 2-71 2-106 2zm-316-16c-70-7-140-17-209-28l5-38c69 12 138 21 207 29l-3 37zm633 0l-4-38c69-7 139-17 207-29l6 38c-69 12-140 22-209 29zm-1050-72c-68-17-137-36-204-57l10-37c67 21 135 41 202 57l-8 37zm1466-1l-8-37c68-16 136-36 202-57l10 36c-67 22-135 41-204 58zm-1870-128c-66-26-132-55-196-86l14-35c63 31 129 59 194 85l-12 36zm2275-2l-12-35c64-26 129-55 193-85l14 35c-64 30-130 59-195 85zm-2662-183c-62-35-124-73-184-112l18-33c60 39 121 76 183 111l-17 34zm3047-2l-16-33c61-35 122-72 181-111l19 32c-60 40-122 77-184 112zm-3408-235c-57-44-114-90-169-137l22-30c54 47 110 93 167 136l-20 31zm3768-2l-20-31c57-43 113-88 167-135l22 30c-54 47-111 93-169 136zm-4098-283c-52-51-103-105-152-159l26-26c48 53 98 106 150 157l-24 28zm4428-1l-24-29c52-50 102-103 150-157l26 27c-49 54-100 108-152 159zm-4722-327c-45-58-89-118-131-178l28-23c41 60 85 119 130 176l-27 25zm5016-2l-27-24c45-57 89-117 130-177l28 23c-42 61-86 121-131 178zm-5268-363c-39-64-76-130-110-195l30-19c34 65 71 130 109 193l-29 21zm5520-3l-29-20c38-63 75-128 109-194l30 19c-34 66-71 132-110 195zM940 5911c-30-68-59-138-86-208l33-14c26 69 54 138 85 206l-32 16zm5936-3l-32-16c31-68 59-137 85-207l33 14c-27 71-55 141-86 209zM781 5489c-22-73-42-146-60-220l34-9c18 72 38 145 60 217l-34 12zm6254-5l-34-11c22-72 42-145 60-217l34 9c-18 74-38 148-60 219zM674 5047c-13-75-25-150-34-226l35-5c9 75 20 150 33 224l-34 7zm6467-4l-34-8c13-73 24-148 33-223l35 5c-9 75-20 151-34 226zM620 4594c-4-76-7-153-7-228h35c0 75 3 151 7 225l-35 3zm6575-4l-35-3c4-74 6-150 6-226v-8h36v8c0 76-3 153-7 229zM655 4140l-35-3c4-75 11-152 19-227l35 5c-8 74-15 150-19 225zm6504-13c-4-75-11-150-20-225l35-5c9 75 16 152 20 228l-35 2zM707 3691l-34-7c13-74 28-149 46-223l34 10c-17 73-33 147-46 220zm6399-12c-14-74-30-148-47-220l34-10c18 73 33 148 47 223l-34 7zM812 3254l-33-12c22-72 46-144 73-215l32 15c-26 69-50 141-72 212zm6187-12c-22-71-46-142-73-212l33-14c26 70 51 142 73 214l-33 12zM969 2835l-32-17c30-68 63-137 98-203l30 19c-34 65-66 133-96 201zm5873-11c-31-67-63-134-97-200l30-18c35 66 68 134 98 202l-31 16zm-5668-384l-30-20c38-64 79-127 121-188l28 23c-41 60-82 123-119 185zm5462-8c-38-63-78-125-120-185l28-23c42 60 83 123 121 187l-29 21zm-5213-354l-26-25c45-57 93-114 141-169l26 27c-49 54-96 110-141 167zm4962-8c-45-57-92-113-140-167l25-26c49 54 96 111 142 169l-27 24zm-4671-317l-24-28c52-51 106-101 160-148l22 29c-54 47-107 96-158 147zm4380-7c-51-50-105-99-159-146l22-30c55 47 109 97 161 148l-24 28zm-4055-275l-20-31c58-44 117-86 177-125l18 32c-59 39-118 81-175 124zm3728-6c-57-43-116-85-175-123l18-33c60 39 120 81 177 125l-20 31zm-3371-229l-17-34c62-35 126-68 190-99l14 34c-63 31-126 64-187 99zm3014-5c-62-35-125-68-189-98l15-35c64 31 128 64 190 99l-16 34zm-2633-179l-13-35c66-26 134-51 201-72l10 36c-67 21-133 45-198 71zm2250-4c-65-26-132-49-198-71l10-36c67 21 135 45 200 72l-12 35zM3177 923l-8-37c68-17 138-31 207-43l6 37c-69 12-138 27-205 43zm1450-2c-68-17-137-31-205-43l5-37c70 11 139 26 208 43l-8 37zm-1038-70l-4-38c70-7 141-12 211-15l1 38c-69 3-139 8-208 15zm626-1c-69-7-140-12-209-14l1-38c70 2 141 7 211 14l-3 38z" fill="#fff"/><path d="M3785 1782c455 0 823-399 823-891S4240 0 3785 0s-824 399-824 891 369 891 824 891zM6974 4210c455 0 823-399 823-892 0-492-368-891-823-891s-824 399-824 891c0 493 369 892 824 892zM5975 7926c455 0 824-399 824-891s-369-891-824-891-824 399-824 891 369 891 824 891zM2015 8078c455 0 824-399 824-891s-369-891-824-891-823 399-823 891 368 891 823 891zM824 4210c454 0 823-399 823-892 0-492-369-891-823-891-455 0-824 399-824 891 0 493 369 892 824 892z" fill="#FBD43C"/><mask id="a" maskUnits="userSpaceOnUse" x="3398.6" y="368.9" width="773" height="1045" fill="#000"><path fill="#fff" d="M3399 369h773v1045h-773z"/><path d="M4138 820h-288c-26 0-51-11-69-31-19-20-29-47-29-75V403a10 10 0 00-2-7l-3-1-3-1h-189c-35 0-68 15-93 41-25 27-38 63-38 101v711c0 37 13 73 38 100s58 42 93 42h460c34 0 68-15 92-42 25-27 39-63 39-100V829a9 9 0 00-3-6 8 8 0 00-5-3zm-189 355h-328c-9 0-17-3-24-10-6-7-9-16-9-25s3-19 9-25c7-7 15-11 24-11h328c9 0 17 4 23 11a37 37 0 010 50c-6 7-14 10-23 10zm0-177h-328c-9 0-17-4-24-11-6-6-9-15-9-25 0-9 3-18 9-25 7-6 15-10 24-10h328c9 0 17 4 23 10 6 7 10 16 10 25 0 10-4 19-10 25-6 7-14 11-23 11z"/></mask><path d="M4138 820h-288c-26 0-51-11-69-31-19-20-29-47-29-75V403a10 10 0 00-2-7l-3-1-3-1h-189c-35 0-68 15-93 41-25 27-38 63-38 101v711c0 37 13 73 38 100s58 42 93 42h460c34 0 68-15 92-42 25-27 39-63 39-100V829a9 9 0 00-3-6 8 8 0 00-5-3zm-189 355h-328c-9 0-17-3-24-10-6-7-9-16-9-25s3-19 9-25c7-7 15-11 24-11h328c9 0 17 4 23 11a37 37 0 010 50c-6 7-14 10-23 10zm0-177h-328c-9 0-17-4-24-11-6-6-9-15-9-25 0-9 3-18 9-25 7-6 15-10 24-10h328c9 0 17 4 23 10 6 7 10 16 10 25 0 10-4 19-10 25-6 7-14 11-23 11z" fill="#fff"/><path d="M4138 820v25-25zm-386-417h-25 25zm-1-4l-23 9 23-9zm-1-3l-19 17 19-17zm-3-1l10-23-10 23zm-3-1v25-25zm-189 0v25-25zm-93 41l-18-16 18 16zm-38 101h-25 25zm0 711h-25 25zm38 100l18-17-18 17zm645 0l-18-17 18 17zm38-521l24-9-24 9zm-2-3l-18 17 18-17zm-2-2l-10 23 10-23zm-3-26h-288v50h288v-50zm-288 0c-18 0-37-8-51-23l-37 34c23 25 55 39 88 39v-50zm-51-23a86 86 0 01-22-58h-50c0 34 12 67 35 92l37-34zm-22-58V403h-50v311h50zm0-311l-2-13-47 18-1-5h50zm-2-13l-7-11-37 34-3-5 47-18zm-7-11l-11-7-20 45-6-4 37-34zm-11-7c-4-2-9-3-13-3v50l-7-2 20-45zm-13-3h-189v50h189v-50zm-189 0c-42 0-82 18-111 50l36 33c21-21 47-33 75-33v-50zm-111 50c-29 31-45 73-45 117h50c0-32 11-62 31-84l-36-33zm-45 117v711h50V536h-50zm0 711c0 43 16 86 45 117l36-34c-20-22-31-52-31-83h-50zm45 117c29 32 69 50 111 50v-50c-28 0-54-12-75-34l-36 34zm111 50h460v-50h-460v50zm460 0c42 0 82-18 111-50l-37-34c-20 22-47 34-74 34v50zm111-50c29-31 45-74 45-117h-50c0 31-12 61-32 83l37 34zm45-117V829h-50v418h50zm0-418l-2-12-47 18-1-6h50zm-2-12l-7-11-37 34-3-5 47-18zm-7-11l-11-8-20 46-6-4 37-34zm-11-8c-4-2-9-3-13-3v50l-7-1 20-46zm-202 352h-328v50h328v-50zm-328 0c-2 0-4 0-5-2l-37 34c11 12 26 18 42 18v-50zm-5-2c-2-2-3-5-3-8h-50c0 15 5 31 16 42l37-34zm-3-8c0-3 1-6 3-8l-37-34a62 62 0 00-16 42h50zm3-8c1-2 3-3 5-3v-50c-16 0-31 7-42 19l37 34zm5-3h328v-50h-328v50zm328 0l5 3 36-34a57 57 0 00-41-19v50zm5 3c1 2 3 5 3 8h50c0-16-6-31-17-42l-36 34zm3 8c0 3-2 6-3 8l36 34c11-11 17-27 17-42h-50zm-3 8c-2 2-4 2-5 2v50c16 0 31-6 41-18l-36-34zm-5-175h-328v50h328v-50zm-328 0c-2 0-4-1-5-3l-37 34c11 12 26 19 42 19v-50zm-5-3c-2-1-3-4-3-8h-50c0 16 5 31 16 42l37-34zm-3-8c0-3 1-6 3-8l-37-34a62 62 0 00-16 42h50zm3-8c1-2 3-2 5-2v-50c-16 0-31 7-42 18l37 34zm5-2h328v-50h-328v50zm328 0c1 0 3 0 5 2l36-34a57 57 0 00-41-18v50zm5 2c1 2 3 5 3 8h50c0-15-6-30-17-42l-36 34zm3 8c0 4-2 7-3 8l36 34c11-11 17-26 17-42h-50zm-3 8l-5 3v50c16 0 31-7 41-19l-36-34z" fill="#000" mask="url(#a)"/><path d="M4126 736l3-3-295-319h0a17 17 0 00-19-4l5 11-5-11c-3 1-6 4-7 6l-3 9h0v289c0 12 5 24 13 33s20 15 32 15h267c3 0 7-2 9-4 3-1 5-4 6-7l-11-5 11 5a17 17 0 00-3-18l-3 3zM6094 6847c-13 0-26 5-36 14s-17 21-19 34c-2 14-1 27 5 40 6 12 16 21 28 27 13 5 26 6 39 2 12-4 23-13 30-24a63 63 0 00-7-75 56 56 0 00-40-18z" fill="#fff" stroke="#000" stroke-width="25"/><path d="M6350 6669c11 59-2 144-36 235-33 89-81 171-142 240v1h0c-16 17-34 34-52 49 1 35-5 70-17 102h0c-44 110-156 139-201 147l-9 1h0-5s0 0 0 0l1-13c-5 0-10-2-15-5s-9-6-12-11a46 46 0 01-9-32l497-714zm0 0v0l-1-1c-2-9-6-17-11-23-6-7-14-11-22-14-53-14-133 1-219 39-83 35-159 87-224 153h0c-16 18-32 36-46 56-32-1-64 5-94 18h0-1c-50 24-82 67-102 109-21 42-29 83-33 108a60 60 0 0013 47c6 7 13 12 21 15l4-12-4 12c7 3 15 4 23 3h1l93-11c3 14 9 26 19 36 0 0 0 0 0 0l51 55s0 0 0 0c9 10 20 17 33 20l-10 102-1 1v0l510-713zm-197 173h0c16 16 25 40 25 64s-9 47-24 65c0 0 0 0 0 0l-1 1a82 82 0 01-43 24c-16 4-32 2-48-5-15-6-28-18-37-33a98 98 0 010-103c9-15 22-26 37-33s32-9 48-5c16 3 31 12 43 25z" fill="#fff" stroke="#000" stroke-width="25"/>
<path d="M5821 7266c-6-1-13 1-18 5l-31 22a23 23 0 01-30-3c-4-4-7-9-8-15 0-6 1-12 3-17l20-37a30 30 0 00-10-42c-5-2-10-3-15-2-22 3-42 14-58 31-6 6-24 26-34 101a687 687 0 00-3 76l5 9 8 7a25 25 0 0011 2h1l60-6c69-10 88-30 94-36 15-17 25-40 28-64 1-7-1-15-5-20-5-6-11-10-18-11zM1672 7684h60c15 0 30-7 40-19 11-11 17-27 17-42v-291c0-16-6-31-17-43a56 56 0 00-40-18h-60c-16 0-30 7-41 18a63 63 0 00-16 43v291c0 15 6 31 16 42 11 12 25 19 41 19zM2090 7684h59c16 0 30-7 41-19 11-11 17-27 17-42v-485c0-16-6-31-17-42a56 56 0 00-41-19h-59c-16 0-31 7-41 19a63 63 0 00-17 42v485c0 15 6 31 17 42 10 12 25 19 41 19zM2258 6870l9 8-9-8a63 63 0 00-17 42v711c0 15 6 31 17 42 10 12 25 19 40 19h60c16 0 30-7 41-19 11-11 16-27 16-42v-711c0-16-5-31-16-42a56 56 0 00-41-19h-60c-15 0-30 7-40 19zM1840 6708l9 9-9-9a63 63 0 00-16 43v872c0 15 5 31 16 42 11 12 25 19 41 19h59c8 0 16-2 23-5l-5-12 5 12c7-3 13-8 18-14a61 61 0 0017-42v-872c0-16-6-31-17-43a56 56 0 00-41-18h-59c-16 0-30 7-41 18zM7022 3287h1c12 13 18 30 18 48s-7 36-19 49l-275 319c-6 7-13 12-21 17-8 4-17 6-25 7h-1 0-2 0c-18 0-34-8-46-21h0m370-419l-361 411-9 8m370-419h0l-42-47h0a63 63 0 00-46-20c-18 0-34 7-46 20l-296 296m430-249l-430 249m60 170h0-1 0l-63-70h0a70 70 0 01-19-51h0c2-19 10-37 23-49m60 170l-60-170M7365 3194v-1h0-1 0l-55-60s0 0 0 0c-5-5-10-9-16-11a45 45 0 00-26-4c-1-11-5-23-11-33v-1h-1c-12-19-26-36-41-52v-1h0c-42-43-92-78-146-101-29-13-60-20-92-20-41 0-82 15-114 43v1h0c-9 9-18 20-25 30h0a42 42 0 001 48 37 37 0 0045 14l12-4c8-2 17-3 26-2 18 2 36 9 51 21 8 7 15 16 19 27 5 11 7 22 7 33-7 21-17 39-30 56h-1 0a42 42 0 004 53s0 0 0 0l56 61s0 0 0 0c7 7 16 12 26 12 11 0 20-4 28-11a1812 1812 0 0146-42l1-1h0c4-3 8-5 13-6a53 53 0 009 58h0l56 60s0 0 0 0a47 47 0 0034 15c13 0 25-6 34-15h0l90-97h1l1-2a53 53 0 00-1-68zM386 3301h0c0-59 22-116 61-158 39-43 92-67 148-67h425c12 0 24 5 32 14s13 21 13 34c0 12-5 24-13 33s-20 15-32 15H595c-31 0-61 13-83 37-23 25-35 57-36 92v35s0 0 0 0a50 50 0 01-12 34 45 45 0 01-33 14l-45-83zm0 0v0m0 0v0m0 0v35s0 0 0 0a50 50 0 0013 34 45 45 0 0032 14l-45-83z" fill="#fff" stroke="#000" stroke-width="25"/>
<path d="M922 3196h0c-6 7-10 16-12 25s-1 18 2 27c4 9 9 16 17 22a43 43 0 0058-7l98-106a48 48 0 0013-33 50 50 0 00-13-34s0 0 0 0l-98-106c-9-9-20-14-33-14-12 0-24 5-32 14l9 9-9-9c-8 9-13 21-13 34 0 12 5 24 13 33 0 0 0 0 0 0l67 73-67 72zM1261 3336h0v0-35c0-13-5-25-13-34s-20-14-32-14c-13 0-24 5-32 14-9 9-13 21-13 34v35c-1 34-13 67-36 91-22 24-52 38-83 38H627c-12 0-24 5-32 15a49 49 0 000 67c8 9 20 14 32 14h426c55 0 108-24 147-67 39-42 61-99 61-158z" fill="#fff" stroke="#000" stroke-width="25"/>
<path d="M661 3373h-1l-98 107s0 0 0 0a48 48 0 00-12 33 50 50 0 0012 34s0 0 0 0l98 106s0 0 0 0a45 45 0 0033 14c9 0 18-3 25-8 8-6 13-13 17-22a51 51 0 00-10-51h0l-67-73 67-73h0a49 49 0 000-67c-8-9-20-14-32-14-13 0-24 5-32 14z" fill="#fff" stroke="#000" stroke-width="25"/>

</svg>