<svg width="7885" height="8102" fill="none" xmlns="http://www.w3.org/2000/svg"><path d="M3908.88 7926.3c-34.97-.29-70.34-.55-105.08-1.72l1.08-37.91c34.38 1.15 69.53 1.67 104 1.71 34.63 0 69.91-.61 104.91-1.84l1.13 37.89c-35.38 1.24-71.05 1.87-106.04 1.87zm-315.73-16.02c-69.77-7.14-140.22-16.83-209.4-28.77l5.52-37.45c68.45 11.82 138.15 21.41 207.18 28.48l-3.3 37.74zm632.41-.4l-3.34-37.74c69-7.15 138.7-16.84 207.14-28.76l5.58 37.44a3065.846 3065.846 0 01-209.38 29.06zm-1049.09-71.65c-68.31-16.76-137.04-36.17-204.27-57.66l9.94-36.38c66.51 21.28 134.5 40.47 202.08 57.04l-7.75 37zm1465.69-.94l-7.79-36.97c67.74-16.72 135.71-36 202.03-57.31l9.97 36.37c-67.03 21.54-135.74 41.02-204.21 57.91zm-1870.39-128.5a3143.536 3143.536 0 01-196.01-85.78l14.19-34.66a3129.267 3129.267 0 00193.9 84.85l-12.08 35.59zm2274.93-1.48l-12.11-35.59c64.81-25.84 129.82-54.37 193.23-84.82l14.22 34.67c-64.11 30.78-129.83 59.63-195.34 85.74zm-2661.36-183.55c-62.03-35.04-123.98-72.82-184.1-112.26l18.18-32.44c59.48 39.05 120.76 76.4 182.13 111.07l-16.21 33.63zm3046.59-1.39l-16.22-33.61c61.22-34.65 122.36-72 181.69-111.02l18.2 32.41c-59.97 39.44-121.76 77.18-183.67 112.22zm-3407.7-235.64c-57.45-43.39-114.39-89.41-169.25-136.74l21.85-29.67c54.28 46.85 110.62 92.37 167.45 135.3l-20.05 31.11zm3768.1-1.35l-20.09-31.08c56.83-42.98 113.09-88.5 167.23-135.29l21.87 29.63c-54.73 47.29-111.59 93.29-169.01 136.74zm-4098.17-283.55c-51.94-51.02-103-104.48-151.74-158.87l25.16-26.41a3430.73 3430.73 0 00150.14 157.2l-23.56 28.08zm4427.83-1.32l-23.57-28.07c51.26-50.39 101.74-103.31 150.04-157.26l25.16 26.37a3456.197 3456.197 0 01-151.63 158.96zM1400.36 6674c-45.47-57.7-89.8-117.72-131.79-178.38l28.06-22.74c41.54 60.03 85.4 119.42 130.39 176.49l-26.66 24.63zm5015.28-1.57l-26.66-24.59c44.99-57.13 88.86-116.59 130.39-176.7l28.06 22.7c-41.97 60.76-86.31 120.85-131.79 178.59zm-5268.05-363.92a3663.759 3663.759 0 01-109.66-195.01l30.51-18.67a3614.834 3614.834 0 00108.49 192.94l-29.34 20.74zm5520.87-2.05l-29.36-20.71c37.95-62.98 74.45-128.01 108.52-193.32l30.53 18.63a3644.99 3644.99 0 01-109.69 195.4zM940.07 5911.32a3710.88 3710.88 0 01-85.616-208.51l32.46-14.26a3681.421 3681.421 0 0084.709 206.25l-31.553 16.52zm5935.97-2.96l-31.55-16.48a3663.567 3663.567 0 0084.73-206.89l32.48 14.22c-26.35 70.43-55.17 140.8-85.66 209.15zM781.303 5488.5a3767.37 3767.37 0 01-60.198-219.02l33.898-9.62a3721.924 3721.924 0 0059.547 216.64l-33.247 12zm6253.407-4.02l-33.26-11.93c21.8-71.16 41.77-144.08 59.31-216.73l33.91 9.59a3781.165 3781.165 0 01-59.96 219.07zM674.092 5046.79a3847.169 3847.169 0 01-33.675-225.51l34.753-4.86a3806.667 3806.667 0 0033.315 223.11l-34.393 7.26zm6467.348-4.17l-34.4-7.18c13.14-73.59 24.28-148.68 33.06-223.18l34.77 4.81c-8.88 75.3-20.14 151.18-33.43 225.55zM620.157 4593.91a3933.114 3933.114 0 01-6.887-228.36l35.044-.04c.076 75.14 2.369 151.16 6.818 225.96l-34.975 2.44zm6574.733-4.24l-34.97-2.41c4.36-74.72 6.57-150.73 6.57-225.9l-.02-8.31h35.04l.02 8.18c0 76.09-2.24 152.91-6.64 228.44zM654.645 4139.59l-34.976-2.33a3899.778 3899.778 0 0119.764-227.44l34.77 4.74a3850.708 3850.708 0 00-19.558 225.03zm6504.795-12.44c-4.55-74.97-11.38-150.65-20.3-224.94l34.74-4.89c9.02 75.09 15.93 151.57 20.53 227.34l-34.97 2.49zM707.023 3691.38l-34.411-7.17a3809.13 3809.13 0 0146.517-222.82l33.915 9.53a3770.425 3770.425 0 00-46.021 220.46zm6398.527-12.23a3779.72 3779.72 0 00-46.74-220.28l33.88-9.67a3824.583 3824.583 0 0147.26 222.65l-34.4 7.3zM812.129 3254.13l-33.282-11.89a3744.97 3744.97 0 0172.792-214.85l32.494 14.2a3702.924 3702.924 0 00-72.004 212.54zm6186.921-11.82c-22-71.18-46.42-142.49-72.58-211.94l32.44-14.31c26.45 70.2 51.15 142.27 73.37 214.21l-33.23 12.04zM968.663 2834.56l-31.587-16.44c30.398-68.39 63.264-136.63 97.684-202.81l30.55 18.61c-34.06 65.47-66.574 132.98-96.647 200.64zm5872.877-10.34c-30.18-67.34-62.81-134.6-97.04-199.9l30.5-18.71c34.58 66 67.57 133.99 98.06 202.07l-31.52 16.54zm-5667.92-383.79l-29.38-20.68c38.22-63.57 78.87-126.67 120.81-187.53l28.1 22.66a3567.123 3567.123 0 00-119.53 185.55zm5462.18-8.92c-37.92-62.68-78.25-124.91-119.9-184.96l28.03-22.76c42.09 60.7 82.87 123.6 121.2 186.94l-29.33 20.78zm-5212.45-353.48l-26.7-24.56c45.39-57.78 93.1-114.75 141.82-169.29l25.21 26.35c-48.21 53.97-95.42 110.33-140.33 167.5zm4961.95-7.82a3479.873 3479.873 0 00-140.74-167.01l25.12-26.43c48.86 54.38 96.72 111.17 142.25 168.79l-26.63 24.65zm-4671.76-317.15l-23.59-28.03c51.85-51.12 105.86-101.04 160.49-148.35l21.91 29.61c-54.07 46.81-107.5 96.2-158.81 146.77zm4380.7-6.88c-51.38-50.34-104.96-99.58-159.27-146.34l21.83-29.68a3413.128 3413.128 0 01160.95 147.91l-23.51 28.11zm-4054.81-275.4l-20.11-31.05a3293.102 3293.102 0 01176.58-124.98l18.24 32.39a3270.832 3270.832 0 00-174.71 123.64zm3727.95-6.03c-57.05-42.97-116.01-84.44-175.27-123.24l18.14-32.44c59.89 39.21 119.5 81.11 177.15 124.55l-20.02 31.13zm-3371.66-228.87l-16.27-33.59a3195.106 3195.106 0 01189.78-99.45l14.25 34.65c-63.29 30.49-126.46 63.6-187.76 98.39zm3014.14-5.2a3152.208 3152.208 0 00-188.5-97.95l14.15-34.71c64.22 30.66 128.32 63.98 190.53 99.01l-16.18 33.65zm-2633.23-178.26l-12.17-35.58c65.71-26.304 133.09-50.636 200.26-72.312l10.01 36.351c-66.46 21.431-133.1 45.511-198.1 71.541zm2250.73-4.31c-65.14-25.79-131.87-49.601-198.35-70.767l9.89-36.389c67.2 21.398 134.66 45.472 200.5 71.546l-12.04 35.61zM3176.69 923.335l-7.82-36.962c68.18-16.907 137.88-31.638 207.18-43.813l5.61 37.443c-68.56 12.037-137.52 26.611-204.97 43.332zm1450.17-2.759a3036.455 3036.455 0 00-205.11-42.554l5.49-37.462a3072.918 3072.918 0 01207.32 43.017l-7.7 36.999zm-1038.09-69.6l-3.38-37.74a3090.95 3090.95 0 01210.62-14.823l1.16 37.905a3062.781 3062.781 0 00-208.4 14.658zm625.77-1.176a3059.473 3059.473 0 00-208.45-13.87l1.05-37.905c70.09 2.259 140.98 6.971 210.66 14.018l-3.26 37.757z" fill="#fff"/><path d="M3784.75 1782.47c454.83 0 823.54-399.02 823.54-891.235C4608.29 399.02 4239.58 0 3784.75 0c-454.82 0-823.53 399.02-823.53 891.235 0 492.215 368.71 891.235 823.53 891.235zM2015.03 8078c454.83 0 823.53-399.02 823.53-891.23 0-492.22-368.7-891.24-823.53-891.24s-823.53 399.02-823.53 891.24c0 492.21 368.7 891.23 823.53 891.23zM823.534 4209.66c454.826 0 823.536-399.02 823.536-891.23 0-492.22-368.71-891.24-823.536-891.24C368.709 2427.19 0 2826.21 0 3318.43c0 492.21 368.709 891.23 823.534 891.23z" fill="#FBD43C"/><mask id="a" maskUnits="userSpaceOnUse" x="3398.63" y="368.85" width="773" height="1045" fill="#000"><path fill="#fff" d="M3398.63 368.85h773v1045h-773z"/><path d="M4137.66 820.183h-287.25c-26.12 0-51.17-11.23-69.64-31.218s-28.85-47.098-28.85-75.365V402.732c0-1.166-.21-2.321-.62-3.399a9.133 9.133 0 00-1.78-2.881 8.272 8.272 0 00-2.67-1.926 7.644 7.644 0 00-3.14-.676h-188.76c-34.83 0-68.23 14.972-92.86 41.623-24.62 26.651-38.46 62.798-38.46 100.488v710.549c0 37.69 13.84 73.84 38.46 100.49 24.63 26.65 58.03 41.62 92.86 41.62h459.6c34.83 0 68.23-14.97 92.86-41.62 24.62-26.65 38.46-62.8 38.46-100.49V829.064c0-1.166-.21-2.322-.63-3.399a8.79 8.79 0 00-1.78-2.882 8.124 8.124 0 00-2.66-1.925c-1-.446-2.06-.676-3.14-.675zm-188.77 355.277h-328.28c-8.71 0-17.06-3.74-23.22-10.41-6.15-6.66-9.61-15.7-9.61-25.12 0-9.42 3.46-18.46 9.61-25.12 6.16-6.66 14.51-10.41 23.22-10.41h328.28c8.71 0 17.06 3.75 23.22 10.41 6.15 6.66 9.61 15.7 9.61 25.12 0 9.42-3.46 18.46-9.61 25.12-6.16 6.67-14.51 10.41-23.22 10.41zm0-177.64h-328.28c-8.71 0-17.06-3.743-23.22-10.406-6.15-6.662-9.61-15.699-9.61-25.121 0-9.423 3.46-18.46 9.61-25.122 6.16-6.663 14.51-10.406 23.22-10.406h328.28c8.71 0 17.06 3.743 23.22 10.406 6.15 6.662 9.61 15.699 9.61 25.122 0 9.422-3.46 18.459-9.61 25.121-6.16 6.663-14.51 10.406-23.22 10.406z"/></mask><path d="M4137.66 820.183h-287.25c-26.12 0-51.17-11.23-69.64-31.218s-28.85-47.098-28.85-75.365V402.732c0-1.166-.21-2.321-.62-3.399a9.133 9.133 0 00-1.78-2.881 8.272 8.272 0 00-2.67-1.926 7.644 7.644 0 00-3.14-.676h-188.76c-34.83 0-68.23 14.972-92.86 41.623-24.62 26.651-38.46 62.798-38.46 100.488v710.549c0 37.69 13.84 73.84 38.46 100.49 24.63 26.65 58.03 41.62 92.86 41.62h459.6c34.83 0 68.23-14.97 92.86-41.62 24.62-26.65 38.46-62.8 38.46-100.49V829.064c0-1.166-.21-2.322-.63-3.399a8.79 8.79 0 00-1.78-2.882 8.124 8.124 0 00-2.66-1.925c-1-.446-2.06-.676-3.14-.675zm-188.77 355.277h-328.28c-8.71 0-17.06-3.74-23.22-10.41-6.15-6.66-9.61-15.7-9.61-25.12 0-9.42 3.46-18.46 9.61-25.12 6.16-6.66 14.51-10.41 23.22-10.41h328.28c8.71 0 17.06 3.75 23.22 10.41 6.15 6.66 9.61 15.7 9.61 25.12 0 9.42-3.46 18.46-9.61 25.12-6.16 6.67-14.51 10.41-23.22 10.41zm0-177.64h-328.28c-8.71 0-17.06-3.743-23.22-10.406-6.15-6.662-9.61-15.699-9.61-25.121 0-9.423 3.46-18.46 9.61-25.122 6.16-6.663 14.51-10.406 23.22-10.406h328.28c8.71 0 17.06 3.743 23.22 10.406 6.15 6.662 9.61 15.699 9.61 25.122 0 9.422-3.46 18.459-9.61 25.121-6.16 6.663-14.51 10.406-23.22 10.406z" fill="#fff"/><path d="M4137.66 820.183v25-25zm-385.74-417.451l-25-.001v.001h25zm-.62-3.399l-23.35 8.936v.001l23.35-8.937zm-1.78-2.881l-18.36 16.966 18.36-16.966zm-2.67-1.926l10.23-22.813-10.23 22.813zm-3.14-.676v25-25zm-188.76 0v25-25zm-92.86 41.623l-18.36-16.966 18.36 16.966zm-38.46 100.488h-25 25zm0 710.549h-25 25zm38.46 100.49l18.37-16.97-18.37 16.97zm645.32 0l-18.36-16.97h-.01l18.37 16.97zm37.83-521.335l23.35-8.937v-.001l-23.35 8.938zm-1.78-2.882l-18.36 16.968v.001l18.36-16.969zm-2.66-1.925l-10.22 22.814 10.22-22.814zm-3.14-25.675h-287.25v50h287.25v-50zm-287.25 0c-18.83 0-37.32-8.075-51.28-23.185l-36.72 33.933c22.97 24.867 54.58 39.252 88 39.252v-50zm-51.28-23.185c-14.02-15.175-22.21-36.152-22.21-58.398h-50c0 34.288 12.57 67.531 35.49 92.331l36.72-33.933zm-22.21-58.398V402.732h-50V713.6h50zm0-310.867c0-4.194-.76-8.38-2.28-12.336l-46.69 17.873a15.48 15.48 0 01-1.03-5.539l50 .002zm-2.28-12.336a33.83 33.83 0 00-6.76-10.912l-36.72 33.933a15.946 15.946 0 01-3.21-5.149l46.69-17.872zm-6.76-10.912a33.139 33.139 0 00-10.8-7.772l-20.45 45.626a16.64 16.64 0 01-5.47-3.921l36.72-33.933zm-10.8-7.772a32.666 32.666 0 00-13.37-2.863v50c-2.49 0-4.9-.533-7.08-1.511l20.45-45.626zm-13.37-2.863h-188.76v50h188.76v-50zm-188.76 0c-42.13 0-82.08 18.127-111.22 49.657l36.73 33.933c20.11-21.772 46.96-33.59 74.49-33.59v-50zm-111.22 49.657c-29.07 31.463-45.1 73.743-45.1 117.454h50c0-31.669 11.65-61.683 31.83-83.521l-36.73-33.933zm-45.1 117.454v710.549h50V535.961h-50zm0 710.549c0 43.71 16.03 85.99 45.1 117.46l36.73-33.94c-20.18-21.83-31.83-51.85-31.83-83.52h-50zm45.1 117.46c29.14 31.53 69.09 49.65 111.22 49.65v-50c-27.53 0-54.38-11.81-74.49-33.59l-36.73 33.94zm111.22 49.65h459.6v-50h-459.6v50zm459.6 0c42.13 0 82.08-18.12 111.22-49.65l-36.73-33.94c-20.11 21.78-46.96 33.59-74.49 33.59v50zm111.22-49.65c29.07-31.47 45.1-73.75 45.1-117.46h-50c0 31.67-11.65 61.69-31.82 83.52l36.72 33.94zm45.1-117.46V829.064h-50v417.446h50zm0-417.446c0-4.191-.76-8.377-2.28-12.336l-46.7 17.874a15.483 15.483 0 01-1.02-5.538h50zm-2.28-12.337a33.946 33.946 0 00-6.77-10.912l-36.72 33.937a16.011 16.011 0 01-3.2-5.149l46.69-17.876zm-6.77-10.911a33.198 33.198 0 00-10.8-7.772l-20.44 45.628a16.862 16.862 0 01-5.48-3.921l36.72-33.935zm-10.79-7.771a32.702 32.702 0 00-13.37-2.862v50c-2.49 0-4.9-.533-7.08-1.511l20.45-45.627zm-202.14 352.415h-328.28v50h328.28v-50zm-328.28 0c-1.41 0-3.21-.59-4.86-2.37l-36.72 33.93c10.67 11.54 25.57 18.44 41.58 18.44v-50zm-4.86-2.37c-1.71-1.85-2.97-4.76-2.97-8.16h-50c0 15.44 5.65 30.61 16.25 42.09l36.72-33.93zm-2.97-8.16c0-3.4 1.26-6.3 2.97-8.15l-36.72-33.94c-10.6 11.48-16.25 26.65-16.25 42.09h50zm2.97-8.15c1.65-1.79 3.45-2.38 4.86-2.38v-50c-16.01 0-30.91 6.9-41.58 18.44l36.72 33.94zm4.86-2.38h328.28v-50h-328.28v50zm328.28 0c1.41 0 3.21.59 4.86 2.38l36.72-33.94c-10.67-11.54-25.57-18.44-41.58-18.44v50zm4.86 2.38c1.71 1.85 2.97 4.75 2.97 8.15h50c0-15.44-5.65-30.61-16.25-42.09l-36.72 33.94zm2.97 8.15c0 3.4-1.26 6.31-2.97 8.16l36.72 33.93c10.6-11.48 16.25-26.65 16.25-42.09h-50zm-2.97 8.16c-1.65 1.78-3.45 2.37-4.86 2.37v50c16.01 0 30.91-6.9 41.58-18.44l-36.72-33.93zm-4.86-175.27h-328.28v50h328.28v-50zm-328.28 0c-1.41 0-3.21-.588-4.86-2.372l-36.72 33.932c10.67 11.54 25.57 18.44 41.58 18.44v-50zm-4.86-2.372c-1.71-1.851-2.97-4.754-2.97-8.155h-50c0 15.444 5.65 30.613 16.25 42.087l36.72-33.932zm-2.97-8.155c0-3.402 1.26-6.305 2.97-8.156l-36.72-33.933c-10.6 11.475-16.25 26.645-16.25 42.089h50zm2.97-8.156c1.65-1.783 3.45-2.372 4.86-2.372v-50c-16.01 0-30.91 6.897-41.58 18.439l36.72 33.933zm4.86-2.372h328.28v-50h-328.28v50zm328.28 0c1.41 0 3.21.588 4.86 2.372l36.72-33.933c-10.67-11.541-25.57-18.439-41.58-18.439v50zm4.86 2.372c1.71 1.851 2.97 4.754 2.97 8.156h50c0-15.444-5.65-30.614-16.25-42.089l-36.72 33.933zm2.97 8.156c0 3.401-1.26 6.304-2.97 8.155l36.72 33.932c10.6-11.474 16.25-26.643 16.25-42.087h-50zm-2.97 8.155c-1.65 1.784-3.45 2.372-4.86 2.372v50c16.01 0 30.91-6.9 41.58-18.44l-36.72-33.932z" fill="#000" mask="url(#a)"/><path d="M3833.75 413.741l-.01-.013-.02-.014a16.51 16.51 0 00-8.63-4.92c-3.42-.731-6.95-.34-10.09 1.067a16.64 16.64 0 00-7.35 6.445 17.186 17.186 0 00-2.58 9.001v288.289c0 12.433 4.56 24.536 12.94 33.605 8.41 9.102 20.03 14.422 32.39 14.422H4116.8c3.5-.016 6.83-1.156 9.56-3.143a16.936 16.936 0 005.84-7.639 17.347 17.347 0 00.85-9.266 17.07 17.07 0 00-4.21-8.48l-9.01 8.276 8.99-8.302v-.001l-295.07-319.327zM1671.94 7683.57h59.67c15.51 0 30.17-6.68 40.82-18.21 10.62-11.48 16.43-26.87 16.43-42.72v-290.58c0-15.86-5.81-31.24-16.43-42.73-10.65-11.52-25.31-18.2-40.82-18.2h-59.67c-15.52 0-30.18 6.68-40.83 18.2-10.61 11.49-16.42 26.87-16.42 42.73v290.58c0 15.85 5.81 31.24 16.42 42.72 10.65 11.53 25.31 18.21 40.83 18.21zM2089.62 7683.57h59.67c15.52 0 30.18-6.68 40.82-18.2 10.62-11.49 16.43-26.88 16.43-42.73v-484.3c0-15.86-5.81-31.24-16.43-42.73-10.64-11.52-25.3-18.2-40.82-18.2h-59.67c-15.51 0-30.18 6.68-40.82 18.2-10.62 11.49-16.43 26.87-16.43 42.73v484.3c0 15.85 5.81 31.24 16.43 42.73 10.64 11.52 25.31 18.2 40.82 18.2zM2298.45 7683.57h59.67c15.51 0 30.18-6.68 40.82-18.21 10.62-11.48 16.43-26.87 16.43-42.72v-710.31c0-15.85-5.81-31.24-16.43-42.73-10.64-11.52-25.31-18.2-40.82-18.2h-59.67c-15.52 0-30.18 6.68-40.82 18.2-10.62 11.49-16.43 26.88-16.43 42.73v710.31c0 15.85 5.81 31.24 16.43 42.72 10.64 11.53 25.3 18.21 40.82 18.21zM1880.76 7683.57h59.67c7.66 0 15.22-1.64 22.24-4.78 7.01-3.15 13.32-7.73 18.58-13.42 5.27-5.7 9.4-12.41 12.2-19.73 2.8-7.32 4.23-15.13 4.23-23V6750.9c0-15.85-5.81-31.24-16.42-42.73-10.65-11.52-25.31-18.2-40.83-18.2h-59.67c-15.51 0-30.18 6.68-40.82 18.2-10.62 11.49-16.43 26.88-16.43 42.73v871.74c0 15.85 5.81 31.24 16.43 42.73 10.64 11.52 25.31 18.2 40.82 18.2zM413.656 3380.2a43.043 43.043 0 0017.622 3.79h.001c6.078 0 12.069-1.3 17.623-3.79 5.551-2.48 10.526-6.1 14.672-10.59 4.145-4.48 7.385-9.76 9.58-15.49a50.42 50.42 0 003.314-18.01s0 0 0 0v-35.24c.172-34.48 12.906-67.31 35.173-91.43 22.234-24.08 52.126-37.5 83.123-37.71h424.916c12.32 0 23.91-5.3 32.29-14.38 8.36-9.04 12.9-21.1 12.9-33.49 0-12.4-4.54-24.46-12.9-33.5-8.38-9.07-19.97-14.38-32.29-14.38H594.553c-55.545.33-108.507 24.37-147.451 66.53-38.913 42.14-60.742 98.99-61.012 158.17v35.43s0 0 0 0c0 6.16 1.119 12.28 3.314 18.01 2.195 5.74 5.435 11.01 9.579 15.49 4.147 4.49 9.123 8.11 14.673 10.59z" fill="#fff" stroke="#000" stroke-width="25"/><path d="M922.01 3196.49h0l67.112-72.63-67.112-72.63s0 0 0 0c-8.354-9.04-12.893-21.11-12.893-33.5s4.54-24.46 12.893-33.5c8.385-9.07 19.977-14.38 32.295-14.38 12.318 0 23.911 5.31 32.295 14.38m-64.59 212.26l64.59-212.26m-64.59 212.26c-6.237 6.75-10.386 15.23-12.059 24.34-1.672 9.1-.821 18.54 2.48 27.16 3.303 8.63 8.956 16.16 16.389 21.54 7.443 5.38 16.306 8.33 25.468 8.33a42.804 42.804 0 0017.643-3.78c5.552-2.48 10.527-6.11 14.669-10.6h.001c.004 0 .007 0 .01-.01l98.059-106.11s0 0 0 0c4.14-4.49 7.38-9.76 9.58-15.5a50.49 50.49 0 003.31-18c0-6.16-1.12-12.27-3.31-18.01-2.2-5.73-5.44-11.01-9.58-15.49 0 0 0 0 0 0m-162.66 106.13l162.66-106.13m-98.07-106.13l98.07 106.13m-98.07-106.13l98.07 106.13M1261 3336.17v-35.43c0-12.39-4.54-24.46-12.9-33.5-8.38-9.07-19.98-14.38-32.29-14.38-12.32 0-23.91 5.31-32.3 14.38-8.35 9.04-12.89 21.11-12.89 33.5v35.24c-.17 34.48-12.91 67.32-35.18 91.43-22.23 24.08-52.12 37.5-83.12 37.71H627.407c-12.318 0-23.91 5.31-32.295 14.38-8.353 9.04-12.893 21.11-12.893 33.5s4.54 24.46 12.893 33.5c8.385 9.07 19.977 14.37 32.295 14.37h425.123c55.55-.32 108.51-24.36 147.45-66.53 38.92-42.13 60.75-98.98 61.02-158.17z" fill="#fff" stroke="#000" stroke-width="25"/><path d="M660.5 3373.37h.008c8.388-9.06 19.977-14.36 32.287-14.35 12.31.01 23.894 5.31 32.274 14.38 8.348 9.03 12.888 21.09 12.893 33.47.005 12.39-4.524 24.45-12.865 33.49l-.007.01-67.112 72.63 67.112 72.63h0c6.236 6.75 10.386 15.24 12.059 24.34s.821 18.54-2.48 27.16c-3.303 8.63-8.955 16.17-16.389 21.54-7.442 5.38-16.306 8.33-25.468 8.33a42.955 42.955 0 01-17.643-3.77c-5.554-2.49-10.531-6.12-14.674-10.61l.005.01 9.181-8.49-9.192 8.47.011-279.24zm0 0l-98.065 106.13m98.065-106.13l-98.066 106.13m0 0l9.18 8.49-9.179-8.49m-.001 0h.001m-.001 0h.001m0 67l9.179-8.49-9.18 8.49h.001z" fill="#fff" stroke="#000" stroke-width="25"/><path d="M7060.53 4039.47c454.83 0 823.54-399.02 823.54-891.24 0-492.21-368.71-891.23-823.54-891.23-454.82 0-823.53 399.02-823.53 891.23 0 492.22 368.71 891.24 823.53 891.24z" fill="#FBD43C"/><path d="M7483.74 3046.95l-.11-.13-.11-.12-.51-.55-.02-.03-.02-.02-55.92-59.9-.02-.02c-4.39-4.73-9.66-8.54-15.54-11.14-5.87-2.6-12.19-3.94-18.6-3.9-2.62 0-5.21.23-7.75.67-1.01-11.91-4.6-23.53-10.64-33.88l-.23-.39-.25-.37a461.338 461.338 0 00-41.62-52.2l-.13-.14-.09-.1-.09-.09c-42-43.61-91.41-78.12-145.57-101.61-29.04-12.9-60.17-19.54-91.63-19.52-41.64-.39-81.97 14.96-114.03 43.19l-.38.33-.34.36a219.937 219.937 0 00-24.55 30.38v.01l-.01.01c-4.75 7.08-7.18 15.53-7.08 24.07.11 8.54 2.76 16.92 7.69 23.88 4.93 6.98 11.95 12.22 20.13 14.73s16.9 2.1 24.82-1.15c4.01-1.62 8.11-2.98 12.26-4.08a83.467 83.467 0 0125.88-1.74c18.4 2.11 36.12 9.07 51.59 20.36 8.1 7.51 14.62 16.95 19.02 27.67 4.27 10.4 6.42 21.7 6.29 33.13-6.8 20.28-16.97 39.01-29.96 55.25l-.25.31-.23.33c-5.49 7.84-8.09 17.43-7.48 27 .61 9.57 4.41 18.75 10.92 25.77 0 0 0 0 0 0l56.16 60.78c6.89 7.47 16.37 12 26.56 12.31 10.2.31 19.93-3.63 27.23-10.7 7.94-7.67 17.88-17.22 26.86-25.53 9.32-8.63 16.71-15.07 19.96-17.25l.18-.13.19-.13c4.15-3.01 8.67-5.27 13.38-6.73-3.32 7-5.07 14.75-5.09 22.64-.02 13.09 4.76 25.84 13.55 35.4l.02.02.03.02.17.19.01.01.01.01 55.91 59.88c0 .01.01.02.01.02 4.4 4.73 9.67 8.54 15.54 11.14a45.484 45.484 0 0018.59 3.89c12.88 0 25.03-5.47 33.91-14.88l.02-.02.01-.02 90.62-96.86.02-.03.03-.03c.44-.48.89-.98 1.32-1.5 8.06-9.57 12.35-21.92 12.24-34.54-.11-12.63-4.63-24.91-12.88-34.33zM7134.49 3142.25l-.01-.01h-.01l-42.63-46.16h0c-12.01-13-28.51-20.53-45.95-20.58-17.37-.05-33.84 7.32-45.91 20.16l-296.14 295.77c-13.19 12.69-21.08 30.27-22.27 48.89v.14l-.01.14a73.39 73.39 0 004.16 27.54c3.13 8.8 7.92 16.87 14.13 23.68v.01l.01.01 63.68 69.67.03.04.03.03.11.12c12.08 13.03 28.65 20.58 46.17 20.64h2.35l.38-.02c8.98-.54 17.73-3 25.75-7.19 7.98-4.16 15.06-9.94 20.87-16.96l275.2-319c11.97-12.94 18.57-30.28 18.64-48.2.08-18.01-6.45-35.48-18.42-48.55l-.01-.01-.01-.01-.14-.15z" fill="#fff" stroke="#000" stroke-width="25"/><path d="M5577.53 8101.47c454.83 0 823.54-399.02 823.54-891.23 0-492.22-368.71-891.24-823.54-891.24-454.82 0-823.53 399.02-823.53 891.24 0 492.21 368.71 891.23 823.53 891.23z" fill="#FBD43C"/><path d="M5697.61 7021.5c-13.27.01-25.97 5-35.98 13.9-9.98 8.87-16.65 21.06-19.09 34.39-2.44 13.32-.56 27.18 5.42 39.27 5.98 12.09 15.77 21.8 27.89 27.23 12.16 5.44 25.75 6.16 38.39 2.01 12.61-4.15 23.27-12.82 30.34-24.28 7.06-11.45 10.18-25.07 8.94-38.57-1.23-13.51-6.76-26.29-15.85-36.12-5.17-5.58-11.35-10.07-18.23-13.15a53.442 53.442 0 00-21.83-4.68zM5418.31 7449.29c-6.33-.85-12.73.83-17.99 4.73-10.45 7.73-20.95 15.38-31.54 22.83-4.6 3.2-10.06 4.64-15.51 4.08-5.44-.56-10.56-3.09-14.52-7.17-3.96-4.08-6.54-9.49-7.32-15.34-.78-5.86.28-11.84 3.01-16.97l19.87-37.16c2.84-4.49 4.42-9.78 4.55-15.23.13-5.44-1.19-10.81-3.8-15.47-2.62-4.65-6.42-8.39-10.95-10.76-4.53-2.37-9.6-3.28-14.59-2.62-22.06 3.02-42.55 13.89-58.27 30.9-5.98 6.49-24.18 26.21-33.98 101.33a686.857 686.857 0 00-5.26 65.07c-.09 3.71.5 7.41 1.73 10.89 1.24 3.47 3.09 6.64 5.45 9.34 2.37 2.69 5.2 4.85 8.34 6.37 3.14 1.51 6.53 2.33 9.96 2.43.23 0 .46.01.68.01h.66c20.13-.77 40.22-2.66 60.17-5.67 69.45-10.61 87.67-30.33 93.65-36.8 15.79-17.02 25.81-39.3 28.44-63.25.84-7.45-1.09-14.96-5.36-20.87-4.27-5.91-10.54-9.75-17.42-10.67z" fill="#fff" stroke="#000" stroke-width="25"/><path d="M5940.36 6845.96v-.16c-1.38-6.56-4.43-12.57-8.8-17.36-4.37-4.78-9.89-8.15-15.94-9.72-48.73-12.86-125.39.85-210.34 37.66-81.69 34.37-156.43 85.58-220.06 150.81a556.67 556.67 0 00-48.32 59.86c-32.69-2.44-65.45 3.26-95.78 16.66-94.42 44.96-121.38 160.04-128.56 207.29-1.04 6.72-.63 13.6 1.19 20.11 1.82 6.52 5.01 12.49 9.31 17.46 4.3 4.96 9.6 8.79 15.49 11.17a37.976 37.976 0 0018.47 2.58h.21l105.18-12.42c.13 1.45.28 2.78.39 4 1.36 13.87 7.07 26.81 16.19 36.66l51.33 55.59c9.09 9.88 21.05 16.08 33.87 17.54l3.51.4-11.44 113.68v.24c-.56 5.77-.05 11.61 1.48 17.18 1.54 5.57 4.07 10.76 7.45 15.26 3.39 4.51 7.56 8.26 12.28 11.02 4.73 2.76 9.91 4.49 15.25 5.09 1.25.14 2.51.22 3.78.23 2.27.01 4.54-.2 6.79-.6 43.9-7.64 150.19-36.47 191.63-139.2 12.28-32.71 17.56-68 15.45-103.24 19.63-15.97 38.19-33.45 55.52-52.29 60.23-68.22 107.61-148.47 139.5-236.28 33.83-90.89 46.57-174.47 34.97-229.22zm-175.06 309.47c-13.44 14.55-30.56 24.47-49.19 28.49-18.64 4.02-37.97 1.97-55.53-5.89-17.57-7.86-32.58-21.18-43.15-38.28-10.57-17.09-16.21-37.2-16.22-57.77-.01-20.57 5.61-40.68 16.16-57.79 10.56-17.11 25.56-30.45 43.12-38.33 17.55-7.88 36.87-9.95 55.52-5.95 18.64 4.01 35.77 13.9 49.22 28.44l.07.08c18.01 19.2 28.24 45.36 28.43 72.72.19 27.36-9.67 53.68-27.41 73.18l-1.02 1.1z" fill="#fff" stroke="#000" stroke-width="25"/></svg>