<svg width="5485" height="6154" fill="none" xmlns="http://www.w3.org/2000/svg"><path d="M2789 5921h-1c-53 0-107-2-160-5l1-15c52 4 106 5 159 5h1v15zm162-5l-1-15c53-3 107-9 160-15l1 14c-53 7-107 12-160 16zm-484-16c-53-7-107-15-160-26l3-14c52 10 106 19 159 26l-2 14zm804-26l-3-15c53-10 106-22 158-36l3 14c-52 14-105 26-158 37zm-1122-36c-52-14-104-30-155-47l4-14c51 17 103 33 155 47l-4 14zm1435-48l-4-14c51-17 102-36 152-57l5 14c-50 20-102 40-153 57zm-1743-56c-50-21-100-44-149-68l5-13c49 24 99 46 149 67l-5 14zm2045-68l-6-14c49-23 97-49 144-76l7 13c-48 27-97 53-145 77zm-2340-76c-47-28-95-57-140-87l6-12c46 30 93 59 140 86l-6 13zm2625-87l-7-13c46-30 91-62 135-95l7 12c-44 33-89 65-135 96zm-2901-95c-44-33-88-68-130-104l8-12c42 36 86 71 130 104l-8 12zm3166-105l-8-11c42-36 84-74 123-112l9 11c-40 38-81 76-124 112zm-3420-112c-40-38-80-79-118-120l10-10c37 41 77 81 117 120l-9 10zm3662-120l-10-11c38-41 75-83 111-127l10 10c-36 43-73 86-111 128zM787 4944c-35-44-70-89-103-135l11-9c32 45 67 90 102 134l-10 10zm4105-136l-11-9c33-45 66-93 96-140l11 8c-31 48-63 95-96 141zM588 4668c-30-48-60-97-88-147l12-8c27 50 57 99 87 147l-11 8zm4488-148l-12-8c28-49 55-101 79-152l12 7c-25 51-51 103-79 153zM421 4369c-25-52-49-105-71-158l12-6c22 53 46 106 71 157l-12 7zm4805-160l-12-6c22-53 43-107 61-161l13 5c-19 54-40 109-62 162zM288 4049c-19-54-37-110-53-165l13-5c16 56 34 111 53 165l-13 5zm5053-168l-13-5c16-55 30-111 43-168l13 4c-13 56-27 113-43 169zM192 3715c-13-57-24-114-34-172l13-2c10 57 21 114 34 170l-13 4zm5226-175l-13-2c9-57 17-115 23-173l14 2c-7 58-15 116-24 173zM134 3370c-7-58-11-116-15-175h14c3 57 8 116 14 173l-13 2zm5322-178l-13-1c3-57 5-116 5-174v-6h13v6c0 58-2 117-5 175zM128 3020h-14v-3c0-57 2-115 5-172l13 1c-3 56-4 114-4 171v3zm5315-184c-4-58-9-116-15-173l13-2c7 58 12 116 15 175h-13zM147 2672l-14-2c7-58 15-116 24-173l13 2c-9 57-17 115-23 173zm5257-182c-10-57-22-114-34-170l13-4c12 57 24 114 34 172l-13 2zM204 2329l-13-4c12-56 27-113 43-169l13 4c-16 56-31 112-43 169zm5122-177c-16-56-33-111-52-165l12-5c19 54 37 110 53 165l-13 5zM299 1995l-13-5c19-55 40-109 62-162l12 6c-22 53-42 107-61 161zm4913-169c-22-53-46-105-71-156l12-7c25 51 49 104 71 157l-12 6zM431 1677l-12-7c25-52 51-103 79-153l12 7c-28 50-55 101-79 153zm4631-159c-28-49-57-99-87-146l11-9c30 48 60 98 88 147l-12 8zM597 1378l-11-9c30-47 63-95 96-141l10 9c-33 46-65 93-95 141zm4282-147c-33-45-68-90-103-133l10-10c36 43 70 89 104 134l-11 9zM795 1103l-10-10c36-43 73-86 111-128l9 11c-38 41-75 84-110 127zm3871-132c-38-41-77-81-117-120l9-11c40 39 79 79 117 120l-9 11zM1022 856l-9-11c40-39 82-76 124-112l8 11c-42 36-83 74-123 112zm3403-116c-42-36-85-71-129-104l7-12c44 33 88 68 130 104l-8 12zM1274 640l-7-12c44-33 89-65 135-95l7 12c-46 30-91 62-135 95zm2887-98c-46-30-93-59-141-86l7-13c47 27 95 56 140 86l-6 13zm-2612-82l-7-13c48-27 96-53 145-77l6 13c-49 24-97 50-144 77zm2327-80c-49-24-99-47-149-67l5-14c50 21 100 43 149 67l-5 14zm-2035-64l-5-14c50-20 101-40 152-57l4 14c-50 17-101 36-151 57zm1734-60c-51-17-103-33-155-46l3-14c52 13 105 29 156 46l-4 14zm-1428-44l-3-14c52-14 105-27 158-37l2 14c-52 11-105 23-157 37zm1116-39c-52-10-106-18-159-25l2-15c53 7 107 16 159 26l-2 14zm-800-24l-2-15c53-7 108-12 161-16l1 15c-53 3-107 9-160 16zm481-17c-52-3-104-4-156-4h-5v-15h5c52 0 105 2 157 5l-1 14z" fill="#fff"/><path d="M5485 4859H3896v1294h1589V4859z" fill="#FBD43C"/><path d="M4095 5192h-13v111h1217v-111H4095zM4095 5450h-13v112h1217v-112H4095zM4095 5709h-13v112h1217v-112H4095z" fill="#fff" stroke="#000" stroke-width="25"/><path d="M1193 0H83v904h1110V0z" fill="#E6E6E6"/><path d="M1054 241H222v60h832v-60zM1054 422H222v60h832v-60zM1054 603H222v60h832v-60z" fill="#fff"/><path d="M1665 467H555v904h1110V467z" fill="#FBD43C"/><path d="M693 696h-12v85h857v-85H693zM693 876h-12v86h857v-86H693zM693 1057h-12v86h857v-86H693z" fill="#fff" stroke="#000" stroke-width="25"/><path d="M4304 4246H1279V1784h3025v2462zM1310 1818v2394h2963V1818H1310z" fill="#E6E6E6"/><path d="M2790 3646c318 0 576-281 576-626 0-346-258-626-576-626s-576 280-576 626c0 345 258 626 576 626z" fill="#FBD43C"/><path d="M3030 2955h-184v-200c0-17-6-32-17-44a57 57 0 00-41-19c-16 0-31 7-42 19a65 65 0 00-17 44v200h-183c-16 0-31 7-42 19a65 65 0 00-17 43c0 17 6 32 17 44s26 19 42 19h183v200c0 16 6 32 17 44s26 19 42 19 31-7 41-19c11-12 17-28 17-44v-200h184c15 0 30-7 41-19s17-27 17-44c0-16-6-32-17-43a57 57 0 00-41-19z" fill="#fff" stroke="#000" stroke-width="25"/><path d="M1110 4641H0v905h1110v-905z" fill="#E6E6E6"/><path d="M971 4883H139v60h832v-60zM971 5063H139v61h832v-61zM971 5244H139v60h832v-60z" fill="#fff"/></svg>