<svg width="5485" height="6154" fill="none" xmlns="http://www.w3.org/2000/svg"><path d="M2789.12 5921.02h-1.42c-53.16 0-106.97-1.72-159.91-5.12l.79-14.52c52.69 3.39 106.23 5.09 159.13 5.09h1.42l-.01 14.55zm161.39-5.31l-.8-14.52c53.26-3.47 107.07-8.74 159.96-15.68l1.61 14.45c-53.15 6.98-107.24 12.27-160.72 15.76l-.05-.01zm-483.52-15.38a2493.432 2493.432 0 01-159.64-26.05l2.39-14.33a2510.075 2510.075 0 00158.84 25.97l-1.59 14.41zm803.9-26.63l-2.41-14.33c52.45-10.39 105.3-22.69 157.05-36.52l3.2 14.13a2487.47 2487.47 0 01-157.85 36.71l.01.01zm-1121.43-36a2499.089 2499.089 0 01-155.56-46.88l3.98-13.9a2495.884 2495.884 0 00154.78 46.65l-3.2 14.13zm1434.79-47.82l-3.99-13.9c50.84-17.21 101.88-36.37 151.78-56.97l4.76 13.62c-50.13 20.71-101.46 39.99-152.55 57.29v-.04zm-1743.3-56.25c-50.13-20.62-100.39-43.23-149.4-67.18l5.5-13.28c48.76 23.84 98.76 46.3 148.66 66.84l-4.76 13.62zm2044.75-68.12l-5.51-13.28c48.53-23.71 97.04-49.49 144.17-76.42l6.24 12.87a2559.164 2559.164 0 01-144.9 76.87v-.04zm-2339.47-75.99c-47.53-27.1-94.88-56.15-140.73-86.31l6.93-12.43c45.63 30.01 92.73 58.91 140.02 85.9l-6.22 12.84zm2624.81-87.01l-6.93-12.43a2660.4 2660.4 0 00134.72-94.8l7.62 11.97c-44.07 33.04-89.67 65.1-135.41 95.26zm-2901.13-94.64c-44.14-33.13-87.9-68.15-130.08-104.05l8.32-11.47c41.95 35.75 85.5 70.57 129.43 103.55l-7.67 11.97zm3166.43-104.64l-8.31-11.46c42.06-35.86 83.55-73.41 123.32-111.81l8.9 10.89c-39.98 38.51-81.68 76.3-123.95 112.33l.04.05zm-3420.57-111.8c-40.134-38.63-79.7-79.05-117.593-120.21l9.47-10.28c37.706 40.92 77.075 81.17 117.003 119.6l-8.88 10.89zm3662.05-120.84l-9.47-10.29c37.76-41.01 74.85-83.76 110.2-127.06l10.02 9.67a2842.306 2842.306 0 01-110.72 127.68h-.03zM787.46 4943.57a2890.75 2890.75 0 01-103.45-134.59l10.531-9.04c32.893 45.49 67.574 90.55 102.92 133.91l-10.001 9.72zm4104.53-135.24l-10.56-9.03c33.01-45.71 65.09-93 95.38-140.55l11.02 8.28a2902.94 2902.94 0 01-95.84 141.3zm-4303.83-140.3a2957.445 2957.445 0 01-87.783-147.02l11.435-7.56a2963.512 2963.512 0 0087.326 146.3l-10.978 8.28zm4487.54-148.24l-11.43-7.53a2973.34 2973.34 0 0079.13-152.06l11.85 6.77c-24.98 51.52-51.7 102.94-79.55 152.82zM420.921 4368.53a3017.26 3017.26 0 01-70.786-157.37l12.205-5.99c21.914 52.69 45.607 105.37 70.432 156.56l-11.851 6.8zm4805.189-159.4l-12.22-5.97c21.99-53.08 42.72-107.36 61.6-161.49l12.54 5.17a3062.722 3062.722 0 01-61.93 162.26l.01.03zM288.269 4049.49a3067.054 3067.054 0 01-52.801-165.73l12.787-4.34a3063.178 3063.178 0 0052.53 164.88l-12.516 5.19zm5052.521-168.72l-12.8-4.32c15.84-55.34 30.33-111.88 43.03-168.11l13.01 3.46c-12.78 56.52-27.32 113.37-43.24 168.96v.01zM192.055 3714.84a3107.235 3107.235 0 01-33.881-171.46l13.182-2.62a3103.344 3103.344 0 0033.714 170.58l-13.015 3.5zM5417.75 3540.3l-13.19-2.62c9.52-56.95 17.59-114.99 23.91-172.52l13.29 1.74c-6.34 57.8-14.44 116.19-24.01 173.39v.01zM133.92 3370.02a3153.766 3153.766 0 01-14.554-174.64l13.369-.88c3.223 57.86 8.109 116.32 14.555 173.76l-13.37 1.76zm5322.32-177.78l-13.37-.86c3.11-57.75 4.76-116.42 4.76-174.41v-6.15h13.4v6.15c0 58.28-1.61 117.24-4.79 175.27zM127.756 3020.07h-13.401v-3.08c0-57.27 1.549-115.19 4.616-172.18l13.369.86a3208.143 3208.143 0 00-4.595 171.33l.011 3.07zm5314.754-183.66c-3.28-57.92-8.23-116.39-14.68-173.75l13.3-1.76c6.49 57.65 11.44 116.4 14.76 174.62l-13.38.89zM146.531 2671.87l-13.307-1.72c6.341-57.82 14.378-116.17 23.911-173.43l13.192 2.59a3123.708 3123.708 0 00-23.796 172.56zM5403.52 2490.2c-9.7-57.11-21.1-114.5-33.89-170.53l13-3.5c12.86 56.35 24.32 114.06 34.07 171.42l-13.18 2.61zM203.708 2328.6l-13.015-3.45c12.714-56.47 27.206-113.39 43.08-169.01l12.798 4.3a3062.733 3062.733 0 00-42.852 168.16h-.011zm5122.572-176.97c-15.94-55.27-33.68-110.73-52.69-164.88l12.47-5.18c19.12 54.37 36.95 110.12 53.02 165.67l-12.8 4.39zM298.883 1995.12l-12.538-5.15a3062.677 3062.677 0 0161.773-162.34l12.226 5.97a3035.107 3035.107 0 00-61.461 161.52zm4913.007-169.13c-21.96-52.67-45.74-105.32-70.6-156.49l11.85-6.77c25.01 51.42 48.86 104.33 70.94 157.28l-12.19 5.98zM430.693 1676.51l-11.872-6.78a2976.436 2976.436 0 0179.383-152.92l11.435 7.53c-27.622 49.73-54.193 100.92-78.946 152.17zm4631.377-158.62a2967.026 2967.026 0 00-87.5-146.19l11.02-8.3c30.57 47.88 60.14 97.31 87.93 146.94l-11.45 7.55zm-4465.147-140.2l-11.029-8.28a2943.972 2943.972 0 0195.715-141.35l10.551 8.96c-32.861 45.72-64.943 93.04-95.237 140.67zm4282.187-146.25c-33.02-45.53-67.7-90.54-103.08-133.8l10.02-9.66c35.56 43.44 70.4 88.68 103.58 134.46l-10.52 9zM795.028 1102.91l-10.032-9.66c35.512-43.59 72.772-86.59 110.582-127.792l9.491 10.277a2825.84 2825.84 0 00-110.041 127.175zM4665.78 970.777c-37.86-40.971-77.26-81.175-117.13-119.47l8.87-10.898a2822.992 2822.992 0 01117.71 120.069l-9.45 10.299zM1021.9 855.971l-8.9-10.886c39.99-38.6 81.66-76.432 123.84-112.457l8.31 11.44c-41.95 35.844-83.45 73.496-123.25 111.903zm3403.22-116.319a2690.823 2690.823 0 00-129.55-103.388l7.62-11.982c44.19 33.078 87.98 68.041 130.17 103.897l-8.24 11.473zm-3150.85-99.243l-7.63-11.971c44.04-33.145 89.55-65.263 135.31-95.438l6.96 12.422c-45.53 30.029-90.82 61.988-134.64 94.975v.012zm2886.25-98.871a2628.357 2628.357 0 00-140.1-85.715l6.24-12.897a2640.332 2640.332 0 01140.81 86.144l-6.95 12.468zm-2612.01-82.033l-6.23-12.875c47.35-27.103 96.08-53.077 144.82-76.985l5.52 13.258c-48.51 23.829-96.98 49.6-144.09 76.602h-.02zm2327.29-80.001c-48.77-23.715-98.77-46.2-148.72-66.629l4.74-13.62a2552.222 2552.222 0 01149.46 67.014l-5.48 13.235zm-2035.11-63.512l-4.77-13.552a2530.262 2530.262 0 01152.55-57.437l4 13.891c-50.88 17.222-101.94 36.454-151.81 57.098h.03zm1734.15-59.854a2491.246 2491.246 0 00-154.82-46.471l3.18-14.139a2512.608 2512.608 0 01155.61 46.708l-3.97 13.902zm-1427.7-44.269l-3.22-14.127a2479.483 2479.483 0 01157.82-36.895l2.42 14.32a2457.565 2457.565 0 00-156.98 36.714l-.04-.012zm1115.75-38.396a2461.828 2461.828 0 00-158.86-25.76l1.57-14.455a2471.664 2471.664 0 01159.67 25.884l-2.38 14.331zm-799.95-24.653l-1.62-14.455c53.11-7.024 107.19-12.423 160.75-15.946l.81 14.523a2506.713 2506.713 0 00-159.94 15.81v.068zm481.07-16.398a2503.143 2503.143 0 00-156.31-4.901h-4.27v-14.557h4.27c52.23 0 105.09 1.66 157.08 4.935l-.77 14.523z" fill="#fff"/><path d="M5484.98 4858.91H3896.35v1294.31h1588.63V4858.91z" fill="#FBD43C"/><path d="M5298.89 5204.06v-12.5H4082.42v111.29h1216.47v-98.79zM5298.89 5462.93v-12.5H4082.42v111.29h1216.47v-98.79zM5298.89 5721.79v-12.5H4082.42v111.29h1216.47v-98.79z" fill="#fff" stroke="#000" stroke-width="25"/><path d="M1192.82 0H83.168v904.058H1192.82V0z" fill="#E6E6E6"/><path d="M221.867 228.587h-12.5v85.271H1066.6v-85.271H221.867zM221.867 409.387h-12.5v85.271H1066.6v-85.271H221.867zM221.867 590.203h-12.5v85.271H1066.6v-85.271H221.867z" fill="#fff" stroke="#000" stroke-width="25"/><path d="M1664.65 467H555v904.06h1109.65V467z" fill="#FBD43C"/><path d="M1538.21 708.18v-12.5H680.971v85.271h857.239V708.18zM1538.21 888.995v-12.5H680.971v85.271h857.239v-72.771zM1538.21 1069.79v-12.5H680.971v85.28h857.239v-72.78z" fill="#fff" stroke="#000" stroke-width="25"/><path d="M4303.91 4246.21H1278.7v-2461.9h3025.21v2461.9zM1309.89 1818.19v2394.14h2962.83V1818.19H1309.89z" fill="#E6E6E6"/><path d="M2790.36 3645.62c318.13 0 576.02-280.16 576.02-625.74 0-345.59-257.89-625.74-576.02-625.74s-576.03 280.15-576.03 625.74c0 345.58 257.9 625.74 576.03 625.74z" fill="#FBD43C"/><path d="M3029.56 2954.83h-183.35v-200.25c0-16.28-5.94-32.07-16.8-43.87-10.89-11.83-25.9-18.69-41.78-18.69-15.89 0-30.9 6.86-41.79 18.69-10.86 11.8-16.8 27.59-16.8 43.87v200.25h-183.35c-15.88 0-30.89 6.86-41.78 18.7-10.86 11.79-16.8 27.59-16.8 43.86s5.94 32.07 16.8 43.87c10.89 11.83 25.9 18.69 41.78 18.69h183.35v200.25c0 16.28 5.94 32.07 16.8 43.87 10.89 11.83 25.9 18.7 41.79 18.7 15.88 0 30.89-6.87 41.78-18.7 10.86-11.8 16.8-27.59 16.8-43.87v-200.25h183.35c15.89 0 30.89-6.86 41.78-18.69 10.86-11.8 16.81-27.6 16.81-43.87 0-16.27-5.95-32.07-16.81-43.86-10.89-11.84-25.89-18.7-41.78-18.7z" fill="#fff" stroke="#000" stroke-width="25"/><path d="M1109.65 4641.46H0v904.06h1109.65v-904.06z" fill="#E6E6E6"/><path d="M138.699 4870.05h-12.5V4955.32h857.235V4870.05H138.699zM138.699 5050.85h-12.5V5136.12h857.235V5050.85H138.699zM138.699 5231.67h-12.5V5316.94h857.235V5231.67H138.699z" fill="#fff" stroke="#000" stroke-width="25"/></svg>