<svg width="5485" height="6154" viewBox="0 0 5485 6154" fill="none" xmlns="http://www.w3.org/2000/svg">
<path d="M2789.12 5921.02H2787.7C2734.54 5921.02 2680.73 5919.3 2627.79 5915.9L2628.58 5901.38C2681.27 5904.77 2734.81 5906.47 2787.71 5906.47H2789.13L2789.12 5921.02ZM2950.51 5915.71L2949.71 5901.19C3002.97 5897.72 3056.78 5892.45 3109.67 5885.51L3111.28 5899.96C3058.13 5906.94 3004.04 5912.23 2950.56 5915.72L2950.51 5915.71ZM2466.99 5900.33C2413.77 5893.42 2360.05 5884.65 2307.35 5874.28L2309.74 5859.95C2362.17 5870.27 2415.62 5879 2468.58 5885.92L2466.99 5900.33ZM3270.89 5873.7L3268.48 5859.37C3320.93 5848.98 3373.78 5836.68 3425.53 5822.85L3428.73 5836.97C3376.75 5850.88 3323.61 5863.23 3270.88 5873.69L3270.89 5873.7ZM2149.46 5837.7C2097.41 5823.85 2045.06 5808.08 1993.9 5790.82L1997.88 5776.92C2048.82 5794.1 2100.87 5809.78 2152.66 5823.57L2149.46 5837.7ZM3584.25 5789.88L3580.26 5775.98C3631.1 5758.77 3682.14 5739.61 3732.04 5719.01L3736.8 5732.63C3686.67 5753.34 3635.34 5772.62 3584.25 5789.92V5789.88ZM1840.95 5733.63C1790.82 5713.01 1740.56 5690.4 1691.55 5666.45L1697.05 5653.17C1745.81 5677.01 1795.81 5699.47 1845.71 5720.01L1840.95 5733.63ZM3885.7 5665.51L3880.19 5652.23C3928.72 5628.52 3977.23 5602.74 4024.36 5575.81L4030.6 5588.68C3983.23 5615.8 3934.48 5641.65 3885.7 5665.55V5665.51ZM1546.23 5589.52C1498.7 5562.42 1451.35 5533.37 1405.5 5503.21L1412.43 5490.78C1458.06 5520.79 1505.16 5549.69 1552.45 5576.68L1546.23 5589.52ZM4171.04 5502.51L4164.11 5490.08C4209.68 5460.09 4255.02 5428.19 4298.83 5395.28L4306.45 5407.25C4262.38 5440.29 4216.78 5472.35 4171.04 5502.51ZM1269.91 5407.87C1225.77 5374.74 1182.01 5339.72 1139.83 5303.82L1148.15 5292.35C1190.1 5328.1 1233.65 5362.92 1277.58 5395.9L1269.91 5407.87ZM4436.34 5303.23L4428.03 5291.77C4470.09 5255.91 4511.58 5218.36 4551.35 5179.96L4560.25 5190.85C4520.27 5229.36 4478.57 5267.15 4436.3 5303.18L4436.34 5303.23ZM1015.77 5191.43C975.636 5152.8 936.07 5112.38 898.177 5071.22L907.647 5060.94C945.353 5101.86 984.722 5142.11 1024.65 5180.54L1015.77 5191.43ZM4677.82 5070.59L4668.35 5060.3C4706.11 5019.29 4743.2 4976.54 4778.55 4933.24L4788.57 4942.91C4753.06 4986.42 4715.8 5029.38 4677.85 5070.59H4677.82ZM787.46 4943.57C751.864 4899.99 717.059 4854.7 684.01 4808.98L694.541 4799.94C727.434 4845.43 762.115 4890.49 797.461 4933.85L787.46 4943.57ZM4891.99 4808.33L4881.43 4799.3C4914.44 4753.59 4946.52 4706.3 4976.81 4658.75L4987.83 4667.03C4957.41 4714.87 4925.16 4762.4 4891.99 4808.33ZM588.16 4668.03C557.648 4620.14 528.102 4570.68 500.377 4521.01L511.812 4513.45C539.413 4562.89 568.803 4612.1 599.138 4659.75L588.16 4668.03ZM5075.7 4519.79L5064.27 4512.26C5091.94 4462.65 5118.57 4411.49 5143.4 4360.2L5155.25 4366.97C5130.27 4418.49 5103.55 4469.91 5075.7 4519.79ZM420.921 4368.53C395.97 4317.07 372.153 4264.12 350.135 4211.16L362.34 4205.17C384.254 4257.86 407.947 4310.54 432.772 4361.73L420.921 4368.53ZM5226.11 4209.13L5213.89 4203.16C5235.88 4150.08 5256.61 4095.8 5275.49 4041.67L5288.03 4046.84C5269.04 4101.2 5248.2 4155.8 5226.1 4209.1L5226.11 4209.13ZM288.269 4049.49C269.203 3995.06 251.436 3939.3 235.468 3883.76L248.255 3879.42C264.15 3934.67 281.823 3990.16 300.785 4044.3L288.269 4049.49ZM5340.79 3880.77L5327.99 3876.45C5343.83 3821.11 5358.32 3764.57 5371.02 3708.34L5384.03 3711.8C5371.25 3768.32 5356.71 3825.17 5340.79 3880.76V3880.77ZM192.055 3714.84C179.226 3658.38 167.832 3600.7 158.174 3543.38L171.356 3540.76C180.973 3597.79 192.314 3655.18 205.07 3711.34L192.055 3714.84ZM5417.75 3540.3L5404.56 3537.68C5414.08 3480.73 5422.15 3422.69 5428.47 3365.16L5441.76 3366.9C5435.42 3424.7 5427.32 3483.09 5417.75 3540.29V3540.3ZM133.92 3370.02C127.485 3312.29 122.579 3253.54 119.366 3195.38L132.735 3194.5C135.958 3252.36 140.844 3310.82 147.29 3368.26L133.92 3370.02ZM5456.24 3192.24L5442.87 3191.38C5445.98 3133.63 5447.63 3074.96 5447.63 3016.97V3010.82H5461.03V3016.97C5461.03 3075.25 5459.42 3134.21 5456.24 3192.24ZM127.756 3020.07H114.355V3016.99C114.355 2959.72 115.904 2901.8 118.971 2844.81L132.34 2845.67C129.294 2902.37 127.745 2960.01 127.745 3017L127.756 3020.07ZM5442.51 2836.41C5439.23 2778.49 5434.28 2720.02 5427.83 2662.66L5441.13 2660.9C5447.62 2718.55 5452.57 2777.3 5455.89 2835.52L5442.51 2836.41ZM146.531 2671.87L133.224 2670.15C139.565 2612.33 147.602 2553.98 157.135 2496.72L170.327 2499.31C160.835 2556.28 152.831 2614.34 146.531 2671.87V2671.87ZM5403.52 2490.2C5393.82 2433.09 5382.42 2375.7 5369.63 2319.67L5382.63 2316.17C5395.49 2372.52 5406.95 2430.23 5416.7 2487.59L5403.52 2490.2ZM203.708 2328.6L190.693 2325.15C203.407 2268.68 217.899 2211.76 233.773 2156.13L246.571 2160.44C230.779 2215.77 216.36 2272.36 203.719 2328.6H203.708ZM5326.28 2151.63C5310.34 2096.36 5292.6 2040.9 5273.59 1986.75L5286.06 1981.57C5305.18 2035.94 5323.01 2091.69 5339.08 2147.24L5326.28 2151.63ZM298.883 1995.12L286.345 1989.97C305.318 1935.49 326.099 1880.88 348.118 1827.63L360.344 1833.6C338.429 1886.58 317.752 1940.92 298.883 1995.12ZM5211.89 1825.99C5189.93 1773.32 5166.15 1720.67 5141.29 1669.5L5153.14 1662.73C5178.15 1714.15 5202 1767.06 5224.08 1820.01L5211.89 1825.99ZM430.693 1676.51L418.821 1669.73C443.688 1618.22 470.395 1566.77 498.204 1516.81L509.639 1524.34C482.017 1574.07 455.446 1625.26 430.693 1676.51ZM5062.07 1517.89C5034.42 1468.52 5004.98 1419.33 4974.57 1371.7L4985.59 1363.4C5016.16 1411.28 5045.73 1460.71 5073.52 1510.34L5062.07 1517.89ZM596.923 1377.69L585.894 1369.41C616.312 1321.54 648.519 1273.99 681.609 1228.06L692.16 1237.02C659.299 1282.74 627.217 1330.06 596.923 1377.69ZM4879.11 1231.44C4846.09 1185.91 4811.41 1140.9 4776.03 1097.64L4786.05 1087.98C4821.61 1131.42 4856.45 1176.66 4889.63 1222.44L4879.11 1231.44ZM795.028 1102.91L784.996 1093.25C820.508 1049.66 857.768 1006.66 895.578 965.458L905.069 975.735C867.384 1016.74 830.364 1059.52 795.028 1102.91ZM4665.78 970.777C4627.92 929.806 4588.52 889.602 4548.65 851.307L4557.52 840.409C4597.58 878.896 4637.2 919.292 4675.23 960.478L4665.78 970.777ZM1021.9 855.971L1013 845.085C1052.99 806.485 1094.66 768.653 1136.84 732.628L1145.15 744.068C1103.2 779.912 1061.7 817.564 1021.9 855.971ZM4425.12 739.652C4383.13 703.966 4339.55 669.183 4295.57 636.264L4303.19 624.282C4347.38 657.36 4391.17 692.323 4433.36 728.179L4425.12 739.652ZM1274.27 640.409L1266.64 628.438C1310.68 595.293 1356.19 563.175 1401.95 533L1408.91 545.422C1363.38 575.451 1318.09 607.41 1274.27 640.397V640.409ZM4160.52 541.538C4114.78 511.543 4067.64 482.712 4020.42 455.823L4026.66 442.926C4074.13 469.951 4121.5 498.929 4167.47 529.07L4160.52 541.538ZM1548.51 459.505L1542.28 446.63C1589.63 419.527 1638.36 393.553 1687.1 369.645L1692.62 382.903C1644.11 406.732 1595.64 432.503 1548.53 459.505H1548.51ZM3875.8 379.504C3827.03 355.789 3777.03 333.304 3727.08 312.875L3731.82 299.255C3781.99 319.831 3832.27 342.372 3881.28 366.269L3875.8 379.504ZM1840.69 315.992L1835.92 302.44C1886.05 281.695 1937.37 262.372 1988.47 245.003L1992.47 258.894C1941.59 276.116 1890.53 295.348 1840.66 315.992H1840.69ZM3574.84 256.138C3523.9 239.018 3471.8 223.388 3420.02 209.667L3423.2 195.528C3475.18 209.306 3527.58 225.026 3578.81 242.236L3574.84 256.138ZM2147.14 211.869L2143.92 197.742C2195.96 183.761 2249.06 171.35 2301.74 160.847L2304.16 175.167C2251.76 185.613 2198.92 197.968 2147.18 211.881L2147.14 211.869ZM3262.89 173.473C3210.52 163.207 3157.07 154.534 3104.03 147.713L3105.6 133.258C3158.91 140.113 3212.63 148.82 3265.27 159.142L3262.89 173.473ZM2462.94 148.82L2461.32 134.365C2514.43 127.341 2568.51 121.942 2622.07 118.419L2622.88 132.942C2569.59 136.477 2515.8 141.807 2462.94 148.752V148.82ZM2944.01 132.422C2892.26 129.17 2839.68 127.521 2787.7 127.521H2783.43V112.964H2787.7C2839.93 112.964 2892.79 114.624 2944.78 117.899L2944.01 132.422Z" fill="white"/>
<path d="M5484.98 4858.91H3896.35V6153.22H5484.98V4858.91Z" fill="#FBD43C"/>
<path d="M4094.92 5191.56H4082.42V5204.06V5290.35V5302.85H4094.92H5286.39H5298.89V5290.35V5204.06V5191.56H5286.39H4094.92Z" fill="white" stroke="black" stroke-width="25"/>
<path d="M4094.92 5450.43H4082.42V5462.93V5549.22V5561.72H4094.92H5286.39H5298.89V5549.22V5462.93V5450.43H5286.39H4094.92Z" fill="white" stroke="black" stroke-width="25"/>
<path d="M4094.92 5709.29H4082.42V5721.79V5808.08V5820.58H4094.92H5286.39H5298.89V5808.08V5721.79V5709.29H5286.39H4094.92Z" fill="white" stroke="black" stroke-width="25"/>
<path d="M1192.82 0H83.167V904.058H1192.82V0Z" fill="#E6E6E6"/>
<path d="M1054.1 241.087H221.868V301.358H1054.1V241.087Z" fill="white"/>
<path d="M1054.1 421.887H221.868V482.158H1054.1V421.887Z" fill="white"/>
<path d="M1054.1 602.703H221.868V662.974H1054.1V602.703Z" fill="white"/>
<path d="M1664.65 467H555V1371.06H1664.65V467Z" fill="#FBD43C"/>
<path d="M693.471 695.679H680.971V708.179V768.451V780.951H693.471H1525.71H1538.21V768.451V708.179V695.679H1525.71H693.471Z" fill="white" stroke="black" stroke-width="25"/>
<path d="M693.471 876.495H680.971V888.995V949.266V961.766H693.471H1525.71H1538.21V949.266V888.995V876.495H1525.71H693.471Z" fill="white" stroke="black" stroke-width="25"/>
<path d="M693.471 1057.3H680.971V1069.8V1130.07V1142.57H693.471H1525.71H1538.21V1130.07V1069.8V1057.3H1525.71H693.471Z" fill="white" stroke="black" stroke-width="25"/>
<path d="M4303.91 4246.21H1278.7V1784.31H4303.91V4246.21ZM1309.89 1818.19V4212.33H4272.72V1818.19H1309.89Z" fill="#E6E6E6"/>
<path d="M2790.36 3645.62C3108.49 3645.62 3366.38 3365.46 3366.38 3019.88C3366.38 2674.29 3108.49 2394.14 2790.36 2394.14C2472.23 2394.14 2214.33 2674.29 2214.33 3019.88C2214.33 3365.46 2472.23 3645.62 2790.36 3645.62Z" fill="#FBD43C"/>
<path d="M3029.56 2954.83H2846.21V2754.58C2846.21 2738.3 2840.27 2722.51 2829.41 2710.71C2818.52 2698.88 2803.51 2692.02 2787.63 2692.02C2771.74 2692.02 2756.74 2698.88 2745.84 2710.71C2734.98 2722.51 2729.04 2738.3 2729.04 2754.58V2954.83H2545.69C2529.81 2954.83 2514.8 2961.69 2503.91 2973.53C2493.05 2985.32 2487.11 3001.12 2487.11 3017.39C2487.11 3033.66 2493.05 3049.46 2503.91 3061.26C2514.8 3073.09 2529.81 3079.95 2545.69 3079.95H2729.04V3280.2C2729.04 3296.48 2734.98 3312.27 2745.84 3324.07C2756.74 3335.9 2771.74 3342.77 2787.63 3342.77C2803.51 3342.77 2818.52 3335.9 2829.41 3324.07C2840.27 3312.27 2846.21 3296.48 2846.21 3280.2V3079.95H3029.56C3045.45 3079.95 3060.45 3073.09 3071.34 3061.26C3082.2 3049.46 3088.15 3033.66 3088.15 3017.39C3088.15 3001.12 3082.2 2985.32 3071.34 2973.53C3060.45 2961.69 3045.45 2954.83 3029.56 2954.83Z" fill="white" stroke="black" stroke-width="25"/>
<path d="M1109.65 4641.46H0V5545.52H1109.65V4641.46Z" fill="#E6E6E6"/>
<path d="M970.935 4882.55H138.7V4942.82H970.935V4882.55Z" fill="white"/>
<path d="M970.935 5063.35H138.7V5123.62H970.935V5063.35Z" fill="white"/>
<path d="M970.935 5244.17H138.7V5304.44H970.935V5244.17Z" fill="white"/>
</svg>
