<svg width="7410" height="6743" fill="none" xmlns="http://www.w3.org/2000/svg"><g clip-path="url(#clip0)"><path opacity=".5" d="M1107 2121c607 0 1099-462 1099-1033 0-570-492-1033-1099-1033S8 518 8 1088c0 571 492 1033 1099 1033z" fill="url(#paint0_linear)"/><path d="M1107 2094c594 0 1076-453 1076-1011 0-559-482-1012-1076-1012S31 524 31 1083c0 558 482 1011 1076 1011z" fill="#F5F5F5"/><path d="M1110 2097c210 0 416-58 591-167-39-203-190-215-190-215H679s-142 11-187 199c181 119 397 183 618 183z" fill="#FBD43C"/><path d="M1099 1509c263 0 476-201 476-449 0-247-213-448-476-448-264 0-477 201-477 448 0 248 213 449 477 449z" fill="#333"/><path opacity=".1" d="M931 1467h333v250c0 42-18 81-49 111-31 29-73 46-118 46-44 0-86-17-117-46-31-30-49-69-49-111v-250z" fill="#000"/><path d="M963 1455h269c8 0 16 4 22 9 6 6 10 13 10 21v221c0 41-18 81-49 110-31 30-73 46-118 46-44 0-86-16-117-46-31-29-49-69-49-110v-221c0-8 3-15 9-21 6-5 14-9 23-9z" fill="#BE7C5E"/><path opacity=".1" d="M932 1585c107 38 225 38 332 1v-38H932v37z" fill="#000"/><path d="M1099 1606c263 0 476-201 476-448 0-248-213-449-476-449-264 0-477 201-477 449 0 247 213 448 477 448z" fill="#BE7C5E"/><path d="M810 973c5-19 12-41 31-51 14-8 32-7 49-6 132 7 263-21 391-51 73-17 152-37 199-93 48-55-14-230-86-250-48-14-103 11-148-9-20-8-34-25-52-38-35-27-81-38-125-48-51-12-107-23-155-4-38 15-66 46-102 64-68 36-152 19-230 19-26 0-58 5-69 28-7 16-1 33 0 50 2 54-45 95-84 134-40 38-77 93-52 141 10 19 27 33 37 51 17 31 8 69 14 104 7 26 17 51 31 74 30 54 176 342 244 269 32-36 38-139 51-185l56-199z" fill="#333"/><path d="M759 1220c25 0 45-35 45-79 0-43-20-78-45-78-24 0-44 35-44 78 0 44 20 79 44 79z" fill="#BE7C5E"/><path opacity=".5" d="M3652 4370c607 0 1099-463 1099-1033 0-571-492-1033-1099-1033s-1099 462-1099 1033c0 570 492 1033 1099 1033z" fill="url(#paint1_linear)"/><path d="M3654 4341c594 0 1075-452 1075-1011 0-558-481-1011-1075-1011s-1076 453-1076 1011c0 559 482 1011 1076 1011z" fill="#F5F5F5"/><path d="M3655 4345c210 1 415-57 591-166-40-204-191-215-191-215h-831s-143 11-187 198c181 120 396 184 618 183z" fill="#FBD43C"/><path d="M3643 3797c287 0 519-219 519-488 0-270-232-488-519-488s-519 218-519 488c0 269 232 488 519 488z" fill="#F55F44"/><path opacity=".1" d="M3476 3715h332v251c0 41-17 81-48 110-31 30-74 46-118 46s-86-16-118-46c-31-29-48-69-48-110v-251z" fill="#000"/><path d="M3507 3704h270a34 34 0 0122 9 30 30 0 019 21v220a148 148 0 01-48 111 167 167 0 01-118 45 176 176 0 01-118-45 156 156 0 01-48-111v-220c0-8 3-16 9-21 6-6 14-9 23-9h-1z" fill="#FDA57D"/><path opacity=".1" d="M3476 3834c108 37 226 38 333 0v-38h-333v38z" fill="#000"/><path d="M3643 3854c264 0 477-200 477-448 0-247-213-448-477-448-263 0-477 201-477 448 0 248 214 448 477 448z" fill="#FDA57D"/><path d="M3643 2993c106 0 191-81 191-181 0-99-85-180-191-180s-192 81-192 180c0 100 86 181 192 181z" fill="#F55F44"/><path d="M3643 2753c69 0 126-53 126-118 0-66-57-119-126-119-70 0-126 53-126 119 0 65 56 118 126 118z" fill="#F55F44"/><path d="M3559 2911c-45-19-80-53-99-96a170 170 0 01-5-127 171 171 0 0036 198 192 192 0 00134 56 203 203 0 00137-49 181 181 0 0047-65c-22 42-61 73-107 89-47 15-98 13-143-6z" fill="#F55F44"/><path opacity=".1" d="M3304 2998s201 384 768 161l-132-195-234-79-402 113z" fill="#000"/><path d="M3304 2993s201 383 768 160l-132-194-234-79-402 113z" fill="#F55F44"/><path d="M3459 2853c123-9 247-9 371 0 0 0-274 24-371 0z" fill="#333"/><path d="M3671 2509c-9 0-19 0-28 2h7c31 1 61 13 83 33 23 20 36 47 39 76 2 29-7 58-26 82-19 23-46 38-77 44 34 0 66-12 90-34a115 115 0 002-167c-24-23-56-36-90-36z" fill="#F55F44"/><path d="M3166 3484c25 0 45-35 45-78s-20-78-45-78c-24 0-44 35-44 78s20 78 44 78zM4120 3484c25 0 44-35 44-78s-19-78-44-78c-24 0-44 35-44 78s20 78 44 78z" fill="#FDA57D"/><path d="M3274 3004l93-45 21 72-57 37-57-64z" fill="#F55F44"/><path opacity=".5" d="M3651 2071c606 0 1098-463 1098-1033C4749 467 4257 5 3651 5c-607 0-1099 462-1099 1033 0 570 492 1033 1099 1033z" fill="url(#paint2_linear)"/><path d="M3651 2043c594 0 1075-453 1075-1011S4245 21 3651 21c-595 0-1076 453-1076 1011s481 1011 1076 1011z" fill="#F5F5F5"/><path d="M3231 1041s-122 565-189 534c0 0 642 521 1209 0 0 0-100-399-244-534h-776z" fill="#333"/><path d="M3654 2046c210 1 415-57 591-166-40-204-191-215-191-215h-831s-143 11-187 198c181 120 396 184 618 183z" fill="#FBD43C"/><path d="M3642 1458c264 0 477-201 477-448 0-248-213-449-477-449-263 0-477 201-477 449 0 247 214 448 477 448z" fill="#333"/><path opacity=".1" d="M3475 1416h332v250c0 42-17 82-48 111s-74 46-118 46-86-17-117-46-49-69-49-111v-250z" fill="#000"/><path d="M3506 1405h270c8 0 16 3 22 8 6 6 9 14 9 22v220c0 41-17 81-48 110-31 30-74 46-118 46s-86-16-117-46c-31-29-49-69-49-110v-221c0-7 3-15 9-20 6-6 14-9 22-9z" fill="#BE7C5E"/><path opacity=".1" d="M3475 1534c108 38 226 38 333 1v-38h-333v37z" fill="#000"/><path d="M3642 1555c264 0 477-200 477-448s-213-448-477-448c-263 0-477 200-477 448s214 448 477 448z" fill="#BE7C5E"/><path d="M3186 937h910s-78-345-422-323c-343 22-488 323-488 323z" fill="#333"/><path d="M3175 1166c25 0 45-35 45-78s-20-78-45-78c-24 0-44 35-44 78s20 78 44 78zM4107 1166c24 0 44-35 44-78s-20-78-44-78c-25 0-45 35-45 78s20 78 45 78z" fill="#BE7C5E"/><path opacity=".1" d="M3186 948h910s-78-345-422-323c-343 22-488 323-488 323z" fill="#000"/><path opacity=".5" d="M6270 2066c607 0 1099-462 1099-1033C7369 463 6877 0 6270 0S5171 463 5171 1033c0 571 492 1033 1099 1033z" fill="url(#paint3_linear)"/><path d="M6272 2038c594 0 1076-453 1076-1012 0-558-482-1011-1076-1011S5197 468 5197 1026c0 559 481 1012 1075 1012z" fill="#F5F5F5"/><path d="M6273 2042c210 0 416-58 592-167-40-203-191-215-191-215h-832s-142 11-186 198c180 120 396 184 617 184z" fill="#FBD43C"/><path d="M6262 1493c287 0 519-218 519-488s-232-488-519-488-519 218-519 488 232 488 519 488z" fill="#72351C"/><path opacity=".1" d="M6094 1412h333v250a148 148 0 01-49 111 167 167 0 01-117 45c-44 0-87-16-118-45-31-30-49-69-49-111v-250z" fill="#000"/><path d="M6126 1400h269c8 0 16 3 22 9 6 5 10 13 10 21v220c0 42-18 82-49 111s-73 46-118 46c-44 0-86-17-117-46s-49-69-49-111v-220c0-8 3-16 9-21 6-6 14-9 23-9z" fill="#FDA57D"/><path opacity=".1" d="M6095 1530c107 37 225 38 332 1v-39h-332v38z" fill="#000"/><path d="M6262 1551c263 0 477-201 477-449 0-247-214-448-477-448s-477 201-477 448c0 248 214 449 477 449z" fill="#FDA57D"/><path opacity=".1" d="M5922 695s201 383 768 160l-132-194-234-79-402 113z" fill="#000"/><path d="M5922 689s201 383 768 161l-132-195-234-79-402 113z" fill="#72351C"/><path d="M5920 663c14-39 37-75 69-104 94-87 247-106 326-205a56 56 0 01-7 67c-6 6-13 11-21 15 76-1 163-7 206-66a126 126 0 01-24 141c67 3 138 45 143 108 3 42-25 82-62 106s-81 35-125 44c-127 26-588 137-505-106zM6739 1106h-13l-246 206c-237-104-411 0-411 0l-258-197-26 3c4 118 56 229 147 311 90 81 211 126 336 125 125-2 245-50 333-133 88-84 138-197 138-314v-1zm-478 285c-92 0-168-18-168-39 0-22 76-40 168-40 93 0 168 18 168 40 0 21-75 39-168 39z" fill="#72351C"/><path d="M5785 1180c24 0 44-35 44-78s-20-78-44-78c-25 0-45 35-45 78s20 78 45 78zM6739 1180c24 0 44-35 44-78s-20-78-44-78c-25 0-45 35-45 78s20 78 45 78z" fill="#FDA57D"/><path opacity=".5" d="M1099 4302c607 0 1099-462 1099-1033 0-570-492-1033-1099-1033S0 2699 0 3269c0 571 492 1033 1099 1033z" fill="url(#paint4_linear)"/><path d="M1101 4274c594 0 1076-453 1076-1012 0-558-482-1011-1076-1011S25 2704 25 3262c0 559 482 1012 1076 1012z" fill="#F5F5F5"/><path d="M1102 4278c210 0 416-58 591-167-39-203-190-215-190-215H671s-143 11-187 198c181 120 397 184 618 184z" fill="#FBD43C"/><path d="M1091 3729c286 0 519-218 519-488 0-269-233-488-519-488-287 0-520 219-520 488 0 270 233 488 520 488z" fill="#333"/><path opacity=".1" d="M923 3648h333v250c0 41-18 81-49 111-31 29-73 45-118 45-44 0-86-16-117-45-31-30-49-70-49-111v-250z" fill="#000"/><path d="M955 3636h269c8 0 17 3 22 9 6 6 10 13 10 21v221c0 41-18 81-49 110a172 172 0 01-181 34c-20-8-39-19-54-34a156 156 0 01-49-110v-221c0-8 3-16 9-21 6-6 14-9 23-9z" fill="#FDB797"/><path opacity=".1" d="M924 3766c107 38 225 38 332 1v-39H924v38z" fill="#000"/><path d="M1091 3787c263 0 476-201 476-448 0-248-213-449-476-449-264 0-477 201-477 449 0 247 213 448 477 448z" fill="#FDB797"/><path opacity=".1" d="M751 2931s201 383 768 160l-132-194-234-79-402 113z" fill="#000"/><path d="M751 2925s201 383 768 161l-132-195-234-79-402 113z" fill="#333"/><path d="M749 2899c14-39 37-75 68-104 94-88 248-106 327-205a56 56 0 01-8 67c-6 6-13 11-20 14 75 0 163-6 205-65a125 125 0 01-23 141c67 2 138 45 142 108 3 42-25 82-61 106-37 24-81 35-125 44-127 26-588 137-505-106z" fill="#333"/><path d="M614 3416c24 0 44-35 44-78s-20-78-44-78c-25 0-45 35-45 78s20 78 45 78zM1567 3416c25 0 45-35 45-78s-20-78-45-78c-24 0-44 35-44 78s20 78 44 78z" fill="#FDB797"/><path opacity=".5" d="M6311 4417c607 0 1099-463 1099-1033 0-571-492-1033-1099-1033s-1099 462-1099 1033c0 570 492 1033 1099 1033z" fill="url(#paint5_linear)"/><path d="M6311 4389c594 0 1076-453 1076-1011s-482-1011-1076-1011-1076 453-1076 1011 482 1011 1076 1011z" fill="#F5F5F5"/><path d="M6314 4392c210 1 416-57 592-166-40-204-191-215-191-215h-832s-142 11-187 198c181 120 397 184 618 183z" fill="#FBD43C"/><path opacity=".1" d="M6135 3762h333v251c0 41-18 81-49 110s-73 46-117 46a175 175 0 01-118-46 156 156 0 01-49-110v-251z" fill="#000"/><path d="M6167 3751h269c9 0 17 3 23 8 6 6 9 14 9 22v220c0 41-18 81-49 110-31 30-73 46-117 46a176 176 0 01-118-45 156 156 0 01-49-111v-220c0-8 4-16 10-22 6-5 14-8 22-8z" fill="#FDB797"/><path opacity=".1" d="M6136 3880c107 38 225 38 333 1v-38h-333v37z" fill="#000"/><path d="M6303 3901c263 0 477-200 477-448s-214-448-477-448c-264 0-477 200-477 448s213 448 477 448z" fill="#FDB797"/><path d="M5836 3512c24 0 44-35 44-78s-20-78-44-78c-25 0-45 35-45 78s20 78 45 78zM6767 3512c25 0 45-35 45-78s-20-78-45-78c-24 0-44 35-44 78s20 78 44 78z" fill="#FDB797"/><path d="M6175 3455h-121c-23 0-42 18-42 39v18c0 22 19 39 42 39h121c23 0 41-17 41-39v-18c0-21-18-39-41-39zM6431 3551h121c23 0 41-17 41-39v-18c0-22-18-39-41-39h-121c-23 0-42 17-42 39v18c0 22 19 39 42 39zM6208 3464s65-33 185 0" stroke="#333" stroke-width="2" stroke-miterlimit="10"/><path d="M6633 3128l117 256s143-170-117-256z" fill="#858585"/><path d="M6593 3503l175-146" stroke="#333" stroke-width="2" stroke-linecap="round" stroke-linejoin="round"/><path d="M5973 3128l-117 256s-143-170 117-256z" fill="#858585"/><path d="M6012 3503l-177-146" stroke="#333" stroke-width="2" stroke-linecap="round" stroke-linejoin="round"/><path opacity=".5" d="M1107 6625c607 0 1099-463 1099-1034 0-570-492-1033-1099-1033S8 5021 8 5591c0 571 492 1034 1099 1034z" fill="url(#paint6_linear)"/><path d="M1107 6597c594 0 1076-453 1076-1011 0-559-482-1011-1076-1011S31 5027 31 5586c0 558 482 1011 1076 1011z" fill="#F5F5F5"/><path d="M1702 5677c0 372-259 787-578 787-318 0-577-415-577-787 0-373 259-562 578-562s577 189 577 562z" fill="#FDD835"/><path d="M1110 6600c210 1 416-57 591-166-39-204-190-215-190-215H679s-142 11-187 198c181 119 397 184 618 183z" fill="#FBD43C"/><path opacity=".1" d="M931 5970h333v250c0 42-18 82-49 111s-73 46-118 46c-44 0-86-17-117-46s-49-69-49-111v-250z" fill="#000"/><path d="M963 5959h269c8 0 16 3 22 8 6 6 10 14 10 21v221c0 41-18 81-49 110-31 30-73 46-118 46-44 0-86-16-117-46-31-29-49-69-49-110v-221c0-7 3-15 9-21 6-5 14-8 23-8z" fill="#FDB797"/><path opacity=".1" d="M932 6088c107 38 225 38 332 1v-38H932v37z" fill="#000"/><path d="M1099 6109c263 0 476-200 476-448s-213-448-476-448c-264 0-477 200-477 448s213 448 477 448z" fill="#FDB797"/><path d="M632 5720c24 0 44-35 44-78s-20-78-44-78c-25 0-45 35-45 78s20 78 45 78zM1563 5720c25 0 44-35 44-78s-19-78-44-78c-24 0-44 35-44 78s20 78 44 78z" fill="#FDB797"/><path opacity=".1" d="M676 5418s270 347 888 228c0 0 69-79-99-321-168-243-636-203-789 93z" fill="#000"/><path d="M676 5412s270 347 888 229c0 0 69-79-99-322-168-242-636-203-789 93z" fill="#FDD835"/><path opacity=".5" d="M3717 6743c607 0 1099-463 1099-1033 0-571-492-1033-1099-1033-606 0-1098 462-1098 1033 0 570 492 1033 1098 1033z" fill="url(#paint7_linear)"/><path d="M3720 6715c594 0 1075-453 1075-1012 0-558-481-1011-1075-1011s-1076 453-1076 1011c0 559 482 1012 1076 1012z" fill="#F5F5F5"/><path d="M4311 5803c0 336-257 502-590 502-334 0-618-166-618-502s270-609 604-609 604 272 604 609z" fill="#333"/><path d="M3721 6719c210 0 415-58 591-167-40-203-191-215-191-215h-831s-143 11-187 198c181 120 396 184 618 184z" fill="#FBD43C"/><path opacity=".1" d="M3542 6088h332v251a148 148 0 01-48 110 167 167 0 01-118 46c-44 0-87-16-118-46-31-29-49-69-49-110v-251h1z" fill="#000"/><path d="M3573 6077h270c8 0 16 3 22 9 6 5 9 13 9 21v220a148 148 0 01-48 111 168 168 0 01-118 46c-44 0-87-17-118-46-31-30-49-69-49-111v-220c0-8 4-16 10-21 6-6 14-9 22-9z" fill="#FDA57D"/><path opacity=".1" d="M3542 6207c108 37 226 38 333 1v-39h-333v38z" fill="#000"/><path d="M3709 6228c264 0 477-201 477-449 0-247-213-448-477-448-263 0-477 201-477 448 0 248 214 449 477 449z" fill="#FDA57D"/><path opacity=".1" d="M3160 5809s297-34 521-305c0 0 297 307 504 274 0 0 120-119 0-237-120-119-213-268-372-248-159 19-354 28-438 98-84 71-215 418-215 418z" fill="#000"/><path d="M3160 5803s297-34 521-304c0 0 297 307 504 273 0 0 120-118 0-237-120-118-213-268-372-248s-353 28-437 99-216 417-216 417z" fill="#333"/><path d="M3232 5857c25 0 45-35 45-78s-20-78-45-78c-24 0-44 35-44 78s20 78 44 78zM4186 5857c25 0 44-35 44-78s-19-78-44-78-44 35-44 78 19 78 44 78z" fill="#FDA57D"/></g><defs><linearGradient id="paint0_linear" x1="1106.8" y1="2121.4" x2="1106.8" y2="55.4" gradientUnits="userSpaceOnUse"><stop stop-color="gray" stop-opacity=".3"/><stop offset=".5" stop-color="gray" stop-opacity=".1"/><stop offset="1" stop-color="gray" stop-opacity=".1"/></linearGradient><linearGradient id="paint1_linear" x1="848912" y1="1015130" x2="848912" y2="536271" gradientUnits="userSpaceOnUse"><stop stop-color="gray" stop-opacity=".3"/><stop offset=".5" stop-color="gray" stop-opacity=".1"/><stop offset="1" stop-color="gray" stop-opacity=".1"/></linearGradient><linearGradient id="paint2_linear" x1="848670" y1="479943" x2="848670" y2="1058.3" gradientUnits="userSpaceOnUse"><stop stop-color="gray" stop-opacity=".3"/><stop offset=".5" stop-color="gray" stop-opacity=".1"/><stop offset="1" stop-color="gray" stop-opacity=".1"/></linearGradient><linearGradient id="paint3_linear" x1="1458480" y1="478864" x2="1458480" y2="0" gradientUnits="userSpaceOnUse"><stop stop-color="gray" stop-opacity=".3"/><stop offset=".5" stop-color="gray" stop-opacity=".1"/><stop offset="1" stop-color="gray" stop-opacity=".1"/></linearGradient><linearGradient id="paint4_linear" x1="254712" y1="999384" x2="254712" y2="520521" gradientUnits="userSpaceOnUse"><stop stop-color="gray" stop-opacity=".3"/><stop offset=".5" stop-color="gray" stop-opacity=".1"/><stop offset="1" stop-color="gray" stop-opacity=".1"/></linearGradient><linearGradient id="paint5_linear" x1="1468010" y1="1026050" x2="1468010" y2="547185" gradientUnits="userSpaceOnUse"><stop stop-color="gray" stop-opacity=".3"/><stop offset=".5" stop-color="gray" stop-opacity=".1"/><stop offset="1" stop-color="gray" stop-opacity=".1"/></linearGradient><linearGradient id="paint6_linear" x1="256544" y1="1539990" x2="256544" y2="1061130" gradientUnits="userSpaceOnUse"><stop stop-color="gray" stop-opacity=".3"/><stop offset=".5" stop-color="gray" stop-opacity=".1"/><stop offset="1" stop-color="gray" stop-opacity=".1"/></linearGradient><linearGradient id="paint7_linear" x1="864254" y1="1567570" x2="864254" y2="1088710" gradientUnits="userSpaceOnUse"><stop stop-color="gray" stop-opacity=".3"/><stop offset=".5" stop-color="gray" stop-opacity=".1"/><stop offset="1" stop-color="gray" stop-opacity=".1"/></linearGradient><clipPath id="clip0"><path fill="#fff" d="M0 0h7410v6743H0z"/></clipPath></defs></svg>