<svg width="7410" height="6743" viewBox="0 0 7410 6743" fill="none" xmlns="http://www.w3.org/2000/svg">
<g clip-path="url(#clip0)">
<g opacity="0.5">
<path opacity="0.5" d="M1106.81 2121.38C1713.74 2121.38 2205.75 1658.87 2205.75 1088.33C2205.75 517.785 1713.74 55.269 1106.81 55.269C499.883 55.269 7.87109 517.785 7.87109 1088.33C7.87109 1658.87 499.883 2121.38 1106.81 2121.38Z" fill="url(#paint0_linear)"/>
</g>
<path d="M1106.81 2093.93C1700.91 2093.93 2182.52 1641.19 2182.52 1082.71C2182.52 524.229 1700.91 71.4912 1106.81 71.4912C512.716 71.4912 31.1055 524.229 31.1055 1082.71C31.1055 1641.19 512.716 2093.93 1106.81 2093.93Z" fill="#F5F5F5"/>
<path d="M1109.85 2096.78C1320.06 2097.11 1525.72 2039.26 1701.18 1930.44C1661.55 1726.85 1510.68 1715.17 1510.68 1715.17H678.959C678.959 1715.17 536.72 1726.13 492.151 1913.51C672.985 2033.08 888.76 2097.1 1109.85 2096.78V2096.78Z" fill="#FBD43C"/>
<path d="M1098.56 1508.71C1361.93 1508.71 1575.44 1308.01 1575.44 1060.42C1575.44 812.839 1361.93 612.132 1098.56 612.132C835.184 612.132 621.677 812.839 621.677 1060.42C621.677 1308.01 835.184 1508.71 1098.56 1508.71Z" fill="#333333"/>
<path opacity="0.1" d="M931 1467H1263.74V1717.22C1263.74 1758.68 1246.22 1798.45 1215.03 1827.77C1183.84 1857.1 1141.53 1873.57 1097.42 1873.57C1053.31 1873.57 1011 1857.1 979.81 1827.77C948.618 1798.45 931.095 1758.68 931.095 1717.22V1467H931Z" fill="black"/>
<path d="M962.773 1455.41H1231.98C1240.41 1455.41 1248.49 1458.56 1254.45 1464.16C1260.4 1469.76 1263.75 1477.35 1263.75 1485.27V1705.63C1263.75 1747.1 1246.23 1786.87 1215.04 1816.19C1183.84 1845.51 1141.54 1861.98 1097.43 1861.98C1053.31 1861.98 1011.01 1845.51 979.817 1816.19C948.625 1786.87 931.102 1747.1 931.102 1705.63V1485.27C931.102 1477.37 934.435 1469.78 940.372 1464.19C946.309 1458.59 954.365 1455.43 962.773 1455.41Z" fill="#BE7C5E"/>
<path opacity="0.1" d="M931.667 1585.11C1038.9 1622.79 1156.95 1623.1 1264.41 1586V1547.58H931.667V1585.11Z" fill="black"/>
<path d="M1098.56 1606.06C1361.93 1606.06 1575.44 1405.35 1575.44 1157.77C1575.44 910.181 1361.93 709.474 1098.56 709.474C835.184 709.474 621.677 910.181 621.677 1157.77C621.677 1405.35 835.184 1606.06 1098.56 1606.06Z" fill="#BE7C5E"/>
<path d="M809.626 972.889C815.221 953.545 822.238 932.241 840.729 922.168C855.332 914.145 873.444 915.393 890.323 916.195C1022.13 922.97 1152.8 894.712 1281.01 865.206C1354.31 848.359 1432.73 827.856 1480.14 772.321C1527.55 716.786 1465.73 542.248 1393.57 521.656C1346.15 508.018 1291.15 533.423 1246.21 513.455C1226.2 504.541 1211.5 487.872 1194.24 474.857C1158.87 448.115 1113.45 437.329 1069.45 427.166C1018.05 415.221 962.486 403.544 913.65 422.709C875.72 437.507 848.03 468.795 812.091 487.337C743.722 522.993 660.369 506.413 582.043 506.235C555.587 506.235 524.009 511.227 513.484 534.047C506.372 549.557 512.061 567.207 512.82 584.055C515.096 637.54 468.157 679.169 428.804 717.767C389.451 756.365 352.279 811.454 377.124 859.412C386.606 877.686 403.959 891.503 413.821 909.599C430.795 940.977 422.261 978.862 428.425 1013.54C434.596 1039.85 445.056 1065.11 459.433 1088.42C488.639 1141.9 635.335 1429.83 702.757 1356.64C735.377 1320.99 740.687 1217.94 753.868 1171.58C772.075 1104.97 790.661 1038.73 809.626 972.889Z" fill="#333333"/>
<path d="M759.27 1219.63C783.78 1219.63 803.649 1184.63 803.649 1141.45C803.649 1098.28 783.78 1063.27 759.27 1063.27C734.761 1063.27 714.892 1098.28 714.892 1141.45C714.892 1184.63 734.761 1219.63 759.27 1219.63Z" fill="#BE7C5E"/>
<g opacity="0.5">
<path opacity="0.5" d="M3651.57 4369.79C4258.5 4369.79 4750.51 3907.28 4750.51 3336.74C4750.51 2766.19 4258.5 2303.68 3651.57 2303.68C3044.64 2303.68 2552.63 2766.19 2552.63 3336.74C2552.63 3907.28 3044.64 4369.79 3651.57 4369.79Z" fill="url(#paint1_linear)"/>
</g>
<path d="M3653.66 4341.36C4247.75 4341.36 4729.36 3888.62 4729.36 3330.14C4729.36 2771.66 4247.75 2318.92 3653.66 2318.92C3059.56 2318.92 2577.95 2771.66 2577.95 3330.14C2577.95 3888.62 3059.56 4341.36 3653.66 4341.36Z" fill="#F5F5F5"/>
<path d="M3654.6 4345.37C3864.68 4345.62 4070.2 4287.78 4245.56 4179.03C4205.92 3975.43 4055.05 3963.76 4055.05 3963.76H3223.61C3223.61 3963.76 3081.38 3974.72 3036.81 4162.1C3217.67 4281.69 3433.48 4345.71 3654.6 4345.37V4345.37Z" fill="#FBD43C"/>
<path d="M3643.22 3796.97C3930.01 3796.97 4162.49 3578.43 4162.49 3308.83C4162.49 3039.24 3930.01 2820.7 3643.22 2820.7C3356.44 2820.7 3123.96 3039.24 3123.96 3308.83C3123.96 3578.43 3356.44 3796.97 3643.22 3796.97Z" fill="#F55F44"/>
<path opacity="0.1" d="M3475.67 3715.41H3808.41V3965.62C3808.41 4007.09 3790.89 4046.86 3759.69 4076.18C3728.5 4105.51 3686.2 4121.98 3642.08 4121.98C3597.97 4121.98 3555.67 4105.51 3524.48 4076.18C3493.28 4046.86 3475.76 4007.09 3475.76 3965.62V3715.41H3475.67Z" fill="black"/>
<path d="M3507.43 3703.82H3776.64C3780.81 3703.82 3784.94 3704.59 3788.8 3706.09C3792.65 3707.59 3796.15 3709.79 3799.1 3712.57C3802.05 3715.34 3804.39 3718.63 3805.99 3722.25C3807.59 3725.88 3808.41 3729.76 3808.41 3733.68V3954.04C3808.41 3974.57 3804.11 3994.9 3795.75 4013.87C3787.39 4032.84 3775.14 4050.08 3759.69 4064.6C3744.25 4079.12 3725.91 4090.63 3705.73 4098.49C3685.55 4106.35 3663.92 4110.39 3642.08 4110.39V4110.39C3620.24 4110.39 3598.61 4106.35 3578.43 4098.49C3558.25 4090.63 3539.92 4079.12 3524.47 4064.6C3509.03 4050.08 3496.78 4032.84 3488.42 4013.87C3480.06 3994.9 3475.76 3974.57 3475.76 3954.04V3733.68C3475.76 3725.76 3479.1 3718.17 3485.06 3712.57C3491.02 3706.96 3499.1 3703.82 3507.52 3703.82H3507.43Z" fill="#FDA57D"/>
<path opacity="0.1" d="M3476.32 3833.52C3583.56 3871.19 3701.61 3871.51 3809.07 3834.41V3795.99H3476.32V3833.52Z" fill="black"/>
<path d="M3643.22 3854.47C3906.6 3854.47 4120.1 3653.76 4120.1 3406.17C4120.1 3158.59 3906.6 2957.88 3643.22 2957.88C3379.85 2957.88 3166.34 3158.59 3166.34 3406.17C3166.34 3653.76 3379.85 3854.47 3643.22 3854.47Z" fill="#FDA57D"/>
<path d="M3642.55 2992.74C3748.55 2992.74 3834.48 2911.96 3834.48 2812.32C3834.48 2712.67 3748.55 2631.9 3642.55 2631.9C3536.56 2631.9 3450.63 2712.67 3450.63 2812.32C3450.63 2911.96 3536.56 2992.74 3642.55 2992.74Z" fill="#F55F44"/>
<path d="M3642.56 2753.13C3712.16 2753.13 3768.58 2700.09 3768.58 2634.66C3768.58 2569.23 3712.16 2516.19 3642.56 2516.19C3572.95 2516.19 3516.53 2569.23 3516.53 2634.66C3516.53 2700.09 3572.95 2753.13 3642.56 2753.13Z" fill="#F55F44"/>
<path d="M3559.3 2911.26C3514.27 2892.28 3478.75 2857.71 3460.12 2814.75C3441.5 2771.79 3441.19 2723.74 3459.26 2680.57C3457.93 2683.06 3456.6 2685.65 3455.37 2688.23C3445.05 2709.85 3439.37 2733.17 3438.64 2756.86C3437.91 2780.55 3442.15 2804.14 3451.12 2826.28C3460.09 2848.43 3473.61 2868.7 3490.91 2885.93C3508.21 2903.17 3528.95 2917.03 3551.95 2926.73C3574.95 2936.43 3599.76 2941.77 3624.96 2942.46C3650.16 2943.15 3675.25 2939.16 3698.81 2930.73C3722.37 2922.3 3743.93 2909.59 3762.26 2893.32C3780.6 2877.06 3795.34 2857.56 3805.66 2835.94C3806.89 2833.35 3808.03 2830.77 3809.17 2828.09C3786.89 2869.5 3748.49 2901.25 3701.96 2916.74C3655.43 2932.23 3604.34 2930.27 3559.3 2911.26Z" fill="#F55F44"/>
<path opacity="0.1" d="M3303.65 2998.45C3303.65 2998.45 3504.58 3381.75 4071.74 3158.9L3939.74 2964.3L3705.8 2885.32L3303.65 2998.45Z" fill="black"/>
<path d="M3303.65 2992.74C3303.65 2992.74 3504.58 3376.05 4071.74 3153.19L3939.74 2958.6L3705.8 2879.62L3303.65 2992.74Z" fill="#F55F44"/>
<path d="M3458.5 2853.14C3582.15 2844 3706.37 2844 3830.03 2853.14C3830.03 2853.14 3555.6 2877.12 3458.5 2853.14Z" fill="#333333"/>
<path d="M3671.38 2508.97C3661.85 2508.64 3652.31 2509.33 3642.94 2511.02H3650.24C3681.27 2511.95 3710.85 2523.63 3733.28 2543.82C3755.72 2564 3769.43 2591.27 3771.78 2620.37C3774.13 2649.48 3764.96 2678.38 3746.03 2701.52C3727.09 2724.65 3699.73 2740.4 3669.2 2745.73C3702.6 2746.01 3734.75 2733.81 3758.58 2711.81C3782.41 2689.81 3795.97 2659.82 3796.27 2628.42C3796.57 2597.02 3783.59 2566.8 3760.19 2544.4C3736.79 2522 3704.88 2509.25 3671.48 2508.97H3671.38Z" fill="#F55F44"/>
<path d="M3166.24 3483.91C3190.75 3483.91 3210.62 3448.91 3210.62 3405.73C3210.62 3362.55 3190.75 3327.55 3166.24 3327.55C3141.73 3327.55 3121.86 3362.55 3121.86 3405.73C3121.86 3448.91 3141.73 3483.91 3166.24 3483.91Z" fill="#FDA57D"/>
<path d="M4120.1 3483.91C4144.61 3483.91 4164.48 3448.91 4164.48 3405.73C4164.48 3362.55 4144.61 3327.55 4120.1 3327.55C4095.59 3327.55 4075.72 3362.55 4075.72 3405.73C4075.72 3448.91 4095.59 3483.91 4120.1 3483.91Z" fill="#FDA57D"/>
<path d="M3273.59 3004.06L3366.61 2958.95L3387.57 3031.25L3330.58 3067.71L3273.59 3004.06Z" fill="#F55F44"/>
<g opacity="0.5">
<path opacity="0.5" d="M3650.52 2070.66C4257.45 2070.66 4749.46 1608.14 4749.46 1037.6C4749.46 467.06 4257.45 4.54443 3650.52 4.54443C3043.6 4.54443 2551.58 467.06 2551.58 1037.6C2551.58 1608.14 3043.6 2070.66 3650.52 2070.66Z" fill="url(#paint2_linear)"/>
</g>
<path d="M3650.52 2043.21C4244.62 2043.21 4726.23 1590.47 4726.23 1031.99C4726.23 473.508 4244.62 20.7705 3650.52 20.7705C3056.43 20.7705 2574.82 473.508 2574.82 1031.99C2574.82 1590.47 3056.43 2043.21 3650.52 2043.21Z" fill="#F5F5F5"/>
<path d="M3230.91 1040.99C3230.91 1040.99 3108.97 1605.79 3042.4 1574.5C3042.4 1574.5 3684.37 2095.8 4251.24 1574.5C4251.24 1574.5 4151.39 1176.48 4007.26 1040.99H3230.91Z" fill="#333333"/>
<path d="M3653.55 2046.24C3863.76 2046.56 4069.42 1988.71 4244.89 1879.9C4205.25 1676.3 4054.39 1664.63 4054.39 1664.63H3222.57C3222.57 1664.63 3080.33 1675.59 3035.76 1862.96C3216.62 1982.56 3432.43 2046.58 3653.55 2046.24V2046.24Z" fill="#FBD43C"/>
<path d="M3642.18 1457.99C3905.55 1457.99 4119.06 1257.29 4119.06 1009.7C4119.06 762.118 3905.55 561.411 3642.18 561.411C3378.8 561.411 3165.29 762.118 3165.29 1009.7C3165.29 1257.29 3378.8 1457.99 3642.18 1457.99Z" fill="#333333"/>
<path opacity="0.1" d="M3474.62 1416.28H3807.36V1666.49C3807.36 1707.92 3789.88 1747.64 3758.75 1776.96C3727.62 1806.27 3685.39 1822.78 3641.32 1822.85C3597.21 1822.85 3554.91 1806.38 3523.71 1777.05C3492.52 1747.73 3475 1707.96 3475 1666.49V1416.28H3474.62Z" fill="black"/>
<path d="M3506.39 1404.69H3775.6C3784.02 1404.69 3792.1 1407.83 3798.06 1413.43C3804.02 1419.03 3807.37 1426.63 3807.37 1434.55V1654.91C3807.37 1696.33 3789.88 1736.06 3758.75 1765.37C3727.62 1794.69 3685.39 1811.19 3641.32 1811.26C3597.21 1811.26 3554.91 1794.79 3523.71 1765.47C3492.52 1736.14 3475 1696.38 3475 1654.91V1434.46C3475.02 1426.62 3478.33 1419.1 3484.2 1413.53C3490.08 1407.96 3498.04 1404.78 3506.39 1404.69Z" fill="#BE7C5E"/>
<path opacity="0.1" d="M3475.29 1534.39C3582.52 1572.06 3700.57 1572.38 3808.03 1535.28V1496.86H3475.29V1534.39Z" fill="black"/>
<path d="M3642.18 1555.25C3905.55 1555.25 4119.06 1354.54 4119.06 1106.96C4119.06 859.372 3905.55 658.666 3642.18 658.666C3378.8 658.666 3165.29 859.372 3165.29 1106.96C3165.29 1354.54 3378.8 1555.25 3642.18 1555.25Z" fill="#BE7C5E"/>
<path d="M3186.34 936.697H4095.73C4095.73 936.697 4018.06 591.542 3674.32 613.56C3330.58 635.578 3186.34 936.697 3186.34 936.697Z" fill="#333333"/>
<path d="M3175.16 1166.06C3199.67 1166.06 3219.54 1131.06 3219.54 1087.88C3219.54 1044.7 3199.67 1009.7 3175.16 1009.7C3150.65 1009.7 3130.78 1044.7 3130.78 1087.88C3130.78 1131.06 3150.65 1166.06 3175.16 1166.06Z" fill="#BE7C5E"/>
<path d="M4106.73 1166.06C4131.24 1166.06 4151.11 1131.06 4151.11 1087.88C4151.11 1044.7 4131.24 1009.7 4106.73 1009.7C4082.22 1009.7 4062.36 1044.7 4062.36 1087.88C4062.36 1131.06 4082.22 1166.06 4106.73 1166.06Z" fill="#BE7C5E"/>
<path opacity="0.1" d="M3186.34 948.284H4095.73C4095.73 948.284 4018.06 603.129 3674.32 625.147C3330.58 647.165 3186.34 948.284 3186.34 948.284Z" fill="black"/>
<g opacity="0.5">
<path opacity="0.5" d="M6270.19 2066.12C6877.12 2066.12 7369.13 1603.6 7369.13 1033.06C7369.13 462.516 6877.12 0 6270.19 0C5663.26 0 5171.25 462.516 5171.25 1033.06C5171.25 1603.6 5663.26 2066.12 6270.19 2066.12Z" fill="url(#paint3_linear)"/>
</g>
<path d="M6272.27 2037.59C6866.37 2037.59 7347.98 1584.85 7347.98 1026.37C7347.98 467.894 6866.37 15.1558 6272.27 15.1558C5678.18 15.1558 5196.57 467.894 5196.57 1026.37C5196.57 1584.85 5678.18 2037.59 6272.27 2037.59Z" fill="#F5F5F5"/>
<path d="M6273.23 2041.69C6483.43 2042.02 6689.09 1984.17 6864.56 1875.36C6824.83 1671.67 6674.06 1659.99 6674.06 1659.99H5842.34C5842.34 1659.99 5700.1 1670.95 5655.53 1858.33C5836.35 1977.93 6052.13 2041.99 6273.23 2041.69V2041.69Z" fill="#FBD43C"/>
<path d="M6261.94 1493.21C6548.72 1493.21 6781.2 1274.66 6781.2 1005.07C6781.2 735.478 6548.72 516.932 6261.94 516.932C5975.15 516.932 5742.67 735.478 5742.67 1005.07C5742.67 1274.66 5975.15 1493.21 6261.94 1493.21Z" fill="#72351C"/>
<path opacity="0.1" d="M6094.29 1411.64H6427.03V1661.86C6427.07 1682.41 6422.79 1702.77 6414.45 1721.78C6406.11 1740.78 6393.86 1758.04 6378.42 1772.59C6362.97 1787.14 6344.62 1798.68 6324.42 1806.55C6304.22 1814.43 6282.57 1818.48 6260.71 1818.48V1818.48C6216.59 1818.48 6174.29 1802.01 6143.1 1772.69C6111.9 1743.36 6094.38 1703.59 6094.38 1662.13V1411.64H6094.29Z" fill="black"/>
<path d="M6125.77 1400.05H6394.98C6403.41 1400.05 6411.49 1403.2 6417.45 1408.8C6423.4 1414.4 6426.75 1422 6426.75 1429.92V1650.27C6426.75 1691.74 6409.23 1731.51 6378.03 1760.83C6346.84 1790.15 6304.54 1806.63 6260.43 1806.63C6216.31 1806.63 6174.01 1790.15 6142.82 1760.83C6111.62 1731.51 6094.1 1691.74 6094.1 1650.27V1429.92C6094.1 1422 6097.45 1414.4 6103.4 1408.8C6109.36 1403.2 6117.44 1400.05 6125.87 1400.05H6125.77Z" fill="#FDA57D"/>
<path opacity="0.1" d="M6094.66 1529.75C6201.9 1567.43 6319.95 1567.75 6427.41 1530.64V1492.22H6094.66V1529.75Z" fill="black"/>
<path d="M6261.94 1550.7C6525.32 1550.7 6738.82 1349.99 6738.82 1102.41C6738.82 854.825 6525.32 654.118 6261.94 654.118C5998.57 654.118 5785.06 854.825 5785.06 1102.41C5785.06 1349.99 5998.57 1550.7 6261.94 1550.7Z" fill="#FDA57D"/>
<path opacity="0.1" d="M5922.27 694.68C5922.27 694.68 6123.21 1077.99 6690.37 855.134L6558.37 660.539L6324.43 581.56L5922.27 694.68Z" fill="black"/>
<path d="M5922.27 689.061C5922.27 689.061 6123.21 1072.37 6690.37 849.515L6558.37 654.92L6324.43 575.94L5922.27 689.061Z" fill="#72351C"/>
<path d="M5920.47 663.123C5934.02 623.695 5957.43 587.898 5988.74 558.739C6082.53 471.559 6236.34 453.195 6315.23 353.714C6319.52 360.754 6322.19 368.562 6323.07 376.632C6323.94 384.702 6323.01 392.855 6320.33 400.566C6317.65 408.277 6313.28 415.374 6307.5 421.399C6301.72 427.424 6294.67 432.243 6286.78 435.546C6362.64 435.1 6449.98 428.86 6492.65 370.383C6503.21 393.491 6506.58 418.942 6502.37 443.778C6498.16 468.615 6486.53 491.818 6468.85 510.692C6535.8 513.544 6607.3 556.243 6611.66 619.177C6614.5 661.073 6586.62 700.741 6549.93 724.809C6513.23 748.877 6469.04 759.663 6425.42 768.577C6298.16 795.32 5837.4 905.944 5920.47 663.123Z" fill="#72351C"/>
<path d="M6738.82 1106.33H6726.21L6480.23 1312.34C6243.16 1208.04 6069.25 1312.34 6069.25 1312.34L5811.32 1114.98L5785.34 1118.01C5788.86 1235.67 5841.46 1347.31 5931.8 1428.82C6022.13 1510.34 6142.94 1555.18 6268.15 1553.67C6393.36 1552.16 6512.91 1504.42 6600.98 1420.75C6689.06 1337.09 6738.61 1224.22 6738.91 1106.51L6738.82 1106.33ZM6261.27 1391.14C6168.53 1391.14 6093.34 1373.31 6093.34 1351.65C6093.34 1329.99 6168.53 1312.16 6261.27 1312.16C6354.01 1312.16 6429.21 1329.99 6429.21 1351.65C6429.21 1373.31 6354.01 1391.14 6261.18 1391.14H6261.27Z" fill="#72351C"/>
<path d="M5784.87 1180.14C5809.38 1180.14 5829.25 1145.14 5829.25 1101.96C5829.25 1058.79 5809.38 1023.79 5784.87 1023.79C5760.36 1023.79 5740.49 1058.79 5740.49 1101.96C5740.49 1145.14 5760.36 1180.14 5784.87 1180.14Z" fill="#FDA57D"/>
<path d="M6738.73 1180.14C6763.24 1180.14 6783.1 1145.14 6783.1 1101.96C6783.1 1058.79 6763.24 1023.79 6738.73 1023.79C6714.22 1023.79 6694.35 1058.79 6694.35 1101.96C6694.35 1145.14 6714.22 1180.14 6738.73 1180.14Z" fill="#FDA57D"/>
<g opacity="0.5">
<path opacity="0.5" d="M1098.94 4302.13C1705.87 4302.13 2197.88 3839.62 2197.88 3269.08C2197.88 2698.53 1705.87 2236.02 1098.94 2236.02C492.012 2236.02 0 2698.53 0 3269.08C0 3839.62 492.012 4302.13 1098.94 4302.13Z" fill="url(#paint4_linear)"/>
</g>
<path d="M1101.03 4273.7C1695.12 4273.7 2176.73 3820.96 2176.73 3262.48C2176.73 2704 1695.12 2251.26 1101.03 2251.26C506.929 2251.26 25.3184 2704 25.3184 3262.48C25.3184 3820.96 506.929 4273.7 1101.03 4273.7Z" fill="#F5F5F5"/>
<path d="M1101.97 4277.71C1312.15 4278.02 1517.77 4220.17 1693.21 4111.37C1653.57 3907.77 1502.71 3896.09 1502.71 3896.09H670.606C670.606 3896.09 528.367 3907.06 483.799 4094.43C664.765 4214.09 880.72 4278.12 1101.97 4277.71V4277.71Z" fill="#FBD43C"/>
<path d="M1090.6 3729.31C1377.38 3729.31 1609.86 3510.77 1609.86 3241.17C1609.86 2971.58 1377.38 2753.04 1090.6 2753.04C803.811 2753.04 571.327 2971.58 571.327 3241.17C571.327 3510.77 803.811 3729.31 1090.6 3729.31Z" fill="#333333"/>
<path opacity="0.1" d="M923.036 3647.75H1255.78V3897.97C1255.78 3939.44 1238.26 3979.2 1207.07 4008.53C1175.87 4037.85 1133.57 4054.32 1089.46 4054.32V4054.32C1045.34 4054.32 1003.04 4037.85 971.846 4008.53C940.654 3979.2 923.131 3939.44 923.131 3897.97V3647.75H923.036Z" fill="black"/>
<path d="M954.803 3636.16H1224.01C1232.44 3636.16 1240.52 3639.31 1246.48 3644.91C1252.43 3650.51 1255.78 3658.1 1255.78 3666.02V3886.56C1255.78 3928.02 1238.26 3967.79 1207.07 3997.12C1175.87 4026.44 1133.57 4042.91 1089.46 4042.91C1067.61 4042.92 1045.97 4038.89 1025.78 4031.04C1005.59 4023.18 987.24 4011.67 971.785 3997.15C956.33 3982.63 944.071 3965.39 935.706 3946.41C927.341 3927.44 923.036 3907.1 923.036 3886.56V3665.93C923.036 3658.01 926.383 3650.42 932.34 3644.82C938.298 3639.22 946.378 3636.07 954.803 3636.07V3636.16Z" fill="#FDB797"/>
<path opacity="0.1" d="M923.703 3765.86C1030.94 3803.54 1148.99 3803.86 1256.45 3766.75V3728.07H923.703V3765.86Z" fill="black"/>
<path d="M1090.59 3786.81C1353.97 3786.81 1567.47 3586.1 1567.47 3338.52C1567.47 3090.93 1353.97 2890.23 1090.59 2890.23C827.22 2890.23 613.713 3090.93 613.713 3338.52C613.713 3586.1 827.22 3786.81 1090.59 3786.81Z" fill="#FDB797"/>
<path opacity="0.1" d="M751.024 2930.7C751.024 2930.7 951.961 3314 1519.12 3091.15L1387.12 2896.56L1153.18 2817.58L751.024 2930.7Z" fill="black"/>
<path d="M751.024 2925.08C751.024 2925.08 951.961 3308.39 1519.12 3085.54L1387.12 2890.94L1153.18 2811.96L751.024 2925.08Z" fill="#333333"/>
<path d="M749.224 2899.05C762.771 2859.62 786.184 2823.82 817.498 2794.67C911.281 2707.49 1065.09 2689.12 1143.98 2589.64C1148.27 2596.68 1150.94 2604.49 1151.82 2612.56C1152.7 2620.63 1151.77 2628.78 1149.09 2636.49C1146.41 2644.2 1142.03 2651.3 1136.26 2657.33C1130.48 2663.35 1123.42 2668.17 1115.54 2671.47C1191.4 2671.03 1278.73 2664.79 1321.4 2606.31C1331.97 2629.42 1335.34 2654.87 1331.12 2679.7C1326.91 2704.54 1315.29 2727.74 1297.6 2746.62C1364.55 2749.47 1436.05 2792.17 1440.41 2855.1C1443.26 2897 1415.38 2936.67 1378.68 2960.74C1341.98 2984.8 1297.7 2995.77 1254.08 3004.86C1126.82 3031.42 666.156 3142.05 749.224 2899.05Z" fill="#333333"/>
<path d="M613.521 3416.25C638.031 3416.25 657.9 3381.25 657.9 3338.07C657.9 3294.9 638.031 3259.9 613.521 3259.9C589.012 3259.9 569.143 3294.9 569.143 3338.07C569.143 3381.25 589.012 3416.25 613.521 3416.25Z" fill="#FDB797"/>
<path d="M1567.38 3416.25C1591.89 3416.25 1611.76 3381.25 1611.76 3338.07C1611.76 3294.9 1591.89 3259.9 1567.38 3259.9C1542.87 3259.9 1523.01 3294.9 1523.01 3338.07C1523.01 3381.25 1542.87 3416.25 1567.38 3416.25Z" fill="#FDB797"/>
<g opacity="0.5">
<path opacity="0.5" d="M6311.16 4416.68C6918.08 4416.68 7410.1 3954.16 7410.1 3383.62C7410.1 2813.08 6918.08 2350.56 6311.16 2350.56C5704.23 2350.56 5212.22 2813.08 5212.22 3383.62C5212.22 3954.16 5704.23 4416.68 6311.16 4416.68Z" fill="url(#paint5_linear)"/>
</g>
<path d="M6311.16 4389.22C6905.25 4389.22 7386.86 3936.49 7386.86 3378.01C7386.86 2819.53 6905.25 2366.79 6311.16 2366.79C5717.06 2366.79 5235.45 2819.53 5235.45 3378.01C5235.45 3936.49 5717.06 4389.22 6311.16 4389.22Z" fill="#F5F5F5"/>
<path d="M6314.19 4392.26C6524.39 4392.58 6730.05 4334.73 6905.52 4225.92C6865.89 4022.32 6715.02 4010.64 6715.02 4010.64H5883.2C5883.2 4010.64 5740.96 4021.61 5696.39 4208.98C5877.26 4328.57 6093.07 4392.59 6314.19 4392.26V4392.26Z" fill="#FBD43C"/>
<path opacity="0.1" d="M6135.25 3762.3H6468V4012.52C6468 4053.98 6450.47 4093.75 6419.28 4123.07C6388.09 4152.4 6345.78 4168.87 6301.67 4168.87V4168.87C6279.82 4168.88 6258.18 4164.85 6237.99 4156.99C6217.8 4149.14 6199.46 4137.63 6184 4123.11C6168.55 4108.59 6156.29 4091.35 6147.92 4072.37C6139.56 4053.39 6135.25 4033.06 6135.25 4012.52V3762.3Z" fill="black"/>
<path d="M6167.02 3750.71H6436.23C6444.66 3750.71 6452.74 3753.85 6458.69 3759.45C6464.65 3765.05 6468 3772.65 6468 3780.57V4000.92C6468 4042.39 6450.47 4082.16 6419.28 4111.48C6388.09 4140.81 6345.78 4157.28 6301.67 4157.28V4157.28C6279.82 4157.29 6258.18 4153.25 6237.99 4145.4C6217.8 4137.55 6199.46 4126.03 6184 4111.51C6168.55 4096.99 6156.29 4079.75 6147.92 4060.78C6139.56 4041.8 6135.25 4021.46 6135.25 4000.92V3780.57C6135.25 3772.65 6138.6 3765.05 6144.56 3759.45C6150.51 3753.85 6158.59 3750.71 6167.02 3750.71V3750.71Z" fill="#FDB797"/>
<path opacity="0.1" d="M6135.92 3880.41C6243.15 3918.09 6361.2 3918.4 6468.66 3881.3V3842.88H6135.92V3880.41Z" fill="black"/>
<path d="M6302.81 3901.36C6566.18 3901.36 6779.69 3700.65 6779.69 3453.06C6779.69 3205.48 6566.18 3004.77 6302.81 3004.77C6039.43 3004.77 5825.93 3205.48 5825.93 3453.06C5825.93 3700.65 6039.43 3901.36 6302.81 3901.36Z" fill="#FDB797"/>
<path d="M5835.79 3512.08C5860.3 3512.08 5880.17 3477.08 5880.17 3433.9C5880.17 3390.72 5860.3 3355.72 5835.79 3355.72C5811.28 3355.72 5791.42 3390.72 5791.42 3433.9C5791.42 3477.08 5811.28 3512.08 5835.79 3512.08Z" fill="#FDB797"/>
<path d="M6767.37 3512.08C6791.88 3512.08 6811.75 3477.08 6811.75 3433.9C6811.75 3390.72 6791.88 3355.72 6767.37 3355.72C6742.86 3355.72 6722.99 3390.72 6722.99 3433.9C6722.99 3477.08 6742.86 3512.08 6767.37 3512.08Z" fill="#FDB797"/>
<path d="M6174.99 3455.2H6053.51C6030.73 3455.2 6012.26 3472.56 6012.26 3493.98V3512.34C6012.26 3533.76 6030.73 3551.12 6053.51 3551.12H6174.99C6197.77 3551.12 6216.24 3533.76 6216.24 3512.34V3493.98C6216.24 3472.56 6197.77 3455.2 6174.99 3455.2Z" stroke="#333333" stroke-width="2" stroke-miterlimit="10"/>
<path d="M6430.73 3551.03H6552.21C6574.99 3551.03 6593.46 3533.67 6593.46 3512.25V3493.89C6593.46 3472.47 6574.99 3455.11 6552.21 3455.11H6430.73C6407.95 3455.11 6389.48 3472.47 6389.48 3493.89V3512.25C6389.48 3533.67 6407.95 3551.03 6430.73 3551.03Z" stroke="#333333" stroke-width="2" stroke-miterlimit="10"/>
<path d="M6208.46 3464.47C6208.46 3464.47 6273.13 3431.49 6393.37 3464.47" stroke="#333333" stroke-width="2" stroke-miterlimit="10"/>
<path d="M6632.52 3128.14L6749.53 3383.71C6749.53 3383.71 6892.62 3214.16 6632.52 3128.14Z" fill="#858585"/>
<path d="M6593.46 3503.16L6768.12 3356.52" stroke="#333333" stroke-width="2" stroke-linecap="round" stroke-linejoin="round"/>
<path d="M5973.29 3128.14L5856.27 3383.71C5856.27 3383.71 5713.18 3214.16 5973.29 3128.14Z" fill="#858585"/>
<path d="M6012.27 3503.16L5835.22 3356.52" stroke="#333333" stroke-width="2" stroke-linecap="round" stroke-linejoin="round"/>
<g opacity="0.5">
<path opacity="0.5" d="M1106.81 6624.53C1713.74 6624.53 2205.75 6162.02 2205.75 5591.47C2205.75 5020.93 1713.74 4558.42 1106.81 4558.42C499.883 4558.42 7.87109 5020.93 7.87109 5591.47C7.87109 6162.02 499.883 6624.53 1106.81 6624.53Z" fill="url(#paint6_linear)"/>
</g>
<path d="M1106.81 6597.08C1700.91 6597.08 2182.52 6144.34 2182.52 5585.86C2182.52 5027.38 1700.91 4574.64 1106.81 4574.64C512.716 4574.64 31.1055 5027.38 31.1055 5585.86C31.1055 6144.34 512.716 6597.08 1106.81 6597.08Z" fill="#F5F5F5"/>
<path d="M1701.84 5676.78C1701.84 6049.21 1443.35 6463.81 1124.45 6463.81C805.545 6463.81 547.334 6049.21 547.334 5676.78C547.334 5304.35 805.83 5115.19 1124.73 5115.19C1443.63 5115.19 1701.84 5304.44 1701.84 5676.78Z" fill="#FDD835"/>
<path d="M1109.85 6600.19C1320.06 6600.52 1525.72 6542.67 1701.18 6433.86C1661.55 6230.26 1510.68 6218.58 1510.68 6218.58H678.959C678.959 6218.58 536.72 6229.55 492.151 6416.92C672.985 6536.49 888.76 6600.51 1109.85 6600.19Z" fill="#FBD43C"/>
<path opacity="0.1" d="M931 5970.15H1263.74V6220.37C1263.74 6261.83 1246.22 6301.6 1215.03 6330.93C1183.84 6360.25 1141.53 6376.72 1097.42 6376.72C1053.31 6376.72 1011 6360.25 979.81 6330.93C948.618 6301.6 931.095 6261.83 931.095 6220.37V5970.15H931Z" fill="black"/>
<path d="M962.773 5958.56H1231.98C1240.41 5958.56 1248.49 5961.7 1254.45 5967.3C1260.4 5972.9 1263.75 5980.5 1263.75 5988.42V6208.78C1263.75 6250.24 1246.23 6290.01 1215.04 6319.33C1183.84 6348.66 1141.54 6365.13 1097.43 6365.13V6365.13C1053.31 6365.13 1011.01 6348.66 979.817 6319.33C948.625 6290.01 931.102 6250.24 931.102 6208.78V5988.42C931.102 5980.51 934.435 5972.93 940.372 5967.33C946.309 5961.74 954.365 5958.58 962.773 5958.56Z" fill="#FDB797"/>
<path opacity="0.1" d="M931.667 6088.26C1038.9 6125.93 1156.95 6126.25 1264.41 6089.15V6050.73H931.667V6088.26Z" fill="black"/>
<path d="M1098.56 6109.2C1361.93 6109.2 1575.44 5908.5 1575.44 5660.91C1575.44 5413.33 1361.93 5212.62 1098.56 5212.62C835.184 5212.62 621.677 5413.33 621.677 5660.91C621.677 5908.5 835.184 6109.2 1098.56 6109.2Z" fill="#FDB797"/>
<path d="M631.542 5719.92C656.051 5719.92 675.92 5684.92 675.92 5641.75C675.92 5598.57 656.051 5563.57 631.542 5563.57C607.032 5563.57 587.163 5598.57 587.163 5641.75C587.163 5684.92 607.032 5719.92 631.542 5719.92Z" fill="#FDB797"/>
<path d="M1563.12 5719.92C1587.63 5719.92 1607.49 5684.92 1607.49 5641.75C1607.49 5598.57 1587.63 5563.57 1563.12 5563.57C1538.61 5563.57 1518.74 5598.57 1518.74 5641.75C1518.74 5684.92 1538.61 5719.92 1563.12 5719.92Z" fill="#FDB797"/>
<path opacity="0.1" d="M676.016 5417.74C676.016 5417.74 945.606 5764.58 1563.87 5646.12C1563.87 5646.12 1632.91 5567.14 1464.87 5324.67C1296.84 5082.21 828.97 5121.7 676.016 5417.74Z" fill="black"/>
<path d="M676.016 5412.12C676.016 5412.12 945.606 5758.97 1563.87 5640.5C1563.87 5640.5 1632.91 5561.52 1464.87 5319.06C1296.84 5076.59 828.97 5116.08 676.016 5412.12Z" fill="#FDD835"/>
<g opacity="0.5">
<path opacity="0.5" d="M3717.47 6743C4324.39 6743 4816.41 6280.49 4816.41 5709.94C4816.41 5139.4 4324.39 4676.89 3717.47 4676.89C3110.54 4676.89 2618.53 5139.4 2618.53 5709.94C2618.53 6280.49 3110.54 6743 3717.47 6743Z" fill="url(#paint7_linear)"/>
</g>
<path d="M3719.65 6714.56C4313.75 6714.56 4795.36 6261.83 4795.36 5703.35C4795.36 5144.87 4313.75 4692.13 3719.65 4692.13C3125.56 4692.13 2643.95 5144.87 2643.95 5703.35C2643.95 6261.83 3125.56 6714.56 3719.65 6714.56Z" fill="#F5F5F5"/>
<path d="M4311.46 5803.01C4311.46 6139.43 4054.39 6304.96 3720.51 6304.96C3386.62 6304.96 3102.62 6139.43 3102.62 5803.01C3102.62 5466.59 3373.25 5193.9 3707.04 5193.9C4040.83 5193.9 4311.46 5466.32 4311.46 5803.01Z" fill="#333333"/>
<path d="M3720.5 6718.57C3930.74 6718.92 4136.44 6661.07 4311.94 6552.24C4272.3 6348.64 4121.43 6336.96 4121.43 6336.96H3289.61C3289.61 6336.96 3147.37 6347.92 3102.81 6535.3C3283.64 6654.87 3499.42 6718.89 3720.5 6718.57Z" fill="#FBD43C"/>
<path opacity="0.1" d="M3541.66 6088.35H3874.41V6338.57C3874.44 6359.15 3870.16 6379.54 3861.79 6398.56C3853.43 6417.59 3841.15 6434.87 3825.66 6449.42C3810.17 6463.98 3791.78 6475.51 3771.53 6483.36C3751.29 6491.22 3729.6 6495.23 3707.7 6495.19V6495.19C3663.59 6495.19 3621.28 6478.71 3590.09 6449.39C3558.9 6420.07 3541.38 6380.3 3541.38 6338.83V6088.35H3541.66Z" fill="black"/>
<path d="M3573.33 6077.02H3842.54C3850.97 6077.02 3859.05 6080.17 3865.01 6085.77C3870.96 6091.37 3874.31 6098.97 3874.31 6106.89V6327.24C3874.31 6347.8 3870 6368.15 3861.62 6387.14C3853.25 6406.13 3840.97 6423.37 3825.5 6437.9C3810.02 6452.42 3791.65 6463.93 3771.44 6471.77C3751.23 6479.61 3729.57 6483.63 3707.7 6483.6V6483.6C3663.59 6483.6 3621.28 6467.12 3590.09 6437.8C3558.9 6408.48 3541.38 6368.71 3541.38 6327.24V6106.8C3541.38 6098.88 3544.72 6091.28 3550.68 6085.68C3556.64 6080.08 3564.72 6076.94 3573.14 6076.94L3573.33 6077.02Z" fill="#FDA57D"/>
<path opacity="0.1" d="M3542.32 6206.72C3649.56 6244.4 3767.6 6244.72 3875.07 6207.62V6169.2H3542.32V6206.72Z" fill="black"/>
<path d="M3709.22 6227.59C3972.59 6227.59 4186.1 6026.88 4186.1 5779.29C4186.1 5531.71 3972.59 5331 3709.22 5331C3445.85 5331 3232.34 5531.71 3232.34 5779.29C3232.34 6026.88 3445.85 6227.59 3709.22 6227.59Z" fill="#FDA57D"/>
<path opacity="0.1" d="M3159.61 5808.62C3159.61 5808.62 3456.6 5774.75 3681.15 5504.11C3681.15 5504.11 3978.15 5811.47 4185.06 5777.6C4185.06 5777.6 4305.01 5659.13 4185.06 5540.75C4065.1 5422.37 3972.08 5272.88 3813.15 5292.58C3654.22 5312.28 3459.17 5320.75 3375.24 5391.26C3291.32 5461.77 3159.61 5808.62 3159.61 5808.62Z" fill="black"/>
<path d="M3159.61 5803.01C3159.61 5803.01 3456.6 5769.13 3681.15 5498.5C3681.15 5498.5 3978.15 5805.86 4185.06 5771.98C4185.06 5771.98 4305.01 5653.52 4185.06 5535.14C4065.1 5416.76 3972.08 5267.27 3813.15 5286.97C3654.22 5306.67 3459.54 5314.78 3375.62 5386.09C3291.7 5457.41 3159.61 5803.01 3159.61 5803.01Z" fill="#333333"/>
<path d="M3232.15 5857.11C3256.66 5857.11 3276.53 5822.11 3276.53 5778.94C3276.53 5735.76 3256.66 5700.76 3232.15 5700.76C3207.64 5700.76 3187.77 5735.76 3187.77 5778.94C3187.77 5822.11 3207.64 5857.11 3232.15 5857.11Z" fill="#FDA57D"/>
<path d="M4186 5857.11C4210.51 5857.11 4230.38 5822.11 4230.38 5778.94C4230.38 5735.76 4210.51 5700.76 4186 5700.76C4161.49 5700.76 4141.62 5735.76 4141.62 5778.94C4141.62 5822.11 4161.49 5857.11 4186 5857.11Z" fill="#FDA57D"/>
</g>
<defs>
<linearGradient id="paint0_linear" x1="1106.81" y1="2121.38" x2="1106.81" y2="55.3582" gradientUnits="userSpaceOnUse">
<stop stop-color="#808080" stop-opacity="0.25"/>
<stop offset="0.54" stop-color="#808080" stop-opacity="0.12"/>
<stop offset="1" stop-color="#808080" stop-opacity="0.1"/>
</linearGradient>
<linearGradient id="paint1_linear" x1="848912" y1="1.01513e+06" x2="848912" y2="536271" gradientUnits="userSpaceOnUse">
<stop stop-color="#808080" stop-opacity="0.25"/>
<stop offset="0.54" stop-color="#808080" stop-opacity="0.12"/>
<stop offset="1" stop-color="#808080" stop-opacity="0.1"/>
</linearGradient>
<linearGradient id="paint2_linear" x1="848670" y1="479943" x2="848670" y2="1058.26" gradientUnits="userSpaceOnUse">
<stop stop-color="#808080" stop-opacity="0.25"/>
<stop offset="0.54" stop-color="#808080" stop-opacity="0.12"/>
<stop offset="1" stop-color="#808080" stop-opacity="0.1"/>
</linearGradient>
<linearGradient id="paint3_linear" x1="1.45848e+06" y1="478864" x2="1.45848e+06" y2="0" gradientUnits="userSpaceOnUse">
<stop stop-color="#808080" stop-opacity="0.25"/>
<stop offset="0.54" stop-color="#808080" stop-opacity="0.12"/>
<stop offset="1" stop-color="#808080" stop-opacity="0.1"/>
</linearGradient>
<linearGradient id="paint4_linear" x1="254712" y1="999384" x2="254712" y2="520521" gradientUnits="userSpaceOnUse">
<stop stop-color="#808080" stop-opacity="0.25"/>
<stop offset="0.54" stop-color="#808080" stop-opacity="0.12"/>
<stop offset="1" stop-color="#808080" stop-opacity="0.1"/>
</linearGradient>
<linearGradient id="paint5_linear" x1="1.46801e+06" y1="1.02605e+06" x2="1.46801e+06" y2="547185" gradientUnits="userSpaceOnUse">
<stop stop-color="#808080" stop-opacity="0.25"/>
<stop offset="0.54" stop-color="#808080" stop-opacity="0.12"/>
<stop offset="1" stop-color="#808080" stop-opacity="0.1"/>
</linearGradient>
<linearGradient id="paint6_linear" x1="256544" y1="1.53999e+06" x2="256544" y2="1.06113e+06" gradientUnits="userSpaceOnUse">
<stop stop-color="#808080" stop-opacity="0.25"/>
<stop offset="0.54" stop-color="#808080" stop-opacity="0.12"/>
<stop offset="1" stop-color="#808080" stop-opacity="0.1"/>
</linearGradient>
<linearGradient id="paint7_linear" x1="864254" y1="1.56757e+06" x2="864254" y2="1.08871e+06" gradientUnits="userSpaceOnUse">
<stop stop-color="#808080" stop-opacity="0.25"/>
<stop offset="0.54" stop-color="#808080" stop-opacity="0.12"/>
<stop offset="1" stop-color="#808080" stop-opacity="0.1"/>
</linearGradient>
<clipPath id="clip0">
<rect width="7410" height="6743" fill="white"/>
</clipPath>
</defs>
</svg>
