<svg xmlns="http://www.w3.org/2000/svg" viewBox="0 0 171.979 68.792" height="260" width="650">
    <g>
        <path d="M15.23 29.856v26.797h9.018V29.856h6.223v-6.033h-6.223v-1.968q0-2.032.762-2.858.825-.889 2.667-.889 1.714 0 3.302.19v-6.73q-1.143-.064-2.35-.127-1.206-.127-2.413-.127-5.524 0-8.255 2.794-2.73 2.794-2.73 7.175v2.54H9.833v6.033zM42.471 40.27q0-1.969.381-3.874t1.27-3.365q.953-1.46 2.477-2.35 1.524-.952 3.81-.952t3.81.952q1.587.89 2.476 2.35.953 1.46 1.334 3.365.38 1.905.38 3.874 0 1.968-.38 3.873-.381 1.842-1.334 3.366-.889 1.46-2.476 2.35-1.524.888-3.81.888t-3.81-.889q-1.524-.889-2.477-2.35-.889-1.523-1.27-3.365-.38-1.905-.38-3.873zm-9.017 0q0 3.937 1.207 7.112 1.206 3.175 3.429 5.46 2.222 2.223 5.334 3.43 3.111 1.206 6.985 1.206 3.873 0 6.985-1.206 3.175-1.207 5.397-3.43 2.223-2.285 3.43-5.46 1.206-3.175 1.206-7.112 0-3.937-1.207-7.112-1.206-3.239-3.429-5.461-2.222-2.286-5.397-3.493-3.112-1.27-6.985-1.27-3.874 0-6.985 1.27-3.112 1.207-5.334 3.493-2.223 2.222-3.43 5.46-1.206 3.176-1.206 7.113zM73.29 23.823v32.83h9.017V39.444q0-5.016 1.65-7.175 1.652-2.223 5.335-2.223 3.238 0 4.508 2.032 1.27 1.969 1.27 6.033v18.542h9.017V36.46q0-3.048-.571-5.525-.508-2.54-1.842-4.254-1.333-1.778-3.683-2.73-2.286-1.017-5.905-1.017-2.858 0-5.588 1.334-2.73 1.27-4.445 4.127h-.19v-4.572zM122.423 23.823v-9.842h-9.017v9.842h-5.461v6.033h5.46v19.367q0 2.477.826 4 .826 1.525 2.223 2.35 1.46.826 3.302 1.08 1.905.317 4 .317 1.334 0 2.73-.063 1.398-.064 2.54-.254v-6.985q-.634.127-1.333.19-.698.064-1.46.064-2.286 0-3.048-.762t-.762-3.048V29.856h6.604v-6.033zM140.302 45.985h-8.573q.127 3.302 1.46 5.524 1.398 2.16 3.493 3.493 2.16 1.333 4.89 1.905 2.73.571 5.588.571 2.794 0 5.46-.571 2.731-.508 4.827-1.842 2.095-1.333 3.365-3.492 1.334-2.223 1.334-5.461 0-2.286-.89-3.81-.888-1.588-2.349-2.604-1.46-1.08-3.365-1.714-1.842-.635-3.81-1.08-1.905-.444-3.747-.825-1.841-.381-3.302-.826-1.397-.508-2.286-1.27t-.889-1.968q0-1.016.508-1.588.508-.635 1.207-.952.762-.318 1.65-.381.89-.127 1.652-.127 2.413 0 4.19.952 1.779.89 1.97 3.493h8.572q-.254-3.048-1.588-5.017-1.27-2.032-3.238-3.238-1.969-1.207-4.509-1.715-2.476-.508-5.143-.508t-5.207.508q-2.54.445-4.572 1.651-2.032 1.143-3.302 3.175-1.207 2.032-1.207 5.207 0 2.16.89 3.683.888 1.46 2.349 2.477 1.46.952 3.302 1.587 1.905.572 3.873 1.016 4.826 1.016 7.493 2.032 2.73 1.016 2.73 3.048 0 1.207-.57 2.032-.572.762-1.461 1.27-.826.445-1.905.699-1.016.19-1.969.19-1.333 0-2.603-.317-1.207-.318-2.16-.953-.952-.698-1.587-1.714-.571-1.08-.571-2.54z"/>
    </g>
</svg>
