<svg viewBox="0 0 30 30" xmlns="http://www.w3.org/2000/svg"><path d="M1.875 27.1875C1.875 28.7402 3.13477 30 4.6875 30h20.625c1.5527 0 2.8125-1.2598 2.8125-2.8125V11.25H1.875v15.9375zm18.75-11.4844c0-.3867.3164-.7031.7031-.7031h2.3438c.3867 0 .7031.3164.7031.7031v2.3438c0 .3867-.3164.7031-.7031.7031h-2.3438c-.3867 0-.7031-.3164-.7031-.7031v-2.3438zm0 7.5c0-.3867.3164-.7031.7031-.7031h2.3438c.3867 0 .7031.3164.7031.7031v2.3438c0 .3867-.3164.7031-.7031.7031h-2.3438c-.3867 0-.7031-.3164-.7031-.7031v-2.3438zm-7.5-7.5c0-.3867.3164-.7031.7031-.7031h2.3438c.3867 0 .7031.3164.7031.7031v2.3438c0 .3867-.3164.7031-.7031.7031h-2.3438c-.3867 0-.7031-.3164-.7031-.7031v-2.3438zm0 7.5c0-.3867.3164-.7031.7031-.7031h2.3438c.3867 0 .7031.3164.7031.7031v2.3438c0 .3867-.3164.7031-.7031.7031h-2.3438c-.3867 0-.7031-.3164-.7031-.7031v-2.3438zm-7.5-7.5c0-.3867.31641-.7031.70312-.7031h2.34376c.38671 0 .70312.3164.70312.7031v2.3438c0 .3867-.31641.7031-.70312.7031H6.32812c-.38671 0-.70312-.3164-.70312-.7031v-2.3438zm0 7.5c0-.3867.31641-.7031.70312-.7031h2.34376c.38671 0 .70312.3164.70312.7031v2.3438c0 .3867-.31641.7031-.70312.7031H6.32812c-.38671 0-.70312-.3164-.70312-.7031v-2.3438zM25.3125 3.75H22.5V.9375C22.5.42187 22.0781 0 21.5625 0h-1.875c-.5156 0-.9375.42188-.9375.9375V3.75h-7.5V.9375C11.25.42187 10.8281 0 10.3125 0h-1.875C7.92188 0 7.5.42188 7.5.9375V3.75H4.6875c-1.55273 0-2.8125 1.25977-2.8125 2.8125V9.375h26.25V6.5625c0-1.55273-1.2598-2.8125-2.8125-2.8125z" fill="currentColor"/></svg>
