<svg xmlns="http://www.w3.org/2000/svg" viewBox="0 0 30 30"><path d="M29.432 11.18a.353.353 0 01.568.275v11.982a2.813 2.813 0 01-2.813 2.813H2.813A2.813 2.813 0 010 23.437V11.461a.35.35 0 01.568-.276c1.313 1.02 3.053 2.315 9.03 6.657 1.236.902 3.322 2.8 5.402 2.789 2.092.017 4.219-1.922 5.408-2.79 5.977-4.341 7.711-5.642 9.024-6.661zM15 18.75c1.36.023 3.316-1.71 4.3-2.426 7.776-5.642 8.368-6.135 10.16-7.54.34-.264.54-.675.54-1.108V6.562a2.813 2.813 0 00-2.813-2.812H2.813A2.813 2.813 0 000 6.563v1.113c0 .433.2.838.54 1.107 1.792 1.4 2.384 1.899 10.16 7.541.984.715 2.94 2.45 4.3 2.426z" fill="currentColor"/></svg>
