<svg viewBox="0 0 191 46" fill="none" xmlns="http://www.w3.org/2000/svg">
  <path fill-rule="evenodd" clip-rule="evenodd" d="M126.226 0v4.09h-5.317V0h5.317zm-5.318 6.135h5.317v18.133h-5.317V6.135zm-5.172.34h3.171v3.273h-3.17v8.895c0 1.432.715 1.807 1.67 1.807.579 0 1.328-.068 1.602-.102v4.192c-.682.069-2.25.205-3.408.205-4.534 0-5.182-2.829-5.182-5.453V9.748h-2.59V6.476h2.59v-5.25h5.317v5.25zm-64.472-.817c3.443 0 6.408 1.262 8.147 4.431l-4.091 2.148c-.954-2.046-2.59-2.489-3.409-2.489-3.033 0-4.124 2.352-4.124 5.453 0 3.103 1.295 5.454 4.124 5.454 1.636 0 2.931-.613 3.784-2.658l3.817 1.942c-1.636 2.898-4.601 4.806-8.078 4.806-5.419 0-9.168-3.443-9.168-9.544 0-5.998 3.988-9.543 8.998-9.543zm0 20.86c3.443 0 6.408 1.262 8.147 4.432l-4.091 2.148c-.954-2.046-2.59-2.488-3.409-2.488-3.033 0-4.124 2.351-4.124 5.453 0 3.102 1.295 5.454 4.124 5.454 1.636 0 2.931-.614 3.784-2.66l3.817 1.943c-1.636 2.898-4.601 4.806-8.078 4.806-5.419 0-9.168-3.442-9.168-9.543 0-6 3.988-9.544 8.998-9.544zm17.891 0c-5.658 0-9.645 3.443-9.645 9.545 0 6.1 3.987 9.543 9.645 9.543 5.658 0 9.646-3.442 9.646-9.543 0-6.101-3.988-9.544-9.646-9.544zm0 4.09c3.034 0 4.33 2.353 4.33 5.25 0 3.306-1.296 5.658-4.33 5.658s-4.328-2.352-4.328-5.453c0-3.102 1.294-5.454 4.328-5.454zm10.736 14.52h5.317v-11.28c0-1.637.682-3.034 2.828-3.034 2.046 0 2.59 1.193 2.59 2.965v11.35h5.318V33.983c0-1.84.92-3.17 2.693-3.17 2.01 0 2.726 1.16 2.726 3.716v10.6h5.317V31.29c0-4.159-3.817-4.772-5.59-4.772-2.113 0-4.09.648-5.828 2.42-1.193-1.602-2.726-2.42-4.806-2.42-1.636 0-3.885.477-5.249 2.08v-1.603H79.89V45.13zm33.808 0H108.381V26.997h5.317v1.602c1.364-1.602 3.613-2.08 5.249-2.08 2.08 0 3.613.819 4.806 2.42 1.739-1.771 3.715-2.42 5.828-2.42 1.772 0 5.59.614 5.59 4.773v13.838h-5.317v-10.6c0-2.557-.716-3.715-2.727-3.715-1.772 0-2.692 1.329-2.692 3.17v11.145h-5.317V33.78c0-1.773-.545-2.965-2.591-2.965-2.146 0-2.828 1.397-2.828 3.033V45.13zm22.559-9.065c0-6.102 3.988-9.544 9.646-9.544 5.658 0 9.647 3.443 9.647 9.544 0 6.1-3.989 9.543-9.647 9.543s-9.646-3.442-9.646-9.543zm13.975-.205c0-2.897-1.296-5.25-4.329-5.25-3.033 0-4.329 2.353-4.329 5.455 0 3.101 1.296 5.453 4.329 5.453 3.033 0 4.329-2.352 4.329-5.658zm12.065 9.27H156.98V26.997h5.317v1.602c1.364-1.602 3.614-2.08 5.249-2.08 4.295 0 5.488 2.49 5.488 5.216v13.395h-5.317V33.78c0-1.773-.545-2.965-2.59-2.965-2.147 0-2.829 1.397-2.829 3.033V45.13zm28.491-15.984c-2.454-1.636-5.214-2.625-8.01-2.625-3.681 0-7.669 1.773-7.669 6.34 0 3.874 3.883 4.605 6.979 5.187 2.052.386 3.757.707 3.757 1.835 0 1.636-2.01 1.84-2.897 1.84-2.42 0-4.09-.988-5.726-2.556l-3.306 2.863c2.659 2.454 4.908 3.579 8.862 3.579 3.953 0 8.18-1.705 8.18-6.476 0-4.047-3.822-4.77-6.905-5.352-2.084-.394-3.832-.725-3.832-1.976 0-.92.954-1.397 2.283-1.397 1.671 0 3.954.682 5.011 1.943l3.273-3.205zM60.707 24.268h5.318V13.77c0-2.011 1.26-2.557 4.43-2.932l.58-.068L71 6.067c-1.875.137-3.818.818-4.977 1.909V6.135h-5.317v18.133zm28.386-7.976c-.035-5.59-2.284-10.634-8.897-10.634-5.522 0-8.896 3.681-8.896 10.09 0 5.111 3.272 8.998 8.896 8.998 4.056 0 6.953-1.602 8.794-5.01l-3.988-2.08c-1.534 2.181-2.455 3.203-4.431 3.203-1.704 0-3.92-1.09-3.954-4.567h12.476zM76.55 13.02c.238-2.386 2.079-3.476 3.612-3.476 1.534 0 3.443.818 3.613 3.476H76.55zm21.774-7.362c4.942 0 8.044 1.159 8.078 5.249v9.578c0 1.262.034 2.659.477 3.784h-4.908a7.224 7.224 0 01-.341-1.875h-.068c-.886 1.432-3.545 2.352-5.453 2.352-3.477 0-6.067-1.91-6.067-5.386 0-4.363 3.51-5.896 9.305-6.714l1.942-.273v-1.5c0-1.364-1.09-1.943-2.522-1.943-1.704 0-2.522.613-2.795 2.42H90.86c.17-5.215 5.01-5.692 7.464-5.692zm-.682 15.201c2.08 0 3.647-1.397 3.647-4.158v-1.26l-3.579 1.022c-1.33.375-2.556.886-2.556 2.352 0 1.43 1.193 2.044 2.488 2.044zm41.09 3.409h-5.351l-6.135-18.133h5.691l3.137 12.816h.068l3.136-12.816h5.658l-6.204 18.133zm14.479-18.61c6.612 0 8.862 5.044 8.896 10.634h-12.475c.034 3.477 2.25 4.567 3.954 4.567 1.976 0 2.897-1.022 4.43-3.203l3.988 2.08c-1.84 3.408-4.737 5.01-8.793 5.01-5.625 0-8.896-3.887-8.896-8.999 0-6.408 3.373-10.089 8.896-10.089zm-.035 3.886c-1.534 0-3.374 1.09-3.612 3.476h7.225c-.17-2.658-2.079-3.476-3.613-3.476zM19.914 5.353c-5.471 0-10.286 2.025-14.006 5.8C2.078 15.036 0 20.07 0 25.322c0 5.305 2.024 10.23 5.854 14.06 3.83 3.829 8.808 5.907 14.06 5.907 5.251 0 10.34-2.078 14.279-5.962 3.72-3.666 5.689-8.535 5.689-14.006 0-5.416-1.97-10.34-5.744-14.115-3.83-3.83-8.754-5.854-14.224-5.854zm.054 3.611c4.486 0 8.48 1.696 11.599 4.815 3.063 3.063 4.704 7.112 4.704 11.543 0 4.486-1.586 8.425-4.65 11.435-3.228 3.172-7.386 4.869-11.653 4.869-4.322 0-8.371-1.696-11.489-4.815C5.361 33.692 3.61 29.59 3.61 25.322c0-4.322 1.75-8.425 4.87-11.598 3.063-3.118 7.002-4.76 11.488-4.76zm-.257 13.04c-1.128-2.057-3.053-2.876-5.286-2.876-3.252 0-5.84 2.3-5.84 6.194 0 3.96 2.433 6.194 5.95 6.194 2.257 0 4.18-1.24 5.242-3.119l-2.477-1.26c-.553 1.326-1.393 1.724-2.455 1.724-1.837 0-2.676-1.526-2.676-3.538 0-2.013.707-3.54 2.676-3.54.53 0 1.592.288 2.212 1.615l2.654-1.394zm6.234-2.876c2.233 0 4.157.819 5.286 2.876l-2.654 1.394c-.62-1.327-1.682-1.615-2.213-1.615-1.968 0-2.677 1.527-2.677 3.54 0 2.012.842 3.538 2.677 3.538 1.062 0 1.903-.398 2.455-1.725l2.478 1.261c-1.062 1.88-2.986 3.119-5.242 3.119-3.517 0-5.95-2.235-5.95-6.194 0-3.894 2.588-6.194 5.84-6.194z" fill="currentColor"/>
</svg>
