<svg width="197" height="197" xmlns="http://www.w3.org/2000/svg"><g fill="none" fill-rule="evenodd"><path fill="#FFF" d="M13 14h169v169H13z"/><g fill="#212121"><path d="M135.4 0h47.8v13.4h-47.8zM135.6 13.6v47.8h-13.4V13.6zM196.8 13.2V61h-13.4V13.2z"/></g><g fill="#212121"><path d="M135.4 183.2h47.8v13.4h-47.8z"/><path d="M135.6 135.6v47.8h-13.4v-47.8zM196.8 135.2V183h-13.4v-47.8z"/></g><g fill="#212121"><path d="M74.4 0h47.8v13.4H74.4zM74.4 61.2h47.8v13.4H74.4z"/><path d="M74.6 13.6v47.8H61.2V13.6zM135.8 13.2V61h-13.4V13.2z"/></g><g fill="#212121"><path d="M74.4 61h47.8v13.4H74.4zM74.4 122.2h47.8v13.4H74.4z"/><path d="M74.6 74.6v47.8H61.2V74.6z"/></g><g fill="#212121"><path d="M74.4 122h47.8v13.4H74.4zM74.4 183.2h47.8v13.4H74.4z"/><path d="M74.6 135.6v47.8H61.2v-47.8zM135.8 135.2V183h-13.4v-47.8z"/></g><g fill="#212121"><path d="M13.4 0h47.8v13.4H13.4zM13.4 61.2h47.8v13.4H13.4z"/><path d="M13.6 13.6v47.8H.2V13.6zM74.8 13.2V61H61.4V13.2z"/></g><g fill="#212121"><path d="M13.4 61h47.8v13.4H13.4zM13.4 122.2h47.8v13.4H13.4z"/><path d="M13.6 74.6v47.8H.2V74.6zM74.8 74.2V122H61.4V74.2z"/></g><g fill="#212121"><path d="M13.4 122h47.8v13.4H13.4zM13.4 183.2h47.8v13.4H13.4z"/><path d="M13.6 135.6v47.8H.2v-47.8zM74.8 135.2V183H61.4v-47.8z"/></g><g fill="#FF6D5B"><path opacity=".4" d="M135.3 74.3h48.4v48.4h-48.4z"/><path d="M135.4 61h47.8v13.4h-47.8zM135.4 122.2h47.8v13.4h-47.8z"/><path d="M135.6 74.6v47.8h-13.4V74.6zM196.8 74.2V122h-13.4V74.2z"/></g></g></svg>