<svg width="296" height="387" xmlns="http://www.w3.org/2000/svg"><g fill="none" fill-rule="evenodd"><path fill="#FFF" d="M8 25h273.8v303.8H8z"/><path fill="#FFF" d="M27 13h242.8v364H27z"/><path fill="#212121" d="M248.1 50h13.7v152h-13.7zM26 0h244v13.4H26zM13.2 328h269.4v13.4H13.2zM175.6 270h71.3v13.4h-71.3zM49 202h200v13H49z"/><path fill="#212121" d="M49 38h200v13H49zM13.1 13h13.7v13.4H13.1zM38 280h25v13H38zM13.2 373h269.4v13.4H13.2zM282.1 26h13.7v302.3h-13.7z"/><path fill="#212121" d="M.1 26h13.7v302.3H.1zM269 328h14v58h-14z"/><path fill="#212121" d="M13 328h14v58H13zM36.1 50h13.7v152H36.1zM269.1 13h13.7v13.4h-13.7z"/><g fill="#212121"><path d="M196 64h26.3v13H196zM182.2 77H196v25h-13.7zM222.3 77H236v25h-13.7z"/></g><g fill="#212121"><path d="M155.8 64h26.4v13h-26.4zM155.8 102h26.4v13h-26.4zM142.1 77h13.7v25h-13.7zM182.2 77H196v25h-13.7z"/></g><g fill="#212121"><path d="M115.8 64h26.4v13h-26.4zM115.8 102h26.4v13h-26.4zM102 77h13.8v25H102zM142.2 77h13.7v25h-13.7z"/></g><g fill="#212121"><path d="M75.7 64h26.4v13H75.7zM75.7 102h26.4v13H75.7zM62 77h13.7v25H62zM102.1 77h13.7v25h-13.7z"/></g><g fill="#212121"><path d="M155.8 102h26.4v13h-26.4zM155.8 140h26.4v13h-26.4zM142.1 115h13.7v25h-13.7z"/></g><g fill="#212121"><path d="M115.8 102h26.4v13h-26.4zM115.8 140h26.4v13h-26.4zM102 115h13.8v25H102zM142.2 115h13.7v25h-13.7z"/></g><g fill="#212121"><path d="M75.7 102h26.4v13H75.7zM75.7 140h26.4v13H75.7zM62 115h13.7v25H62zM102.1 115h13.7v25h-13.7z"/></g><g fill="#212121"><path d="M155.8 140h26.4v13h-26.4zM155.8 178h26.4v13h-26.4zM142.1 153h13.7v25h-13.7zM182.2 153H196v25h-13.7z"/></g><g fill="#212121"><path d="M196 178h26.3v13H196zM182.2 153H196v25h-13.7zM222.3 153H236v25h-13.7z"/></g><g fill="#212121"><path d="M115.8 140h26.4v13h-26.4zM115.8 178h26.4v13h-26.4zM102 153h13.8v25H102zM142.2 153h13.7v25h-13.7z"/></g><g fill="#212121"><path d="M75.7 140h26.4v13H75.7zM75.7 178h26.4v13H75.7zM62 153h13.7v25H62zM102.1 153h13.7v25h-13.7z"/></g><g fill="#FF6D5B"><path opacity=".4" d="M196 115h26.3v25H196z"/><path d="M196 102h26.3v13H196zM196 140h26.3v13H196zM182.2 115H196v25h-13.7zM222.3 115H236v25h-13.7z"/></g></g></svg>