<svg
  xmlns="http://www.w3.org/2000/svg"
  preserveAspectRatio="xMidyMid meet"
  viewBox="0 0 160 174">
  <g id="certificates" fill="currentColor">
    <path
      d="M81.9692 60.9816C71.2925 60.9816 61.8973 64.9273 54.6369 72.2832C47.1637 79.8541 43.1068 89.6624 43.1068 99.8981C43.1068 110.239 47.0567 119.835 54.5311 127.299C62.0043 134.762 71.7205 138.813 81.9692 138.813C92.2178 138.813 102.148 134.762 109.835 127.192C117.096 120.049 120.938 110.56 120.938 99.8981C120.938 89.3431 117.096 79.7472 109.728 72.3901C102.255 64.9273 92.6458 60.9816 81.9692 60.9816ZM82.0761 68.0195C90.8307 68.0195 98.6248 71.3241 104.711 77.4017C110.689 83.3724 113.892 91.2625 113.892 99.8981C113.892 108.64 110.796 116.317 104.817 122.182C98.5166 128.365 90.4027 131.671 82.0749 131.671C73.6401 131.671 65.739 128.366 59.6542 122.289C53.5682 116.21 50.152 108.214 50.152 99.8981C50.152 91.475 53.5682 83.4792 59.6542 77.2948C65.6332 71.2185 73.3216 68.0195 82.0761 68.0195Z"
    />
    <path
      d="M81.0837 92.9766C78.9185 88.9382 75.2244 87.3309 70.9364 87.3309C64.6949 87.3309 59.7271 91.847 59.7271 99.4922C59.7271 107.266 64.3974 111.653 71.1493 111.653C75.4809 111.653 79.1737 109.221 81.2119 105.53L76.4558 103.054C75.3938 105.66 73.7814 106.442 71.7432 106.442C68.2185 106.442 66.6061 103.445 66.6061 99.4934C66.6061 95.5415 67.9644 92.5436 71.7432 92.5436C72.7617 92.5436 74.7999 93.109 75.9889 95.7135L81.0837 92.9766Z"
    />
    <path
      d="M103.786 92.9766C101.619 88.9382 97.9265 87.3309 93.6385 87.3309C87.397 87.3309 82.428 91.847 82.428 99.4922C82.428 107.266 87.0994 111.653 93.8502 111.653C98.1817 111.653 101.875 109.221 103.913 105.53L99.1567 103.054C98.0958 105.66 96.4823 106.442 94.4441 106.442C90.9205 106.442 89.3057 103.445 89.3057 99.4934C89.3057 95.5415 90.6653 92.5436 94.4441 92.5436C95.4626 92.5436 97.5007 93.109 98.691 95.7135L103.786 92.9766Z"
    />
    <path
      d="M13.4224 156.666C11.8536 156.666 10.6388 157.255 9.77818 158.434C8.91753 159.613 8.48722 161.256 8.48722 163.363C8.48722 167.747 10.1323 169.939 13.4224 169.939C14.8031 169.939 16.475 169.593 18.4384 168.903V172.4C16.8246 173.072 15.0227 173.408 13.0325 173.408C10.1726 173.408 7.98519 172.541 6.4701 170.806C4.95501 169.071 4.19747 166.581 4.19747 163.336C4.19747 161.292 4.56951 159.501 5.31361 157.964C6.05771 156.426 7.12677 155.247 8.52084 154.427C9.9149 153.607 11.5488 153.196 13.4224 153.196C15.332 153.196 17.2505 153.658 19.178 154.582L17.8332 157.97C17.0981 157.621 16.3585 157.316 15.6144 157.056C14.8703 156.796 14.1396 156.666 13.4224 156.666ZM28.524 160.741C27.6544 160.741 26.973 161.016 26.4799 161.568C25.9869 162.119 25.7045 162.901 25.6328 163.914H31.3883C31.3704 162.901 31.1059 162.119 30.5949 161.568C30.0839 161.016 29.3936 160.741 28.524 160.741ZM29.1022 173.408C26.6817 173.408 24.7901 172.74 23.4274 171.404C22.0647 170.069 21.3834 168.177 21.3834 165.73C21.3834 163.21 22.0131 161.263 23.2727 159.887C24.5323 158.51 26.2737 157.822 28.4971 157.822C30.6218 157.822 32.2758 158.428 33.4592 159.638C34.6426 160.848 35.2343 162.52 35.2343 164.654V166.644H25.5386C25.5835 167.809 25.9286 168.719 26.5741 169.374C27.2196 170.028 28.125 170.355 29.2905 170.355C30.1959 170.355 31.0521 170.261 31.8589 170.073C32.6658 169.885 33.5085 169.585 34.3871 169.172V172.346C33.6699 172.704 32.9034 172.971 32.0876 173.146C31.2717 173.321 30.2766 173.408 29.1022 173.408ZM46.9605 157.822C47.5163 157.822 47.978 157.863 48.3456 157.943L48.0363 161.789C47.7046 161.7 47.3011 161.655 46.826 161.655C45.5171 161.655 44.4973 161.991 43.7667 162.664C43.036 163.336 42.6707 164.277 42.6707 165.487V173.139H38.5692V158.105H41.6756L42.2807 160.633H42.4825C42.9486 159.79 43.5784 159.111 44.3718 158.596C45.1652 158.08 46.0281 157.822 46.9605 157.822ZM57.4092 170.14C58.1264 170.14 58.987 169.983 59.9911 169.67V172.722C58.9691 173.179 57.714 173.408 56.2258 173.408C54.5852 173.408 53.3906 172.993 52.642 172.164C51.8934 171.335 51.5192 170.091 51.5192 168.432V161.184H49.5558V159.45L51.815 158.078L52.9984 154.904H55.6206V158.105H59.8297V161.184H55.6206V168.432C55.6206 169.015 55.7843 169.446 56.1115 169.723C56.4387 170.001 56.8713 170.14 57.4092 170.14ZM62.8554 154.219C62.8554 152.883 63.5995 152.215 65.0877 152.215C66.5759 152.215 67.32 152.883 67.32 154.219C67.32 154.855 67.1339 155.35 66.7619 155.704C66.3898 156.059 65.8318 156.236 65.0877 156.236C63.5995 156.236 62.8554 155.563 62.8554 154.219ZM67.1317 173.139H63.0302V158.105H67.1317V173.139ZM79.7454 161.184H76.1953V173.139H72.0938V161.184H69.8346V159.208L72.0938 158.105V157.002C72.0938 155.29 72.5152 154.039 73.3579 153.25C74.2006 152.461 75.5498 152.067 77.4056 152.067C78.822 152.067 80.0816 152.278 81.1843 152.699L80.1354 155.711C79.3106 155.451 78.5486 155.321 77.8493 155.321C77.2666 155.321 76.8453 155.494 76.5853 155.839C76.3253 156.184 76.1953 156.626 76.1953 157.164V158.105H79.7454V161.184ZM81.9239 154.219C81.9239 152.883 82.668 152.215 84.1562 152.215C85.6444 152.215 86.3885 152.883 86.3885 154.219C86.3885 154.855 86.2025 155.35 85.8304 155.704C85.4584 156.059 84.9003 156.236 84.1562 156.236C82.668 156.236 81.9239 155.563 81.9239 154.219ZM86.2002 173.139H82.0987V158.105H86.2002V173.139ZM96.5951 173.408C91.9154 173.408 89.5755 170.84 89.5755 165.703C89.5755 163.148 90.212 161.196 91.4851 159.846C92.7581 158.497 94.5825 157.822 96.9582 157.822C98.6974 157.822 100.257 158.163 101.638 158.844L100.428 162.018C99.7822 161.758 99.1815 161.545 98.6257 161.379C98.0699 161.213 97.514 161.131 96.9582 161.131C94.8245 161.131 93.7577 162.646 93.7577 165.676C93.7577 168.616 94.8245 170.087 96.9582 170.087C97.7471 170.087 98.4778 169.981 99.1501 169.771C99.8225 169.56 100.495 169.23 101.167 168.782V172.292C100.504 172.713 99.8337 173.005 99.1569 173.166C98.48 173.327 97.6261 173.408 96.5951 173.408ZM114.198 173.139L113.404 171.095H113.297C112.607 171.965 111.896 172.568 111.165 172.904C110.435 173.24 109.482 173.408 108.308 173.408C106.865 173.408 105.728 172.996 104.899 172.171C104.07 171.346 103.655 170.172 103.655 168.648C103.655 167.052 104.213 165.875 105.329 165.118C106.445 164.36 108.129 163.941 110.379 163.86L112.988 163.78V163.121C112.988 161.597 112.208 160.835 110.648 160.835C109.446 160.835 108.034 161.198 106.412 161.924L105.054 159.154C106.784 158.248 108.702 157.796 110.809 157.796C112.826 157.796 114.373 158.235 115.448 159.113C116.524 159.992 117.062 161.328 117.062 163.121V173.139H114.198ZM112.988 166.173L111.401 166.227C110.208 166.263 109.321 166.478 108.738 166.873C108.155 167.267 107.864 167.868 107.864 168.675C107.864 169.831 108.528 170.409 109.854 170.409C110.805 170.409 111.564 170.136 112.134 169.589C112.703 169.042 112.988 168.316 112.988 167.41V166.173ZM127.618 170.14C128.336 170.14 129.196 169.983 130.2 169.67V172.722C129.178 173.179 127.923 173.408 126.435 173.408C124.794 173.408 123.6 172.993 122.851 172.164C122.103 171.335 121.728 170.091 121.728 168.432V161.184H119.765V159.45L122.024 158.078L123.208 154.904H125.83V158.105H130.039V161.184H125.83V168.432C125.83 169.015 125.994 169.446 126.321 169.723C126.648 170.001 127.081 170.14 127.618 170.14ZM139.466 160.741C138.596 160.741 137.915 161.016 137.422 161.568C136.929 162.119 136.646 162.901 136.574 163.914H142.33C142.312 162.901 142.048 162.119 141.537 161.568C141.026 161.016 140.335 160.741 139.466 160.741ZM140.044 173.408C137.623 173.408 135.732 172.74 134.369 171.404C133.006 170.069 132.325 168.177 132.325 165.73C132.325 163.21 132.955 161.263 134.214 159.887C135.474 158.51 137.215 157.822 139.439 157.822C141.564 157.822 143.218 158.428 144.401 159.638C145.584 160.848 146.176 162.52 146.176 164.654V166.644H136.48C136.525 167.809 136.87 168.719 137.516 169.374C138.161 170.028 139.067 170.355 140.232 170.355C141.138 170.355 141.994 170.261 142.801 170.073C143.608 169.885 144.45 169.585 145.329 169.172V172.346C144.612 172.704 143.845 172.971 143.029 173.146C142.213 173.321 141.218 173.408 140.044 173.408ZM160 168.675C160 170.217 159.464 171.391 158.393 172.198C157.322 173.005 155.719 173.408 153.586 173.408C152.492 173.408 151.559 173.334 150.788 173.186C150.017 173.038 149.296 172.821 148.623 172.534V169.145C149.385 169.504 150.244 169.804 151.199 170.046C152.153 170.288 152.994 170.409 153.72 170.409C155.208 170.409 155.952 169.979 155.952 169.118C155.952 168.796 155.854 168.533 155.656 168.332C155.459 168.13 155.119 167.901 154.634 167.646C154.188 167.41 153.603 167.138 152.881 166.829L152.698 166.752C151.542 166.267 150.692 165.819 150.15 165.407C149.607 164.994 149.213 164.522 148.966 163.988C148.72 163.455 148.597 162.798 148.597 162.018C148.597 160.682 149.114 159.649 150.15 158.918C151.185 158.188 152.653 157.822 154.554 157.822C156.365 157.822 158.126 158.217 159.839 159.006L158.601 161.964C157.848 161.642 157.145 161.377 156.49 161.171C155.836 160.965 155.168 160.862 154.487 160.862C153.276 160.862 152.671 161.189 152.671 161.843C152.671 162.211 152.866 162.529 153.256 162.798L153.359 162.865C153.786 163.132 154.605 163.508 155.818 163.995C156.992 164.47 157.853 164.914 158.4 165.326C158.947 165.739 159.35 166.214 159.61 166.752C159.87 167.289 160 167.93 160 168.675Z"
    />
  </g>
  <g id="monochrome_dots" fill="currentColor">
    <path
      d="M124.132 47.8101C137.137 47.8101 147.681 37.2668 147.681 24.261C147.681 11.2552 137.137 0.711914 124.132 0.711914C111.126 0.711914 100.583 11.2552 100.583 24.261C100.583 37.2668 111.126 47.8101 124.132 47.8101Z"
    />
    <path
      d="M60.2697 43.0204C70.6302 43.0204 79.0291 34.6215 79.0291 24.261C79.0291 13.9004 70.6302 5.50154 60.2697 5.50154C49.9091 5.50154 41.5102 13.9004 41.5102 24.261C41.5102 34.6215 49.9091 43.0204 60.2697 43.0204Z"
    />
    <path
      d="M21.5534 70.96C29.2687 70.96 35.5232 64.7055 35.5232 56.9902C35.5232 49.2749 29.2687 43.0204 21.5534 43.0204C13.8381 43.0204 7.5836 49.2749 7.5836 56.9902C7.5836 64.7055 13.8381 70.96 21.5534 70.96Z"
    />
    <path
      d="M10.9763 109.676C17.0383 109.676 21.9525 104.762 21.9525 98.7001C21.9525 92.638 17.0383 87.7238 10.9763 87.7238C4.91424 87.7238 0 92.638 0 98.7001C0 104.762 4.91424 109.676 10.9763 109.676Z"
    />
  </g>
  <g id="colorful_dots">
    <path
      d="M124.132 47.8101C137.137 47.8101 147.681 37.2668 147.681 24.261C147.681 11.2552 137.137 0.711914 124.132 0.711914C111.126 0.711914 100.583 11.2552 100.583 24.261C100.583 37.2668 111.126 47.8101 124.132 47.8101Z"
      fill="#5389C4"/>
    <path
      d="M60.2697 43.0204C70.6302 43.0204 79.0291 34.6215 79.0291 24.261C79.0291 13.9004 70.6302 5.50154 60.2697 5.50154C49.9091 5.50154 41.5102 13.9004 41.5102 24.261C41.5102 34.6215 49.9091 43.0204 60.2697 43.0204Z"
      fill="#DC4D17"/>
    <path
      d="M21.5534 70.96C29.2687 70.96 35.5232 64.7055 35.5232 56.9902C35.5232 49.2749 29.2687 43.0204 21.5534 43.0204C13.8381 43.0204 7.5836 49.2749 7.5836 56.9902C7.5836 64.7055 13.8381 70.96 21.5534 70.96Z"
      fill="#748C10"/>
    <path
      d="M10.9763 109.676C17.0383 109.676 21.9525 104.762 21.9525 98.7001C21.9525 92.638 17.0383 87.7238 10.9763 87.7238C4.91424 87.7238 0 92.638 0 98.7001C0 104.762 4.91424 109.676 10.9763 109.676Z"
      fill="#F4A42A"/>
  </g>
</svg>
