<svg
  xmlns="http://www.w3.org/2000/svg"
  preserveAspectRatio="xMidyMid meet"
  viewBox="0 0 250 79">
  <g id="globalnetwork" fill="currentColor">
    <path
      d="M165.253 5.31466V0H158.292V5.31466H165.253ZM158.291 7.97159V31.5326H165.252V7.97159H158.291ZM155.67 8.41453H151.52V1.59414H144.559V8.41453H141.168V12.6656H144.559V25.0667C144.559 28.4769 145.407 32.1524 151.342 32.1524C152.859 32.1524 154.912 31.9756 155.805 31.8863V26.439C155.447 26.4832 154.466 26.5717 153.708 26.5717C152.457 26.5717 151.521 26.0845 151.521 24.2242V12.6664H155.671V8.41453H155.67ZM77.7794 13.1094C75.5033 8.99095 71.621 7.35176 67.1143 7.35176C60.555 7.35176 55.3337 11.9574 55.3337 19.7521C55.3337 27.6795 60.2423 32.1532 67.337 32.1532C71.8883 32.1532 75.7706 29.6732 77.9122 25.9085L72.9146 23.3842C71.7984 26.0419 70.1031 26.8386 67.9615 26.8386C64.2574 26.8386 62.5621 23.7829 62.5621 19.7521C62.5621 15.7221 63.9901 12.6664 67.9615 12.6664C69.0323 12.6664 71.1747 13.242 72.4237 15.8998L77.7794 13.1094ZM77.7794 40.2149C75.5033 36.0964 71.621 34.4573 67.1143 34.4573C60.555 34.4573 55.3337 39.0629 55.3337 46.8584C55.3337 54.7858 60.2423 59.2587 67.337 59.2587C71.8883 59.2587 75.7706 56.7787 77.9122 53.0139L72.9146 50.4897C71.7984 53.1474 70.1031 53.9449 67.9615 53.9449C64.2574 53.9449 62.5621 50.8892 62.5621 46.8592C62.5621 42.8284 63.9901 39.7727 67.9615 39.7727C69.0323 39.7727 71.1747 40.3483 72.4237 43.0061L77.7794 40.2149ZM77.9089 46.8584C77.9089 38.9302 83.1293 34.4573 90.5367 34.4573C97.944 34.4573 103.165 38.931 103.165 46.8584C103.165 54.7858 97.944 59.2587 90.5367 59.2587C83.1293 59.2587 77.9089 54.7858 77.9089 46.8584ZM96.2041 46.5923C96.2041 42.8276 94.508 39.7719 90.5366 39.7719C86.5652 39.7719 84.8699 42.8284 84.8699 46.8584C84.8699 50.8884 86.5652 53.9441 90.5366 53.9441C94.508 53.9441 96.2041 50.8884 96.2041 46.5923ZM111.553 58.6381H104.592H104.591V35.0779H111.552V37.1592C113.337 35.0771 116.282 34.4573 118.424 34.4573C121.146 34.4573 123.153 35.52 124.716 37.6014C126.991 35.299 129.579 34.4573 132.346 34.4573C134.667 34.4573 139.664 35.2547 139.664 40.6578V58.6381H132.703V44.8655C132.703 41.5437 131.766 40.038 129.133 40.038C126.813 40.038 125.608 41.7648 125.608 44.1565V58.6389H118.647V43.8912C118.647 41.588 117.934 40.038 115.256 40.038C112.445 40.038 111.553 41.8541 111.553 43.9796V58.6381ZM141.892 58.6381H148.853V43.9796C148.853 41.8541 149.745 40.038 152.556 40.038C155.234 40.038 155.947 41.588 155.947 43.8912V58.6389H162.908V44.1565C162.908 41.7648 164.113 40.038 166.433 40.038C169.065 40.038 170.003 41.5437 170.003 44.8655V58.6381H176.964V40.6578C176.964 35.2547 171.966 34.4573 169.646 34.4573C166.879 34.4573 164.292 35.299 162.016 37.6014C160.454 35.52 158.446 34.4573 155.724 34.4573C153.582 34.4573 150.637 35.0771 148.852 37.1592V35.0779H141.891V58.6381H141.892ZM191.016 34.4573C183.608 34.4573 178.387 38.9302 178.387 46.8584C178.387 54.7858 183.608 59.2587 191.016 59.2587C198.423 59.2587 203.644 54.7858 203.644 46.8584C203.644 38.931 198.423 34.4573 191.016 34.4573ZM191.016 39.7719C194.986 39.7719 196.683 42.8276 196.683 46.5923C196.683 50.8884 194.986 53.9441 191.016 53.9441C187.044 53.9441 185.348 50.8884 185.348 46.8584C185.348 42.8284 187.044 39.7719 191.016 39.7719ZM205.517 58.6381H212.478V43.9796C212.478 41.8541 213.371 40.038 216.182 40.038C218.859 40.038 219.573 41.588 219.573 43.8912V58.6389H226.534V41.2334C226.534 37.6906 224.971 34.4573 219.349 34.4573C217.208 34.4573 214.262 35.0771 212.477 37.1592V35.0779H205.516V58.6381H205.517ZM239.292 34.4581C242.951 34.4581 246.565 35.7427 249.778 37.8683L245.492 42.0326C244.11 40.3942 241.12 39.5083 238.933 39.5083C237.193 39.5083 235.944 40.1281 235.944 41.3235C235.944 42.9493 238.232 43.3786 240.961 43.8908C244.997 44.6483 250 45.5872 250 50.845C250 57.0448 244.466 59.2596 239.291 59.2596C234.114 59.2596 231.17 57.798 227.689 54.6089L232.017 50.8892C234.16 52.9272 236.346 54.211 239.514 54.211C240.675 54.211 243.307 53.9457 243.307 51.8194C243.307 50.3541 241.074 49.9372 238.388 49.4357C234.335 48.6791 229.251 47.7299 229.251 42.6958C229.251 36.7613 234.472 34.4581 239.292 34.4581ZM86.4382 31.5326H79.4772V7.97158H86.4382V10.3632C87.9553 8.94592 90.4987 8.06083 92.953 7.88315L92.9975 13.9945L92.2394 14.0829C88.089 14.5701 86.4382 15.2791 86.4382 17.8918V31.5326ZM104.992 7.35176C113.649 7.35176 116.594 13.906 116.639 21.1694H100.306C100.35 25.6866 103.251 27.1039 105.482 27.1039C108.07 27.1039 109.275 25.7758 111.283 22.9412L116.504 25.6432C114.094 30.0719 110.302 32.1532 104.992 32.1532C97.6289 32.1532 93.3448 27.1039 93.3448 20.4611C93.3448 12.135 97.7625 7.35176 104.992 7.35176ZM104.947 12.4012C102.939 12.4012 100.529 13.8176 100.218 16.9183H109.677C109.454 13.4639 106.955 12.4012 104.947 12.4012ZM139.3 14.1721C139.255 8.85749 135.195 7.35176 128.724 7.35176C125.511 7.35176 119.175 7.97158 118.952 14.7477H125.646C126.003 12.4003 127.073 11.6037 129.304 11.6037C131.179 11.6037 132.607 12.3561 132.607 14.1279V16.0766L130.063 16.4311C122.478 17.4939 117.881 19.4868 117.881 25.156C117.881 29.6732 121.272 32.1532 125.824 32.1532C128.323 32.1532 131.803 30.9578 132.963 29.0976H133.052C133.097 29.8951 133.231 30.7359 133.498 31.5334H139.924C139.344 30.0719 139.3 28.2567 139.3 26.6175V14.1721ZM132.607 21.7008C132.607 25.2878 130.554 27.1039 127.832 27.1039C126.136 27.1039 124.574 26.3064 124.574 24.4469C124.574 22.5425 126.18 21.8785 127.921 21.3913L132.607 20.0624V21.7008ZM174.62 31.5326H181.626L189.748 7.97157H182.34L178.235 24.6238H178.146L174.04 7.97157H166.589L174.62 31.5326ZM212.227 21.1694C212.183 13.906 209.238 7.35176 200.581 7.35176C193.351 7.35176 188.935 12.135 188.935 20.4611C188.935 27.1039 193.218 32.1532 200.581 32.1532C205.892 32.1532 209.684 30.0719 212.094 25.6432L206.872 22.9412C204.865 25.7758 203.659 27.1039 201.072 27.1039C198.841 27.1039 195.94 25.6866 195.896 21.1694H212.227ZM195.806 16.9183C196.119 13.8176 198.528 12.4012 200.536 12.4012C202.544 12.4012 205.043 13.4639 205.266 16.9183H195.806ZM7.73488 14.4907C12.6055 9.58621 18.9082 6.95549 26.0706 6.95549C33.2329 6.95549 39.6792 9.58621 44.6925 14.5619C49.6349 19.4672 52.2129 25.8651 52.2129 32.9024C52.2129 40.011 49.6349 46.3377 44.7643 51.1005C39.6074 56.1474 32.9458 58.8485 26.0706 58.8485C19.1953 58.8485 12.6772 56.1474 7.66393 51.1717C2.64979 46.1952 0 39.7973 0 32.9024C0 26.0779 2.72156 19.5384 7.73488 14.4907ZM41.3266 17.9033C37.2439 13.8512 32.0153 11.6479 26.1423 11.6479C20.2694 11.6479 15.1117 13.7808 11.1007 17.8321C7.01797 21.9554 4.72622 27.2864 4.72622 32.9024C4.72622 38.4471 7.01797 43.7782 11.1007 47.8311C15.1827 51.8832 20.4831 54.0865 26.1415 54.0865C31.7282 54.0865 37.1713 51.8824 41.3976 47.7599C45.4086 43.8494 47.4858 38.7313 47.4858 32.9024C47.4858 27.1448 45.3368 21.8842 41.3266 17.9033ZM18.8843 24.8547C21.8088 24.8547 24.3282 25.9183 25.8049 28.5907L22.3302 30.4019C21.5192 28.6783 20.1292 28.3042 19.4345 28.3042C16.8573 28.3042 15.9309 30.2881 15.9309 32.9032C15.9309 35.5184 17.0306 37.5014 19.4345 37.5014C20.8246 37.5014 21.9243 36.984 22.6486 35.2596L25.8924 36.898C24.5023 39.3404 21.9837 40.9501 19.0295 40.9501C14.4245 40.9501 11.2393 38.0468 11.2393 32.9024C11.2393 27.8432 14.6275 24.8547 18.8843 24.8547ZM40.887 28.5907C39.4094 25.9183 36.8908 24.8547 33.9663 24.8547C29.7095 24.8547 26.3205 27.8432 26.3205 32.9024C26.3205 38.0468 29.5066 40.9501 34.1107 40.9501C37.0649 40.9501 39.5835 39.3404 40.9736 36.898L37.7298 35.2596C37.0063 36.984 35.9058 37.5014 34.5157 37.5014C32.1126 37.5014 31.0113 35.5184 31.0113 32.9032C31.0113 30.2881 31.9386 28.3042 34.5157 28.3042C35.2104 28.3042 36.6004 28.6783 37.4122 30.4019L40.887 28.5907ZM64.584 78.338C63.9464 78.338 63.3579 78.2252 62.8185 77.9996C62.2888 77.774 61.8327 77.4503 61.4502 77.0285C61.0676 76.5969 60.7685 76.0722 60.5527 75.4543C60.3369 74.8265 60.229 74.1203 60.229 73.3356C60.229 72.5608 60.3369 71.8643 60.5527 71.2464C60.7783 70.6285 61.0873 70.1037 61.4796 69.6721C61.8719 69.2406 62.3378 68.912 62.8773 68.6864C63.4266 68.451 64.02 68.3333 64.6575 68.3333C64.991 68.3333 65.2951 68.3676 65.5697 68.4363C65.8542 68.5049 66.1092 68.5981 66.3348 68.7158C66.5702 68.8237 66.7762 68.9512 66.9527 69.0984C67.1391 69.2357 67.3009 69.3779 67.4382 69.525L66.7615 70.3195C66.5163 70.0645 66.2318 69.8487 65.9081 69.6721C65.5844 69.4956 65.1774 69.4073 64.687 69.4073C64.1965 69.4073 63.7552 69.5005 63.3628 69.6869C62.9705 69.8634 62.637 70.1233 62.3624 70.4666C62.0877 70.8001 61.8719 71.2072 61.715 71.6878C61.5679 72.1684 61.4943 72.7079 61.4943 73.3062C61.4943 73.9143 61.563 74.4636 61.7003 74.954C61.8474 75.4346 62.0534 75.8466 62.3182 76.1899C62.5929 76.5332 62.9263 76.798 63.3187 76.9844C63.7208 77.1707 64.1818 77.2639 64.7017 77.2639C65.045 77.2639 65.3687 77.2149 65.6727 77.1168C65.9866 77.0089 66.2416 76.8667 66.4378 76.6901V74.1742H64.3927V73.1591H67.556V77.2198C67.2421 77.5435 66.8301 77.8132 66.3201 78.029C65.81 78.235 65.2313 78.338 64.584 78.338ZM74.4296 68.5098H75.6507V77.1168H79.8733V78.1614H74.4296V68.5098ZM87.641 77.9848C88.1511 78.2202 88.7101 78.338 89.3183 78.338C89.9264 78.338 90.4806 78.2202 90.9808 77.9848C91.4908 77.7494 91.9273 77.416 92.2902 76.9844C92.663 76.543 92.9474 76.0133 93.1436 75.3954C93.3496 74.7677 93.4525 74.0664 93.4525 73.2915C93.4525 72.5264 93.3496 71.8398 93.1436 71.2317C92.9474 70.6138 92.663 70.0939 92.2902 69.6721C91.9273 69.2406 91.4908 68.912 90.9808 68.6864C90.4806 68.451 89.9264 68.3333 89.3183 68.3333C88.7101 68.3333 88.1511 68.4461 87.641 68.6717C87.1408 68.8973 86.7092 69.2259 86.3463 69.6574C85.9834 70.0792 85.6989 70.5991 85.493 71.217C85.2968 71.8251 85.1987 72.5166 85.1987 73.2915C85.1987 74.0664 85.2968 74.7677 85.493 75.3954C85.6989 76.0133 85.9834 76.543 86.3463 76.9844C86.7092 77.416 87.1408 77.7494 87.641 77.9848ZM90.4806 76.9844C90.1373 77.1707 89.7498 77.2639 89.3183 77.2639C88.8867 77.2639 88.4944 77.1707 88.1413 76.9844C87.798 76.798 87.4988 76.5332 87.2438 76.1899C86.9986 75.8368 86.8073 75.4199 86.67 74.9393C86.5327 74.4489 86.464 73.8996 86.464 73.2915C86.464 72.6932 86.5327 72.1537 86.67 71.6731C86.8073 71.1925 86.9986 70.7854 87.2438 70.4519C87.4988 70.1184 87.798 69.8634 88.1413 69.6869C88.4944 69.5005 88.8867 69.4073 89.3183 69.4073C89.7498 69.4073 90.1373 69.5005 90.4806 69.6869C90.8337 69.8634 91.1328 70.1184 91.3781 70.4519C91.6331 70.7854 91.8292 71.1925 91.9666 71.6731C92.1039 72.1537 92.1725 72.6932 92.1725 73.2915C92.1725 73.8996 92.1039 74.4489 91.9666 74.9393C91.8292 75.4199 91.6331 75.8368 91.3781 76.1899C91.1328 76.5332 90.8337 76.798 90.4806 76.9844ZM100.089 68.5098H102.958C103.448 68.5098 103.895 68.554 104.297 68.6423C104.709 68.7305 105.057 68.8679 105.341 69.0542C105.636 69.2406 105.861 69.4858 106.018 69.7898C106.185 70.0841 106.268 70.4421 106.268 70.8639C106.268 71.3445 106.146 71.781 105.9 72.1733C105.665 72.5558 105.317 72.8207 104.856 72.9678V73.0266C105.444 73.1345 105.92 73.3798 106.283 73.7623C106.646 74.1448 106.827 74.6696 106.827 75.3365C106.827 75.8074 106.739 76.2193 106.563 76.5724C106.386 76.9255 106.136 77.2198 105.812 77.4552C105.488 77.6906 105.101 77.8671 104.65 77.9848C104.199 78.1025 103.703 78.1614 103.164 78.1614H100.089V68.5098ZM101.31 72.6147H102.737C103.561 72.6147 104.155 72.4725 104.517 72.188C104.88 71.9036 105.062 71.5161 105.062 71.0257C105.062 70.4666 104.871 70.0694 104.488 69.834C104.115 69.5986 103.551 69.4809 102.796 69.4809H101.31V72.6147ZM101.31 77.1904H102.987C103.821 77.1904 104.468 77.0383 104.929 76.7343C105.39 76.4204 105.621 75.9398 105.621 75.2924C105.621 74.6941 105.395 74.2576 104.944 73.983C104.493 73.6985 103.841 73.5563 102.987 73.5563H101.31V77.1904ZM114.506 74.2331L114.962 72.7618C115.138 72.2224 115.305 71.6878 115.462 71.1581C115.619 70.6187 115.771 70.0694 115.918 69.5103H115.977C116.134 70.0694 116.291 70.6187 116.448 71.1581C116.605 71.6878 116.772 72.2224 116.948 72.7618L117.404 74.2331H114.506ZM115.286 68.5098L112.019 78.1614H113.27L114.197 75.2188H117.713L118.625 78.1614H119.935L116.669 68.5098H115.286ZM125.863 68.5098H127.084V77.1168H131.307V78.1614H125.863V68.5098ZM146.351 68.5098H145.086V78.1614H146.248V73.1149C146.248 72.6049 146.228 72.0997 146.189 71.5995C146.16 71.0895 146.125 70.5892 146.086 70.0988H146.145L147.19 72.085L150.691 78.1614H151.957V68.5098H150.794V73.4975C150.794 74.0075 150.809 74.5274 150.838 75.057C150.878 75.5769 150.912 76.082 150.941 76.5724H150.883L149.838 74.5715L146.351 68.5098ZM159.173 68.5098H164.734V69.5397H160.394V72.5706H164.057V73.6152H160.394V77.1168H164.881V78.1614H159.173V68.5098ZM173.493 69.5397V78.1614H174.729V69.5397H177.642V68.5098H170.58V69.5397H173.493ZM182.955 68.5098H184.221L185.236 73.7623C185.324 74.2919 185.417 74.8118 185.515 75.3218C185.613 75.8319 185.707 76.3517 185.795 76.8814H185.854C185.962 76.3517 186.074 75.8319 186.192 75.3218C186.31 74.802 186.423 74.2821 186.531 73.7623L187.869 68.5098H188.988L190.326 73.7623C190.444 74.2723 190.562 74.7873 190.68 75.3071C190.797 75.827 190.915 76.3517 191.033 76.8814H191.092C191.18 76.3517 191.268 75.8319 191.356 75.3218C191.445 74.802 191.538 74.2821 191.636 73.7623L192.651 68.5098H193.828L191.827 78.1614H190.356L188.899 72.3499C188.811 71.9771 188.728 71.6142 188.649 71.2611C188.581 70.8982 188.507 70.5304 188.428 70.1577H188.37C188.291 70.5304 188.208 70.8982 188.12 71.2611C188.041 71.6142 187.963 71.9771 187.884 72.3499L186.457 78.1614H185L182.955 68.5098ZM201.865 77.9848C202.375 78.2202 202.934 78.338 203.543 78.338C204.151 78.338 204.705 78.2202 205.205 77.9848C205.715 77.7494 206.152 77.416 206.514 76.9844C206.887 76.543 207.172 76.0133 207.368 75.3954C207.574 74.7677 207.677 74.0664 207.677 73.2915C207.677 72.5264 207.574 71.8398 207.368 71.2317C207.172 70.6138 206.887 70.0939 206.514 69.6721C206.152 69.2406 205.715 68.912 205.205 68.6864C204.705 68.451 204.151 68.3333 203.543 68.3333C202.934 68.3333 202.375 68.4461 201.865 68.6717C201.365 68.8973 200.933 69.2259 200.571 69.6574C200.208 70.0792 199.923 70.5991 199.717 71.217C199.521 71.8251 199.423 72.5166 199.423 73.2915C199.423 74.0664 199.521 74.7677 199.717 75.3954C199.923 76.0133 200.208 76.543 200.571 76.9844C200.933 77.416 201.365 77.7494 201.865 77.9848ZM204.705 76.9844C204.362 77.1707 203.974 77.2639 203.543 77.2639C203.111 77.2639 202.719 77.1707 202.366 76.9844C202.022 76.798 201.723 76.5332 201.468 76.1899C201.223 75.8368 201.032 75.4199 200.894 74.9393C200.757 74.4489 200.688 73.8996 200.688 73.2915C200.688 72.6932 200.757 72.1537 200.894 71.6731C201.032 71.1925 201.223 70.7854 201.468 70.4519C201.723 70.1184 202.022 69.8634 202.366 69.6869C202.719 69.5005 203.111 69.4073 203.543 69.4073C203.974 69.4073 204.362 69.5005 204.705 69.6869C205.058 69.8634 205.357 70.1184 205.602 70.4519C205.857 70.7854 206.053 71.1925 206.191 71.6731C206.328 72.1537 206.397 72.6932 206.397 73.2915C206.397 73.8996 206.328 74.4489 206.191 74.9393C206.053 75.4199 205.857 75.8368 205.602 76.1899C205.357 76.5332 205.058 76.798 204.705 76.9844ZM214.313 68.5098H217.329C217.82 68.5098 218.271 68.5589 218.683 68.657C219.105 68.7452 219.463 68.8973 219.757 69.1131C220.061 69.3288 220.296 69.6084 220.463 69.9517C220.63 70.295 220.713 70.7168 220.713 71.217C220.713 71.9722 220.517 72.5755 220.125 73.0266C219.732 73.4778 219.203 73.7868 218.536 73.9536L220.993 78.1614H219.61L217.285 74.086H215.534V78.1614H214.313V68.5098ZM215.534 73.0855H217.153C217.908 73.0855 218.487 72.9335 218.889 72.6294C219.291 72.3155 219.492 71.8447 219.492 71.217C219.492 70.5794 219.291 70.1331 218.889 69.8781C218.487 69.6231 217.908 69.4956 217.153 69.4956H215.534V73.0855ZM228.472 68.5098H227.251V78.1614H228.472V75.1012L230.134 73.1444L233.018 78.1614H234.386L230.899 72.188L233.915 68.5098H232.532L228.516 73.3503H228.472V68.5098Z"
    />
  </g>
</svg>
