<svg
  xmlns="http://www.w3.org/2000/svg"
  preserveAspectRatio="xMidYMid meet"
  viewBox="0 0 250 76">
  <g id="opensource" fill="currentColor">
    <path
      d="M161.273 5.52461V0.337952H154.48V5.52461H161.273ZM154.479 8.11753V31.1111H161.272V8.11753H154.479ZM151.921 8.54987H147.87V1.89376H141.077V8.54987H137.768V12.6986H141.077V24.801C141.077 28.1291 141.905 31.716 147.697 31.716C149.178 31.716 151.181 31.5434 152.052 31.4563V26.1402C151.703 26.1834 150.745 26.2697 150.005 26.2697C148.785 26.2697 147.871 25.7942 147.871 23.9788V12.6994H151.922V8.54987H151.921ZM75.9061 13.1316C73.6849 9.1124 69.8961 7.5127 65.4978 7.5127C59.0965 7.5127 54.0011 12.0074 54.0011 19.6144C54.0011 27.3508 58.7914 31.7168 65.7152 31.7168C70.1569 31.7168 73.9457 29.2965 76.0358 25.6224L71.1585 23.159C70.0692 25.7527 68.4147 26.5302 66.3247 26.5302C62.7098 26.5302 61.0553 23.5481 61.0553 19.6144C61.0553 15.6814 62.449 12.6994 66.3247 12.6994C67.3697 12.6994 69.4605 13.2611 70.6795 15.8548L75.9061 13.1316ZM75.9061 39.5843C73.6849 35.5651 69.8961 33.9654 65.4978 33.9654C59.0965 33.9654 54.0011 38.46 54.0011 46.0678C54.0011 53.8043 58.7914 58.1695 65.7152 58.1695C70.1569 58.1695 73.9457 55.7491 76.0358 52.0751L71.1585 49.6116C70.0692 52.2053 68.4147 52.9836 66.3247 52.9836C62.7098 52.9836 61.0553 50.0016 61.0553 46.0686C61.0553 42.1349 62.449 39.1528 66.3247 39.1528C67.3697 39.1528 69.4605 39.7145 70.6795 42.3083L75.9061 39.5843ZM76.0325 46.0678C76.0325 38.3306 81.1271 33.9654 88.3561 33.9654C95.585 33.9654 100.68 38.3314 100.68 46.0678C100.68 53.8043 95.585 58.1695 88.3561 58.1695C81.1271 58.1695 76.0325 53.8043 76.0325 46.0678ZM93.8872 45.8081C93.8872 42.134 92.2319 39.1519 88.3561 39.1519C84.4804 39.1519 82.8259 42.1348 82.8259 46.0677C82.8259 50.0007 84.4804 52.9828 88.3561 52.9828C92.2319 52.9828 93.8872 50.0007 93.8872 45.8081ZM108.866 57.5638H102.072H102.072V34.571H108.865V36.6022C110.607 34.5702 113.481 33.9654 115.572 33.9654C118.228 33.9654 120.187 35.0025 121.712 37.0337C123.932 34.7868 126.458 33.9654 129.158 33.9654C131.423 33.9654 136.3 34.7436 136.3 40.0166V57.5638H129.507V44.1229C129.507 40.8812 128.592 39.4117 126.023 39.4117C123.759 39.4117 122.583 41.0969 122.583 43.4309V57.5646H115.79V43.1721C115.79 40.9243 115.093 39.4117 112.48 39.4117C109.737 39.4117 108.866 41.184 108.866 43.2583V57.5638ZM138.474 57.5638H145.268V43.2583C145.268 41.184 146.139 39.4117 148.882 39.4117C151.495 39.4117 152.191 40.9243 152.191 43.1721V57.5646H158.985V43.4309C158.985 41.0969 160.16 39.4117 162.424 39.4117C164.993 39.4117 165.909 40.8812 165.909 44.1229V57.5638H172.702V40.0166C172.702 34.7436 167.824 33.9654 165.56 33.9654C162.86 33.9654 160.335 34.7868 158.114 37.0337C156.59 35.0025 154.63 33.9654 151.973 33.9654C149.883 33.9654 147.009 34.5702 145.267 36.6022V34.571H138.473V57.5638H138.474ZM186.415 33.9654C179.186 33.9654 174.091 38.3306 174.091 46.0678C174.091 53.8043 179.185 58.1695 186.415 58.1695C193.644 58.1695 198.74 53.8043 198.74 46.0678C198.74 38.3314 193.644 33.9654 186.415 33.9654ZM186.415 39.1519C190.29 39.1519 191.945 42.134 191.945 45.8081C191.945 50.0007 190.29 52.9828 186.415 52.9828C182.54 52.9828 180.884 50.0007 180.884 46.0677C180.884 42.1348 182.54 39.1519 186.415 39.1519ZM200.567 57.5638H207.361V43.2583C207.361 41.184 208.232 39.4117 210.975 39.4117C213.588 39.4117 214.284 40.9243 214.284 43.1721V57.5646H221.078V40.5783C221.078 37.1208 219.553 33.9654 214.066 33.9654C211.976 33.9654 209.102 34.5702 207.36 36.6022V34.571H200.566V57.5638H200.567ZM233.529 33.9661C237.1 33.9661 240.626 35.2198 243.762 37.2942L239.58 41.3581C238.23 39.7592 235.313 38.8947 233.178 38.8947C231.48 38.8947 230.261 39.4995 230.261 40.6662C230.261 42.2528 232.494 42.6717 235.158 43.1716C239.097 43.9109 243.979 44.8271 243.979 49.9584C243.979 56.0088 238.578 58.1702 233.528 58.1702C228.476 58.1702 225.602 56.7439 222.205 53.6316L226.429 50.0015C228.52 51.9903 230.654 53.2433 233.745 53.2433C234.879 53.2433 237.447 52.9844 237.447 50.9092C237.447 49.4792 235.268 49.0724 232.647 48.583C228.691 47.8446 223.73 46.9182 223.73 42.0054C223.73 36.2138 228.824 33.9661 233.529 33.9661ZM84.3564 31.111H77.563V8.11749H84.3564V10.4515C85.8369 9.06837 88.3191 8.20459 90.7142 8.0312L90.7577 13.9953L90.0178 14.0816C85.9674 14.5571 84.3564 15.249 84.3564 17.7988V31.111ZM102.463 7.5127C110.912 7.5127 113.786 13.9091 113.829 20.9975H97.89C97.9335 25.4059 100.764 26.7891 102.941 26.7891C105.467 26.7891 106.643 25.493 108.603 22.7267L113.698 25.3636C111.346 29.6856 107.645 31.7168 102.463 31.7168C95.2775 31.7168 91.0966 26.7891 91.0966 20.3063C91.0966 12.1808 95.4079 7.5127 102.463 7.5127ZM102.42 12.4404C100.46 12.4404 98.1082 13.8228 97.8039 16.8488H107.035C106.818 13.4776 104.379 12.4404 102.42 12.4404ZM135.944 14.1688C135.901 8.98216 131.938 7.5127 125.624 7.5127C122.488 7.5127 116.305 8.11758 116.087 14.7305H122.619C122.968 12.4397 124.012 11.6622 126.19 11.6622C128.019 11.6622 129.413 12.3965 129.413 14.1257V16.0274L126.931 16.3734C119.528 17.4106 115.042 19.3555 115.042 24.8881C115.042 29.2965 118.352 31.7168 122.793 31.7168C125.232 31.7168 128.629 30.5502 129.761 28.7348H129.847C129.891 29.513 130.022 30.3337 130.283 31.1119H136.554C135.988 29.6856 135.944 27.9141 135.944 26.3144V14.1688ZM129.413 21.5161C129.413 25.0167 127.41 26.789 124.753 26.789C123.098 26.789 121.574 26.0107 121.574 24.1961C121.574 22.3375 123.141 21.6895 124.84 21.214L129.413 19.9172V21.5161ZM170.415 31.1111H177.252L185.178 8.11753H177.949L173.942 24.3687H173.856L169.848 8.11753H162.576L170.415 31.1111ZM207.116 20.9975C207.072 13.9091 204.198 7.5127 195.75 7.5127C188.694 7.5127 184.385 12.1808 184.385 20.3063C184.385 26.7891 188.564 31.7168 195.75 31.7168C200.933 31.7168 204.634 29.6856 206.985 25.3636L201.89 22.7267C199.93 25.493 198.754 26.7891 196.229 26.7891C194.052 26.7891 191.221 25.4059 191.178 20.9975H207.116ZM191.09 16.8488C191.395 13.8228 193.746 12.4404 195.706 12.4404C197.666 12.4404 200.105 13.4776 200.322 16.8488H191.09ZM7.54858 14.4796C12.3019 9.69324 18.4528 7.12588 25.4426 7.12588C32.4325 7.12588 38.7235 9.69324 43.6161 14.5491C48.4394 19.3362 50.9553 25.58 50.9553 32.4479C50.9553 39.3853 48.4394 45.5596 43.6861 50.2077C38.6535 55.133 32.1523 57.7691 25.4426 57.7691C18.733 57.7691 12.3719 55.133 7.47934 50.2772C2.58597 45.4205 0 39.1767 0 32.4479C0 25.7878 2.65601 19.4057 7.54858 14.4796ZM40.3313 17.81C36.3469 13.8555 31.2442 11.7053 25.5127 11.7053C19.7812 11.7053 14.7478 13.7868 10.8334 17.7405C6.84898 21.7646 4.61242 26.9672 4.61242 32.4479C4.61242 37.8591 6.84898 43.0617 10.8334 47.017C14.817 50.9715 19.9897 53.1218 25.5119 53.1218C30.964 53.1218 36.276 50.9707 40.4005 46.9475C44.3149 43.1312 46.3421 38.1364 46.3421 32.4479C46.3421 26.829 44.2449 21.695 40.3313 17.81ZM18.4294 24.594C21.2835 24.594 23.7422 25.632 25.1834 28.2401L21.7923 30.0076C21.0009 28.3256 19.6443 27.9604 18.9664 27.9604C16.4513 27.9604 15.5472 29.8965 15.5472 32.4487C15.5472 35.0009 16.6204 36.9362 18.9664 36.9362C20.323 36.9362 21.3962 36.4312 22.1031 34.7484L25.2687 36.3473C23.9121 38.7309 21.4542 40.3018 18.5711 40.3018C14.0771 40.3018 10.9686 37.4683 10.9686 32.4479C10.9686 27.5105 14.2751 24.594 18.4294 24.594ZM39.9021 28.2401C38.4602 25.632 36.0022 24.594 33.1481 24.594C28.9938 24.594 25.6865 27.5105 25.6865 32.4479C25.6865 37.4683 28.7958 40.3018 33.289 40.3018C36.1721 40.3018 38.63 38.7309 39.9866 36.3473L36.821 34.7484C36.1149 36.4312 35.0409 36.9362 33.6843 36.9362C31.3391 36.9362 30.2643 35.0009 30.2643 32.4487C30.2643 29.8965 31.1692 27.9604 33.6843 27.9604C34.3622 27.9604 35.7188 28.3256 36.511 30.0076L39.9021 28.2401ZM44.0142 72.8984V66.1589H45.1513V72.8984H44.0142ZM44.5967 64.7722C44.3748 64.7722 44.1853 64.7029 44.0281 64.5642C43.8802 64.4256 43.8062 64.2499 43.8062 64.0373C43.8062 63.8154 43.8802 63.6398 44.0281 63.5103C44.1853 63.3717 44.3748 63.3023 44.5967 63.3023C44.8185 63.3023 45.0034 63.3717 45.1513 63.5103C45.3085 63.6398 45.3871 63.8154 45.3871 64.0373C45.3871 64.2499 45.3085 64.4256 45.1513 64.5642C45.0034 64.7029 44.8185 64.7722 44.5967 64.7722ZM5.00956 73.0648C4.43638 73.0648 3.90943 72.9584 3.42871 72.7458C2.94798 72.5332 2.52735 72.2281 2.1668 71.8306C1.8155 71.4238 1.53816 70.9292 1.33478 70.3468C1.14064 69.7551 1.04357 69.0895 1.04357 68.3499C1.04357 67.6196 1.14526 66.9632 1.34864 66.3808C1.55203 65.7984 1.83399 65.3038 2.19454 64.897C2.55508 64.4903 2.98034 64.1806 3.47031 63.9679C3.96028 63.7461 4.49647 63.6351 5.07889 63.6351C5.63358 63.6351 6.11893 63.7507 6.53494 63.9818C6.9602 64.2037 7.30687 64.4625 7.57497 64.7584L6.95095 65.5072C6.71059 65.2483 6.43787 65.0403 6.13279 64.8832C5.82772 64.726 5.48104 64.6474 5.09276 64.6474C4.65826 64.6474 4.26536 64.7353 3.91406 64.9109C3.56276 65.0773 3.2623 65.3223 3.0127 65.6459C2.76309 65.9602 2.56895 66.3438 2.43028 66.7968C2.30085 67.2498 2.23614 67.7583 2.23614 68.3222C2.23614 68.8954 2.30085 69.4131 2.43028 69.8753C2.56895 70.3283 2.75847 70.7166 2.99883 71.0402C3.23919 71.3637 3.5304 71.6133 3.87246 71.789C4.22375 71.9646 4.61666 72.0525 5.05116 72.0525C5.49491 72.0525 5.88318 71.9646 6.21599 71.789C6.54881 71.6041 6.86313 71.3499 7.15896 71.0263L7.79684 71.7474C7.4363 72.1634 7.02953 72.487 6.57654 72.7181C6.12355 72.9492 5.60122 73.0648 5.00956 73.0648ZM11.7391 72.8984V66.1589H12.6821L12.7791 67.3792H12.8207C13.0519 66.954 13.3292 66.6166 13.6528 66.367C13.9856 66.1173 14.3461 65.9925 14.7344 65.9925C15.0025 65.9925 15.2429 66.0388 15.4555 66.1312L15.2336 67.1296C15.1227 67.0927 15.021 67.0649 14.9285 67.0464C14.8361 67.0279 14.7205 67.0187 14.5819 67.0187C14.2953 67.0187 13.9948 67.1343 13.6805 67.3654C13.3754 67.5965 13.1073 67.9986 12.8762 68.5718V72.8984H11.7391ZM20.2246 72.829C20.6221 72.9862 21.0474 73.0648 21.5004 73.0648C21.9626 73.0648 22.374 72.9954 22.7345 72.8568C23.0951 72.7181 23.4233 72.5563 23.7191 72.3714L23.3169 71.6226C23.0673 71.7797 22.8039 71.9092 22.5265 72.0109C22.2584 72.1033 21.9626 72.1495 21.639 72.1495C20.9919 72.1495 20.4649 71.9415 20.0582 71.5255C19.6607 71.1003 19.4388 70.5271 19.3926 69.806H23.941C23.9594 69.7228 23.9687 69.6257 23.9687 69.5148C23.9779 69.3946 23.9826 69.2744 23.9826 69.1542C23.9826 68.6735 23.9225 68.239 23.8023 67.8507C23.6821 67.4624 23.5065 67.1296 23.2753 66.8523C23.0535 66.575 22.7715 66.3623 22.4294 66.2144C22.0966 66.0665 21.7176 65.9925 21.2923 65.9925C20.9041 65.9925 20.5297 66.0757 20.1691 66.2421C19.8086 66.3993 19.485 66.6304 19.1984 66.9355C18.9211 67.2406 18.6946 67.615 18.5189 68.0587C18.3525 68.4932 18.2693 68.9878 18.2693 69.5425C18.2693 70.0972 18.3525 70.5918 18.5189 71.0263C18.6853 71.4608 18.9118 71.8306 19.1984 72.1357C19.4942 72.4315 19.8363 72.6626 20.2246 72.829ZM22.9841 68.9878H19.3787C19.4157 68.655 19.4896 68.3592 19.6006 68.1003C19.7207 67.8415 19.8687 67.6242 20.0443 67.4486C20.22 67.2637 20.4141 67.125 20.6267 67.0326C20.8486 66.9401 21.0797 66.8939 21.3201 66.8939C21.847 66.8939 22.2538 67.0742 22.5404 67.4347C22.8362 67.786 22.9841 68.3037 22.9841 68.9878ZM29.3688 73.0648C28.8049 73.0648 28.3334 72.8984 27.9544 72.5655C27.5846 72.2327 27.3997 71.7612 27.3997 71.1511C27.3997 70.4115 27.7279 69.8476 28.3843 69.4593C29.0407 69.0618 30.0899 68.7844 31.5321 68.6273C31.5321 68.4147 31.509 68.2066 31.4628 68.0033C31.4258 67.7999 31.3565 67.6196 31.2548 67.4624C31.1531 67.3053 31.0098 67.1805 30.8249 67.088C30.6492 66.9863 30.4227 66.9355 30.1454 66.9355C29.7571 66.9355 29.392 67.0095 29.0499 67.1574C28.7078 67.3053 28.4028 67.4717 28.1347 67.6566L27.6909 66.8662C28.0052 66.6628 28.3889 66.4686 28.8419 66.2837C29.2949 66.0896 29.7941 65.9925 30.3395 65.9925C31.1623 65.9925 31.7586 66.2468 32.1284 66.7552C32.4982 67.2544 32.6831 67.9247 32.6831 68.766V72.8984H31.7401L31.643 72.0941H31.6014C31.2779 72.3622 30.9312 72.5933 30.5614 72.7874C30.1916 72.9723 29.7941 73.0648 29.3688 73.0648ZM29.7017 72.1495C30.0252 72.1495 30.3303 72.0756 30.6169 71.9277C30.9035 71.7705 31.2085 71.544 31.5321 71.2482V69.3761C30.9682 69.4501 30.4921 69.5379 30.1038 69.6396C29.7248 69.7413 29.4151 69.8615 29.1747 70.0001C28.9436 70.1388 28.7726 70.3006 28.6616 70.4855C28.5599 70.6611 28.5091 70.8553 28.5091 71.0679C28.5091 71.4562 28.6246 71.7335 28.8558 71.8999C29.0869 72.0663 29.3688 72.1495 29.7017 72.1495ZM38.1777 72.8984C38.4273 73.0093 38.7324 73.0648 39.0929 73.0648C39.3056 73.0648 39.5182 73.037 39.7308 72.9816C39.9527 72.9353 40.1561 72.8799 40.341 72.8151L40.1191 71.9554C40.0082 72.0016 39.8834 72.0432 39.7447 72.0802C39.606 72.1172 39.4766 72.1357 39.3564 72.1357C38.9681 72.1357 38.6954 72.0247 38.5382 71.8028C38.3903 71.5717 38.3164 71.2482 38.3164 70.8322V67.088H40.133V66.1589H38.3164V64.273H37.3595L37.2209 66.1589L36.167 66.2283V67.088H37.1654V70.8183C37.1654 71.1511 37.1978 71.4562 37.2625 71.7335C37.3272 72.0109 37.4335 72.2466 37.5814 72.4407C37.7386 72.6349 37.9373 72.7874 38.1777 72.8984ZM48.8136 66.1589L51.2403 72.8984H52.5715L54.9567 66.1589H53.8334L52.5577 69.9863L52.2526 70.9847C52.1509 71.3175 52.0492 71.6457 51.9475 71.9693H51.892C51.7904 71.6457 51.684 71.3175 51.5731 70.9847L51.268 69.9863L49.9923 66.1589H48.8136ZM61.2924 73.0648C60.8394 73.0648 60.4142 72.9862 60.0167 72.829C59.6284 72.6626 59.2863 72.4315 58.9905 72.1357C58.7039 71.8306 58.4774 71.4608 58.311 71.0263C58.1446 70.5918 58.0614 70.0972 58.0614 69.5425C58.0614 68.9878 58.1446 68.4932 58.311 68.0587C58.4866 67.615 58.7131 67.2406 58.9905 66.9355C59.2771 66.6304 59.6006 66.3993 59.9612 66.2421C60.3217 66.0757 60.6961 65.9925 61.0844 65.9925C61.5097 65.9925 61.8887 66.0665 62.2215 66.2144C62.5636 66.3623 62.8455 66.575 63.0674 66.8523C63.2985 67.1296 63.4742 67.4624 63.5944 67.8507C63.7145 68.239 63.7746 68.6735 63.7746 69.1542C63.7746 69.2744 63.77 69.3946 63.7608 69.5148C63.7608 69.6257 63.7515 69.7228 63.733 69.806H59.1846C59.2308 70.5271 59.4527 71.1003 59.8502 71.5255C60.257 71.9415 60.784 72.1495 61.4311 72.1495C61.7547 72.1495 62.0505 72.1033 62.3186 72.0109C62.5959 71.9092 62.8594 71.7797 63.109 71.6226L63.5112 72.3714C63.2153 72.5563 62.8871 72.7181 62.5266 72.8568C62.166 72.9954 61.7547 73.0648 61.2924 73.0648ZM59.1708 68.9878H62.7762C62.7762 68.3037 62.6283 67.786 62.3325 67.4347C62.0459 67.0742 61.6391 66.8939 61.1122 66.8939C60.8718 66.8939 60.6407 66.9401 60.4188 67.0326C60.2062 67.125 60.012 67.2637 59.8364 67.4486C59.6607 67.6242 59.5128 67.8415 59.3926 68.1003C59.2817 68.3592 59.2077 68.655 59.1708 68.9878ZM74.9001 72.7458C75.3808 72.9584 75.9077 73.0648 76.4809 73.0648C77.0726 73.0648 77.5949 72.9492 78.0479 72.7181C78.5009 72.487 78.9076 72.1634 79.2682 71.7474L78.6303 71.0263C78.3345 71.3499 78.0201 71.6041 77.6873 71.789C77.3545 71.9646 76.9662 72.0525 76.5225 72.0525C76.088 72.0525 75.6951 71.9646 75.3438 71.789C75.0017 71.6133 74.7105 71.3637 74.4702 71.0402C74.2298 70.7166 74.0403 70.3283 73.9016 69.8753C73.7722 69.4131 73.7075 68.8954 73.7075 68.3222C73.7075 67.7583 73.7722 67.2498 73.9016 66.7968C74.0403 66.3438 74.2344 65.9602 74.484 65.6459C74.7336 65.3223 75.0341 65.0773 75.3854 64.9109C75.7367 64.7353 76.1296 64.6474 76.5641 64.6474C76.9524 64.6474 77.2991 64.726 77.6041 64.8832C77.9092 65.0403 78.1819 65.2483 78.4223 65.5072L79.0463 64.7584C78.7782 64.4625 78.4315 64.2037 78.0063 63.9818C77.5903 63.7507 77.1049 63.6351 76.5502 63.6351C75.9678 63.6351 75.4316 63.7461 74.9417 63.9679C74.4517 64.1806 74.0264 64.4903 73.6659 64.897C73.3053 65.3038 73.0234 65.7984 72.82 66.3808C72.6166 66.9632 72.5149 67.6196 72.5149 68.3499C72.5149 69.0895 72.612 69.7551 72.8061 70.3468C73.0095 70.9292 73.2868 71.4238 73.6381 71.8306C73.9987 72.2281 74.4193 72.5332 74.9001 72.7458ZM85.8313 73.0648C85.4153 73.0648 85.0178 72.9862 84.6388 72.829C84.269 72.6719 83.9408 72.4454 83.6542 72.1495C83.3676 71.8445 83.1365 71.4747 82.9609 71.0402C82.7944 70.5964 82.7112 70.0972 82.7112 69.5425C82.7112 68.9786 82.7944 68.4794 82.9609 68.0449C83.1365 67.6011 83.3676 67.2267 83.6542 66.9216C83.9408 66.6166 84.269 66.3854 84.6388 66.2283C85.0178 66.0711 85.4153 65.9925 85.8313 65.9925C86.2474 65.9925 86.6403 66.0711 87.01 66.2283C87.3891 66.3854 87.7219 66.6166 88.0085 66.9216C88.2951 67.2267 88.5216 67.6011 88.688 68.0449C88.8636 68.4794 88.9514 68.9786 88.9514 69.5425C88.9514 70.0972 88.8636 70.5964 88.688 71.0402C88.5216 71.4747 88.2951 71.8445 88.0085 72.1495C87.7219 72.4454 87.3891 72.6719 87.01 72.829C86.6403 72.9862 86.2474 73.0648 85.8313 73.0648ZM85.8313 72.1218C86.1179 72.1218 86.3814 72.0617 86.6218 71.9415C86.8621 71.8121 87.0655 71.6364 87.2319 71.4146C87.4076 71.1835 87.5416 70.9107 87.6341 70.5964C87.7265 70.2821 87.7727 69.9308 87.7727 69.5425C87.7727 69.1542 87.7265 68.8029 87.6341 68.4886C87.5416 68.165 87.4076 67.8877 87.2319 67.6566C87.0655 67.4255 86.8621 67.2498 86.6218 67.1296C86.3814 67.0002 86.1179 66.9355 85.8313 66.9355C85.5448 66.9355 85.2813 67.0002 85.0409 67.1296C84.8006 67.2498 84.5925 67.4255 84.4169 67.6566C84.2505 67.8877 84.1211 68.165 84.0286 68.4886C83.9362 68.8029 83.8899 69.1542 83.8899 69.5425C83.8899 69.9308 83.9362 70.2821 84.0286 70.5964C84.1211 70.9107 84.2505 71.1835 84.4169 71.4146C84.5925 71.6364 84.8006 71.8121 85.0409 71.9415C85.2813 72.0617 85.5448 72.1218 85.8313 72.1218ZM93.0837 66.1589V72.8984H94.2208V68.0171C94.8402 67.3238 95.4042 66.9771 95.9126 66.9771C96.3471 66.9771 96.6661 67.1204 96.8694 67.407C97.0728 67.6843 97.1745 68.1419 97.1745 68.7798V72.8984H98.3116V68.0171C98.931 67.3238 99.4949 66.9771 100.003 66.9771C100.429 66.9771 100.743 67.1204 100.946 67.407C101.15 67.6843 101.251 68.1419 101.251 68.7798V72.8984H102.389V68.6273C102.389 67.7583 102.218 67.1019 101.875 66.6582C101.543 66.2144 101.03 65.9925 100.336 65.9925C99.9202 65.9925 99.5319 66.1127 99.1714 66.3531C98.8201 66.5842 98.4688 66.8939 98.1175 67.2822C97.9788 66.8754 97.7616 66.5611 97.4657 66.3392C97.1791 66.1081 96.777 65.9925 96.2593 65.9925C95.8525 65.9925 95.4735 66.1035 95.1222 66.3253C94.7801 66.538 94.4612 66.8061 94.1654 67.1296H94.1238L94.0267 66.1589H93.0837ZM106.938 72.8984V66.1589H107.881L107.978 67.1296H108.02C108.316 66.8061 108.635 66.538 108.977 66.3253C109.328 66.1035 109.707 65.9925 110.114 65.9925C110.632 65.9925 111.034 66.1081 111.32 66.3392C111.616 66.5611 111.833 66.8754 111.972 67.2822C112.323 66.8939 112.675 66.5842 113.026 66.3531C113.387 66.1127 113.775 65.9925 114.191 65.9925C114.884 65.9925 115.397 66.2144 115.73 66.6582C116.072 67.1019 116.243 67.7583 116.243 68.6273V72.8984H115.106V68.7798C115.106 68.1419 115.004 67.6843 114.801 67.407C114.598 67.1204 114.283 66.9771 113.858 66.9771C113.35 66.9771 112.786 67.3238 112.166 68.0171V72.8984H111.029V68.7798C111.029 68.1419 110.927 67.6843 110.724 67.407C110.521 67.1204 110.202 66.9771 109.767 66.9771C109.259 66.9771 108.695 67.3238 108.075 68.0171V72.8984H106.938ZM122.221 72.829C122.6 72.9862 122.998 73.0648 123.414 73.0648C123.83 73.0648 124.223 72.9862 124.593 72.829C124.972 72.6719 125.304 72.4454 125.591 72.1495C125.878 71.8445 126.104 71.4747 126.27 71.0402C126.446 70.5964 126.534 70.0972 126.534 69.5425C126.534 68.9786 126.446 68.4794 126.27 68.0449C126.104 67.6011 125.878 67.2267 125.591 66.9216C125.304 66.6166 124.972 66.3854 124.593 66.2283C124.223 66.0711 123.83 65.9925 123.414 65.9925C122.998 65.9925 122.6 66.0711 122.221 66.2283C121.852 66.3854 121.523 66.6166 121.237 66.9216C120.95 67.2267 120.719 67.6011 120.543 68.0449C120.377 68.4794 120.294 68.9786 120.294 69.5425C120.294 70.0972 120.377 70.5964 120.543 71.0402C120.719 71.4747 120.95 71.8445 121.237 72.1495C121.523 72.4454 121.852 72.6719 122.221 72.829ZM124.204 71.9415C123.964 72.0617 123.7 72.1218 123.414 72.1218C123.127 72.1218 122.864 72.0617 122.623 71.9415C122.383 71.8121 122.175 71.6364 121.999 71.4146C121.833 71.1835 121.704 70.9107 121.611 70.5964C121.519 70.2821 121.472 69.9308 121.472 69.5425C121.472 69.1542 121.519 68.8029 121.611 68.4886C121.704 68.165 121.833 67.8877 121.999 67.6566C122.175 67.4255 122.383 67.2498 122.623 67.1296C122.864 67.0002 123.127 66.9355 123.414 66.9355C123.7 66.9355 123.964 67.0002 124.204 67.1296C124.445 67.2498 124.648 67.4255 124.814 67.6566C124.99 67.8877 125.124 68.165 125.217 68.4886C125.309 68.8029 125.355 69.1542 125.355 69.5425C125.355 69.9308 125.309 70.2821 125.217 70.5964C125.124 70.9107 124.99 71.1835 124.814 71.4146C124.648 71.6364 124.445 71.8121 124.204 71.9415ZM130.666 72.8984V66.1589H131.609L131.706 67.1296H131.748C132.071 66.8061 132.409 66.538 132.76 66.3253C133.121 66.1035 133.537 65.9925 134.008 65.9925C134.72 65.9925 135.238 66.2144 135.561 66.6582C135.894 67.1019 136.061 67.7583 136.061 68.6273V72.8984H134.923V68.7798C134.923 68.1419 134.822 67.6843 134.618 67.407C134.415 67.1204 134.091 66.9771 133.648 66.9771C133.296 66.9771 132.987 67.0649 132.719 67.2406C132.451 67.4162 132.145 67.6751 131.803 68.0171V72.8984H130.666ZM140.996 72.8013C141.43 72.9769 141.888 73.0648 142.368 73.0648C142.766 73.0648 143.117 73.0093 143.422 72.8984C143.737 72.7967 143.995 72.6534 144.199 72.4685C144.411 72.2836 144.569 72.0709 144.67 71.8306C144.781 71.5902 144.837 71.3314 144.837 71.054C144.837 70.7397 144.772 70.4716 144.643 70.2497C144.522 70.0279 144.365 69.843 144.171 69.6951C143.977 69.5379 143.755 69.4085 143.505 69.3068C143.265 69.2051 143.025 69.108 142.784 69.0156C142.59 68.9416 142.401 68.8723 142.216 68.8076C142.04 68.7336 141.883 68.655 141.744 68.5718C141.606 68.4794 141.495 68.3777 141.412 68.2667C141.328 68.1466 141.287 68.0079 141.287 67.8507C141.287 67.5919 141.384 67.3654 141.578 67.1712C141.781 66.9771 142.096 66.88 142.521 66.88C142.817 66.88 143.089 66.9355 143.339 67.0464C143.589 67.1574 143.829 67.3007 144.06 67.4763L144.601 66.7552C144.342 66.5426 144.032 66.3623 143.672 66.2144C143.321 66.0665 142.932 65.9925 142.507 65.9925C142.146 65.9925 141.823 66.0434 141.536 66.1451C141.25 66.2375 141.005 66.3716 140.801 66.5472C140.607 66.7136 140.455 66.917 140.344 67.1574C140.242 67.3885 140.191 67.6381 140.191 67.9062C140.191 68.1928 140.251 68.4378 140.371 68.6412C140.492 68.8445 140.644 69.0248 140.829 69.182C141.023 69.3299 141.24 69.4593 141.481 69.5702C141.721 69.6719 141.962 69.7644 142.202 69.8476L142.757 70.0695C142.942 70.1434 143.103 70.2312 143.242 70.3329C143.39 70.4254 143.51 70.5363 143.603 70.6657C143.695 70.7952 143.741 70.9477 143.741 71.1234C143.741 71.4192 143.63 71.6688 143.408 71.8722C143.187 72.0756 142.854 72.1773 142.41 72.1773C142.003 72.1773 141.643 72.1033 141.328 71.9554C141.023 71.8075 140.723 71.6133 140.427 71.373L139.858 72.1357C140.182 72.4038 140.561 72.6256 140.996 72.8013ZM157.374 73.0648C156.801 73.0648 156.274 72.9538 155.794 72.7319C155.322 72.5101 154.915 72.1957 154.573 71.789C154.231 71.373 153.963 70.8738 153.769 70.2913C153.584 69.6997 153.492 69.0387 153.492 68.3083C153.492 67.578 153.584 66.9263 153.769 66.3531C153.963 65.7707 154.231 65.2807 154.573 64.8832C154.915 64.4764 155.322 64.1667 155.794 63.9541C156.274 63.7414 156.801 63.6351 157.374 63.6351C157.948 63.6351 158.47 63.7461 158.941 63.9679C159.422 64.1806 159.834 64.4903 160.176 64.897C160.527 65.2946 160.795 65.7845 160.98 66.367C161.174 66.9401 161.271 67.5872 161.271 68.3083C161.271 69.0387 161.174 69.6997 160.98 70.2913C160.795 70.8738 160.527 71.373 160.176 71.789C159.834 72.1957 159.422 72.5101 158.941 72.7319C158.47 72.9538 157.948 73.0648 157.374 73.0648ZM157.374 72.0525C157.781 72.0525 158.146 71.9646 158.47 71.789C158.803 71.6133 159.085 71.3637 159.316 71.0402C159.556 70.7074 159.741 70.3144 159.871 69.8615C160 69.3992 160.065 68.8815 160.065 68.3083C160.065 67.7444 160 67.236 159.871 66.783C159.741 66.33 159.556 65.9463 159.316 65.632C159.085 65.3177 158.803 65.0773 158.47 64.9109C158.146 64.7353 157.781 64.6474 157.374 64.6474C156.968 64.6474 156.598 64.7353 156.265 64.9109C155.942 65.0773 155.66 65.3177 155.419 65.632C155.188 65.9463 155.008 66.33 154.878 66.783C154.749 67.236 154.684 67.7444 154.684 68.3083C154.684 68.8815 154.749 69.3992 154.878 69.8615C155.008 70.3144 155.188 70.7074 155.419 71.0402C155.66 71.3637 155.942 71.6133 156.265 71.789C156.598 71.9646 156.968 72.0525 157.374 72.0525ZM165.474 66.1589V75.7411H166.611V73.4669L166.583 72.2882C166.897 72.5286 167.207 72.7181 167.512 72.8568C167.827 72.9954 168.141 73.0648 168.455 73.0648C168.843 73.0648 169.213 72.9862 169.565 72.829C169.916 72.6626 170.226 72.4222 170.494 72.1079C170.762 71.7936 170.974 71.4146 171.132 70.9708C171.289 70.5178 171.367 70.0047 171.367 69.4316C171.367 68.9046 171.307 68.4331 171.187 68.0171C171.076 67.5919 170.91 67.2313 170.688 66.9355C170.466 66.6304 170.189 66.3993 169.856 66.2421C169.523 66.0757 169.139 65.9925 168.705 65.9925C168.307 65.9925 167.924 66.085 167.554 66.2699C167.193 66.4548 166.86 66.6766 166.555 66.9355H166.514L166.417 66.1589H165.474ZM169.024 71.9277C168.793 72.0478 168.538 72.1079 168.261 72.1079C168.039 72.1079 167.785 72.0571 167.498 71.9554C167.212 71.8445 166.916 71.6596 166.611 71.4007V67.8646C166.944 67.5688 167.253 67.3423 167.54 67.1851C167.836 67.0279 168.127 66.9494 168.414 66.9494C168.728 66.9494 168.996 67.0095 169.218 67.1296C169.449 67.2498 169.634 67.4208 169.773 67.6427C169.92 67.8553 170.027 68.1142 170.091 68.4193C170.156 68.7244 170.189 69.0618 170.189 69.4316C170.189 69.8476 170.138 70.222 170.036 70.5548C169.944 70.8876 169.81 71.1696 169.634 71.4007C169.467 71.6226 169.264 71.7982 169.024 71.9277ZM178.255 73.0648C177.802 73.0648 177.377 72.9862 176.979 72.829C176.591 72.6626 176.249 72.4315 175.953 72.1357C175.666 71.8306 175.44 71.4608 175.273 71.0263C175.107 70.5918 175.024 70.0972 175.024 69.5425C175.024 68.9878 175.107 68.4932 175.273 68.0587C175.449 67.615 175.676 67.2406 175.953 66.9355C176.24 66.6304 176.563 66.3993 176.924 66.2421C177.284 66.0757 177.659 65.9925 178.047 65.9925C178.472 65.9925 178.851 66.0665 179.184 66.2144C179.526 66.3623 179.808 66.575 180.03 66.8523C180.261 67.1296 180.437 67.4624 180.557 67.8507C180.677 68.239 180.737 68.6735 180.737 69.1542C180.737 69.2744 180.732 69.3946 180.723 69.5148C180.723 69.6257 180.714 69.7228 180.695 69.806H176.147C176.193 70.5271 176.415 71.1003 176.813 71.5255C177.219 71.9415 177.746 72.1495 178.394 72.1495C178.717 72.1495 179.013 72.1033 179.281 72.0109C179.558 71.9092 179.822 71.7797 180.071 71.6226L180.474 72.3714C180.178 72.5563 179.85 72.7181 179.489 72.8568C179.129 72.9954 178.717 73.0648 178.255 73.0648ZM176.133 68.9878H179.739C179.739 68.3037 179.591 67.786 179.295 67.4347C179.008 67.0742 178.602 66.8939 178.075 66.8939C177.834 66.8939 177.603 66.9401 177.381 67.0326C177.169 67.125 176.974 67.2637 176.799 67.4486C176.623 67.6242 176.475 67.8415 176.355 68.1003C176.244 68.3592 176.17 68.655 176.133 68.9878ZM184.76 66.1589V72.8984H185.897V68.0171C186.239 67.6751 186.544 67.4162 186.812 67.2406C187.08 67.0649 187.39 66.9771 187.741 66.9771C188.185 66.9771 188.509 67.1204 188.712 67.407C188.915 67.6843 189.017 68.1419 189.017 68.7798V72.8984H190.154V68.6273C190.154 67.7583 189.988 67.1019 189.655 66.6582C189.331 66.2144 188.814 65.9925 188.102 65.9925C187.63 65.9925 187.214 66.1035 186.854 66.3253C186.502 66.538 186.165 66.8061 185.841 67.1296H185.8L185.703 66.1589H184.76ZM202.469 73.0648C201.831 73.0648 201.24 72.9446 200.694 72.7042C200.149 72.4638 199.677 72.1357 199.28 71.7197L199.973 70.9154C200.297 71.2574 200.676 71.5348 201.11 71.7474C201.554 71.9508 202.012 72.0525 202.483 72.0525C203.084 72.0525 203.551 71.9184 203.884 71.6503C204.216 71.373 204.383 71.0124 204.383 70.5687C204.383 70.3376 204.341 70.1434 204.258 69.9863C204.184 69.8199 204.078 69.6812 203.939 69.5702C203.81 69.4501 203.652 69.3438 203.468 69.2513C203.283 69.1589 203.084 69.0618 202.871 68.9601L201.568 68.3915C201.355 68.2991 201.138 68.1882 200.916 68.0587C200.694 67.9293 200.495 67.7721 200.32 67.5872C200.144 67.4024 200.001 67.1851 199.89 66.9355C199.779 66.6766 199.723 66.3808 199.723 66.048C199.723 65.7059 199.793 65.387 199.931 65.0912C200.079 64.7953 200.278 64.5411 200.528 64.3285C200.787 64.1066 201.087 63.9356 201.429 63.8154C201.78 63.6952 202.164 63.6351 202.58 63.6351C203.125 63.6351 203.629 63.7414 204.092 63.9541C204.554 64.1575 204.947 64.4256 205.27 64.7584L204.646 65.5072C204.369 65.2391 204.059 65.0311 203.717 64.8832C203.384 64.726 203.005 64.6474 202.58 64.6474C202.072 64.6474 201.66 64.7676 201.346 65.008C201.041 65.2391 200.888 65.5627 200.888 65.9787C200.888 66.2005 200.93 66.3901 201.013 66.5472C201.106 66.6951 201.226 66.8292 201.374 66.9494C201.522 67.0603 201.683 67.162 201.859 67.2544C202.035 67.3376 202.215 67.4162 202.4 67.4902L203.689 68.0449C203.948 68.1558 204.193 68.2852 204.424 68.4331C204.655 68.5718 204.854 68.7382 205.021 68.9324C205.187 69.1173 205.316 69.3391 205.409 69.598C205.511 69.8476 205.561 70.1388 205.561 70.4716C205.561 70.8322 205.488 71.1696 205.34 71.4839C205.201 71.7982 204.998 72.0756 204.729 72.3159C204.461 72.5471 204.138 72.7319 203.759 72.8706C203.38 73 202.95 73.0648 202.469 73.0648ZM211.028 72.829C211.407 72.9862 211.804 73.0648 212.22 73.0648C212.636 73.0648 213.029 72.9862 213.399 72.829C213.778 72.6719 214.111 72.4454 214.397 72.1495C214.684 71.8445 214.91 71.4747 215.077 71.0402C215.252 70.5964 215.34 70.0972 215.34 69.5425C215.34 68.9786 215.252 68.4794 215.077 68.0449C214.91 67.6011 214.684 67.2267 214.397 66.9216C214.111 66.6166 213.778 66.3854 213.399 66.2283C213.029 66.0711 212.636 65.9925 212.22 65.9925C211.804 65.9925 211.407 66.0711 211.028 66.2283C210.658 66.3854 210.33 66.6166 210.043 66.9216C209.756 67.2267 209.525 67.6011 209.35 68.0449C209.183 68.4794 209.1 68.9786 209.1 69.5425C209.1 70.0972 209.183 70.5964 209.35 71.0402C209.525 71.4747 209.756 71.8445 210.043 72.1495C210.33 72.4454 210.658 72.6719 211.028 72.829ZM213.011 71.9415C212.77 72.0617 212.507 72.1218 212.22 72.1218C211.934 72.1218 211.67 72.0617 211.43 71.9415C211.189 71.8121 210.981 71.6364 210.806 71.4146C210.639 71.1835 210.51 70.9107 210.417 70.5964C210.325 70.2821 210.279 69.9308 210.279 69.5425C210.279 69.1542 210.325 68.8029 210.417 68.4886C210.51 68.165 210.639 67.8877 210.806 67.6566C210.981 67.4255 211.189 67.2498 211.43 67.1296C211.67 67.0002 211.934 66.9355 212.22 66.9355C212.507 66.9355 212.77 67.0002 213.011 67.1296C213.251 67.2498 213.454 67.4255 213.621 67.6566C213.796 67.8877 213.93 68.165 214.023 68.4886C214.115 68.8029 214.162 69.1542 214.162 69.5425C214.162 69.9308 214.115 70.2821 214.023 70.5964C213.93 70.9107 213.796 71.1835 213.621 71.4146C213.454 71.6364 213.251 71.8121 213.011 71.9415ZM221.442 73.0648C220.721 73.0648 220.194 72.8429 219.861 72.3991C219.537 71.9554 219.375 71.299 219.375 70.43V66.1589H220.526V70.2775C220.526 70.9154 220.624 71.3776 220.818 71.6642C221.021 71.9415 221.345 72.0802 221.788 72.0802C222.14 72.0802 222.449 71.9924 222.717 71.8167C222.986 71.6318 223.281 71.3406 223.605 70.9431V66.1589H224.742V72.8984H223.799L223.702 71.8445H223.66C223.346 72.2142 223.013 72.5101 222.662 72.7319C222.32 72.9538 221.913 73.0648 221.442 73.0648ZM229.373 66.1589V72.8984H230.51V68.5718C230.741 67.9986 231.009 67.5965 231.314 67.3654C231.629 67.1343 231.929 67.0187 232.216 67.0187C232.354 67.0187 232.47 67.0279 232.562 67.0464C232.655 67.0649 232.756 67.0927 232.867 67.1296L233.089 66.1312C232.877 66.0388 232.636 65.9925 232.368 65.9925C231.98 65.9925 231.619 66.1173 231.287 66.367C230.963 66.6166 230.686 66.954 230.455 67.3792H230.413L230.316 66.1589H229.373ZM239.065 73.0648C238.621 73.0648 238.205 72.9862 237.817 72.829C237.428 72.6719 237.091 72.4454 236.804 72.1495C236.527 71.8445 236.305 71.4747 236.139 71.0402C235.982 70.5964 235.903 70.0972 235.903 69.5425C235.903 68.9786 235.991 68.4794 236.167 68.0449C236.342 67.6011 236.578 67.2267 236.874 66.9216C237.17 66.6166 237.512 66.3854 237.9 66.2283C238.297 66.0711 238.714 65.9925 239.148 65.9925C239.592 65.9925 239.971 66.0711 240.285 66.2283C240.599 66.3854 240.877 66.5703 241.117 66.783L240.535 67.5318C240.341 67.3561 240.133 67.2128 239.911 67.1019C239.698 66.991 239.458 66.9355 239.19 66.9355C238.885 66.9355 238.603 67.0002 238.344 67.1296C238.085 67.2498 237.863 67.4255 237.678 67.6566C237.493 67.8877 237.345 68.165 237.234 68.4886C237.133 68.8029 237.082 69.1542 237.082 69.5425C237.082 69.9308 237.133 70.2821 237.234 70.5964C237.336 70.9107 237.475 71.1835 237.65 71.4146C237.835 71.6364 238.057 71.8121 238.316 71.9415C238.575 72.0617 238.857 72.1218 239.162 72.1218C239.476 72.1218 239.763 72.0571 240.022 71.9277C240.29 71.789 240.53 71.6272 240.743 71.4423L241.242 72.205C240.937 72.4731 240.599 72.6857 240.23 72.8429C239.86 72.9908 239.472 73.0648 239.065 73.0648ZM246.242 72.829C246.64 72.9862 247.065 73.0648 247.518 73.0648C247.98 73.0648 248.391 72.9954 248.752 72.8568C249.112 72.7181 249.441 72.5563 249.737 72.3714L249.334 71.6226C249.085 71.7797 248.821 71.9092 248.544 72.0109C248.276 72.1033 247.98 72.1495 247.656 72.1495C247.009 72.1495 246.482 71.9415 246.076 71.5255C245.678 71.1003 245.456 70.5271 245.41 69.806H249.958C249.977 69.7228 249.986 69.6257 249.986 69.5148C249.995 69.3946 250 69.2744 250 69.1542C250 68.6735 249.94 68.239 249.82 67.8507C249.7 67.4624 249.524 67.1296 249.293 66.8523C249.071 66.575 248.789 66.3623 248.447 66.2144C248.114 66.0665 247.735 65.9925 247.31 65.9925C246.921 65.9925 246.547 66.0757 246.187 66.2421C245.826 66.3993 245.502 66.6304 245.216 66.9355C244.939 67.2406 244.712 67.615 244.536 68.0587C244.37 68.4932 244.287 68.9878 244.287 69.5425C244.287 70.0972 244.37 70.5918 244.536 71.0263C244.703 71.4608 244.929 71.8306 245.216 72.1357C245.512 72.4315 245.854 72.6626 246.242 72.829ZM249.002 68.9878H245.396C245.433 68.655 245.507 68.3592 245.618 68.1003C245.738 67.8415 245.886 67.6242 246.062 67.4486C246.237 67.2637 246.432 67.125 246.644 67.0326C246.866 66.9401 247.097 66.8939 247.337 66.8939C247.864 66.8939 248.271 67.0742 248.558 67.4347C248.854 67.786 249.002 68.3037 249.002 68.9878Z"
    />
  </g>
</svg>
