<svg
  xmlns="http://www.w3.org/2000/svg"
  preserveAspectRatio="xMidyMid meet"
  viewBox="0 0 250 81">
  <g id="search" fill="currentColor">
    <path
      d="M92.731 59.0157C89.523 58.1476 84.3146 55.166 84.3146 54.2602C84.3146 53.8451 88.8059 48.2593 89.1078 48.2593C89.1833 48.2593 90.0513 48.7877 90.9949 49.467C93.4103 51.1277 96.0522 52.0335 98.3922 52.0335C103.336 52.0335 104.922 47.8819 100.732 45.8061C99.9019 45.391 97.3355 44.221 95.0332 43.2397C88.0888 40.2581 85.8243 37.5407 85.8243 32.1814C85.8243 29.9547 86.013 29.1244 86.881 27.4637C90.5042 20.5193 101.374 19.0096 109.149 24.3312C110.432 25.237 111.073 25.9163 110.96 26.256C110.847 26.5579 109.866 27.8789 108.771 29.1621L106.809 31.5776L104.431 30.2566C100.242 27.9544 95.6371 28.294 94.7313 31.0114C94.4294 31.8417 94.5048 32.2569 95.1464 33.0872C95.8635 34.0685 97.4864 34.8988 104.167 37.6162C109.79 39.8807 112.017 42.7868 112.055 47.8819C112.055 50.2219 111.866 51.0899 110.998 52.8638C109.715 55.468 107.563 57.3928 104.733 58.525C102.015 59.5818 95.6371 59.846 92.731 59.0157Z"
    />
    <path
      d="M125.415 59.0156C119.641 57.1663 116.018 51.656 116.018 44.8625C116.055 38.4842 118.81 33.6911 123.868 31.2001C126.132 30.0679 126.698 29.9546 129.604 29.9924C133.228 29.9924 135.303 30.7095 137.643 32.7475C140.285 35.0875 142.021 40.711 141.493 45.3532L141.229 47.5045H132.963C126.283 47.5045 124.698 47.6177 124.698 48.0328C124.698 48.8632 126.359 51.0144 127.68 51.9202C129.378 53.0525 133.19 53.1279 135.605 52.0334C136.511 51.6183 137.379 51.2786 137.53 51.2786C137.719 51.2786 138.474 52.4109 139.229 53.7696L140.663 56.2982L139.757 56.9776C136.851 59.2043 129.265 60.2611 125.415 59.0156ZM134.133 41.1261C134.133 40.3713 133.303 38.5975 132.548 37.8049C130.397 35.5026 126.245 36.7104 124.887 40.0694L124.321 41.4658H129.227C132.02 41.4658 134.133 41.3148 134.133 41.1261Z"
    />
    <path
      d="M149.796 58.9025C146.701 57.4305 145.079 54.6754 145.079 50.9767C145.079 45.4665 149.155 42.2962 157.948 41.013C160.628 40.5978 160.779 40.5223 160.628 39.692C160.553 39.2014 159.949 38.3711 159.307 37.8427C158.288 36.9746 157.873 36.8614 156.024 37.0124C154.74 37.0878 152.966 37.6162 151.457 38.3333L148.966 39.5033L147.381 36.5217L145.796 33.5779L148.022 32.4456C151.532 30.6718 154.325 29.9924 158.099 29.9924C162.213 29.9924 164.817 30.9737 166.742 33.2005C169.082 35.9556 169.346 37.4275 169.535 48.9387L169.686 59.2044H166.101C162.326 59.2044 162.062 59.0912 162.062 57.2796C162.062 56.336 161.949 56.336 159.383 57.9589C157.382 59.1666 156.778 59.3554 154.212 59.4686C151.91 59.5818 151.004 59.4686 149.796 58.9025ZM158.401 52.3732C160.439 51.3164 160.93 50.4861 160.93 48.1839V45.9571L159.534 46.2213C157.382 46.5987 154.552 47.8819 153.948 48.7877C152.136 51.3541 155.344 53.9206 158.401 52.3732Z"
    />
    <path
      d="M205.691 58.978C201.88 57.808 198.936 55.0529 197.464 51.3164C196.784 49.5803 196.633 48.4481 196.596 44.8626C196.596 40.862 196.671 40.3337 197.69 38.1824C198.936 35.465 201.955 32.3702 204.408 31.2757C208.635 29.4641 213.353 29.4263 216.825 31.2002C220.109 32.8608 220.109 32.8608 215.768 38.4088C215.693 38.5221 214.9 38.2201 213.995 37.7672C211.994 36.7482 211.051 36.7105 209.088 37.6917C206.635 38.8995 205.691 40.6356 205.54 44.2588C205.427 46.8629 205.54 47.58 206.295 49.0142C208.031 52.3732 211.504 53.3922 214.863 51.4674C215.768 50.939 216.561 50.5616 216.599 50.5994C217.089 51.1277 219.807 55.9209 219.807 56.1851C219.807 56.789 217.052 58.3364 214.9 58.978C212.409 59.7328 208.145 59.7328 205.691 58.978Z"
    />
    <path
      d="M176.027 44.8626V30.5208H179.574C183.499 30.5208 183.575 30.5586 183.575 33.4647C183.575 34.1063 183.688 34.6724 183.839 34.6724C183.952 34.6724 184.669 33.9931 185.386 33.1628C187.538 30.6341 190.444 29.5018 193.576 29.9547C195.539 30.2567 195.501 30.1057 194.671 34.6724L194.067 38.0314L192.255 37.805C189.953 37.5408 188.821 37.805 187.349 39.0504C184.896 41.1262 184.707 42.032 184.707 51.09V59.2044H180.367H176.027V44.8626Z"
    />
    <path
      d="M224.336 39.0126V18.8209H228.676H233.054L232.941 25.9918C232.865 29.9547 232.865 33.1627 232.865 33.1627C232.903 33.1627 233.809 32.5966 234.866 31.8795C236.639 30.6718 239.47 29.766 241.47 29.766C243.508 29.766 246.15 30.936 247.471 32.3701C249.774 34.8988 250 36.4085 250 48.5235V59.2044H245.66H241.319V49.5803C241.319 39.4278 241.168 38.4843 239.546 37.7294C238.074 37.0501 236.979 37.2388 235.054 38.5598L233.205 39.7675L233.092 49.5048L233.016 59.2044H228.676H224.336V39.0126Z"
    />
    <path
      d="M39.9323 0C51.1227 0 60.6504 3.90684 68.5078 11.7168C72.2684 15.4786 75.1276 19.778 77.0804 24.6112C79.0319 29.4457 80.0108 34.5765 80.0108 40.006C80.0108 45.4831 79.0444 50.6151 77.1179 55.3996C75.1888 60.1853 72.3422 64.4135 68.5816 68.0803C64.6773 71.9371 60.2478 74.8913 55.2933 76.9391C50.3414 78.9869 45.2206 80.0108 39.9348 80.0108C34.649 80.0108 29.5882 79.0007 24.7537 76.9741C19.9205 74.9513 15.5861 72.0221 11.7518 68.189C7.91744 64.356 5.00075 60.0328 3.00045 55.2221C1.00015 50.4114 0 45.3406 0 40.006C0 34.719 1.0114 29.6357 3.03546 24.7537C5.05951 19.8717 8.00121 15.5023 11.858 11.6443C19.4779 3.88309 28.8356 0 39.9323 0ZM40.0773 7.21609C30.9334 7.21609 23.241 10.4078 17.0013 16.7888C13.8571 19.9805 11.4405 23.5636 9.75022 27.5404C8.05747 31.5173 7.21359 35.6729 7.21359 40.0073C7.21359 44.2942 8.05747 48.4261 9.75022 52.4004C11.4417 56.3798 13.8571 59.9278 17.0013 63.047C20.1443 66.1675 23.6911 68.5466 27.6467 70.1918C31.5985 71.8346 35.7429 72.656 40.0773 72.656C44.3629 72.656 48.5161 71.8246 52.5454 70.1568C56.5698 68.4878 60.1978 66.085 63.4383 62.942C69.6768 56.8461 72.7947 49.2024 72.7947 40.0085C72.7947 35.5791 71.9846 31.3885 70.3656 27.4354C68.7491 23.4823 66.39 19.9593 63.2971 16.8613C56.8636 10.4316 49.1262 7.21609 40.0773 7.21609ZM39.576 33.3638L34.2164 36.1505C33.6438 34.9615 32.9425 34.1264 32.1098 33.6501C31.276 33.175 30.5021 32.9362 29.787 32.9362C26.2165 32.9362 24.4287 35.2928 24.4287 40.0085C24.4287 42.1514 24.8813 43.8641 25.7851 45.1506C26.6903 46.437 28.0242 47.0809 29.787 47.0809C32.1211 47.0809 33.7638 45.9369 34.7177 43.6516L39.646 46.152C38.5983 48.106 37.1456 49.6412 35.2878 50.7602C33.4325 51.8803 31.3835 52.4392 29.1444 52.4392C25.5726 52.4392 22.6897 51.3453 20.4993 49.1524C18.309 46.9621 17.2138 43.9141 17.2138 40.0098C17.2138 36.1992 18.3215 33.1763 20.5356 30.9372C22.7497 28.6993 25.5476 27.5792 28.9306 27.5792C33.8851 27.5767 37.4319 29.5057 39.576 33.3638ZM62.6507 33.3638L57.3637 36.1505C56.7923 34.9615 56.0885 34.1264 55.2558 33.6501C54.4207 33.175 53.6218 32.9362 52.863 32.9362C49.2912 32.9362 47.5034 35.2928 47.5034 40.0085C47.5034 42.1514 47.9572 43.8641 48.8611 45.1506C49.765 46.437 51.0977 47.0809 52.863 47.0809C55.1946 47.0809 56.8386 45.9369 57.79 43.6516L62.7907 46.152C61.6968 48.106 60.2191 49.6412 58.3638 50.7602C56.506 51.8803 54.482 52.4392 52.2916 52.4392C48.6711 52.4392 45.7794 51.3453 43.6141 49.1524C41.4438 46.9621 40.3611 43.9141 40.3611 40.0098C40.3611 36.1992 41.4675 33.1763 43.6841 30.9372C45.8969 28.6993 48.6948 27.5792 52.0766 27.5792C57.0299 27.5767 60.5566 29.5057 62.6507 33.3638Z"
    />
  </g>
</svg>
