<svg
  xmlns="http://www.w3.org/2000/svg"
  preserveAspectRatio="xMidyMid meet"
  viewBox="0 0 250 41">
  <g id="vocabulary" fill="currentColor">
    <path
      d="M3.69722 15.8435C3.39831 15.0967 3.12439 14.5116 2.87546 14.0882C2.65152 13.6404 2.40258 13.3045 2.12866 13.0805C1.85474 12.8566 1.54357 12.7196 1.19517 12.6696C0.871751 12.5951 0.473362 12.5454 0 12.5204V11.2135H9.89504V12.5204C9.39717 12.5449 8.98653 12.5697 8.66312 12.5947C8.3397 12.6196 8.07828 12.6819 7.87884 12.7814C7.70488 12.8563 7.58041 12.9808 7.50544 13.1548C7.43096 13.3042 7.39371 13.5284 7.39371 13.8273C7.39371 14.2502 7.44345 14.6483 7.54293 15.0217L7.91632 16.1419L11.8745 26.9705H12.0237L15.4218 18.9424C15.9446 17.6978 16.318 16.702 16.542 15.9552C16.7659 15.2084 16.8779 14.5489 16.8779 13.9765C16.8779 13.4042 16.7284 13.0183 16.4295 12.8188C16.1306 12.6199 15.4835 12.5204 14.4883 12.5204V11.2135H21.9187V12.5204C21.5203 12.5204 21.1594 12.6199 20.836 12.8188C20.5126 13.0183 20.2262 13.2672 19.9768 13.5656C19.7778 13.8396 19.5664 14.213 19.3424 14.6858C19.143 15.1342 18.9313 15.6071 18.7074 16.1045C18.5084 16.6028 18.3217 17.1009 18.1473 17.5988C17.9733 18.0716 17.8116 18.4573 17.6621 18.7557L12.1729 31.4145H10.0075L3.69722 15.8435ZM33.9005 10.8401C35.3196 10.8401 36.664 11.1016 37.9337 11.6244C39.2028 12.1223 40.3103 12.8191 41.256 13.7149C42.2273 14.6116 42.9868 15.6823 43.5346 16.927C44.107 18.1461 44.3932 19.4903 44.3932 20.9594C44.3932 22.4774 44.107 23.8716 43.5346 25.1417C42.9868 26.4109 42.2273 27.5061 41.256 28.4273C40.3103 29.3485 39.2028 30.0704 37.9337 30.5927C36.664 31.1156 35.3196 31.377 33.9005 31.377C32.5064 31.377 31.1748 31.1281 29.9056 30.6302C28.661 30.1074 27.5658 29.3853 26.62 28.4641C25.6738 27.5428 24.9267 26.4476 24.3789 25.1785C23.8315 23.8838 23.5579 22.4774 23.5579 20.9594C23.5579 19.4903 23.8315 18.1334 24.3789 16.8887C24.9267 15.6441 25.6735 14.5739 26.6193 13.6781C27.565 12.7814 28.6602 12.0843 29.9049 11.5869C31.1745 11.0891 32.5064 10.8401 33.9005 10.8401ZM33.9005 12.6321C32.9793 12.6321 32.133 12.8313 31.3617 13.2297C30.6149 13.6281 29.9676 14.2007 29.4198 14.9475C28.8969 15.6693 28.4863 16.5531 28.1878 17.5988C27.9139 18.619 27.777 19.7514 27.777 20.9961C27.777 22.2907 27.9139 23.4609 28.1878 24.5066C28.4868 25.5519 28.8974 26.4479 29.4198 27.1947C29.9676 27.9165 30.6149 28.4766 31.3617 28.8749C32.1085 29.2733 32.9548 29.4725 33.9005 29.4725C34.8463 29.4725 35.705 29.2733 36.4768 28.8749C37.2486 28.4766 37.9084 27.904 38.4563 27.1572C39.0036 26.4104 39.4268 25.5144 39.7257 24.4691C40.0246 23.4234 40.1741 22.2658 40.1741 20.9961C40.1741 19.7514 40.0246 18.619 39.7257 17.5988C39.4268 16.5781 39.0036 15.7068 38.4563 14.985C37.9084 14.2382 37.2486 13.6656 36.4768 13.2672C35.7055 12.8438 34.8468 12.6321 33.9005 12.6321ZM49.0717 20.7727C49.0717 20.0754 49.3081 19.4903 49.781 19.0174C50.2543 18.5445 50.8269 18.3081 51.4987 18.3081C52.196 18.3081 52.7811 18.5445 53.254 19.0174C53.7269 19.4903 53.9633 20.0754 53.9633 20.7727C53.9633 21.4445 53.7269 22.0168 53.254 22.4897C52.7811 22.9631 52.196 23.1997 51.4987 23.1997C50.8269 23.1997 50.2543 22.9631 49.781 22.4897C49.3081 22.0168 49.0717 21.4445 49.0717 20.7727ZM75.7387 27.904C74.842 28.9997 73.6843 29.8587 72.2657 30.481C70.8466 31.0783 69.3155 31.377 67.6724 31.377C66.3533 31.377 65.1336 31.1406 64.0134 30.6677C62.9182 30.1698 61.9725 29.4853 61.1762 28.614C60.3794 27.7173 59.7571 26.6466 59.3092 25.4019C58.8858 24.1572 58.6741 22.7759 58.6741 21.2578C58.6741 19.6647 58.9231 18.2334 59.4209 16.9637C59.9188 15.6691 60.6156 14.5739 61.5114 13.6781C62.4326 12.7569 63.5278 12.0598 64.797 11.5869C66.0916 11.0891 67.5107 10.8401 69.0543 10.8401C70.025 10.8401 70.9088 10.9271 71.7056 11.1011C72.5019 11.2505 73.1864 11.4747 73.7593 11.7736C74.3571 12.0475 74.8177 12.396 75.1411 12.8188C75.4645 13.2172 75.6263 13.6529 75.6263 14.1257C75.6263 14.6236 75.4645 15.0095 75.1411 15.2834C74.8177 15.5573 74.3693 15.6943 73.796 15.6943C73.3481 15.6943 72.975 15.6071 72.6766 15.4326C72.3776 15.2337 71.9918 14.8105 71.5189 14.1632C71.021 13.5909 70.5356 13.1925 70.0628 12.9681C69.6144 12.7191 69.0293 12.5947 68.3075 12.5947C66.54 12.5947 65.1959 13.2792 64.2751 14.6483C63.3784 16.0175 62.93 18.0339 62.93 20.6977C62.93 23.5604 63.4281 25.7385 64.4243 27.2321C65.445 28.7007 66.9261 29.435 68.8676 29.435C69.9133 29.435 70.8965 29.2358 71.8173 28.8375C72.7385 28.4146 73.672 27.7425 74.6178 26.8213L75.7387 27.904ZM89.8587 19.9509C88.4396 20.4987 87.2322 21.0338 86.2365 21.5562C85.2657 22.0791 84.4817 22.6019 83.8844 23.1248C83.2865 23.6476 82.8509 24.1705 82.5775 24.6933C82.3285 25.2157 82.2041 25.7508 82.2041 26.2986C82.2041 27.1199 82.4778 27.792 83.0251 28.3148C83.573 28.8377 84.295 29.0991 85.1913 29.0991C85.8381 29.0991 86.4354 28.9374 86.9833 28.614C87.5556 28.2906 88.0535 27.855 88.4769 27.3071C88.9002 26.7343 89.2364 26.0745 89.4853 25.3277C89.7343 24.5559 89.8587 23.7468 89.8587 22.9006V19.9509ZM89.8587 18.3456V16.8145C89.8587 13.7773 88.5641 12.2587 85.9748 12.2587C85.5519 12.2587 85.191 12.2962 84.8921 12.3712C84.5932 12.4457 84.3443 12.5702 84.1453 12.7446C83.9464 12.9186 83.7597 13.1675 83.5852 13.4914C83.4358 13.8148 83.2863 14.213 83.1368 14.6858C82.8634 15.4076 82.5897 15.893 82.3158 16.1419C82.0669 16.3664 81.6935 16.4786 81.1956 16.4786C79.951 16.4786 79.3286 15.8563 79.3286 14.6116C79.3286 13.4164 79.9632 12.4952 81.2324 11.8479C82.5025 11.176 84.3075 10.8401 86.6474 10.8401C89.1367 10.8401 90.9039 11.2883 91.9492 12.1845C92.9949 13.0558 93.5177 14.5494 93.5177 16.6653V25.0292C93.5177 27.867 94.0778 29.2858 95.198 29.2858C95.5464 29.2858 95.8826 29.2486 96.2065 29.1741C96.5299 29.0741 96.8036 28.8375 97.0275 28.4641L97.5501 29.3608C97.2512 29.9331 96.7036 30.4183 95.9073 30.8162C95.111 31.1901 94.2773 31.377 93.406 31.377C92.3103 31.377 91.4888 31.0283 90.9414 30.331C90.4186 29.6342 90.1572 28.651 90.1572 27.3814H89.9705C89.3236 28.6015 88.4274 29.5725 87.2817 30.2943C86.137 30.9911 84.8676 31.3395 83.4735 31.3395C81.9054 31.3395 80.673 30.9411 79.7763 30.1443C78.8805 29.3481 78.4326 28.2779 78.4326 26.9337C78.4326 26.3359 78.5321 25.7633 78.731 25.2159C78.955 24.6681 79.3036 24.1452 79.777 23.6474C80.2499 23.1495 80.8722 22.6641 81.644 22.1913C82.4153 21.6934 83.361 21.1955 84.4812 20.6977L89.8587 18.3456ZM104.596 23.1997C104.596 24.1455 104.733 25.0167 105.007 25.8135C105.28 26.5848 105.654 27.2569 106.127 27.8297C106.625 28.3771 107.21 28.8127 107.882 29.1366C108.579 29.46 109.326 29.6217 110.122 29.6217C110.993 29.6217 111.777 29.4225 112.474 29.0242C113.197 28.6263 113.807 28.0662 114.305 27.3439C114.827 26.5971 115.226 25.7136 115.499 24.6933C115.798 23.6476 115.947 22.4899 115.947 21.2203C115.947 19.9511 115.798 18.7937 115.499 17.748C115.2 16.6773 114.789 15.7685 114.267 15.0217C113.744 14.2504 113.11 13.6531 112.363 13.2297C111.641 12.8063 110.844 12.5947 109.973 12.5947C108.952 12.5947 108.044 12.8436 107.247 13.3415C106.451 13.8148 105.841 14.4871 105.417 15.3584C104.87 16.4536 104.596 17.9594 104.596 19.8759V23.1997ZM104.521 13.8648H104.67C105.467 12.8191 106.338 12.0596 107.284 11.5862C108.255 11.0888 109.376 10.8401 110.645 10.8401C111.989 10.8401 113.234 11.1016 114.379 11.6244C115.549 12.1468 116.557 12.8686 117.403 13.7898C118.275 14.7111 118.947 15.8063 119.42 17.0754C119.917 18.3201 120.166 19.6645 120.166 21.1086C120.166 22.5772 119.917 23.9463 119.42 25.2159C118.922 26.4606 118.237 27.5435 117.366 28.4648C116.52 29.3855 115.512 30.1074 114.342 30.6302C113.172 31.1531 111.902 31.4145 110.533 31.4145C109.114 31.4145 107.782 31.1531 106.537 30.6302C105.318 30.1074 104.31 29.3978 103.513 28.5015L101.758 31.0036H100.936V8.4498C100.936 5.93549 100.775 4.32968 100.451 3.63238C100.377 3.45842 100.29 3.32171 100.19 3.22223C100.09 3.09776 99.9407 2.99804 99.7413 2.92307C99.5423 2.8236 99.2686 2.73662 98.9202 2.66213C98.5718 2.58716 98.0989 2.51243 97.5016 2.43795V1.50445L104.521 0.0108643V13.8648ZM124.845 20.7727C124.845 20.0754 125.082 19.4903 125.555 19.0174C126.028 18.5445 126.6 18.3081 127.272 18.3081C127.969 18.3081 128.554 18.5445 129.027 19.0174C129.5 19.4903 129.737 20.0754 129.737 20.7727C129.737 21.4445 129.5 22.0168 129.027 22.4897C128.554 22.9631 127.969 23.1997 127.272 23.1997C126.6 23.1997 126.028 22.9631 125.555 22.4897C125.082 22.0168 124.845 21.4445 124.845 20.7727ZM149.906 17.1879C149.906 16.1672 149.881 15.3706 149.832 14.7983C149.782 14.2005 149.644 13.7521 149.42 13.4532C149.221 13.1298 148.91 12.9183 148.487 12.8188C148.089 12.6944 147.529 12.5949 146.807 12.5204V11.2135H153.566V22.6764C153.566 24.0955 153.578 25.2532 153.602 26.1494C153.652 27.0457 153.715 27.7178 153.789 28.1656C153.839 28.489 153.914 28.7505 154.013 28.9499C154.138 29.1239 154.312 29.2733 154.536 29.3983C154.76 29.4978 155.047 29.5722 155.395 29.6217C155.769 29.6467 156.241 29.6592 156.814 29.6592V30.9661L150.653 31.4145L150.242 26.9337H150.093C149.147 28.4773 148.052 29.6097 146.807 30.331C145.587 31.0283 144.305 31.377 142.961 31.377C141.915 31.377 140.895 31.1778 139.899 30.7794C138.928 30.381 138.194 29.8459 137.696 29.1741C137.273 28.6263 136.962 27.8667 136.763 26.8955C136.588 25.9252 136.501 24.6683 136.501 23.1248V17.1879C136.501 16.1672 136.476 15.3706 136.426 14.7983C136.377 14.2005 136.24 13.7521 136.016 13.4532C135.817 13.1298 135.505 12.9183 135.082 12.8188C134.684 12.6944 134.124 12.5949 133.402 12.5204V11.2135H140.16V21.407C140.16 24.1202 140.471 26.087 141.094 27.3071C141.741 28.5268 142.762 29.1366 144.156 29.1366C146.346 29.1366 148.051 27.7053 149.272 24.8425C149.396 24.5436 149.496 24.2697 149.57 24.0208C149.644 23.7718 149.707 23.4982 149.757 23.1997C149.807 22.9008 149.844 22.5647 149.868 22.1913C149.893 21.8179 149.906 21.3697 149.906 20.8469V17.1879ZM160.507 20.7727C160.507 20.0754 160.744 19.4903 161.217 19.0174C161.69 18.5445 162.263 18.3081 162.934 18.3081C163.632 18.3081 164.217 18.5445 164.69 19.0174C165.163 19.4903 165.399 20.0754 165.399 20.7727C165.399 21.4445 165.163 22.0168 164.69 22.4897C164.217 22.9631 163.632 23.1997 162.934 23.1997C162.263 23.1997 161.69 22.9631 161.217 22.4897C160.744 22.0168 160.507 21.4445 160.507 20.7727ZM173.094 25.1785C173.094 26.1242 173.131 26.8835 173.206 27.4563C173.281 28.0287 173.43 28.4768 173.654 28.8007C173.903 29.1241 174.239 29.3481 174.663 29.4725C175.111 29.597 175.695 29.6717 176.417 29.6967V31.0036H166.112V29.6967C166.858 29.6717 167.456 29.597 167.904 29.4725C168.352 29.3231 168.7 29.0991 168.949 28.8007C169.223 28.5018 169.397 28.0909 169.472 27.5681C169.572 27.0207 169.622 26.3114 169.622 25.4401V9.34654C169.622 8.00241 169.597 6.88221 169.547 5.98596C169.522 5.06472 169.473 4.44239 169.398 4.11897C169.273 3.54614 168.974 3.16024 168.501 2.96129C168.053 2.76234 167.232 2.66287 166.037 2.66287V1.39273L173.094 0.0108643V25.1785ZM190.428 19.9509C189.009 20.4987 187.802 21.0338 186.806 21.5562C185.835 22.0791 185.051 22.6019 184.454 23.1248C183.856 23.6476 183.42 24.1705 183.146 24.6933C182.897 25.2157 182.773 25.7508 182.773 26.2986C182.773 27.1199 183.047 27.792 183.595 28.3148C184.142 28.8377 184.864 29.0991 185.76 29.0991C186.407 29.0991 187.005 28.9374 187.553 28.614C188.125 28.2906 188.623 27.855 189.047 27.3071C189.469 26.7343 189.805 26.0745 190.054 25.3277C190.303 24.5559 190.428 23.7468 190.428 22.9006V19.9509ZM190.428 18.3456V16.8145C190.428 13.7773 189.133 12.2587 186.544 12.2587C186.121 12.2587 185.76 12.2962 185.462 12.3712C185.163 12.4457 184.914 12.5702 184.715 12.7446C184.516 12.9186 184.329 13.1675 184.155 13.4914C184.005 13.8148 183.856 14.213 183.706 14.6858C183.433 15.4076 183.159 15.893 182.885 16.1419C182.637 16.3664 182.263 16.4786 181.765 16.4786C180.521 16.4786 179.898 15.8563 179.898 14.6116C179.898 13.4164 180.533 12.4952 181.802 11.8479C183.072 11.176 184.876 10.8401 187.216 10.8401C189.706 10.8401 191.473 11.2883 192.519 12.1845C193.565 13.0558 194.087 14.5494 194.087 16.6653V25.0292C194.087 27.867 194.647 29.2858 195.768 29.2858C196.116 29.2858 196.451 29.2486 196.775 29.1741C197.099 29.0741 197.373 28.8375 197.597 28.4641L198.12 29.3608C197.821 29.9331 197.273 30.4183 196.477 30.8162C195.68 31.1901 194.846 31.377 193.975 31.377C192.88 31.377 192.058 31.0283 191.51 30.331C190.988 29.6342 190.727 28.651 190.727 27.3814H190.54C189.893 28.6015 188.997 29.5725 187.851 30.2943C186.706 30.9911 185.437 31.3395 184.042 31.3395C182.474 31.3395 181.242 30.9411 180.346 30.1443C179.45 29.3481 179.002 28.2779 179.002 26.9337C179.002 26.3359 179.101 25.7633 179.301 25.2159C179.525 24.6681 179.873 24.1452 180.346 23.6474C180.819 23.1495 181.441 22.6641 182.213 22.1913C182.985 21.6934 183.931 21.1955 185.051 20.6977L190.428 18.3456ZM206.398 25.0667C206.398 26.087 206.422 26.896 206.472 27.4938C206.522 28.0912 206.646 28.5518 206.845 28.8757C207.07 29.1741 207.381 29.3731 207.779 29.4725C208.177 29.572 208.737 29.6467 209.459 29.6967V31.0036H199.527V29.6967C200.249 29.6717 200.822 29.6095 201.244 29.51C201.668 29.3855 201.991 29.1739 202.215 28.8749C202.439 28.576 202.576 28.1529 202.626 27.6055C202.701 27.0332 202.738 26.2739 202.738 25.3277V20.9601C202.738 19.2671 202.713 17.9477 202.664 17.0019C202.639 16.0562 202.514 15.3591 202.29 14.9108C202.091 14.4629 201.767 14.2014 201.319 14.1265C200.872 14.027 200.249 13.9773 199.452 13.9773V12.6704L205.987 11.2518L206.509 15.8817H206.659C206.982 15.1349 207.38 14.4504 207.854 13.828C208.352 13.2057 208.887 12.6829 209.459 12.2595C210.032 11.8116 210.63 11.4632 211.252 11.2143C211.874 10.9653 212.509 10.8409 213.156 10.8409C213.952 10.8409 214.575 11.0401 215.023 11.4384C215.496 11.8118 215.733 12.322 215.733 12.9688C215.733 13.5666 215.546 14.0395 215.173 14.3874C214.799 14.7113 214.264 14.8733 213.567 14.8733C213.169 14.8733 212.833 14.8235 212.559 14.7241C212.285 14.6246 212.036 14.5251 211.812 14.4256C211.613 14.3012 211.413 14.1889 211.214 14.089C211.04 13.9895 210.841 13.9398 210.617 13.9398C209.945 13.9398 209.273 14.3754 208.601 15.2467C207.928 16.0929 207.405 17.1759 207.032 18.4955C206.833 19.2173 206.671 20.0388 206.547 20.9601C206.447 21.8559 206.398 22.8016 206.398 23.7973V25.0667ZM218.778 20.7727C218.778 20.0754 219.014 19.4903 219.487 19.0174C219.961 18.5445 220.533 18.3081 221.205 18.3081C221.902 18.3081 222.487 18.5445 222.96 19.0174C223.433 19.4903 223.67 20.0754 223.67 20.7727C223.67 21.4445 223.433 22.0168 222.96 22.4897C222.487 22.9631 221.902 23.1997 221.205 23.1997C220.533 23.1997 219.961 22.9631 219.487 22.4897C219.014 22.0168 218.778 21.4445 218.778 20.7727ZM237.043 36.8662C235.898 39.43 234.118 40.7119 231.704 40.7119C230.135 40.7119 229.351 40.1269 229.351 38.9567C229.351 38.3344 229.563 37.8737 229.986 37.5748C230.434 37.3014 231.243 37.0649 232.413 36.8655C232.936 36.791 233.384 36.6791 233.757 36.5296C234.131 36.4051 234.467 36.2309 234.766 36.007C235.065 35.808 235.326 35.5466 235.549 35.2227C235.798 34.8993 236.035 34.5011 236.259 34.0283L237.566 31.4145L230.397 15.8435C230.073 15.1467 229.787 14.5991 229.538 14.2007C229.314 13.7773 229.065 13.4537 228.791 13.2297C228.542 12.9808 228.256 12.8191 227.932 12.7446C227.609 12.6446 227.198 12.5699 226.7 12.5204V11.2135H236.595V12.5204C234.927 12.5204 234.093 12.9311 234.093 13.7523C234.093 14.0758 234.193 14.5861 234.392 15.2834C234.591 15.9802 234.84 16.6898 235.139 17.4121L239.246 27.3439H239.433L242.83 18.9424C243.154 18.1211 243.415 17.4491 243.615 16.9262C243.839 16.4034 244 15.9802 244.1 15.6568C244.225 15.3084 244.3 15.0222 244.324 14.7983C244.374 14.5739 244.399 14.3622 244.399 14.1632C244.399 13.5164 244.212 13.0808 243.839 12.8563C243.491 12.6324 242.806 12.5204 241.785 12.5204V11.2135H250V12.5204C249.527 12.5204 249.129 12.5827 248.805 12.7071C248.481 12.8316 248.146 13.1178 247.797 13.5656C247.474 13.989 247.1 14.6113 246.677 15.4326C246.279 16.2544 245.781 17.3621 245.183 18.7557L237.043 36.8662Z"
    />
  </g>
</svg>
