<svg viewBox="0 0 30 30" xmlns="http://www.w3.org/2000/svg"><path d="M15 1.875c-8.285 0-15 5.455-15 12.188 0 2.906 1.254 5.566 3.34 7.658-.733 2.953-3.182 5.584-3.211 5.613a.466.466 0 00-.088.51c.076.175.24.281.428.281 3.885 0 6.797-1.863 8.238-3.012A17.87 17.87 0 0015 26.25c8.285 0 15-5.455 15-12.188C30 7.33 23.285 1.876 15 1.876zM7.512 17.813h-.715a.47.47 0 01-.469-.47v-.937a.47.47 0 01.469-.468h.72c.352 0 .61-.206.61-.387 0-.076-.047-.158-.123-.223L6.72 14.227a2.166 2.166 0 01-.78-1.647c0-1.248 1.114-2.262 2.485-2.262h.715a.47.47 0 01.468.47v.937a.47.47 0 01-.468.468H8.42c-.352 0-.61.205-.61.387 0 .076.047.158.124.223l1.283 1.101c.498.422.78 1.026.78 1.647.005 1.248-1.114 2.261-2.485 2.261zm11.238-.47a.47.47 0 01-.469.47h-.937a.47.47 0 01-.469-.47v-3.995l-1.453 3.27a.468.468 0 01-.838 0l-1.459-3.27v3.996a.47.47 0 01-.469.468h-.937a.47.47 0 01-.469-.468V11.25a.94.94 0 01.938-.938h.937c.357 0 .68.2.838.516L15 12.902l1.037-2.074a.94.94 0 01.838-.515h.938a.94.94 0 01.937.937v6.094zm2.83.47h-.72a.47.47 0 01-.47-.47v-.937a.47.47 0 01.47-.468h.72c.352 0 .61-.206.61-.387 0-.076-.047-.158-.124-.223l-1.283-1.101a2.166 2.166 0 01-.78-1.647c0-1.248 1.114-2.262 2.485-2.262h.715a.47.47 0 01.469.47v.937a.47.47 0 01-.469.468h-.72c-.352 0-.61.205-.61.387 0 .076.047.158.123.223l1.283 1.101c.498.422.78 1.026.78 1.647.005 1.248-1.108 2.261-2.479 2.261z" fill="currentColor"/></svg>
